<?xml version="1.0" encoding="utf-8"?>
<!-- Generator: Adobe Illustrator 27.1.1, SVG Export Plug-In . SVG Version: 6.00 Build 0)  -->
<svg version="1.1" id="Capa_1" xmlns="http://www.w3.org/2000/svg" xmlns:xlink="http://www.w3.org/1999/xlink" x="0px" y="0px"
	 viewBox="0 0 509 507.6" style="enable-background:new 0 0 509 507.6;" xml:space="preserve">
<style type="text/css">
	.st0{fill:#E6E6E6;}
	.st1{fill:#ECECEC;}
	.st2{fill:#1A2E35;}
	.st3{fill:#14015B;}
	.st4{fill:#FFFFFF;}
	.st5{fill:#007CFF;}
	.st6{opacity:0.3;fill:#007CFF;}
	.st7{fill:#F88C7E;}
	.st8{opacity:0.3;fill:#FFFFFF;}
	.st9{fill:#E27169;}
	.st10{opacity:0.2;fill:#E27169;}
</style>
<g>
	<g>
		<path class="st0" d="M322.1,109.5l0.3-9.6l-5.9-1.9c-0.2-3.3-0.8-6.5-1.6-9.7l5-3.7l-3.4-9.1l-6.2,0.5c-1.5-2.9-3.2-5.7-5.2-8.3
			l3.2-5.4l-6.6-7l-5.5,2.8c-2.5-2.1-5.1-4-8-5.7l0.9-6.2l-8.8-4l-4,4.7c-3.1-1-6.3-1.7-9.5-2.2l-1.5-6l-9.7-0.3l-1.9,5.9
			c-3.3,0.3-6.5,0.8-9.7,1.6l-3.7-5l-9.1,3.4l0.5,6.2c-2.9,1.5-5.7,3.2-8.3,5.2l-5.3-3.2l-7.1,6.6l2.8,5.6c-2.1,2.5-4,5.1-5.7,8
			l-6.2-0.9l-4,8.8l4.8,4c-1,3.1-1.8,6.3-2.2,9.5l-6.1,1.5l-0.3,9.6l5.9,1.9c0.2,3.3,0.8,6.5,1.6,9.7l-5,3.7l3.4,9.1l6.2-0.5
			c1.5,2.9,3.2,5.7,5.2,8.3l-3.2,5.4l6.6,7.1l5.5-2.8c2.5,2.1,5.1,4,8,5.7l-0.9,6.2l8.8,4l4.1-4.7c3.1,1,6.3,1.7,9.5,2.2l1.5,6
			l9.7,0.3l1.9-5.9c3.3-0.3,6.5-0.8,9.7-1.6l3.7,5l9.1-3.4l-0.5-6.2c2.9-1.5,5.7-3.2,8.3-5.2l5.3,3.2l7.1-6.6l-2.8-5.6
			c2.1-2.5,4-5.1,5.7-8l6.2,0.9l4-8.8l-4.8-4c1-3.1,1.8-6.3,2.2-9.5L322.1,109.5z M257,140.8c-21.1-0.7-37.6-18.4-36.9-39.5
			c0.7-21.1,18.4-37.7,39.5-36.9c21.1,0.7,37.6,18.4,36.9,39.6C295.8,124.9,278.1,141.5,257,140.8z"/>
	</g>
	<g>
		<rect x="18.7" y="405.7" class="st1" width="471.6" height="0.4"/>
		<rect x="422.6" y="432.1" class="st1" width="20.4" height="0.4"/>
		<rect x="311.6" y="423.6" class="st1" width="32.2" height="0.4"/>
		<rect x="392.8" y="416.9" class="st1" width="42" height="0.4"/>
		<rect x="171.4" y="425.1" class="st1" width="10.5" height="0.4"/>
		<rect x="126.8" y="425.1" class="st1" width="36.2" height="0.4"/>
		<rect x="81.2" y="418.2" class="st1" width="26.1" height="0.4"/>
	</g>
	<g>
		<g>
			<path class="st0" d="M221.2,210.4l0.5-14.8l-9.1-3c-0.4-5-1.2-10-2.4-14.8l7.7-5.7l-5.2-13.9l-9.5,0.8c-2.3-4.5-4.9-8.7-7.9-12.7
				l4.9-8.2l-10.1-10.8l-8.5,4.3c-3.8-3.2-7.9-6.2-12.2-8.8l1.4-9.4l-13.5-6.1l-6.2,7.2c-4.7-1.5-9.6-2.7-14.6-3.4l-2.3-9.2
				l-14.8-0.5l-2.9,9.1c-5.1,0.4-10,1.2-14.8,2.4l-5.7-7.6l-13.9,5.2L83,120c-4.5,2.3-8.7,5-12.7,7.9L62,123l-10.8,10.1l4.3,8.5
				c-3.2,3.8-6.2,7.9-8.8,12.2l-9.4-1.4l-6.2,13.5l7.3,6.2c-1.5,4.7-2.7,9.6-3.4,14.6l-9.3,2.3l-0.5,14.8l9.1,3
				c0.4,5.1,1.2,10,2.4,14.8l-7.7,5.7l5.2,13.9l9.5-0.8c2.3,4.5,4.9,8.7,7.9,12.7l-4.9,8.2l10.1,10.8l8.5-4.3
				c3.8,3.2,7.9,6.2,12.2,8.8l-1.4,9.4l13.5,6.1l6.2-7.2c4.7,1.5,9.6,2.7,14.6,3.4l2.3,9.2l14.8,0.5l2.9-9.1
				c5.1-0.4,10-1.2,14.8-2.4l5.7,7.6l13.9-5.2l-0.7-9.5c4.5-2.3,8.7-5,12.7-7.9l8.2,4.9l10.8-10.1l-4.3-8.5
				c3.2-3.8,6.2-7.9,8.8-12.2l9.4,1.4l6.2-13.5l-7.3-6.2c1.5-4.7,2.7-9.6,3.4-14.6L221.2,210.4z M121.5,258.2
				C89.2,257.1,63.9,230,65,197.7c1.1-32.3,28.2-57.6,60.5-56.5c32.3,1.1,57.6,28.2,56.5,60.5C180.9,234,153.8,259.3,121.5,258.2z"
				/>
		</g>
		<g>
			<path class="st0" d="M473.7,161.6l3.7-3.5l-1.5-2.9c1.1-1.3,2.1-2.7,3-4.2l3.3,0.5l2.1-4.7l-2.5-2.1c0.5-1.6,0.9-3.3,1.2-5
				l3.2-0.8l0.2-5.1l-3.1-1c-0.1-1.7-0.4-3.4-0.8-5.1l2.6-2l-1.8-4.8l-3.3,0.3c-0.8-1.5-1.7-3-2.7-4.4l1.7-2.8l-3.5-3.7l-2.9,1.5
				c-1.3-1.1-2.7-2.1-4.2-3l0.5-3.3l-4.6-2.1l-2.1,2.5c-1.7-0.5-3.3-0.9-5-1.2l-0.8-3.2l-5.1-0.2l-1,3.1c-1.7,0.1-3.4,0.4-5.1,0.8
				l-2-2.6l-4.8,1.8l0.3,3.3c-1.5,0.8-3,1.7-4.4,2.7l-2.8-1.7l-3.7,3.5l1.5,2.9c-1.1,1.3-2.1,2.7-3,4.2l-3.3-0.5l-2.1,4.7l2.5,2.1
				c-0.5,1.6-0.9,3.3-1.2,5l-3.2,0.8l-0.2,5.1l3.1,1c0.1,1.7,0.4,3.4,0.8,5.1l-2.6,2l1.8,4.8l3.3-0.2c0.8,1.5,1.7,3,2.7,4.4
				l-1.7,2.8l3.5,3.7l2.9-1.5c1.3,1.1,2.7,2.1,4.2,3l-0.5,3.2l4.6,2.1l2.1-2.5c1.7,0.5,3.3,0.9,5,1.2l0.8,3.2l5.1,0.2l1-3.1
				c1.7-0.1,3.4-0.4,5.1-0.8l2,2.6l4.8-1.8l-0.3-3.3c1.5-0.8,3-1.7,4.4-2.7L473.7,161.6z M447.1,140.1c-2.7-2.9-2.6-7.5,0.4-10.3
				c2.9-2.7,7.5-2.6,10.3,0.3c2.7,2.9,2.6,7.5-0.4,10.3C454.5,143.2,449.9,143.1,447.1,140.1z"/>
		</g>
		<path class="st1" d="M337.9,313.1l-11.6-8c0,0,0,0,0,0c-1.1-4.2-2.7-8.3-4.7-12.1l3-11.7l-16.8-18l-11.9,2.2
			c-3.7-2.2-7.6-4-11.7-5.5c0,0,0,0,0,0l-7.2-12.1l-24.7-0.8l-8,11.6c0,0,0,0,0,0c-4.2,1.1-8.3,2.7-12.1,4.7l-11.7-3l-18,16.8
			l2.2,11.8c0,0,0,0,0,0c-2.2,3.7-4,7.7-5.5,11.8l-12.1,7.2l-0.8,24.7l11.6,8c1.1,4.2,2.7,8.3,4.7,12.1c0,0,0,0,0,0l-3,11.6l16.8,18
			l11.8-2.2c3.7,2.2,7.7,4.1,11.8,5.5c0,0,0,0,0,0l7.2,12.1l24.7,0.8l8-11.6c4.3-1.1,8.3-2.7,12.2-4.7c0,0,0,0,0,0l11.6,3l18-16.8
			l-2.2-11.8c2.2-3.7,4.1-7.7,5.5-11.8c0,0,0,0,0,0l12.1-7.2L337.9,313.1z M261,350.5c-15.3-0.5-27.3-13.4-26.8-28.7
			c0.5-15.3,13.3-27.3,28.7-26.8c15.3,0.5,27.3,13.3,26.8,28.7C289.2,339,276.3,351.1,261,350.5z"/>
		<path class="st1" d="M364.3,243C364.3,243,364.3,243,364.3,243l-19.5-0.7c-0.8,0-1.5-0.5-2-1.2l-5.2-8.8c-2.8-1-5.5-2.3-8.2-3.8
			l-8.4,1.5c-0.8,0.2-1.6-0.1-2.2-0.7l-13.3-14.2c-0.6-0.6-0.8-1.4-0.6-2.2l2.1-8.3c-1.3-2.6-2.4-5.4-3.2-8.4l-8.5-5.8
			c-0.7-0.5-1-1.2-1-2l0.7-19.4c0-0.8,0.5-1.5,1.2-2l8.8-5.2c1-2.9,2.3-5.6,3.8-8.1l-1.5-8.5c-0.1-0.8,0.1-1.6,0.7-2.2l14.2-13.3
			c0.6-0.6,1.4-0.8,2.2-0.6l8.3,2.1c2.7-1.3,5.5-2.4,8.4-3.2l5.8-8.4c0.5-0.7,1.2-1.1,2-1l19.4,0.7c0.8,0,1.5,0.5,2,1.2l5.2,8.8
			c2.8,1,5.5,2.3,8.1,3.8l8.5-1.6c0.8-0.1,1.6,0.1,2.2,0.7l13.3,14.2c0.6,0.6,0.8,1.4,0.6,2.2l-2.1,8.3c1.3,2.7,2.4,5.5,3.2,8.4
			l8.4,5.8c0.7,0.5,1,1.2,1,2l-0.7,19.4c0,0.8-0.5,1.5-1.2,2l-8.8,5.2c-1,2.9-2.3,5.6-3.8,8.1l1.5,8.5c0.1,0.8-0.1,1.6-0.7,2.2
			L391,231.9c-0.6,0.6-1.4,0.8-2.2,0.6l-8.3-2.1c-2.7,1.3-5.6,2.4-8.4,3.2l-5.8,8.4C365.8,242.6,365.1,243,364.3,243z M346.2,237.7
			l16.8,0.6l5.6-8.1c0.3-0.5,0.8-0.8,1.3-0.9c3.1-0.8,6.2-2,9.2-3.5c0,0,0,0,0,0c0.5-0.2,1.1-0.3,1.6-0.2l7.9,2L401,216l-1.5-8.1
			c-0.1-0.6,0-1.2,0.3-1.6c1.6-2.7,3-5.7,4.1-8.8c0.2-0.6,0.6-1,1.1-1.3l8.4-5l0.6-16.9l-8.1-5.6c-0.4-0.3-0.7-0.7-0.9-1.2
			c0-0.1,0-0.1-0.1-0.2c-0.8-3.1-2-6.1-3.5-9c-0.3-0.5-0.3-1.1-0.2-1.7l2-7.9l-11.5-12.3l-8.1,1.5c-0.6,0.1-1.1,0-1.6-0.3
			c-2.8-1.7-5.8-3.1-8.8-4.1c-0.2-0.1-0.3-0.1-0.5-0.2c-0.3-0.2-0.6-0.5-0.8-0.8l-5-8.5l-16.8-0.6l-5.6,8.1c-0.3,0.5-0.8,0.8-1.4,1
			c-3.1,0.9-6.1,2-9,3.5c-0.5,0.3-1.1,0.3-1.7,0.2l-7.9-2l-12.3,11.5l1.5,8.1c0.1,0.5,0,1-0.2,1.5c0,0.1-0.1,0.1-0.1,0.2
			c-1.6,2.7-3,5.7-4.1,8.8c-0.2,0.5-0.5,1-1,1.3l-8.5,5l-0.6,16.8l8.1,5.6c0.5,0.3,0.8,0.8,0.9,1.3c0.9,3.2,2,6.3,3.5,9.1
			c0.1,0.2,0.1,0.3,0.2,0.5c0.1,0.4,0.1,0.8,0,1.2l-2,7.9l11.5,12.3l8-1.5c0.6-0.1,1.1,0,1.6,0.3c2.9,1.7,5.8,3.1,8.9,4.1
			c0.5,0.2,1,0.5,1.3,1L346.2,237.7z M374.1,131.2L374.1,131.2L374.1,131.2z M356.6,216.4c-0.4,0-0.8,0-1.2,0
			c-19.6-0.7-35-17.2-34.3-36.7c0.7-19.6,17.2-35,36.7-34.3c19.6,0.7,35,17.2,34.3,36.7c-0.3,9.5-4.3,18.3-11.3,24.7
			C374.2,213,365.7,216.4,356.6,216.4z M356.6,150c-16.5,0-30.2,13.1-30.8,29.7c-0.6,17,12.8,31.3,29.7,31.8
			c8.2,0.3,16.1-2.7,22.1-8.3c6-5.6,9.5-13.2,9.8-21.4c0.6-17-12.8-31.3-29.7-31.8C357.3,150,357,150,356.6,150z"/>
	</g>
	<ellipse id="_x3C_Path_x3E__373_" class="st0" cx="259.3" cy="465.3" rx="217.7" ry="25.9"/>
	<path class="st2" d="M123.1,177.5c-0.1,0-0.1,0-0.2,0c-5.1-2-8.1-3.9-9.6-6.2c-1.1,0.2-2.4,0.1-3.6-0.5c-1.2-0.6-2.3-1.5-3.1-2.9
		c-0.8,0.6-1.7,0.7-2.7,0.4c-1.1-0.4-2.3-1.3-3.3-2.7c-0.6,0.5-1.3,0.5-1.7,0.5c-3.3-0.3-7.9-6.9-8.2-14c0-0.3,0.2-0.6,0.5-0.6
		c0.3,0,0.6,0.2,0.6,0.5c0.3,6.7,4.6,12.7,7.2,12.9c0.4,0,0.8-0.1,1-0.3c-1.5-2.7-2.3-6.5-1.1-10.6c1-3.4,1.8-4.7,2.8-4.4
		c1.9,0.5,1.7,7.8,0.7,12.7c-0.2,1.1-0.6,1.9-0.9,2.5c0.9,1.3,1.9,2.2,2.9,2.5c0.8,0.3,1.4,0,1.9-0.4c-0.9-2.2-1.1-5.1,0.1-8.9
		c1.6-5,2.2-5.1,2.6-5.2c0.3-0.1,0.5,0,0.7,0.2c1,1.2-0.2,8.9-1.5,12.7c-0.2,0.5-0.4,0.9-0.6,1.3c0.7,1.4,1.7,2.3,2.8,2.8
		c0.9,0.4,1.7,0.6,2.6,0.5c-0.1-0.2-0.2-0.4-0.3-0.6c-0.9-2.4-0.5-5.2,1.3-8.5c1.2-2.2,2.2-3.2,3-3.2c0,0,0,0,0,0
		c0.3,0,0.8,0.1,1.1,0.7c1,1.8,0.3,7.8-1.7,10.7c-0.5,0.7-1.1,1.2-1.8,1.6c1.5,2,4.4,3.7,8.9,5.5c0.3,0.1,0.4,0.4,0.3,0.7
		C123.5,177.4,123.3,177.5,123.1,177.5z M116.7,159c0,0-0.6,0-2.1,2.6c-1.6,3-2,5.5-1.3,7.6c0.1,0.3,0.2,0.5,0.3,0.8
		c0.6-0.3,1.1-0.7,1.5-1.2c1.6-2.4,2.3-7.3,1.7-9.3C116.9,159.1,116.7,159,116.7,159z M108.7,154.3c-0.3,0.5-0.8,1.7-1.5,4
		c-1,3-1,5.5-0.4,7.4c0-0.1,0.1-0.2,0.1-0.3C108.2,161.4,108.8,156.1,108.7,154.3z M101.3,150.7c-0.2,0.2-0.7,0.9-1.5,3.6
		c-1,3.6-0.4,6.9,0.8,9.3c0.2-0.5,0.4-1,0.5-1.6C102.3,156.5,101.9,151.5,101.3,150.7z"/>
	<path class="st2" d="M165.8,236.3c-1.7,0-3.5-0.4-5.1-1.3c-0.3-0.2-0.4-0.5-0.2-0.8c0.2-0.3,0.5-0.4,0.8-0.2c4,2.4,9.2,0.7,10.2-1
		c0.1-0.2,0.2-0.5,0.2-0.8c-1.6,0.2-3.5-0.3-5.8-1.6c-2.9-1.8-3.1-2.3-3.1-2.7c0-0.3,0.2-0.5,0.4-0.6c1.1-0.6,6.2,1.8,8.3,3.2
		c0.3,0.2,0.5,0.4,0.7,0.6c0.9-0.2,1.7-0.7,2.1-1.3c0.3-0.4,0.6-0.8,0.7-1.3c-0.1,0-0.1,0-0.2,0c-1.8,0.2-3.6-0.6-5.5-2.4
		c-1.3-1.2-1.8-2.1-1.7-2.7c0.1-0.2,0.2-0.6,0.8-0.7c1.6-0.4,5.4,1.2,7,3c0.4,0.4,0.6,0.8,0.7,1.3c1.5-0.7,3-2.2,4.8-4.8
		c0.2-0.3,0.5-0.3,0.8-0.1c0.3,0.2,0.3,0.5,0.1,0.8c-2.1,3-3.9,4.6-5.7,5.3c-0.1,0.8-0.4,1.6-1,2.3c-0.6,0.7-1.4,1.3-2.4,1.6
		c0.1,0.5,0,1-0.3,1.6C171.5,235.1,168.8,236.3,165.8,236.3z M164.8,228.6c0.4,0.3,0.9,0.6,1.7,1.1c1.5,1,2.9,1.4,4,1.5
		C168.6,230,166.2,229,164.8,228.6z M168.7,223.8c0.1,0.2,0.3,0.6,1.3,1.6c1.7,1.5,3.2,2.2,4.6,2.1c0.1,0,0.2,0,0.4-0.1
		c-0.1-0.3-0.2-0.7-0.5-0.9C172.9,224.7,169.5,223.6,168.7,223.8z"/>
	<path class="st3" d="M180.6,234.8l-17.5,3.2l-15.9-86.7l-33.7,6.1l-55,97.7l5.9,32.2l70.5-12.8l4.8,26.4l33.7-6.1l-4.8-26.4
		l17.5-3.2L180.6,234.8z M92.1,250.9l29.1-51.2l8.1,44.4L92.1,250.9z"/>
	<g>
		<path class="st3" d="M321.5,145.4c-0.7-6-1.8-11.3-3.6-16c-1.7-4.7-4.4-9.2-7.8-13.7c-3.5-4.5-8.2-8.3-14.3-11.6
			c-6-3.3-14-5.6-23.8-6.9c-20.5-2.7-36.5,1-48,10.9c-11.5,10-19,29.1-22.7,57.3c-1.5,11.5-1.8,22.1-1.1,31.8
			c0.7,9.7,2.5,17.6,5.4,23.5c3.9,8.3,9.4,15,16.4,20c7.1,5,16.8,8.3,29.1,9.9c22,2.9,38.3-1.4,48.9-12.7
			c10.6-11.3,17.6-30.4,21.1-57.4C322.7,168.5,322.8,156.8,321.5,145.4z"/>
		<path class="st4" d="M261.3,239.1c-2.7-0.1-5.6-0.3-8.5-0.7c-10.3-1.3-18.2-3.9-23.6-7.7c-5.3-3.7-9.4-8.7-12.3-15l-0.1-0.1
			c-2.2-4.5-3.6-10.9-4.2-19.1c-0.7-8.9-0.3-18.7,1-29.3c4-31.1,12.3-44.1,18.5-49.5c7.3-6.3,17.1-9.2,30-8.7
			c2.6,0.1,5.5,0.3,8.3,0.7c8.3,1.1,14.9,2.9,19.5,5.5c4.5,2.5,8,5.3,10.5,8.4c2.7,3.5,4.7,7,6,10.4c1.4,3.7,2.3,8,2.9,13
			c1.2,10.5,1.1,21.3-0.3,32.2c-3.1,24.2-9.1,41.2-17.9,50.5C284.6,236.4,274.8,239.5,261.3,239.1
			C261.3,239.1,261.3,239.1,261.3,239.1z"/>
		<g>
			<path class="st5" d="M283.2,145.7l0.1-4.3l-2.6-0.9c-0.1-1.5-0.4-2.9-0.7-4.3l2.2-1.6l-1.5-4l-2.7,0.2c-0.7-1.3-1.4-2.5-2.3-3.7
				l1.4-2.4l-2.9-3.1l-2.4,1.3c-1.1-0.9-2.3-1.8-3.5-2.5l0.4-2.7l-3.9-1.8l-1.8,2.1c-1.4-0.4-2.8-0.8-4.2-1l-0.7-2.7l-4.3-0.1
				l-0.8,2.6c-1.5,0.1-2.9,0.4-4.3,0.7l-1.6-2.2l-4,1.5l0.2,2.7c-1.3,0.7-2.5,1.4-3.7,2.3l-2.4-1.4l-3.1,2.9l1.3,2.5
				c-0.9,1.1-1.8,2.3-2.5,3.5l-2.7-0.4l-1.8,3.9l2.1,1.8c-0.4,1.4-0.8,2.8-1,4.2l-2.7,0.7l-0.1,4.3l2.6,0.9c0.1,1.5,0.4,2.9,0.7,4.3
				l-2.2,1.6l1.5,4l2.7-0.2c0.7,1.3,1.4,2.5,2.3,3.7l-1.4,2.4l2.9,3.1l2.4-1.3c1.1,0.9,2.3,1.8,3.5,2.5l-0.4,2.7l3.9,1.8l1.8-2.1
				c1.4,0.4,2.8,0.8,4.2,1l0.7,2.7l4.3,0.1l0.8-2.6c1.5-0.1,2.9-0.4,4.3-0.7l1.6,2.2l4-1.5l-0.2-2.7c1.3-0.7,2.5-1.4,3.7-2.3
				l2.4,1.4l3.1-2.9l-1.3-2.5c0.9-1.1,1.8-2.3,2.5-3.5l2.7,0.4l1.8-3.9l-2.1-1.8c0.4-1.4,0.8-2.8,1-4.2L283.2,145.7z M254.5,159.5
				c-9.3-0.3-16.6-8.1-16.3-17.4c0.3-9.3,8.1-16.6,17.4-16.3s16.6,8.1,16.3,17.5C271.6,152.5,263.8,159.8,254.5,159.5z"/>
		</g>
		<g>
			<path class="st6" d="M301,223.8l0.3-2.9l-1.7-0.7c0-1-0.1-2-0.3-2.9l1.6-1l-0.8-2.8l-1.9,0c-0.4-0.9-0.8-1.8-1.3-2.6l1.1-1.5
				l-1.8-2.2l-1.7,0.7c-0.7-0.7-1.4-1.3-2.2-1.9l0.4-1.8l-2.5-1.4l-1.3,1.3c-0.9-0.4-1.8-0.7-2.8-0.9l-0.3-1.8l-2.9-0.3l-0.7,1.7
				c-1,0-1.9,0.1-2.9,0.3l-1-1.6l-2.8,0.8l0,1.9c-0.9,0.4-1.8,0.8-2.6,1.3l-1.5-1.1l-2.2,1.8l0.7,1.7c-0.7,0.7-1.3,1.4-1.9,2.2
				l-1.8-0.4l-1.4,2.5l1.3,1.3c-0.4,0.9-0.7,1.8-0.9,2.8l-1.8,0.3l-0.3,2.9l1.7,0.7c0,1,0.1,1.9,0.3,2.9l-1.6,1l0.8,2.8l1.9,0
				c0.4,0.9,0.8,1.8,1.3,2.6l-1.1,1.5l1.8,2.3l1.7-0.7c0.7,0.7,1.4,1.3,2.2,1.9l-0.4,1.8l2.5,1.4l1.3-1.3c0.9,0.4,1.8,0.7,2.8,0.9
				l0.3,1.8l2.9,0.3l0.7-1.7c1,0,1.9-0.1,2.9-0.3l1,1.6l2.8-0.8l0-1.9c0.9-0.4,1.8-0.8,2.6-1.3l1.5,1.1l2.3-1.8l-0.7-1.7
				c0.7-0.7,1.3-1.4,1.9-2.2l1.8,0.4l1.4-2.5l-1.3-1.3c0.4-0.9,0.7-1.8,0.9-2.8L301,223.8z M286.5,222.7c-1.3,2.4-4.4,3.3-6.8,2
				c-2.4-1.3-3.3-4.4-2-6.8c1.3-2.4,4.4-3.3,6.8-2C286.9,217.3,287.8,220.3,286.5,222.7z"/>
		</g>
		<path class="st7" d="M316.9,175.3l-3.3-2.3c0,0,0,0,0,0c-0.3-1.2-0.8-2.4-1.3-3.5l0.9-3.4l-4.9-5.2l-3.4,0.6
			c-1.1-0.6-2.2-1.2-3.4-1.6c0,0,0,0,0,0l-2.1-3.5l-7.1-0.2l-2.3,3.3c0,0,0,0,0,0c-1.2,0.3-2.4,0.8-3.5,1.3l-3.4-0.9l-5.2,4.9
			l0.6,3.4c0,0,0,0,0,0c-0.6,1.1-1.2,2.2-1.6,3.4l-3.5,2.1l-0.2,7.1l3.3,2.3c0.3,1.2,0.8,2.4,1.3,3.5c0,0,0,0,0,0l-0.9,3.4l4.9,5.2
			l3.4-0.6c1.1,0.6,2.2,1.2,3.4,1.6c0,0,0,0,0,0l2.1,3.5l7.1,0.2l2.3-3.3c1.2-0.3,2.4-0.8,3.5-1.3c0,0,0,0,0,0l3.3,0.9l5.2-4.9
			l-0.6-3.4c0.6-1.1,1.2-2.2,1.6-3.4c0,0,0,0,0,0l3.5-2.1L316.9,175.3z M294.7,186.1c-4.4-0.2-7.9-3.9-7.7-8.3
			c0.2-4.4,3.8-7.9,8.3-7.7c4.4,0.2,7.9,3.8,7.7,8.3C302.8,182.8,299.1,186.3,294.7,186.1z"/>
		<path class="st7" d="M242.8,220.6c-0.2,0-0.3-0.1-0.4-0.2l-2.4-2.4c-1.2-0.1-2.4-0.3-3.5-0.7l-3.7,1.6c-0.2,0.1-0.4,0.1-0.5,0
			l-6.1-4.1c-0.2-0.1-0.3-0.3-0.3-0.5l0.1-4c-0.7-0.9-1.4-1.9-2-3l-3.1-1.2c-0.2-0.1-0.3-0.2-0.3-0.4l-1.5-7.2c0-0.2,0-0.4,0.2-0.5
			l2.4-2.4c0.1-1.2,0.3-2.4,0.7-3.5l-1.6-3.7c-0.1-0.2-0.1-0.4,0-0.5l4.1-6.1c0.1-0.2,0.3-0.3,0.5-0.3l4,0.1c0.9-0.7,1.9-1.4,3-2
			l1.2-3.2c0.1-0.2,0.2-0.3,0.4-0.3l7.2-1.5c0.2,0,0.4,0,0.5,0.2l2.4,2.4c1.2,0.1,2.4,0.3,3.5,0.7l3.7-1.6c0.2-0.1,0.4-0.1,0.5,0
			l6.1,4.1c0.2,0.1,0.3,0.3,0.3,0.5l-0.1,4c0.7,0.9,1.4,1.9,2,3l3.2,1.2c0.2,0.1,0.3,0.2,0.3,0.4l1.5,7.2c0,0.2,0,0.4-0.2,0.5
			l-2.4,2.4c-0.1,1.2-0.3,2.4-0.7,3.5l1.6,3.7c0.1,0.2,0.1,0.4,0,0.5l-4.1,6.1c-0.1,0.2-0.3,0.2-0.5,0.3l-4-0.1
			c-0.9,0.7-1.9,1.4-3,2l-1.2,3.2c-0.1,0.2-0.2,0.3-0.4,0.3l-7.2,1.5C242.9,220.6,242.9,220.6,242.8,220.6z M236.5,216.2
			c0.1,0,0.1,0,0.2,0c1.2,0.4,2.5,0.6,3.7,0.7c0.1,0,0.3,0.1,0.4,0.2l2.3,2.4l6.6-1.3l1.2-3.1c0-0.1,0.1-0.2,0.3-0.3
			c1.1-0.6,2.2-1.3,3.2-2.1c0.1-0.1,0.2-0.1,0.4-0.1l3.9,0.1l3.7-5.6l-1.6-3.6c-0.1-0.1-0.1-0.3,0-0.4c0.4-1.2,0.6-2.5,0.7-3.7
			c0-0.1,0.1-0.3,0.2-0.4l2.4-2.3l-1.3-6.6l-3.1-1.2c-0.1-0.1-0.2-0.1-0.3-0.3c-0.6-1.1-1.3-2.2-2.1-3.1c-0.1-0.1-0.1-0.2-0.1-0.4
			l0.1-3.9l-5.6-3.7l-3.6,1.6c-0.1,0.1-0.3,0.1-0.4,0c-1.2-0.4-2.5-0.6-3.7-0.7c-0.1,0-0.3-0.1-0.4-0.2l-2.3-2.4l-6.6,1.3l-1.2,3.1
			c0,0.1-0.1,0.2-0.3,0.3c-1.1,0.6-2.2,1.3-3.2,2.1c-0.1,0.1-0.2,0.1-0.4,0.1l-3.9-0.1l-3.7,5.6l1.6,3.6c0.1,0.2,0.1,0.3,0,0.5
			c-0.3,1.1-0.5,2.4-0.7,3.6c0,0.1-0.1,0.3-0.2,0.4l-2.4,2.3l1.3,6.6l3.1,1.2c0.1,0.1,0.2,0.2,0.3,0.3c0.6,1.1,1.3,2.2,2.1,3.1
			c0.1,0.1,0.1,0.2,0.1,0.4l-0.1,3.9l5.6,3.7l3.6-1.6C236.4,216.2,236.4,216.2,236.5,216.2z M242,212.5c-2.8,0-5.7-0.8-8.2-2.5
			c-3.3-2.2-5.6-5.6-6.4-9.5c-0.8-3.9,0-7.9,2.2-11.2c0,0,0,0,0,0c4.6-6.9,13.9-8.8,20.7-4.2c6.9,4.6,8.8,13.9,4.2,20.7
			C251.6,210.2,246.9,212.5,242,212.5z M230.5,189.9c-2,3.1-2.8,6.8-2,10.4c0.7,3.6,2.8,6.7,5.9,8.8c6.4,4.2,15,2.5,19.2-3.9
			c4.2-6.4,2.5-15-3.9-19.2C243.3,181.8,234.7,183.6,230.5,189.9L230.5,189.9z"/>
	</g>
	<g>
		<path class="st3" d="M456.7,244.9l-17.6-2.4l11.7-87.3l-34-4.6l-82.5,75.9l-4.3,32.5l71.1,9.6l-3.5,26.6l34,4.6l3.5-26.6l17.6,2.4
			L456.7,244.9z M367.5,232.9l43.5-39.7l-6,44.7L367.5,232.9z"/>
		<path class="st2" d="M421.1,298.9c0,0-0.1,0-0.1,0c-0.3-0.1-0.5-0.3-0.5-0.7l26.2-143.6c0.1-0.3,0.4-0.5,0.7-0.5
			c0.3,0.1,0.5,0.3,0.5,0.7l-26.2,143.6C421.6,298.7,421.4,298.9,421.1,298.9z"/>
		<g>
			<path class="st2" d="M444.3,157.1c0,0.5-0.4,0.9-1,0.9s-0.9-0.4-0.9-1s0.4-0.9,1-0.9C443.9,156.1,444.3,156.5,444.3,157.1z"/>
			<path class="st2" d="M440.6,176.5c0,0.5-0.4,0.9-1,0.9c-0.5,0-0.9-0.4-0.9-1c0-0.5,0.4-0.9,1-0.9
				C440.2,175.5,440.6,176,440.6,176.5z"/>
			<path class="st2" d="M436.8,195.9c0,0.5-0.4,0.9-1,0.9c-0.5,0-0.9-0.4-0.9-1c0-0.5,0.4-0.9,1-0.9
				C436.5,195,436.9,195.4,436.8,195.9z"/>
			<path class="st2" d="M429.5,216.1c0,0.5-0.4,0.9-1,0.9c-0.5,0-0.9-0.4-0.9-1c0-0.5,0.4-0.9,1-0.9
				C429.1,215.2,429.5,215.6,429.5,216.1z"/>
			<path class="st2" d="M429.4,234.7c0,0.5-0.4,0.9-1,0.9c-0.5,0-0.9-0.4-0.9-1s0.4-0.9,1-0.9C429,233.8,429.4,234.2,429.4,234.7z"
				/>
			<path class="st2" d="M425.6,254.2c0,0.5-0.4,0.9-1,0.9s-0.9-0.4-0.9-1c0-0.5,0.4-0.9,1-0.9C425.2,253.2,425.6,253.7,425.6,254.2z
				"/>
			<path class="st2" d="M421.9,273.6c0,0.5-0.4,0.9-1,0.9s-0.9-0.4-0.9-1c0-0.5,0.4-0.9,1-0.9S421.9,273.1,421.9,273.6z"/>
			<path class="st2" d="M418.1,293c0,0.5-0.4,0.9-1,0.9s-0.9-0.4-0.9-1s0.4-0.9,1-0.9C417.8,292.1,418.2,292.5,418.1,293z"/>
		</g>
		<path class="st2" d="M428.6,216.6c-0.3,0-0.5-0.2-0.5-0.4c-0.1-0.3,0.1-0.6,0.4-0.7l2.8-0.6c0.3-0.1,0.6,0.1,0.7,0.4
			c0.1,0.3-0.1,0.6-0.4,0.7l-2.8,0.6C428.6,216.6,428.6,216.6,428.6,216.6z"/>
		<g>
			<path class="st2" d="M437.9,206.3c0,0-2.5,6.5-3.4,10.5c-0.8,4-0.9,12.8-0.9,12.8"/>
			<path class="st2" d="M433.6,230.2C433.6,230.2,433.6,230.2,433.6,230.2c-0.3,0-0.6-0.3-0.6-0.6c0-0.4,0.1-9,0.9-12.9
				c0.8-4,3.3-10.3,3.4-10.6c0.1-0.3,0.4-0.4,0.7-0.3c0.3,0.1,0.4,0.4,0.3,0.7c0,0.1-2.5,6.5-3.3,10.4c-0.8,3.9-0.9,12.6-0.9,12.7
				C434.2,229.9,433.9,230.2,433.6,230.2z"/>
		</g>
	</g>
	<path class="st2" d="M228.4,327.1c1.6-25.1-1.3-70.9,46-64.8c50.7,6.5,36.2,65.7,36.2,65.7L228.4,327.1z"/>
	<g>
		<circle class="st4" cx="261" cy="291.3" r="20.6"/>
		<path class="st2" d="M263.7,270.8c-9.8-1.7-20.2,5.5-21.2,12.8l38.7,3.6C279.8,278.8,271.4,272.1,263.7,270.8z"/>
		<path class="st2" d="M276.8,290.8c-0.3,5.4-3.2,9.6-6.6,9.5c-3.3-0.2-5.8-4.7-5.6-10.1c0.3-5.4,3.2-9.6,6.6-9.5
			C274.6,280.9,277.1,285.4,276.8,290.8z"/>
		<path class="st5" d="M261,313.1c-12,0-21.8-9.8-21.8-21.8s9.8-21.8,21.8-21.8c12,0,21.8,9.8,21.8,21.8S273,313.1,261,313.1z
			 M261,271.8c-10.8,0-19.5,8.7-19.5,19.5s8.8,19.5,19.5,19.5c10.8,0,19.5-8.7,19.5-19.5S271.7,271.8,261,271.8z"/>
	</g>
	<path class="st8" d="M304.7,326.5c0,0-0.1,0-0.1,0c-0.3-0.1-0.5-0.4-0.4-0.7c0-0.2,3.6-15.4-0.1-30.8c-0.1-0.3,0.1-0.6,0.4-0.7
		c0.3-0.1,0.6,0.1,0.7,0.4c3.8,15.7,0.1,31.1,0.1,31.3C305.2,326.3,305,326.5,304.7,326.5z"/>
	<path class="st8" d="M301.6,286.6c-0.2,0-0.4-0.1-0.5-0.3c-1.4-3.1-3.2-6-5.3-8.6c-0.2-0.2-0.2-0.6,0.1-0.8
		c0.2-0.2,0.6-0.2,0.8,0.1c2.1,2.6,4,5.6,5.5,8.8c0.1,0.3,0,0.6-0.3,0.7C301.8,286.6,301.7,286.6,301.6,286.6z"/>
	<path class="st2" d="M123.2,445.1c-0.1,0-0.3,0-0.4,0c-3.1-0.1-5.5-2.7-5.5-5.8c0.1-3.1,2.6-5.5,5.8-5.5c0,0,0.1,0,0.1,0
		c3.2,0,11-3.9,27.4-29.7c0.9-1.4,2.3-2.3,3.9-2.5c1.6-0.2,3.3,0.2,4.5,1.3c20.1,17.6,41.5,28.5,41.7,28.6c2.8,1.4,3.9,4.8,2.5,7.5
		c-1.4,2.8-4.8,3.9-7.5,2.5c-0.8-0.4-19.5-10-39.1-26C142.8,436.1,132.7,445.1,123.2,445.1z"/>
	<path class="st2" d="M157.9,401.9c-0.2,0-0.3,0-0.5,0c-1.8-0.3-3.1-2-2.9-3.8c0.8-5.6-0.2-26.5-7.3-42.8c-0.6-1.5-0.1-3.2,1.2-4.1
		c15.4-10.5,48.1-11.7,49.5-11.8c1.8,0,3.4,1.4,3.5,3.2c0.1,1.9-1.4,3.4-3.2,3.5c-0.3,0-28.9,1.1-43.7,9.2
		c6.3,16.2,7.7,36.4,6.6,43.7C161,400.7,159.5,401.9,157.9,401.9z"/>
	<path class="st7" d="M163.5,397.6c-2.2-5.3-12.3-4.7-18.3-0.2c-3.2,2.4-7.5,9.7-7.9,12.3c-0.5,2.6,1.4,5,4.5,4.8
		c3.9-0.3,9.2-6,9.2-6c-3.5,3.5,1,5.9,7.8,0.9C162.7,406.7,166,403.5,163.5,397.6z"/>
	<path class="st2" d="M356.6,328.6c-0.1,0-0.1,0-0.2,0c-0.3-0.1-0.5-0.4-0.4-0.7c1.5-5.2,3.1-8.4,5.3-10.2c-0.3-1.1-0.3-2.4,0.2-3.7
		c0.5-1.2,1.3-2.4,2.7-3.4c-0.7-0.7-0.9-1.6-0.7-2.7c0.3-1.2,1.1-2.4,2.4-3.5c-0.5-0.6-0.6-1.2-0.6-1.7c0-3.3,6.2-8.4,13.2-9.4
		c0.3-0.1,0.6,0.2,0.6,0.5c0,0.3-0.2,0.6-0.5,0.6c-6.7,0.9-12.3,5.7-12.2,8.3c0,0.4,0.2,0.7,0.4,1c2.5-1.8,6.3-2.9,10.4-2.1
		c3.4,0.7,4.8,1.4,4.7,2.4c-0.3,2-7.6,2.4-12.6,1.8c-1.1-0.1-1.9-0.4-2.5-0.7c-1.2,1-2,2.1-2.2,3.1c-0.2,0.8,0.1,1.4,0.6,1.8
		c2.1-1.1,5-1.5,8.9-0.7c5.1,1.1,5.3,1.7,5.4,2.1c0.1,0.3,0,0.5-0.2,0.7c-1.1,1.1-8.9,0.6-12.8-0.4c-0.5-0.1-1-0.3-1.4-0.5
		c-1.3,0.8-2.1,1.9-2.5,3c-0.3,0.9-0.4,1.8-0.3,2.6c0.2-0.1,0.4-0.2,0.6-0.3c2.3-1.1,5.1-0.9,8.6,0.6c2.3,1,3.4,1.9,3.5,2.7
		c0,0.3,0,0.8-0.6,1.2c-1.7,1.1-7.7,1-10.8-0.7c-0.7-0.4-1.3-1-1.7-1.7c-1.8,1.7-3.3,4.7-4.7,9.4
		C357.1,328.4,356.9,328.6,356.6,328.6z M362.7,318.1c0.3,0.6,0.8,1,1.4,1.4c2.5,1.3,7.5,1.7,9.4,0.9c0.4-0.2,0.4-0.3,0.4-0.3
		c0,0-0.1-0.6-2.8-1.8c-3.1-1.3-5.7-1.5-7.7-0.6C363.2,317.8,362.9,317.9,362.7,318.1z M366.5,310.7c0.1,0,0.2,0.1,0.3,0.1
		c4,1,9.3,1.1,11.2,0.8c-0.6-0.2-1.7-0.6-4.1-1.1C370.7,309.8,368.3,310,366.5,310.7z M367.9,304.4c0.5,0.2,1.1,0.3,1.6,0.4
		c5.6,0.7,10.5-0.1,11.3-0.8c-0.2-0.2-0.9-0.7-3.7-1.2C373.3,302.1,370.1,303,367.9,304.4z"/>
	<path class="st2" d="M210.5,443.2c0.7-0.2,0.5-1-0.3-1H195c-28.9-3.1-49.2,1-36.4,2c12.7,1-0.9,0.8-10.2,4.3
		c-9.3,3.5,69.2,4.4,76.4,0C231.3,444.5,200.2,446.5,210.5,443.2z"/>
	<polygon class="st7" points="319.3,447.7 187.1,443.3 181.6,315 337.7,318.5 	"/>
	<path class="st2" d="M228.4,445.2c-0.3,0-0.5-0.2-0.6-0.5l-10.6-128.8c0-0.3,0.2-0.6,0.5-0.6c0.3,0,0.6,0.2,0.6,0.5l10.6,128.8
		C228.9,444.9,228.7,445.2,228.4,445.2C228.4,445.2,228.4,445.2,228.4,445.2z"/>
	<g>
		<polygon class="st9" points="319.3,447.7 354.9,442.2 366.1,323 337.7,318.5 		"/>
		<polygon class="st10" points="319.3,447.7 354.9,442.2 366.1,323 337.7,318.5 		"/>
	</g>
	<path class="st2" d="M198.4,418.6l-3.3-76.2c-0.3-8,6.1-14.5,14.1-14.4l98.9,2.2c8.3,0.2,14.5,7.5,13.3,15.7l-11,76.8
		c-1,7-7.1,12.1-14.1,11.8l-84.6-2.8C204.5,431.5,198.7,425.8,198.4,418.6z"/>
	<g>
		<path class="st4" d="M209,351.4l15.3,0.5l-0.1,3.9l-9.6-0.3l-0.1,2.9l8.9,0.3l-0.1,3.8l-8.9-0.3l-0.1,3.6l9.9,0.3l-0.1,4.2
			l-15.6-0.5L209,351.4z"/>
		<path class="st4" d="M227.2,370.5l0.6-18.5l9.5,0.3c1.8,0.1,3.1,0.3,4,0.6c0.9,0.3,1.7,0.9,2.2,1.8c0.5,0.8,0.8,1.8,0.8,3
			c0,1-0.3,1.9-0.7,2.6c-0.5,0.7-1.1,1.3-1.9,1.8c-0.5,0.3-1.2,0.5-2,0.7c0.7,0.2,1.2,0.5,1.5,0.7c0.2,0.2,0.5,0.5,0.9,1
			c0.4,0.5,0.6,0.9,0.8,1.2l2.6,5.4l-6.4-0.2l-2.9-5.7c-0.4-0.7-0.7-1.2-1-1.5c-0.4-0.3-0.9-0.5-1.4-0.5l-0.5,0l-0.2,7.5
			L227.2,370.5z M233.3,359.7l2.4,0.1c0.3,0,0.8-0.1,1.5-0.2c0.4-0.1,0.7-0.2,0.9-0.6c0.2-0.3,0.4-0.7,0.4-1.1
			c0-0.6-0.2-1.1-0.5-1.4c-0.4-0.3-1.1-0.5-2.1-0.5l-2.5-0.1L233.3,359.7z"/>
		<path class="st4" d="M247.3,371.1l0.6-18.5l9.5,0.3c1.8,0.1,3.1,0.3,4,0.6c0.9,0.3,1.7,0.9,2.2,1.8c0.5,0.8,0.8,1.8,0.8,3
			c0,1-0.3,1.9-0.7,2.6c-0.5,0.7-1.1,1.3-1.9,1.8c-0.5,0.3-1.2,0.5-2,0.7c0.7,0.2,1.2,0.5,1.5,0.7c0.2,0.2,0.5,0.5,0.9,1
			c0.4,0.5,0.6,0.9,0.8,1.2l2.6,5.4l-6.4-0.2l-2.9-5.7c-0.4-0.7-0.7-1.2-1-1.5c-0.4-0.3-0.9-0.5-1.4-0.5l-0.5,0l-0.2,7.5
			L247.3,371.1z M253.3,360.3l2.4,0.1c0.3,0,0.8-0.1,1.5-0.2c0.4-0.1,0.7-0.2,0.9-0.6c0.2-0.3,0.4-0.7,0.4-1.1
			c0-0.6-0.2-1.1-0.5-1.4c-0.4-0.3-1.1-0.5-2.1-0.5l-2.5-0.1L253.3,360.3z"/>
		<path class="st4" d="M266.4,362.5c0.1-3,1-5.3,2.7-7c1.7-1.6,4.1-2.4,7.1-2.3c3.1,0.1,5.4,1,7,2.7c1.6,1.7,2.4,4,2.3,7
			c-0.1,2.2-0.5,3.9-1.3,5.3c-0.8,1.4-1.9,2.4-3.3,3.1c-1.4,0.7-3.1,1.1-5.2,1c-2.1-0.1-3.8-0.5-5.1-1.2c-1.3-0.7-2.4-1.8-3.2-3.3
			C266.7,366.4,266.3,364.6,266.4,362.5z M272.1,362.7c-0.1,1.9,0.2,3.2,0.9,4.1c0.7,0.8,1.6,1.3,2.8,1.3c1.2,0,2.2-0.3,2.9-1.1
			c0.7-0.8,1.1-2.2,1.1-4.3c0.1-1.7-0.3-3-0.9-3.8c-0.7-0.8-1.6-1.3-2.8-1.3c-1.2,0-2.1,0.3-2.8,1.1
			C272.5,359.5,272.1,360.8,272.1,362.7z"/>
		<path class="st4" d="M288.4,372.4l0.6-18.5l9.5,0.3c1.8,0.1,3.1,0.3,4,0.6c0.9,0.3,1.7,0.9,2.2,1.8c0.5,0.8,0.8,1.8,0.8,3
			c0,1-0.3,1.9-0.7,2.6c-0.5,0.7-1.1,1.3-1.9,1.8c-0.5,0.3-1.2,0.5-2,0.7c0.7,0.2,1.2,0.5,1.5,0.7c0.2,0.2,0.5,0.5,0.9,1
			c0.4,0.5,0.6,0.9,0.8,1.2l2.6,5.4l-6.4-0.2l-2.9-5.7c-0.4-0.7-0.7-1.2-1-1.5c-0.4-0.3-0.9-0.5-1.4-0.5l-0.5,0l-0.2,7.5
			L288.4,372.4z M294.5,361.6l2.4,0.1c0.3,0,0.8-0.1,1.5-0.2c0.4-0.1,0.7-0.2,0.9-0.6c0.2-0.3,0.4-0.7,0.4-1.1
			c0-0.6-0.2-1.1-0.5-1.4c-0.4-0.3-1.1-0.5-2.1-0.5l-2.5-0.1L294.5,361.6z"/>
	</g>
	<path class="st4" d="M297.5,403.8c-0.4,0-0.8-0.2-1.1-0.5l-9.6-10.5l-10.4,9.5c-0.6,0.6-1.5,0.5-2.1-0.1l-9.6-10.5l-10.4,9.5
		c-0.6,0.5-1.5,0.5-2.1-0.1l-9.6-10.5l-10.4,9.5c-0.3,0.3-0.7,0.4-1.1,0.4c-0.4,0-0.8-0.2-1-0.5l-9.6-10.5l-10.4,9.5
		c-0.6,0.5-1.5,0.5-2.1-0.1c-0.5-0.6-0.5-1.5,0.1-2.1l11.5-10.5c0.6-0.6,1.5-0.5,2.1,0.1l9.6,10.5l10.4-9.5c0.3-0.3,0.7-0.4,1.1-0.4
		c0.4,0,0.8,0.2,1,0.5l9.6,10.5l10.4-9.5c0.6-0.6,1.5-0.5,2.1,0.1l9.6,10.5l10.4-9.5c0.6-0.6,1.5-0.5,2.1,0.1l10.6,11.6
		c0.5,0.6,0.5,1.5-0.1,2.1C298.2,403.7,297.8,403.8,297.5,403.8z"/>
	<g>
		<polygon class="st9" points="119.8,450.4 112.8,447 106.5,416.5 109.9,412.8 		"/>
		<g>
			<polygon class="st9" points="119.8,450.4 129.1,444.9 121.1,419.8 109.9,412.8 			"/>
			<polygon class="st10" points="119.8,450.4 129.1,444.9 121.1,419.8 109.9,412.8 			"/>
		</g>
	</g>
	<path class="st2" d="M272.7,455.9c-0.3,0-0.5,0-0.8,0c-3.1-0.1-5.5-2.7-5.5-5.8c0.1-3.1,2.6-5.5,5.8-5.5c8.6,0.3,26.9-5,37.4-15.2
		c0.6-0.6,1.4-1.1,2.3-1.3c17.7-5.3,24.3,5.4,24.6,5.9l-9.7,5.7c0,0,0,0.1,0.1,0.2c-0.1-0.1-2.6-3.4-10.6-1.4
		C303.3,450.6,283.1,455.9,272.7,455.9z"/>
	<polygon class="st7" points="272.1,463.4 251.6,462.1 250,424.4 277.5,425.4 	"/>
	<g>
		<polygon class="st9" points="272.1,463.4 276.9,458.6 279.8,435.1 277.5,425.4 		"/>
		<polygon class="st10" points="272.1,463.4 276.9,458.6 279.8,435.1 277.5,425.4 		"/>
	</g>
	<path class="st2" d="M390.5,449.1c-0.7,0-1.4-0.2-2-0.7c-11.7-8.9-27.4-24.6-33.5-39.8c-0.1-0.2-0.2-0.5-0.2-0.7
		c-3-17.5-5.8-54.5-5.9-56.1c-0.1-1.9,1.2-3.5,3.1-3.6c1.8-0.1,3.5,1.2,3.6,3.1c0,0.4,2.9,37.7,5.8,55.1c6,14.8,22.4,29.9,31.2,36.6
		c1.5,1.1,1.8,3.2,0.6,4.7C392.6,448.7,391.5,449.1,390.5,449.1z"/>
	<path class="st2" d="M406.1,450.8c-2.6,0-5.6-1.2-8.8-3.5c-1.5-1.1-1.8-3.2-0.8-4.7c1.1-1.5,3.2-1.8,4.7-0.8c2.8,2,4.3,2.2,4.8,2.2
		c1.9,0,3.4,1.5,3.4,3.4C409.5,449.3,408,450.8,406.1,450.8z"/>
	<path class="st7" d="M398.3,447.2c3.6-10.7,18.4-8.6,23.5-7c5.1,1.6,9.7,3.6,12.4,5.4c2.8,1.8,2.8,4.8-0.9,6.5
		c-4.5,2.1-15.9,0.2-15.9,0.2c5.9,2.6,0,6.7-10.3,2.6C403.7,453.7,397,451.1,398.3,447.2z"/>
	<path class="st2" d="M362.4,356.5c-1.3,9.1-8.9,15.8-15,14.9c-6.1-0.9-6.4-9-5-18.1c1.3-9.1,3.8-15.7,9.9-14.8
		C358.4,339.4,363.7,347.4,362.4,356.5z"/>
	<circle class="st2" cx="214.2" cy="319.3" r="0.9"/>
	<path class="st2" d="M223.6,325.9c0,0.5-0.4,0.9-0.9,0.9s-0.9-0.4-0.9-0.9c0-0.5,0.4-0.9,0.9-0.9S223.6,325.4,223.6,325.9z"/>
	<path class="st2" d="M224.6,434.7c0,0.5-0.4,0.9-0.9,0.9c-0.5,0-0.9-0.4-0.9-0.9c0-0.5,0.4-0.9,0.9-0.9
		C224.2,433.8,224.6,434.2,224.6,434.7z"/>
	<path class="st2" d="M233.1,441.3c0,0.5-0.4,0.9-0.9,0.9c-0.5,0-0.9-0.4-0.9-0.9c0-0.5,0.4-0.9,0.9-0.9
		C232.7,440.4,233.1,440.8,233.1,441.3z"/>
	<g>
		<path class="st2" d="M71.3,452.4c-2.7,0-6.3-1.6-8.2-4.4c-0.2-0.3-0.1-0.6,0.1-0.8c0.3-0.2,0.6-0.1,0.8,0.1c2.1,3,6.7,4.6,8.8,3.7
			c0.2-0.1,0.4-0.2,0.5-0.4c-1.8-0.8-3.5-2.5-4-5c-0.3-1.4-0.5-3.3,0.7-3.6c1.6-0.4,3.7,3.5,4.5,6.5c0.2,0.5,0.2,1.1,0.1,1.5
			c0.7,0.2,1.4,0.2,2,0.2c0.5-0.1,1.2-0.3,1.5-0.8c-1.4-0.9-2.3-2.5-2.6-4.7c-0.4-3.1-0.1-3.6,0.2-3.9c0.2-0.2,0.5-0.2,0.8-0.1
			c1.2,0.5,2.7,4.9,2.9,7.3c0,0.3,0,0.5,0,0.8c0.5,0.2,1,0.3,1.5,0.3c1,0.1,1.9-0.3,2.7-0.7c-0.2-0.1-0.3-0.2-0.5-0.3
			c-1.2-1-1.6-2.6-1.4-4.9c0.2-1.8,0.6-2.7,1.3-3c0.2-0.1,0.8-0.2,1.4,0.3c1.2,1,2.3,4,1.9,6.2c-0.1,0.5-0.3,0.9-0.6,1.3
			c2.1,0.4,5-0.2,7.5-0.8c0.3-0.1,0.6,0.1,0.7,0.4c0.1,0.3-0.1,0.6-0.4,0.7c-3,0.8-6.3,1.4-8.6,0.7c-1,0.8-2.5,1.3-3.9,1.3
			c-0.7,0-1.3-0.1-1.8-0.3c-0.4,0.8-1.3,1.3-2.4,1.4c-0.7,0.1-1.6,0-2.5-0.2c-0.3,0.4-0.6,0.8-1.1,1C72.7,452.2,72,452.4,71.3,452.4
			z M70.3,443.1c-0.1,0.2-0.2,0.7,0.1,2.3c0.4,2.1,1.7,3.4,3.2,4.2c0-0.2-0.1-0.5-0.1-0.8C72.6,445.5,70.9,443.3,70.3,443.1z
			 M76.5,442.1c0,0.4,0,1.1,0.2,2.3c0.2,1.6,0.8,2.8,1.7,3.6C78.2,445.8,77.2,443.1,76.5,442.1z M83.6,441.1
			C83.6,441.1,83.6,441.1,83.6,441.1c0,0-0.4,0.2-0.6,2.1c-0.2,1.9,0.2,3.2,1,3.9c0.2,0.2,0.4,0.3,0.7,0.4c0.3-0.4,0.5-0.7,0.6-1.2
			c0.3-1.6-0.5-4-1.3-5C83.8,441.2,83.6,441.1,83.6,441.1z"/>
		<g>
			<polygon class="st2" points="235.6,460.8 238.6,455.6 235.6,450.3 232.3,450.3 234.2,455.6 232.3,460.8 			"/>
			<path class="st2" d="M232.5,458.3c-1.5,0-2.8-1.2-2.8-2.8c0-1.5,1.2-2.7,2.8-2.7l-5.2-1L226,456l2.3,3.5L232.5,458.3z"/>
			<path class="st5" d="M233,450.3h-6.1l-3,5.3l3,5.3h6.1l3-5.3L233,450.3z M229.9,458.3c-1.5,0-2.8-1.2-2.8-2.8
				c0-1.5,1.2-2.7,2.8-2.7c1.5,0,2.7,1.2,2.7,2.7C232.7,457.1,231.4,458.3,229.9,458.3z"/>
		</g>
		<g>
			<polygon class="st5" points="447.8,449.9 445.5,446 447.8,442.1 450.2,442.1 448.8,446 450.2,449.9 			"/>
			<path class="st5" d="M450,448.1c1.1,0,2-0.9,2-2c0-1.1-0.9-2-2-2l3.8-0.8l1,3.1l-1.7,2.6L450,448.1z"/>
			<path class="st2" d="M449.7,442.1h4.5l2.3,3.9l-2.3,3.9h-4.5l-2.3-3.9L449.7,442.1z M452,448.1c1.1,0,2-0.9,2-2c0-1.1-0.9-2-2-2
				c-1.1,0-2,0.9-2,2C449.9,447.1,450.8,448.1,452,448.1z"/>
		</g>
		<g>
			<path class="st2" d="M363.6,455.1h5.1c1.3,0,2.4-1.1,2.4-2.4l0,0c0-1.3-1.1-2.4-2.4-2.4h-5.1c-1.3,0-2.4,1.1-2.4,2.4l0,0
				C361.2,454.1,362.3,455.1,363.6,455.1z"/>
			<path class="st5" d="M355.5,450.6c1.3-2.7,4.3-3.9,6.8-2.7c2.5,1.2,3.5,4.3,2.2,6.9c-1.3,2.7-4.3,3.9-6.8,2.7
				C355.3,456.4,354.3,453.3,355.5,450.6z"/>
			
				<rect x="359.3" y="447.1" transform="matrix(-0.9045 -0.4265 0.4265 -0.9045 492.6382 1015.7785)" class="st2" width="1.5" height="11.3"/>
		</g>
	</g>
</g>
</svg>
