<?xml version="1.0" encoding="utf-8"?>
<!-- Generator: Adobe Illustrator 27.0.1, SVG Export Plug-In . SVG Version: 6.00 Build 0)  -->
<svg version="1.1" id="Capa_1" xmlns="http://www.w3.org/2000/svg" xmlns:xlink="http://www.w3.org/1999/xlink" x="0px" y="0px"
	 viewBox="0 0 189 74" style="enable-background:new 0 0 189 74;" xml:space="preserve">
<style type="text/css">
	.st0{fill:#0455A5;}
	.st1{fill:#14015B;}
	.st2{enable-background:new    ;}
</style>
<g>
	<g>
		<polygon class="st0" points="44.5,15.7 44.5,45.1 54.6,55.2 54.6,5.5 2.2,5.5 2.2,5.6 12.3,15.7 12.3,15.7 		"/>
		<polygon class="st1" points="15.5,19 5.4,9 5.4,72.4 15.5,72.4 		"/>
		<polygon class="st1" points="59.1,63.1 34,63.1 34,36.2 24.1,26.3 23.9,26.2 23.9,72.4 68.3,72.4 		"/>
	</g>
	<g class="st2">
		<path class="st0" d="M72.5,8.4h4.3l7.8,13v-13h3.9V27h-4.1l-8.1-13.3V27h-3.9L72.5,8.4L72.5,8.4z"/>
		<path class="st0" d="M98.1,8.4h4.7l7.1,18.7h-4.5l-1.3-3.9h-7.3L95.4,27h-4.3L98.1,8.4z M97.9,20h5.1l-2.5-7.4L97.9,20z"/>
		<path class="st0" d="M112.3,27V8.4h4.1v7.1h7.7V8.4h4.1V27h-4.1v-8.4h-7.7V27C116.5,27,112.3,27,112.3,27z"/>
		<path class="st0" d="M132.2,8.4h4.2v11.5c0,1.3,0.2,2.2,0.4,2.8c0.5,1.1,1.6,1.6,3.3,1.6s2.7-0.5,3.3-1.6c0.4-0.6,0.4-1.5,0.4-2.8
			V8.4h4.2v11.5c0,2-0.4,3.5-1,4.7c-1.2,2-3.5,3.1-7,3.1s-5.7-1.1-7-3.1c-0.6-1.1-1-2.6-1-4.7V8.4z"/>
		<path class="st0" d="M166.8,11.7h-10.5v4h9.6v3.3h-9.6v4.8h11v3.4h-15.1V8.4h14.5V11.7z"/>
		<path class="st0" d="M170.5,8.4h4.1v15.3h9.9V27h-14V8.4z"/>
	</g>
	<g class="st2">
		<path class="st1" d="M72.6,35H77v16.1h10.4v3.5H72.6L72.6,35L72.6,35z"/>
		<path class="st1" d="M106.4,52.9c-1.6,1.5-3.9,2.3-6.8,2.3c-3,0-5.3-0.8-6.9-2.3c-2.1-1.9-3.2-4.6-3.2-8.1c0-3.6,1.1-6.3,3.2-8.1
			c1.6-1.5,3.9-2.3,6.9-2.3c3,0,5.3,0.8,6.8,2.3c2.1,1.8,3.2,4.5,3.2,8.1C109.5,48.3,108.4,51,106.4,52.9z M103.7,49.9
			c1-1.2,1.5-2.9,1.5-5.1c0-2.2-0.5-3.9-1.5-5.1c-1-1.2-2.4-1.9-4.1-1.9c-1.8,0-3.1,0.6-4.1,1.8c-1.1,1.2-1.5,2.9-1.5,5.1
			s0.5,4,1.5,5.1c1.1,1.2,2.4,1.8,4.1,1.8C101.3,51.6,102.6,51.1,103.7,49.9z"/>
		<path class="st1" d="M128.4,37c0.6,0.8,1,1.9,1,3c0,1.2-0.4,2.2-1,2.9c-0.4,0.4-0.9,0.8-1.6,1.1c1.1,0.4,1.9,1,2.4,1.8
			s0.8,1.8,0.8,2.9c0,1.1-0.4,2.2-1,3.2c-0.4,0.6-0.9,1.1-1.5,1.6c-0.7,0.4-1.4,0.8-2.4,1c-1,0.2-1.9,0.3-2.9,0.3h-9.3V35H123
			C125.5,35,127.3,35.7,128.4,37z M117.1,38.3v4.3h5c0.9,0,1.7-0.2,2.2-0.5c0.5-0.4,0.9-0.9,0.9-1.8c0-0.9-0.4-1.5-1.1-1.9
			c-0.6-0.2-1.5-0.3-2.5-0.3L117.1,38.3L117.1,38.3z M117.1,45.9v5.2h5c0.9,0,1.6-0.1,2.1-0.4c0.9-0.4,1.4-1.2,1.4-2.5
			c0-1.1-0.4-1.8-1.3-2.1c-0.5-0.2-1.1-0.4-2.1-0.4L117.1,45.9L117.1,45.9z"/>
		<path class="st1" d="M149.8,52.9c-1.6,1.5-3.9,2.3-6.8,2.3s-5.3-0.8-6.9-2.3c-2.1-1.9-3.2-4.6-3.2-8.1c0-3.6,1.1-6.3,3.2-8.1
			c1.6-1.5,3.9-2.3,6.9-2.3s5.3,0.8,6.8,2.3c2.1,1.8,3.2,4.5,3.2,8.1C153,48.3,151.9,51,149.8,52.9z M147.1,49.9
			c1-1.2,1.5-2.9,1.5-5.1c0-2.2-0.5-3.9-1.5-5.1c-1.1-1.2-2.4-1.9-4.1-1.9s-3.1,0.6-4.1,1.8c-1.1,1.2-1.6,2.9-1.6,5.1s0.5,4,1.6,5.1
			c1.1,1.2,2.4,1.8,4.1,1.8S146.1,51.1,147.1,49.9z"/>
	</g>
</g>
</svg>
