<?xml version="1.0" encoding="UTF-8"?><svg id="Capa_1" xmlns="http://www.w3.org/2000/svg" viewBox="0 0 320 246.25"><defs><style>.cls-1{fill:#0037c1;}.cls-2{fill:#0074ff;}.cls-3{fill:#3e4b59;}</style></defs><g><g><g><path class="cls-1" d="m207.38,147.25c-5.61,0-12.69-1.67-16.8-5.63-4.12-3.96-5.99-9.61-5.99-15.25v-28.95h15.02v28.91c0,2.67.63,5.63,2.77,7.43,2.12,1.79,5.48,2.06,8.03,1.13,3.93-1.44,4.73-5.59,4.73-9.3v-28.16h15.64v28.95c0,5.52-1.82,11.05-5.77,15.01-4.11,4.11-11.92,5.87-17.63,5.87Z"/><path class="cls-1" d="m256.05,147.29c-8,0-15.83-2.67-21.48-7.34l-.22-.18,4.73-6.17c.96-1.3,2.42-1.98,4.21-1.98,1.34,0,2.85.39,4.24,1.1,2.83,1.44,5.42,2.63,8.5,2.7h.38c3.36,0,5.18-1,5.4-2.99.32-2.86-3.17-3.69-5.73-4.31l-1.37-.33c-5.93-1.4-12.65-2.99-15.9-8.5-3.12-5.29-1.98-12.33,2.72-16.74,5-4.69,11.9-5.67,16.81-5.67.55,0,1.1.01,1.65.04,6.79.3,12.7,2.33,17.56,6.02l.22.17-3.99,6.15c-1.15,1.53-2.63,2.3-4.42,2.3-1.16,0-2.47-.33-3.91-.97-2.2-.98-4.61-1.9-7.32-1.9-.44,0-.88.02-1.32.07-.89.1-2.17.32-2.97,1.14-.45.46-.72,1.17-.69,1.81.01.32.11.77.5,1.1,1.71,1.46,4.25,2.04,6.7,2.6.75.17,1.48.34,2.17.53,6.73,1.85,13.2,4.43,15,10.69,1.68,5.84-.87,12.57-6.19,16.38-4.93,3.53-11.03,4.27-15.29,4.27Z"/></g><g><path class="cls-1" d="m288.74,97.43c-3.41,0-6.19,2.81-6.19,6.27s2.78,6.26,6.19,6.26,6.26-2.81,6.26-6.26-2.81-6.27-6.26-6.27Zm0,11.56c-2.83,0-5.22-2.42-5.22-5.29s2.38-5.3,5.22-5.3,5.29,2.38,5.29,5.3-2.37,5.29-5.29,5.29Z"/><path class="cls-1" d="m285.99,100.47h3.02c.84,0,1.48.22,1.92.67.38.38.57.88.57,1.51v.02c0,.53-.13.97-.39,1.31s-.6.58-1.02.74l1.61,2.36h-1.7l-1.41-2.11h-1.14v2.11h-1.45v-6.6Zm2.92,3.2c.36,0,.63-.08.82-.25.19-.17.29-.39.29-.68v-.02c0-.31-.1-.55-.3-.7-.2-.16-.48-.23-.84-.23h-1.44v1.88h1.47Z"/></g></g><path class="cls-1" d="m170.56,128.3c2.28-1.24,3.83-2.77,5.22-4.69,1.83-2.51,2.76-5.7,2.76-9.46v-.13c0-4.7-1.47-8.56-4.38-11.46-1.64-1.64-3.78-2.94-6.38-3.86-2.57-.92-5.75-1.38-9.43-1.38h-22.94v48.42h14.54v-14.19h4.56c.57,0,1.11,0,1.64-.02v.02s4.04,6,6.91,10.42c2.44,3.77,7.53,3.77,11.01,3.77h8.35s-8.66-12.69-11.88-17.42Zm-20.6-8.51v-9.75h7.79c1.96,0,3.53.42,4.66,1.25,1.07.79,1.59,1.96,1.59,3.59v.13c0,1.46-.51,2.59-1.56,3.45-1.08.88-2.64,1.33-4.63,1.33h-7.86Z"/></g><g><path class="cls-3" d="m135.97,155.08h3.16c.46,0,.86.07,1.21.19.35.13.65.31.88.54.18.18.32.4.42.64.1.25.15.52.15.81v.02c0,.31-.05.58-.15.83-.1.24-.24.45-.41.63s-.39.33-.64.44-.51.2-.8.25l2.26,3.01h-1.02l-2.13-2.86h-2.1v2.86h-.83v-7.37Zm3.09,3.76c.27,0,.53-.03.76-.1s.43-.17.6-.3.3-.29.39-.47c.09-.19.14-.4.14-.64v-.02c0-.46-.17-.81-.49-1.07-.33-.26-.79-.38-1.39-.38h-2.27v2.99h2.26Z"/><path class="cls-3" d="m144.17,155.08h.83v7.37h-.83v-7.37Z"/><path class="cls-3" d="m151.11,162.57c-.56,0-1.07-.1-1.53-.31-.46-.2-.85-.48-1.18-.83-.33-.35-.58-.75-.76-1.21-.18-.46-.27-.94-.27-1.45v-.02c0-.51.09-.99.27-1.45.18-.46.44-.87.77-1.22.33-.35.73-.62,1.19-.83.46-.21.97-.31,1.54-.31s1.07.1,1.53.31c.46.2.85.48,1.18.83.33.35.58.75.76,1.21.18.46.27.94.27,1.45v.02c0,.5-.09.99-.27,1.45-.18.46-.44.87-.77,1.22-.33.35-.73.62-1.19.83-.46.21-.98.31-1.54.31Zm.02-.77c.42,0,.81-.08,1.16-.24.35-.16.66-.37.91-.65s.45-.59.59-.96c.14-.36.22-.76.22-1.18v-.02c0-.42-.07-.82-.22-1.18-.14-.37-.35-.69-.6-.96-.26-.27-.57-.49-.92-.65-.35-.16-.74-.24-1.16-.24s-.81.08-1.16.24-.66.37-.91.65-.45.59-.59.96c-.14.36-.22.76-.22,1.18v.02c0,.42.07.82.22,1.18.14.37.35.69.61.96s.57.49.92.65.74.24,1.16.24Z"/><path class="cls-3" d="m163.78,162.56c-.46,0-.87-.07-1.25-.21s-.7-.34-.97-.61-.48-.61-.63-1-.22-.86-.22-1.38v-4.28h.83v4.23c0,.8.2,1.41.6,1.84s.95.64,1.65.64,1.22-.2,1.62-.61.6-1.01.6-1.82v-4.28h.83v4.22c0,.54-.07,1.01-.22,1.42s-.36.75-.63,1.02c-.27.27-.59.48-.97.62s-.79.21-1.26.21Z"/><path class="cls-3" d="m169.35,155.08h3.16c.46,0,.86.07,1.21.19.35.13.65.31.88.54.18.18.32.4.42.64.1.25.15.52.15.81v.02c0,.31-.05.58-.15.83-.1.24-.24.45-.41.63s-.39.33-.64.44-.51.2-.8.25l2.26,3.01h-1.02l-2.13-2.86h-2.1v2.86h-.83v-7.37Zm3.09,3.76c.27,0,.53-.03.76-.1s.43-.17.6-.3.3-.29.39-.47c.09-.19.14-.4.14-.64v-.02c0-.46-.17-.81-.49-1.07-.33-.26-.79-.38-1.39-.38h-2.27v2.99h2.26Z"/><path class="cls-3" d="m180.43,162.56c-.46,0-.87-.07-1.25-.21s-.7-.34-.97-.61-.48-.61-.63-1-.22-.86-.22-1.38v-4.28h.83v4.23c0,.8.2,1.41.6,1.84s.95.64,1.65.64,1.22-.2,1.62-.61.6-1.01.6-1.82v-4.28h.83v4.22c0,.54-.07,1.01-.22,1.42s-.36.75-.63,1.02c-.27.27-.59.48-.97.62s-.79.21-1.26.21Z"/><path class="cls-3" d="m189.41,162.57c-.58,0-1.1-.1-1.56-.29-.46-.2-.85-.47-1.18-.81-.33-.34-.58-.75-.75-1.2-.17-.46-.26-.95-.26-1.48v-.02c0-.51.09-.99.27-1.45.18-.46.43-.86.75-1.22.32-.35.71-.63,1.16-.84.45-.21.96-.31,1.51-.31.31,0,.59.02.85.06.26.04.49.11.72.19.22.08.43.19.62.31.19.12.38.26.56.42l-.54.63c-.14-.13-.29-.24-.44-.34-.15-.1-.32-.19-.5-.26-.18-.07-.38-.13-.59-.17-.21-.04-.45-.06-.71-.06-.41,0-.78.08-1.13.24s-.64.38-.88.65c-.25.27-.44.59-.58.96-.14.37-.21.76-.21,1.16v.02c0,.44.07.85.21,1.22.14.37.33.69.58.97s.56.49.92.64c.36.15.76.23,1.21.23.42,0,.82-.07,1.19-.22.37-.14.68-.32.94-.52v-1.83h-2.24v-.75h3.04v2.94c-.34.31-.77.57-1.27.79s-1.06.33-1.69.33Z"/><path class="cls-3" d="m197.71,162.56c-.46,0-.87-.07-1.25-.21s-.7-.34-.97-.61-.48-.61-.63-1-.22-.86-.22-1.38v-4.28h.83v4.23c0,.8.2,1.41.6,1.84s.95.64,1.65.64,1.22-.2,1.62-.61.6-1.01.6-1.82v-4.28h.83v4.22c0,.54-.07,1.01-.22,1.42s-.36.75-.63,1.02c-.27.27-.59.48-.97.62s-.79.21-1.26.21Z"/><path class="cls-3" d="m206,155.03h.78l3.36,7.42h-.89l-.86-1.95h-4.01l-.87,1.95h-.85l3.36-7.42Zm2.05,4.71l-1.67-3.75-1.68,3.75h3.36Z"/><path class="cls-3" d="m214.42,159.53l-3.06-4.45h1.01l2.48,3.68,2.5-3.68h.97l-3.06,4.44v2.92h-.83v-2.91Z"/><path class="cls-3" d="m225.75,162.55c-.59,0-1.13-.1-1.61-.29s-.95-.49-1.39-.89l.52-.61c.39.35.77.61,1.17.78.39.17.85.26,1.36.26s.9-.12,1.19-.35c.3-.23.45-.53.45-.9v-.02c0-.17-.03-.32-.08-.46-.06-.14-.15-.26-.29-.37-.14-.11-.34-.21-.58-.31-.25-.09-.57-.18-.95-.26-.42-.09-.79-.2-1.1-.32-.31-.12-.57-.26-.77-.43s-.35-.36-.45-.59c-.1-.22-.15-.49-.15-.79v-.02c0-.29.06-.55.18-.8.12-.25.29-.46.51-.64.22-.18.47-.32.77-.42.29-.1.62-.15.97-.15.54,0,1.01.08,1.42.23.4.15.79.38,1.17.68l-.48.64c-.34-.28-.69-.48-1.04-.61-.35-.13-.71-.19-1.09-.19-.48,0-.87.11-1.15.34s-.42.51-.42.85v.02c0,.18.03.33.08.47s.16.26.3.38.35.22.61.32c.26.09.59.18,1,.27.82.18,1.42.43,1.81.76.39.32.58.76.58,1.33v.02c0,.32-.06.6-.19.86-.12.26-.3.48-.52.66-.22.18-.48.32-.79.42-.31.1-.65.15-1.01.15Z"/><path class="cls-3" d="m230.49,155.08h5.32v.76h-4.49v2.51h4.02v.76h-4.02v2.58h4.55v.76h-5.38v-7.37Z"/><path class="cls-3" d="m241.48,162.57c-.58,0-1.1-.1-1.56-.29-.46-.2-.85-.47-1.18-.81-.33-.34-.58-.75-.75-1.2-.17-.46-.26-.95-.26-1.48v-.02c0-.51.09-.99.27-1.45.18-.46.43-.86.75-1.22.32-.35.71-.63,1.16-.84.45-.21.96-.31,1.51-.31.31,0,.59.02.85.06.26.04.49.11.72.19.22.08.43.19.62.31.19.12.38.26.56.42l-.54.63c-.14-.13-.29-.24-.44-.34-.15-.1-.32-.19-.5-.26-.18-.07-.38-.13-.59-.17-.21-.04-.45-.06-.71-.06-.41,0-.78.08-1.13.24s-.64.38-.88.65c-.25.27-.44.59-.58.96-.14.37-.21.76-.21,1.16v.02c0,.44.07.85.21,1.22.14.37.33.69.58.97s.56.49.92.64c.36.15.76.23,1.21.23.42,0,.82-.07,1.19-.22.37-.14.68-.32.94-.52v-1.83h-2.24v-.75h3.04v2.94c-.34.31-.77.57-1.27.79s-1.06.33-1.69.33Z"/><path class="cls-3" d="m249.78,162.56c-.46,0-.87-.07-1.25-.21s-.7-.34-.97-.61-.48-.61-.63-1-.22-.86-.22-1.38v-4.28h.83v4.23c0,.8.2,1.41.6,1.84s.95.64,1.65.64,1.22-.2,1.62-.61.6-1.01.6-1.82v-4.28h.83v4.22c0,.54-.07,1.01-.22,1.42s-.36.75-.63,1.02c-.27.27-.59.48-.97.62s-.79.21-1.26.21Z"/><path class="cls-3" d="m255.35,155.08h3.16c.46,0,.86.07,1.21.19.35.13.65.31.88.54.18.18.32.4.42.64.1.25.15.52.15.81v.02c0,.31-.05.58-.15.83-.1.24-.24.45-.41.63s-.39.33-.64.44-.51.2-.8.25l2.26,3.01h-1.02l-2.13-2.86h-2.1v2.86h-.83v-7.37Zm3.09,3.76c.27,0,.53-.03.76-.1s.43-.17.6-.3.3-.29.39-.47c.09-.19.14-.4.14-.64v-.02c0-.46-.17-.81-.49-1.07-.33-.26-.79-.38-1.39-.38h-2.27v2.99h2.26Z"/><path class="cls-3" d="m266.9,162.57c-.56,0-1.07-.1-1.53-.31-.46-.2-.85-.48-1.18-.83-.33-.35-.58-.75-.76-1.21-.18-.46-.27-.94-.27-1.45v-.02c0-.51.09-.99.27-1.45.18-.46.44-.87.77-1.22.33-.35.73-.62,1.19-.83.46-.21.97-.31,1.54-.31s1.07.1,1.53.31c.46.2.85.48,1.18.83.33.35.58.75.76,1.21.18.46.27.94.27,1.45v.02c0,.5-.09.99-.27,1.45-.18.46-.44.87-.77,1.22-.33.35-.73.62-1.19.83-.46.21-.98.31-1.54.31Zm.02-.77c.42,0,.81-.08,1.16-.24.35-.16.66-.37.91-.65s.45-.59.59-.96c.14-.36.22-.76.22-1.18v-.02c0-.42-.07-.82-.22-1.18-.14-.37-.35-.69-.6-.96-.26-.27-.57-.49-.92-.65-.35-.16-.74-.24-1.16-.24s-.81.08-1.16.24-.66.37-.91.65-.45.59-.59.96c-.14.36-.22.76-.22,1.18v.02c0,.42.07.82.22,1.18.14.37.35.69.61.96s.57.49.92.65.74.24,1.16.24Z"/><path class="cls-3" d="m275.42,162.55c-.59,0-1.13-.1-1.61-.29s-.95-.49-1.39-.89l.52-.61c.39.35.77.61,1.17.78.39.17.85.26,1.36.26s.9-.12,1.19-.35c.3-.23.45-.53.45-.9v-.02c0-.17-.03-.32-.08-.46-.06-.14-.15-.26-.29-.37-.14-.11-.34-.21-.58-.31-.25-.09-.57-.18-.95-.26-.42-.09-.79-.2-1.1-.32-.31-.12-.57-.26-.77-.43s-.35-.36-.45-.59c-.1-.22-.15-.49-.15-.79v-.02c0-.29.06-.55.18-.8.12-.25.29-.46.51-.64.22-.18.47-.32.77-.42.29-.1.62-.15.97-.15.54,0,1.01.08,1.42.23.4.15.79.38,1.17.68l-.48.64c-.34-.28-.69-.48-1.04-.61-.35-.13-.71-.19-1.09-.19-.48,0-.87.11-1.15.34s-.42.51-.42.85v.02c0,.18.03.33.08.47s.16.26.3.38.35.22.61.32c.26.09.59.18,1,.27.82.18,1.42.43,1.81.76.39.32.58.76.58,1.33v.02c0,.32-.06.6-.19.86-.12.26-.3.48-.52.66-.22.18-.48.32-.79.42-.31.1-.65.15-1.01.15Z"/></g><path class="cls-1" d="m103.04,96.25c-3.08,2.07-4.72,4.38-5.64,6.5-.58-1.2-1.69-2.5-3.13-3.56-4.77-3.52-13.49-6.17-18.98-10.21,0,0,.24,7.08,5.4,10.89,4.58,3.37,9.68,4,12.09,5.59,2.36,1.54,2.94,3.32,3.42,4.29h0v.05c.48-1.25,3.61-5.68,7.8-7.37,5.49-2.26,8.86-2.12,15.13-5.64,7.66-4.34,9.88-13.44,9.88-13.44-8.77,6.89-19.03,8.24-25.96,12.91Z"/><path class="cls-2" d="m27.58,138.02l-5.15,9.06c13.73-7.23,27.99-7.66,44.37-1.83,22.01,7.8,31.46,5.11,35.74-2.26,2.94-5.25,12.81-22.26,12.81-22.26-24.33,19.46-40.03,1.93-68.5,6.21-7.66,1.11-15.9,5.25-19.27,11.08Z"/><path class="cls-1" d="m94.89,129.87c.29-.03.58-.07.88-.1,6.15-.85,12.5-3.37,19.58-9.04l7.64-13.45c-25.92,19.41-49.18,1.25-67.58,3.23-8.82.96-13.87,3.52-17.2,9.44-3.37,5.93-4,6.79-4,6.79,4.29-2.41,10.69-3.81,16.91-4.14,15.08-.82,29.52,7.51,43.77,7.27Z"/></svg>