<?xml version="1.0" encoding="UTF-8"?><svg id="Capa_1" xmlns="http://www.w3.org/2000/svg" xmlns:xlink="http://www.w3.org/1999/xlink" viewBox="0 0 320 243"><defs><style>.cls-1{fill:none;}.cls-2{fill:url(#linear-gradient);}.cls-3{clip-path:url(#clippath);}.cls-4{fill:#1c3f94;}</style><clipPath id="clippath"><path class="cls-1" d="m81.69,59.68c-22.03,22.02-22.03,57.73,0,79.77,22.02,22.04,57.74,22.04,79.76,0,22.04-22.04,22.04-57.74,0-79.77-11.01-11.01-25.45-16.52-39.88-16.52s-28.87,5.51-39.88,16.52"/></clipPath><linearGradient id="linear-gradient" x1="214.43" y1="536.11" x2="215.62" y2="536.11" gradientTransform="translate(21188.26 -52419.23) rotate(180) scale(97.97 -97.97)" gradientUnits="userSpaceOnUse"><stop offset="0" stop-color="#fff"/><stop offset=".3" stop-color="#fcfcfc"/><stop offset=".46" stop-color="#f4f4f4"/><stop offset=".59" stop-color="#e6e7e7"/><stop offset=".7" stop-color="#d3d3d4"/><stop offset=".81" stop-color="#babbbc"/><stop offset=".9" stop-color="#9a9c9d"/><stop offset=".99" stop-color="#76787a"/><stop offset="1" stop-color="#717375"/></linearGradient></defs><g><g class="cls-3"><rect class="cls-2" x="35.96" y="16.71" width="171.23" height="171.23" transform="translate(-36.75 115.94) rotate(-45)"/></g><path d="m79.78,63.47s.33,8.2,1.91,10.1c0,0,2.85,6.01-.31,12.96,0,0,.63,5.04-4.11,6.3,0,0-4.11,4.45-3.16,6.96,0,0,.62,2.52-2.22,2.21,0,0,.95,11.35-5.05,11.04,0,0-6.98-31.59,12.94-49.57"/><path d="m81.38,96.01s4.09-5.97,3.16,1.58c0,0-2.23,4.1-1.59,5.99,0,0-3.48,2.21-3.48,5.69,0,0-2.82,2.54-3.13-1.57,0,0,.64-5.69,2.2-5.69,0,0,2.53,0,2.85-5.99"/><path d="m74.42,129.49s4.11-2.54,5.69,1.57c0,0,2.2,4.74,5.35,5.7,0,0,6,0,1.28,6.94,0,0-10.1-8.54-12.33-14.21"/><path d="m102.53,47.04s-5.36,10.76-2.52,15.47c0,0,5.06,5.06,10.11-1.58,0,0,3.15.64,2.84,6.96,0,0,0,8.21,2.85,7.89,0,0,4.1.32,3.16-4.73,0,0,4.11,12.32,9.17,13.9,0,0,9.78,1.58,1.87,6.34,0,0-13.89,11.34-1.56,23.34,0,0,3.16,2.84.95,6.96,0,0,.94,21.15-2.86,25.27,0,0,.96,4.38,3.47-.96,0,0,6.62-4.75,5.68-9.15,0,0,4.74.6,5.39-2.87.62-3.47-.95-.3-.95-.3,0,0,6.61-9.58,9.4-9.09.24.03-.23.23-.23.23,0,0,9.78-6.62,5.04-16.42,0,0-13.25-19.59-18-15.48,0,0-.31-6.93-1.58-9.18,0,0-6.97-2.21-1.89-5.67,0,0,3.47-2.21,5.05,2.85,0,0,3.48-.33-.63-7.57,0,0,2.85.62,6.93-3.78,0,0,10.13,2.5,8.25-8.24,0,0-.35-8.52-5.07-7.26,0,0,2.44,6.42-5.45,6.53-2.57.05,0,0,0,0,0,0-8.14-3.04-2.77-10.01,0,0,2.65-2.24-5.37-5.34-3.25-1.28-2.83-1.12-2.83-1.12,0,0-9.79-2.99-28.45,2.99"/><path class="cls-4" d="m140.81,99.55c0,31.21,25.38,56.56,56.56,56.56s56.58-25.36,56.58-56.56-25.36-56.55-56.58-56.55-56.56,25.37-56.56,56.55m5.69,0c0-28.03,22.84-50.88,50.88-50.88s50.86,22.85,50.86,50.88-22.81,50.88-50.86,50.88-50.88-22.84-50.88-50.88"/><path class="cls-4" d="m148.09,99.55c0,27.19,22.1,49.29,49.28,49.29s49.27-22.1,49.27-49.29-22.1-49.28-49.27-49.28-49.28,22.11-49.28,49.28m1.88,0c0-26.14,21.29-47.38,47.4-47.38s47.41,21.24,47.41,47.38-21.28,47.4-47.41,47.4c-26.12.01-47.4-21.26-47.4-47.4"/><path class="cls-4" d="m193.35,139.57l-28.43-54.48s-6.15-11.83,6.87-11.83l47.85.24s14.46-2.15,7.34,11.14l-6.85,14.2s-.25,1.69-3.33,1.91h-10.67l-.23,22.5-10.19,16.57v-44.29s-.95-5.43,5.92-5.21h11.59l2.39-6.39-39.8-.27,2.84,6.66,13.76.23s5.42.46.69,5.46l-8.05,5.18,8.52,16.12-.22,22.27Z"/></g><g><path class="cls-4" d="m178.08,191.24l.08,3.11h-.28c-.13-.78-.46-1.41-.98-1.88-.52-.47-1.08-.71-1.69-.71-.47,0-.84.12-1.11.37-.27.25-.41.54-.41.86,0,.21.05.39.14.55.13.21.35.43.64.64.21.15.71.42,1.49.8,1.09.54,1.83,1.04,2.21,1.52.38.48.57,1.02.57,1.64,0,.78-.3,1.45-.91,2.01-.61.56-1.38.85-2.31.85-.29,0-.57-.03-.83-.09-.26-.06-.59-.17-.98-.33-.22-.09-.4-.14-.54-.14-.12,0-.24.05-.38.14-.13.09-.24.23-.32.42h-.25v-3.52h.25c.2.99.59,1.75,1.17,2.27.57.52,1.2.78,1.86.78.51,0,.92-.14,1.23-.42.31-.28.46-.6.46-.98,0-.22-.06-.43-.18-.64-.12-.2-.3-.4-.53-.59s-.66-.43-1.27-.73c-.85-.42-1.46-.77-1.83-1.06-.37-.29-.66-.62-.86-.98-.2-.36-.3-.76-.3-1.2,0-.74.27-1.37.82-1.9.55-.52,1.24-.78,2.06-.78.3,0,.6.04.88.11.22.06.48.16.79.31.31.15.53.22.65.22s.21-.04.28-.11c.07-.07.13-.25.19-.53h.21Z"/><path class="cls-4" d="m182.35,191.99v3.79h.19c.59,0,1.02-.19,1.29-.56.27-.37.44-.92.51-1.64h.26v4.88h-.26c-.06-.53-.17-.97-.35-1.3-.18-.34-.38-.57-.62-.68-.23-.12-.57-.18-1.02-.18v2.62c0,.52.02.83.07.94.04.12.12.21.24.28.12.07.31.11.58.11h.56c.87,0,1.57-.2,2.09-.6.52-.4.9-1.02,1.13-1.84h.25l-.42,2.96h-8.06v-.26h.31c.27,0,.49-.05.65-.14.12-.06.21-.18.28-.33.05-.11.08-.4.08-.87v-6.13c0-.42-.01-.68-.03-.78-.05-.16-.13-.28-.26-.37-.17-.13-.41-.19-.72-.19h-.31v-.26h7.8v2.76h-.26c-.13-.68-.32-1.16-.56-1.45-.24-.29-.58-.51-1.02-.65-.26-.08-.74-.12-1.44-.12h-.96Z"/><path class="cls-4" d="m196.83,191.24v3.29h-.25c-.31-.9-.77-1.58-1.38-2.05-.61-.47-1.29-.7-2.02-.7s-1.28.2-1.74.59c-.46.39-.79.94-.98,1.64-.19.7-.29,1.42-.29,2.16,0,.89.11,1.68.32,2.35.21.67.55,1.17,1.02,1.48.47.32,1.03.48,1.67.48.23,0,.46-.03.69-.07.24-.05.48-.12.73-.21v-1.94c0-.37-.02-.6-.07-.71-.05-.11-.16-.2-.31-.29-.16-.09-.35-.13-.58-.13h-.24v-.25h4.53v.25c-.34.02-.58.07-.72.14-.13.07-.24.19-.31.35-.04.09-.06.3-.06.64v1.94c-.6.27-1.22.47-1.86.6-.64.14-1.31.2-2,.2-.88,0-1.62-.12-2.2-.36-.59-.24-1.1-.56-1.55-.95-.45-.39-.8-.83-1.05-1.32-.32-.63-.48-1.34-.48-2.13,0-1.4.49-2.59,1.48-3.56.99-.97,2.23-1.45,3.72-1.45.46,0,.88.04,1.25.11.2.04.53.14.98.31.45.17.72.26.8.26.13,0,.25-.05.36-.14.11-.09.21-.27.3-.53h.25Z"/><path class="cls-4" d="m197.61,191.45h4.81v.26h-.24c-.36,0-.61.04-.75.11-.14.07-.23.18-.29.31-.06.13-.09.46-.09,1v4.57c0,.84.06,1.39.19,1.66.13.27.33.5.62.67.29.18.65.27,1.09.27.5,0,.93-.11,1.29-.34s.62-.54.8-.94c.18-.4.26-1.09.26-2.09v-3.8c0-.42-.04-.72-.13-.89-.09-.18-.2-.3-.33-.37-.21-.11-.5-.16-.87-.16v-.26h3.22v.26h-.19c-.26,0-.48.05-.65.16-.18.1-.3.26-.38.47-.06.15-.09.41-.09.79v3.54c0,1.1-.07,1.89-.22,2.37-.15.48-.5.93-1.06,1.34-.56.41-1.32.61-2.29.61-.81,0-1.43-.11-1.87-.33-.6-.29-1.02-.67-1.27-1.13-.25-.46-.37-1.08-.37-1.85v-4.57c0-.54-.03-.87-.09-1-.06-.13-.16-.24-.31-.31-.15-.08-.42-.12-.81-.11v-.26Z"/><path class="cls-4" d="m210.41,196.53v2.61c0,.51.03.82.09.95.06.13.17.23.33.31.16.08.45.12.87.12v.26h-4.77v-.26c.43,0,.72-.04.88-.12.15-.08.26-.18.32-.31.06-.13.09-.44.09-.95v-6.05c0-.51-.03-.82-.09-.95-.06-.13-.17-.23-.33-.31-.16-.08-.45-.12-.87-.12v-.26h4.33c1.13,0,1.95.08,2.48.23.52.16.95.44,1.28.86.33.42.49.91.49,1.47,0,.69-.25,1.26-.74,1.71-.32.28-.76.5-1.33.64l2.24,3.16c.29.41.5.66.63.76.19.14.41.22.65.23v.26h-2.94l-3-4.25h-.61Zm0-4.57v4.08h.39c.64,0,1.11-.06,1.43-.18.32-.12.56-.33.75-.63.18-.31.27-.7.27-1.19,0-.71-.17-1.24-.5-1.57-.33-.34-.87-.51-1.61-.51h-.74Z"/><path class="cls-4" d="m221.49,191.32c1.49-.06,2.69.38,3.62,1.3.93.92,1.39,2.07,1.39,3.46,0,1.18-.35,2.22-1.04,3.12-.92,1.19-2.21,1.79-3.89,1.79s-2.98-.57-3.89-1.71c-.72-.9-1.09-1.96-1.09-3.2,0-1.38.47-2.54,1.41-3.46.94-.92,2.1-1.36,3.48-1.3m.08.44c-.85,0-1.5.44-1.95,1.3-.36.72-.54,1.74-.54,3.08,0,1.59.28,2.77.84,3.53.39.53.94.8,1.64.8.47,0,.87-.12,1.18-.34.4-.29.72-.76.94-1.41.23-.65.34-1.49.34-2.52,0-1.23-.11-2.15-.34-2.77-.23-.61-.52-1.04-.88-1.3-.35-.25-.76-.38-1.23-.38"/><path class="cls-4" d="m232.83,191.24l.08,3.11h-.28c-.13-.78-.46-1.41-.98-1.88-.52-.47-1.08-.71-1.69-.71-.47,0-.84.12-1.11.37-.27.25-.41.54-.41.86,0,.21.05.39.14.55.13.21.35.43.64.64.22.15.71.42,1.49.8,1.09.54,1.83,1.04,2.21,1.52.38.48.56,1.02.56,1.64,0,.78-.3,1.45-.91,2.01-.61.56-1.38.85-2.31.85-.29,0-.57-.03-.83-.09-.26-.06-.59-.17-.98-.33-.22-.09-.4-.14-.54-.14-.12,0-.25.05-.38.14-.13.09-.24.23-.32.42h-.25v-3.52h.25c.2.99.59,1.75,1.17,2.27.58.52,1.2.78,1.86.78.51,0,.92-.14,1.23-.42.31-.28.46-.6.46-.98,0-.22-.06-.43-.18-.64-.12-.2-.29-.4-.53-.59-.24-.19-.66-.43-1.27-.73-.85-.42-1.46-.77-1.83-1.06-.37-.29-.66-.62-.86-.98-.2-.36-.3-.76-.3-1.2,0-.74.27-1.37.82-1.9.55-.52,1.23-.78,2.06-.78.3,0,.6.04.88.11.22.06.48.16.79.31s.53.22.65.22.21-.04.28-.11c.07-.07.13-.25.19-.53h.21Z"/><path class="cls-4" d="m242.61,191.24l.08,3.11h-.28c-.13-.78-.46-1.41-.98-1.88-.52-.47-1.08-.71-1.69-.71-.47,0-.84.12-1.11.37-.27.25-.41.54-.41.86,0,.21.05.39.14.55.13.21.34.43.64.64.21.15.71.42,1.49.8,1.09.54,1.83,1.04,2.21,1.52.38.48.57,1.02.57,1.64,0,.78-.31,1.45-.91,2.01-.61.56-1.38.85-2.31.85-.29,0-.57-.03-.83-.09-.26-.06-.59-.17-.98-.33-.22-.09-.4-.14-.54-.14-.12,0-.25.05-.38.14-.13.09-.24.23-.32.42h-.25v-3.52h.25c.2.99.59,1.75,1.17,2.27.58.52,1.2.78,1.86.78.51,0,.92-.14,1.23-.42.31-.28.46-.6.46-.98,0-.22-.06-.43-.18-.64-.12-.2-.29-.4-.53-.59-.24-.19-.66-.43-1.26-.73-.85-.42-1.46-.77-1.83-1.06-.37-.29-.66-.62-.86-.98-.2-.36-.3-.76-.3-1.2,0-.74.27-1.37.82-1.9.55-.52,1.23-.78,2.06-.78.3,0,.6.04.88.11.21.06.48.16.79.31.31.15.53.22.65.22s.21-.04.28-.11c.07-.07.13-.25.19-.53h.21Z"/><path class="cls-4" d="m244.41,199.12c.25,0,.46.09.64.26.17.18.26.39.26.64s-.09.46-.26.63c-.17.17-.39.26-.63.26s-.46-.09-.63-.26c-.17-.18-.26-.39-.26-.63s.09-.46.26-.64c.18-.18.39-.26.63-.26"/><path class="cls-4" d="m251.03,198.13h-3.29l-.39.91c-.13.3-.19.55-.19.75,0,.26.1.46.32.58.12.07.43.13.91.16v.26h-3.1v-.26c.34-.05.61-.19.83-.41.22-.23.48-.7.8-1.41l3.34-7.44h.13l3.36,7.65c.32.72.59,1.18.79,1.37.16.14.38.22.66.25v.26h-4.51v-.26h.18c.36,0,.62-.05.76-.15.1-.07.15-.18.15-.32,0-.08-.01-.17-.04-.25,0-.04-.08-.21-.21-.52l-.5-1.16Zm-.23-.51l-1.39-3.21-1.43,3.21h2.82Z"/><path class="cls-4" d="m255.93,199.12c.25,0,.46.09.64.26.17.18.26.39.26.64s-.09.46-.26.63c-.18.17-.39.26-.63.26s-.46-.09-.63-.26c-.17-.18-.26-.39-.26-.63s.09-.46.26-.64c.17-.18.39-.26.63-.26"/><path class="cls-4" d="m66.21,173.75v4.75h.33c.51,0,.93-.08,1.25-.23.32-.15.6-.41.82-.78.22-.36.37-.85.44-1.47h.3v5.8h-.3c-.11-1.1-.4-1.82-.88-2.17-.48-.35-1.02-.52-1.63-.52h-.33v3.54c0,.59.03.96.1,1.11.07.15.19.28.38.39.19.11.45.17.77.17h.38v.32h-6.04v-.32h.38c.34,0,.61-.06.81-.18.15-.08.26-.21.34-.41.06-.14.09-.5.09-1.07v-7.6c0-.59-.03-.96-.09-1.11-.06-.15-.19-.28-.38-.39-.19-.11-.45-.17-.77-.17h-.38v-.31h9.75v3.31h-.35c-.08-.78-.28-1.35-.61-1.73-.33-.37-.8-.64-1.42-.79-.34-.09-.97-.13-1.89-.13h-1.07Z"/><path class="cls-4" d="m75.52,173.75v4.7h.23c.73,0,1.26-.23,1.59-.69.33-.46.54-1.14.63-2.03h.32v6.05h-.32c-.07-.66-.21-1.2-.43-1.62-.22-.42-.47-.7-.76-.85-.29-.14-.71-.22-1.26-.22v3.26c0,.64.03,1.03.08,1.17.05.14.15.26.3.35.15.09.39.14.72.14h.69c1.08,0,1.94-.25,2.59-.75.65-.5,1.12-1.26,1.4-2.28h.32l-.52,3.67h-9.99v-.32h.38c.34,0,.61-.06.81-.18.15-.08.26-.21.34-.41.06-.14.09-.5.09-1.07v-7.6c0-.52-.02-.85-.04-.96-.06-.2-.16-.35-.32-.46-.22-.16-.51-.24-.89-.24h-.38v-.31h9.67v3.42h-.32c-.16-.84-.4-1.44-.69-1.8-.3-.36-.72-.63-1.27-.8-.32-.1-.91-.15-1.79-.15h-1.19Z"/><path class="cls-4" d="m81.33,184.64v-.32h.38c.33,0,.59-.05.77-.16.18-.11.31-.25.4-.43.05-.12.08-.48.08-1.07v-7.6c0-.59-.03-.96-.09-1.11-.06-.15-.19-.28-.38-.39-.19-.11-.45-.17-.77-.17h-.38v-.31h5.17c1.38,0,2.49.19,3.33.56,1.03.46,1.81,1.16,2.34,2.09.53.93.8,1.99.8,3.16,0,.81-.13,1.56-.39,2.25-.26.68-.6,1.25-1.02,1.7-.41.45-.89.8-1.43,1.07-.54.27-1.21.48-1.99.63-.35.07-.89.1-1.64.1h-5.17Zm4.41-10.9v9.02c0,.48.02.77.07.88.05.11.12.19.23.25.15.08.37.13.66.13.95,0,1.67-.32,2.17-.97.68-.88,1.02-2.23,1.02-4.07,0-1.48-.23-2.67-.7-3.55-.37-.69-.84-1.17-1.42-1.41-.41-.18-1.09-.26-2.04-.26"/><path class="cls-4" d="m97.15,173.75v4.7h.23c.73,0,1.27-.23,1.59-.69.33-.46.54-1.14.63-2.03h.32v6.05h-.32c-.07-.66-.21-1.2-.43-1.62-.22-.42-.47-.7-.76-.85-.29-.14-.71-.22-1.26-.22v3.26c0,.64.03,1.03.08,1.17.05.14.15.26.3.35.15.09.39.14.72.14h.69c1.08,0,1.94-.25,2.59-.75.65-.5,1.12-1.26,1.4-2.28h.32l-.52,3.67h-9.99v-.32h.38c.34,0,.61-.06.81-.18.15-.08.26-.21.34-.41.06-.14.09-.5.09-1.07v-7.6c0-.52-.01-.85-.04-.96-.06-.2-.16-.35-.32-.46-.22-.16-.51-.24-.89-.24h-.38v-.31h9.67v3.42h-.32c-.16-.84-.4-1.44-.69-1.8s-.72-.63-1.27-.8c-.32-.1-.91-.15-1.79-.15h-1.19Z"/><path class="cls-4" d="m107.36,179.38v3.24c0,.62.04,1.02.12,1.18.08.16.21.29.4.39.19.1.55.14,1.08.14v.32h-5.91v-.32c.53,0,.89-.05,1.09-.15.19-.1.32-.23.4-.39.08-.16.12-.55.12-1.18v-7.5c0-.62-.04-1.02-.12-1.18-.08-.16-.21-.29-.4-.39-.19-.1-.55-.15-1.08-.15v-.32h5.37c1.4,0,2.42.1,3.07.29.65.19,1.18.55,1.59,1.07.41.52.61,1.13.61,1.83,0,.85-.31,1.56-.92,2.11-.39.35-.94.62-1.64.79l2.78,3.91c.36.51.62.82.78.94.23.18.5.27.81.29v.32h-3.64l-3.72-5.27h-.76Zm0-5.67v5.06h.49c.79,0,1.38-.07,1.77-.22.39-.14.7-.4.92-.78.23-.38.34-.87.34-1.48,0-.88-.21-1.53-.62-1.95-.41-.42-1.08-.63-1.99-.63h-.91Z"/><path class="cls-4" d="m121.28,181.35h-4.08l-.49,1.12c-.16.37-.24.69-.24.93,0,.32.13.56.39.72.15.09.53.16,1.13.2v.32h-3.84v-.32c.42-.06.76-.23,1.02-.52.27-.28.6-.86.99-1.74l4.13-9.22h.16l4.17,9.47c.4.9.72,1.46.98,1.7.19.18.47.28.82.31v.32h-5.59v-.32h.23c.45,0,.76-.06.95-.19.12-.09.19-.22.19-.39,0-.1-.02-.21-.05-.32-.01-.05-.1-.26-.26-.64l-.61-1.44Zm-.29-.63l-1.72-3.98-1.77,3.98h3.49Z"/><path class="cls-4" d="m136.96,172.82v4h-.33c-.25-1.04-.71-1.84-1.4-2.4-.68-.56-1.46-.84-2.32-.84-.72,0-1.38.21-1.99.62-.6.41-1.04.96-1.32,1.63-.36.86-.54,1.81-.54,2.86s.13,1.98.39,2.82c.26.85.67,1.49,1.23,1.93.56.44,1.28.65,2.16.65.73,0,1.39-.16,2-.48.6-.32,1.24-.87,1.91-1.64v1c-.65.67-1.32,1.17-2.02,1.47-.7.31-1.52.46-2.46.46-1.23,0-2.33-.25-3.29-.74-.96-.5-1.7-1.2-2.22-2.13-.52-.93-.78-1.91-.78-2.96,0-1.1.29-2.15.87-3.14.58-.99,1.35-1.76,2.33-2.3.98-.55,2.02-.82,3.13-.82.81,0,1.67.18,2.57.53.52.2.86.31,1,.31.18,0,.34-.07.47-.2.13-.13.22-.35.26-.64h.33Z"/><path class="cls-4" d="m143,184.33v.32h-6.04v-.32h.38c.33,0,.6-.06.81-.18.15-.08.26-.22.34-.41.06-.14.09-.5.09-1.07v-7.6c0-.59-.03-.96-.09-1.11-.06-.15-.19-.28-.38-.39-.19-.11-.45-.17-.77-.17h-.38v-.32h6.04v.32h-.38c-.34,0-.61.06-.81.18-.15.08-.26.22-.35.41-.06.14-.09.49-.09,1.07v7.6c0,.59.03.96.1,1.11.06.15.19.28.38.39.19.11.45.17.77.17h.38Z"/><path class="cls-4" d="m148.83,172.92c1.84-.07,3.34.47,4.49,1.61,1.15,1.14,1.72,2.57,1.72,4.29,0,1.47-.43,2.76-1.29,3.87-1.14,1.48-2.74,2.22-4.81,2.22s-3.69-.71-4.82-2.11c-.9-1.11-1.35-2.43-1.35-3.96,0-1.71.58-3.15,1.75-4.29,1.17-1.14,2.6-1.68,4.31-1.62m.1.55c-1.06,0-1.86.54-2.41,1.62-.45.88-.67,2.16-.67,3.82,0,1.97.35,3.43,1.04,4.37.48.66,1.16.99,2.03.99.59,0,1.07-.14,1.47-.43.5-.36.89-.94,1.17-1.74.28-.8.42-1.84.42-3.12,0-1.53-.14-2.67-.43-3.43-.28-.76-.65-1.3-1.09-1.61-.44-.31-.95-.47-1.52-.47"/><path class="cls-4" d="m158.7,173.09l5.7,7.17v-4.97c0-.69-.1-1.16-.3-1.41-.27-.33-.73-.49-1.37-.48v-.32h3.82v.32c-.49.06-.82.14-.98.24-.17.1-.3.26-.39.48-.09.22-.14.61-.14,1.16v9.62h-.29l-7.81-9.62v7.34c0,.66.15,1.11.46,1.35.3.23.65.35,1.04.35h.27v.32h-4.1v-.32c.64,0,1.08-.14,1.33-.39.25-.26.38-.69.38-1.3v-8.15l-.25-.31c-.25-.31-.46-.51-.65-.6-.19-.1-.46-.15-.81-.16v-.32h4.1Z"/><path class="cls-4" d="m176.47,179.41v3.2c0,.62.04,1.02.12,1.18.08.16.21.29.41.39.2.1.55.14,1.08.14v.32h-5.87v-.32c.53,0,.9-.05,1.09-.15.19-.1.32-.23.4-.39.08-.16.12-.55.12-1.18v-7.5c0-.63-.04-1.02-.12-1.18-.08-.16-.21-.29-.4-.39-.19-.1-.55-.15-1.08-.15v-.31h5.03c1.66,0,2.85.29,3.57.88.72.59,1.08,1.33,1.08,2.22,0,.75-.23,1.39-.7,1.93-.47.53-1.11.9-1.93,1.09-.55.14-1.48.2-2.79.2m0-5.66v4.99c.19,0,.33.02.43.02.69,0,1.23-.2,1.6-.62.37-.41.56-1.05.56-1.92s-.19-1.49-.56-1.88c-.38-.4-.94-.6-1.68-.6h-.35Z"/><path class="cls-4" d="m187.07,181.35h-4.08l-.49,1.12c-.16.37-.24.69-.24.93,0,.32.13.56.39.72.15.09.53.16,1.13.2v.32h-3.84v-.32c.41-.06.75-.23,1.02-.52.27-.28.6-.86.99-1.74l4.13-9.22h.16l4.17,9.47c.4.9.72,1.46.98,1.7.19.18.47.28.82.31v.32h-5.59v-.32h.23c.45,0,.76-.06.94-.19.13-.09.19-.22.19-.39,0-.1-.02-.21-.05-.32-.01-.05-.1-.26-.26-.64l-.61-1.44Zm-.29-.63l-1.72-3.98-1.77,3.98h3.49Z"/><path class="cls-4" d="m200.82,173.09v3.13h-.31c-.18-.72-.38-1.24-.6-1.56-.22-.31-.53-.57-.91-.75-.22-.1-.59-.15-1.13-.15h-.86v8.91c0,.59.03.96.1,1.11.06.15.19.28.38.39.19.11.45.17.78.17h.38v.32h-6.05v-.32h.38c.34,0,.61-.06.81-.18.15-.08.26-.22.35-.41.06-.14.1-.5.1-1.07v-8.91h-.84c-.78,0-1.34.16-1.7.49-.49.46-.81,1.12-.94,1.97h-.32v-3.13h10.38Z"/><path class="cls-4" d="m204.78,179.38v3.24c0,.62.04,1.02.12,1.18.08.16.21.29.4.39.19.1.55.14,1.08.14v.32h-5.91v-.32c.53,0,.9-.05,1.09-.15.19-.1.33-.23.4-.39.08-.16.12-.55.12-1.18v-7.5c0-.62-.04-1.02-.12-1.18-.08-.16-.21-.29-.4-.39-.19-.1-.55-.15-1.08-.15v-.32h5.37c1.4,0,2.42.1,3.07.29.65.19,1.18.55,1.59,1.07.41.52.61,1.13.61,1.83,0,.85-.31,1.56-.92,2.11-.39.35-.94.62-1.64.79l2.78,3.91c.36.51.62.82.78.94.23.18.5.27.81.29v.32h-3.64l-3.72-5.27h-.76Zm0-5.67v5.06h.49c.79,0,1.38-.07,1.77-.22.39-.14.7-.4.92-.78.23-.38.34-.87.34-1.48,0-.88-.21-1.53-.62-1.95-.41-.42-1.07-.63-1.99-.63h-.91Z"/><path class="cls-4" d="m218.18,172.92c1.84-.07,3.34.47,4.49,1.61,1.15,1.14,1.73,2.57,1.73,4.29,0,1.47-.43,2.76-1.29,3.87-1.14,1.48-2.74,2.22-4.82,2.22s-3.69-.71-4.82-2.11c-.9-1.11-1.35-2.43-1.35-3.96,0-1.71.58-3.15,1.75-4.29,1.17-1.14,2.61-1.68,4.31-1.62m.1.55c-1.06,0-1.86.54-2.41,1.62-.45.88-.67,2.16-.67,3.82,0,1.97.35,3.43,1.04,4.37.48.66,1.16.99,2.03.99.59,0,1.07-.14,1.47-.43.5-.36.89-.94,1.17-1.74.28-.8.42-1.84.42-3.12,0-1.53-.14-2.67-.43-3.43-.28-.76-.65-1.3-1.09-1.61-.44-.31-.95-.47-1.52-.47"/><path class="cls-4" d="m228.05,173.09l5.7,7.17v-4.97c0-.69-.1-1.16-.3-1.41-.27-.33-.73-.49-1.37-.48v-.32h3.82v.32c-.49.06-.82.14-.98.24-.17.1-.3.26-.39.48-.09.22-.14.61-.14,1.16v9.62h-.29l-7.81-9.62v7.34c0,.66.15,1.11.46,1.35.3.23.65.35,1.05.35h.27v.32h-4.1v-.32c.64,0,1.08-.14,1.33-.39.25-.26.37-.69.37-1.3v-8.15l-.25-.31c-.25-.31-.46-.51-.65-.6-.19-.1-.46-.15-.81-.16v-.32h4.1Z"/><path class="cls-4" d="m242.26,181.35h-4.08l-.49,1.12c-.16.37-.24.69-.24.93,0,.32.13.56.39.72.15.09.53.16,1.13.2v.32h-3.84v-.32c.41-.06.76-.23,1.02-.52.27-.28.6-.86.99-1.74l4.13-9.22h.16l4.17,9.47c.4.9.72,1.46.98,1.7.19.18.47.28.82.31v.32h-5.59v-.32h.23c.45,0,.76-.06.95-.19.13-.09.19-.22.19-.39,0-.1-.02-.21-.05-.32,0-.05-.1-.26-.26-.64l-.61-1.44Zm-.29-.63l-1.72-3.98-1.77,3.98h3.49Z"/><path class="cls-4" d="m257.31,180.58l-.43,4.06h-10.26v-.32h.38c.33,0,.6-.06.81-.18.15-.08.26-.22.34-.41.06-.14.09-.5.09-1.07v-7.6c0-.59-.03-.96-.09-1.11-.06-.15-.19-.28-.38-.39-.19-.11-.45-.17-.77-.17h-.38v-.32h6.16v.32h-.5c-.34,0-.61.06-.81.18-.15.08-.26.21-.35.41-.06.14-.09.49-.09,1.07v7.36c0,.59.03.97.1,1.13.07.16.2.28.4.36.14.05.49.08,1.03.08h.96c.61,0,1.13-.11,1.53-.32.41-.22.76-.56,1.06-1.02.3-.47.58-1.16.85-2.06h.35Z"/></g></svg>