<?xml version="1.0" encoding="UTF-8"?><svg id="Capa_1" xmlns="http://www.w3.org/2000/svg" xmlns:xlink="http://www.w3.org/1999/xlink" viewBox="0 0 320 246.5"><defs><style>.cls-1{fill:none;}.cls-2{clip-path:url(#clippath);}.cls-3{fill:#fff;}.cls-4{fill:#163881;}.cls-5{fill:#17a4cc;}.cls-6{fill:url(#Degradado_sin_nombre_2);}</style><clipPath id="clippath"><path class="cls-1" d="m254.48,110.57l-2.81,4.89c3.19,5.55,8.57,14.94,10.81,18.88l.03-.02,2.09,3.62c1.41,2.45,4.54,3.29,6.99,1.87,2.45-1.41,3.29-4.54,1.88-6.99l-2.28-3.95c-1.02-1.79-2.09-3.63-3.15-5.45,0,0-6.35-10.41-8.48-13.81-.43-.59-1.19-.99-2.05-.99-1.01,0-2.15.55-3.02,1.95"/></clipPath><linearGradient id="Degradado_sin_nombre_2" x1="-158.75" y1="532.22" x2="-156.83" y2="532.22" gradientTransform="translate(-8577.8 -2495.73) rotate(-90) scale(16.61)" gradientUnits="userSpaceOnUse"><stop offset="0" stop-color="#fff"/><stop offset=".16" stop-color="#fff"/><stop offset=".24" stop-color="#f6f8fa"/><stop offset=".36" stop-color="#e0e4ee"/><stop offset=".51" stop-color="#bbc5da"/><stop offset=".68" stop-color="#889abf"/><stop offset=".86" stop-color="#48639c"/><stop offset="1" stop-color="#163881"/><stop offset="1" stop-color="#163881"/></linearGradient></defs><path class="cls-4" d="m242.24,80.14c24.68,0,44.76,20.08,44.76,44.76s-20.08,44.76-44.76,44.76-44.76-20.08-44.76-44.76,20.08-44.76,44.76-44.76"/><g class="cls-2"><rect class="cls-6" x="251.67" y="108.62" width="23.2" height="32.61"/></g><g><path class="cls-3" d="m245.08,107.68s-.81,1.17-.96,1.41c-1.99,3.19-13.91,23.18-13.91,23.18-1.42,2.45-.58,5.58,1.87,6.99,2.45,1.41,5.58.57,6.99-1.87l15.41-26.81c1.6-2.6,4.15-2.26,5.07-.96-4.68-6.59-10.38-6.74-14.47-1.94"/><path class="cls-5" d="m230.35,112.68c-2.45-1.41-5.58-.57-6.99,1.87l-10.87,18.27c-1.41,2.45-.57,5.58,1.87,6.99,2.45,1.41,5.58.57,6.99-1.87l10.87-18.27c1.41-2.44.58-5.58-1.87-6.99"/><path class="cls-4" d="m45.12,109.27l7.23-13.98c.14-.29.34-.55.59-.79.25-.23.58-.35.98-.35h1.36c.26,0,.49.09.68.29.19.19.29.42.29.68v23.1c0,.26-.1.49-.29.68-.19.19-.42.28-.68.28h-1.47c-.26,0-.49-.09-.68-.28-.19-.19-.29-.42-.29-.68v-16.95l-5.58,10.77c-.19.36-.4.64-.61.84-.22.2-.5.31-.86.31h-1.36c-.36,0-.64-.1-.86-.31-.21-.2-.42-.48-.61-.84l-5.58-10.77v16.95c0,.26-.1.49-.29.68-.19.19-.41.28-.68.28h-1.47c-.26,0-.49-.09-.68-.28-.19-.19-.29-.42-.29-.68v-23.1c0-.26.09-.49.29-.68.19-.19.42-.29.68-.29h1.36c.4,0,.73.12.98.35.25.24.45.5.59.79l7.22,13.98Z"/><path class="cls-4" d="m60.97,108.09c.09-1.1.35-2.12.79-3.07.43-.96.99-1.79,1.68-2.51.69-.71,1.52-1.28,2.49-1.68.97-.41,2.04-.61,3.24-.61,1.29,0,2.44.21,3.45.63,1.01.42,1.88,1.02,2.59,1.81.72.79,1.27,1.74,1.64,2.86.38,1.12.57,2.37.57,3.75v.97c0,.26-.09.49-.29.68-.19.19-.42.29-.68.29h-12.3v.21c.05,1.62.54,2.87,1.48,3.74.94.87,2.12,1.31,3.53,1.31,1.31,0,2.29-.18,2.95-.55.65-.37,1.18-.78,1.59-1.23.19-.19.36-.32.5-.39.15-.07.36-.11.64-.11h1.07c.26,0,.5.1.71.29.22.19.3.42.25.68-.07.43-.27.9-.61,1.41-.33.51-.82.99-1.45,1.43-.63.44-1.42.81-2.36,1.11-.94.3-2.05.45-3.31.45-1.19,0-2.26-.21-3.22-.62-.95-.42-1.78-.99-2.49-1.72-.7-.73-1.27-1.59-1.7-2.58-.43-.99-.69-2.07-.79-3.24-.12-1.1-.12-2.19,0-3.29m3.18.11h10.05v-.11c0-1.46-.46-2.62-1.38-3.49-.92-.87-2.14-1.31-3.66-1.31-.69,0-1.34.12-1.93.34-.6.23-1.12.55-1.57.97-.45.42-.81.92-1.07,1.52-.26.6-.41,1.26-.43,1.97v.11Z"/><path class="cls-4" d="m91.01,100.58c.26,0,.49.09.68.29.19.19.29.42.29.68v1.14c0,.26-.1.49-.29.68-.19.19-.42.29-.68.29h-2.07c-2.74,0-4.11,1.37-4.11,4.11v10.44c0,.26-.1.49-.29.68-.19.19-.42.28-.68.28h-1.32c-.26,0-.49-.09-.68-.28-.19-.19-.29-.42-.29-.68v-16.66c0-.26.09-.49.29-.68.19-.19.42-.29.68-.29h1.32c.26,0,.49.09.68.29.19.19.29.42.29.68v1.11c.47-.71,1.05-1.24,1.72-1.57.66-.34,1.54-.5,2.61-.5h1.86Z"/><path class="cls-4" d="m96.91,111.13c.1.96.31,1.77.63,2.43.32.67.71,1.21,1.18,1.64.46.43.99.74,1.56.95.57.2,1.16.3,1.75.3,1.15,0,2.12-.21,2.93-.64.81-.43,1.44-1.15,1.89-2.15.17-.38.34-.64.52-.77.18-.13.4-.19.66-.19h1.07c.27,0,.5.09.7.28.2.19.29.42.27.68-.02.57-.21,1.2-.56,1.88-.34.68-.86,1.31-1.54,1.9-.68.58-1.51,1.08-2.5,1.48-.99.4-2.14.61-3.45.61s-2.47-.21-3.49-.64c-1.01-.43-1.87-1.01-2.57-1.75-.7-.74-1.25-1.61-1.65-2.61-.39-1-.61-2.07-.66-3.22-.02-.38-.04-.85-.05-1.41,0-.56,0-1.05.05-1.45.1-1.14.34-2.22.74-3.22.39-1,.93-1.87,1.63-2.61.69-.74,1.54-1.32,2.54-1.75,1-.43,2.16-.64,3.47-.64s2.46.2,3.45.6c.99.41,1.82.9,2.5,1.48.68.59,1.19,1.22,1.54,1.9.35.68.53,1.31.56,1.88.02.26-.07.49-.27.68-.2.19-.43.28-.7.28h-1.07c-.26,0-.48-.06-.66-.19-.18-.13-.35-.39-.52-.77-.45-1-1.08-1.72-1.89-2.15-.81-.43-1.79-.64-2.93-.64-.6,0-1.19.1-1.77.3-.58.21-1.11.52-1.58.95-.46.43-.86.98-1.18,1.64-.32.67-.52,1.48-.59,2.43-.07.88-.07,1.72,0,2.5"/><path class="cls-4" d="m112.86,114.49c0-.95.19-1.79.57-2.5.38-.71.91-1.32,1.57-1.83.67-.5,1.45-.91,2.34-1.22s1.84-.55,2.84-.71l5.04-.83v-.46c0-1.22-.4-2.13-1.2-2.73-.8-.61-1.79-.91-2.99-.91-1.05,0-1.84.19-2.38.57-.54.38-1,.84-1.38,1.36-.14.19-.3.32-.46.39-.17.07-.39.11-.68.11h-1.07c-.26,0-.5-.1-.7-.29-.2-.19-.29-.42-.27-.68.05-.52.25-1.06.62-1.61.37-.55.87-1.04,1.5-1.47.63-.43,1.36-.78,2.18-1.05.82-.28,1.7-.41,2.63-.41,1.07,0,2.07.15,2.99.47.92.31,1.7.76,2.36,1.36.65.59,1.17,1.33,1.54,2.22.37.88.55,1.89.55,3.04v10.9c0,.26-.09.49-.29.68-.19.19-.42.28-.68.28h-1.32c-.26,0-.49-.1-.68-.28-.19-.19-.29-.42-.29-.68v-1.47c-.21.45-.55.85-1,1.2-.45.35-.97.64-1.55.88-.59.24-1.19.42-1.83.54-.63.12-1.22.18-1.77.18-.93,0-1.78-.13-2.56-.39-.78-.26-1.43-.61-1.97-1.06-.54-.44-.96-.97-1.25-1.59-.3-.62-.45-1.29-.45-2m6.58,1.97c.86,0,1.64-.13,2.36-.39.71-.26,1.33-.63,1.84-1.09.51-.47.91-1.02,1.18-1.66.27-.64.41-1.36.41-2.14v-.89l-4.22.68c-1.5.24-2.69.62-3.58,1.15-.88.52-1.32,1.2-1.32,2.04,0,.26.06.52.18.79.12.26.31.51.57.75.26.24.6.43,1.02.57.42.14.94.21,1.56.21"/><path class="cls-4" d="m150.05,118.21c0,.26-.1.49-.29.68-.19.19-.42.28-.68.28h-1.32c-.26,0-.49-.1-.68-.28-.19-.19-.29-.42-.29-.68v-9.44c0-1.83-.44-3.21-1.32-4.11-.88-.91-2.11-1.36-3.68-1.36s-2.71.45-3.63,1.36c-.92.91-1.38,2.28-1.38,4.11v9.44c0,.26-.1.49-.29.68-.19.19-.42.28-.68.28h-1.32c-.26,0-.49-.1-.68-.28-.19-.19-.29-.42-.29-.68v-16.66c0-.26.1-.49.29-.68.19-.19.42-.29.68-.29h1.32c.26,0,.49.09.68.29.19.19.29.42.29.68v1.11c.45-.59,1.13-1.15,2.02-1.66.89-.51,2.07-.77,3.52-.77,1.12,0,2.16.18,3.11.55.96.37,1.77.89,2.45,1.58.68.68,1.21,1.52,1.59,2.52.38,1,.57,2.13.57,3.36v9.98Z"/><path class="cls-4" d="m159.63,112.92c0,.45.04.88.13,1.27.08.4.23.74.45,1.02.22.28.52.51.91.66.4.16.9.24,1.52.24h1.89c.26,0,.49.09.68.28.19.19.29.42.29.68v1.14c0,.26-.1.49-.29.68-.19.19-.42.28-.68.28h-2.25c-2.07,0-3.58-.54-4.51-1.61-.93-1.07-1.4-2.62-1.4-4.65v-9.26h-2.64c-.26,0-.49-.09-.68-.28-.19-.19-.29-.42-.29-.68v-1.15c0-.26.09-.49.29-.68.19-.19.42-.28.68-.28h2.64v-5.83c0-.26.1-.49.29-.68.19-.19.42-.29.68-.29h1.32c.26,0,.49.1.68.29.19.19.29.42.29.68v5.83h4.54c.26,0,.49.1.68.28.19.19.29.42.29.68v1.15c0,.26-.1.49-.29.68-.19.19-.42.28-.68.28h-4.54v9.26Z"/><path class="cls-4" d="m172.51,96.79c0,.26-.1.49-.29.68-.19.19-.42.28-.68.28h-2.04c-.26,0-.49-.1-.68-.28-.19-.19-.28-.42-.28-.68v-2.04c0-.26.09-.49.28-.68.19-.19.42-.29.68-.29h2.04c.26,0,.49.1.68.29.19.19.29.42.29.68v2.04Zm-.36,21.42c0,.26-.1.49-.29.68-.19.19-.42.28-.68.28h-1.32c-.26,0-.49-.1-.68-.28-.19-.19-.29-.42-.29-.68v-16.66c0-.26.1-.49.29-.68.19-.19.42-.29.68-.29h1.32c.26,0,.49.09.68.29.19.19.29.42.29.68v16.66Z"/><path class="cls-4" d="m180.59,118.21c0,.26-.09.49-.29.68-.19.19-.42.28-.68.28h-1.32c-.26,0-.49-.1-.68-.28-.19-.19-.29-.42-.29-.68v-23.46c0-.26.1-.49.29-.68.19-.19.42-.29.68-.29h1.32c.26,0,.49.1.68.29.19.19.29.42.29.68v23.46Z"/><path class="cls-4" d="m76.59,129.28c.38,0,.67.1.86.31.19.2.36.51.5.91l8.76,22.6c.02.07.04.16.04.25,0,.26-.1.49-.29.68-.19.19-.42.29-.68.29h-2.57c-.48,0-.81-.1-1-.31-.19-.2-.32-.4-.39-.59l-1.54-3.97h-11.3l-1.54,3.97c-.07.19-.2.39-.4.59-.19.2-.52.31-1,.31h-2.57c-.26,0-.49-.1-.68-.29-.19-.19-.29-.41-.29-.68,0-.09.01-.18.04-.25l8.76-22.6c.14-.4.31-.71.5-.91.19-.2.48-.31.86-.31h3.93Zm1.97,15.7l-3.93-10.19-3.93,10.19h7.87Z"/><path class="cls-4" d="m106.96,153.35c0,.26-.1.49-.29.68-.19.19-.42.28-.68.28h-2.72c-.26,0-.49-.09-.68-.28-.19-.19-.29-.42-.29-.68v-9.08c0-1.43-.33-2.58-1-3.44s-1.69-1.29-3.07-1.29c-1.27,0-2.26.43-2.99,1.29-.73.86-1.09,2-1.09,3.44v9.08c0,.26-.1.49-.29.68-.19.19-.42.28-.68.28h-2.72c-.26,0-.49-.09-.68-.28-.19-.19-.29-.42-.29-.68v-16.66c0-.26.1-.49.29-.68.19-.19.41-.29.68-.29h2.72c.26,0,.49.09.68.29s.29.42.29.68v.82c.62-.62,1.35-1.13,2.18-1.54.83-.4,1.83-.61,2.97-.61,1.45,0,2.67.23,3.65.68.98.45,1.76,1.06,2.36,1.82.6.76,1.02,1.65,1.27,2.66.25,1.02.38,2.08.38,3.2v9.62Z"/><path class="cls-4" d="m118.69,135.36c.74,0,1.4.07,1.98.21.58.15,1.1.32,1.54.54.44.21.82.45,1.13.7.31.25.56.48.75.7v-7.62c0-.26.1-.49.29-.68.19-.19.42-.28.68-.28h2.72c.26,0,.49.09.68.28.19.19.28.42.28.68v23.46c0,.26-.09.49-.28.68-.19.19-.42.29-.68.29h-2.72c-.27,0-.49-.09-.68-.29-.19-.19-.29-.42-.29-.68v-.82c-.19.22-.44.45-.75.69-.31.25-.68.49-1.13.7-.44.21-.95.39-1.54.54-.59.14-1.25.21-1.98.21-1.19,0-2.27-.23-3.24-.7-.97-.46-1.79-1.09-2.47-1.86-.68-.77-1.21-1.67-1.61-2.68s-.61-2.07-.66-3.17c-.02-.36-.03-.77-.03-1.25s.01-.89.03-1.25c.05-1.1.27-2.15.66-3.16.39-1.02.93-1.91,1.61-2.68.68-.77,1.5-1.39,2.47-1.86.97-.46,2.04-.69,3.24-.69m-3.33,8.65c-.07.67-.07,1.34,0,2,.14,1.55.62,2.67,1.43,3.34.81.68,1.8,1.02,2.97,1.02s2.15-.34,2.95-1.04c.8-.69,1.26-1.68,1.38-2.97.05-.36.07-.81.07-1.36s-.02-1-.07-1.36c-.12-1.24-.58-2.21-1.38-2.93-.8-.72-1.78-1.07-2.95-1.07s-2.16.34-2.97,1.02c-.81.68-1.29,1.79-1.43,3.34"/><path class="cls-4" d="m137.36,128.93c.26,0,.49.1.68.29.19.19.28.42.28.68v2.79c0,.26-.09.49-.28.68-.19.19-.42.29-.68.29h-3.08c-.26,0-.49-.09-.68-.29-.19-.19-.29-.42-.29-.68v-2.79c0-.26.1-.49.29-.68.19-.19.42-.29.68-.29h3.08Z"/><path class="cls-4" d="m138.14,153.35c0,.26-.1.49-.29.68-.19.19-.42.28-.68.28h-2.72c-.26,0-.49-.09-.68-.28-.19-.19-.29-.42-.29-.68v-16.66c0-.26.09-.49.29-.68.19-.19.41-.29.68-.29h2.72c.26,0,.49.09.68.29.19.19.29.42.29.68v16.66Z"/><path class="cls-4" d="m160.35,153.35c0,.26-.1.49-.29.68-.19.19-.42.28-.68.28h-2.72c-.26,0-.49-.09-.68-.28-.19-.19-.29-.42-.29-.68v-9.08c0-1.43-.33-2.58-1-3.44s-1.69-1.29-3.07-1.29c-1.26,0-2.26.43-2.99,1.29-.73.86-1.09,2-1.09,3.44v9.08c0,.26-.1.49-.29.68-.19.19-.41.28-.68.28h-2.72c-.27,0-.49-.09-.68-.28-.19-.19-.29-.42-.29-.68v-16.66c0-.26.1-.49.29-.68.19-.19.41-.29.68-.29h2.72c.26,0,.49.09.68.29.19.19.29.42.29.68v.82c.62-.62,1.35-1.13,2.18-1.54.83-.4,1.83-.61,2.97-.61,1.45,0,2.67.23,3.65.68.98.45,1.76,1.06,2.36,1.82.6.76,1.02,1.65,1.27,2.66.25,1.02.38,2.08.38,3.2v9.62Z"/><path class="cls-4" d="m164.93,140.3c.1-.5.31-1.04.66-1.61.35-.57.83-1.11,1.46-1.61.63-.5,1.41-.91,2.32-1.23.92-.32,1.99-.48,3.2-.48s2.31.16,3.29.48c.98.32,1.82.79,2.52,1.41.7.62,1.25,1.4,1.63,2.35.38.94.57,2.02.57,3.24v10.52c0,.26-.1.49-.29.68s-.42.29-.68.29h-2.72c-.26,0-.49-.1-.68-.29s-.29-.41-.29-.68v-1.18c-.5.69-1.22,1.28-2.16,1.77-.94.49-2.14.73-3.59.73-1.02,0-1.94-.14-2.75-.41-.81-.27-1.49-.66-2.04-1.16-.55-.5-.97-1.09-1.27-1.77-.3-.68-.45-1.43-.45-2.24,0-1.65.58-2.93,1.75-3.86,1.17-.93,2.73-1.56,4.68-1.89l5.83-1c0-.98-.32-1.67-.96-2.07-.64-.4-1.45-.61-2.4-.61-.6,0-1.06.08-1.39.25-.33.17-.66.4-.97.68-.22.19-.41.32-.59.39-.18.07-.38.11-.59.11h-3.33c-.24,0-.44-.07-.61-.22-.16-.14-.22-.33-.18-.57m5.97,10.09c.81,0,1.53-.12,2.16-.34.63-.23,1.16-.53,1.59-.91.43-.38.75-.81.97-1.29.22-.48.32-.97.32-1.47v-.36l-4.86.86c-.98.17-1.68.41-2.11.73-.43.32-.64.76-.64,1.31,0,.5.25.87.77,1.11.51.24,1.12.36,1.81.36"/></g></svg>