<?xml version="1.0" encoding="UTF-8"?><svg id="Capa_1" xmlns="http://www.w3.org/2000/svg" viewBox="0 0 320 246.12"><defs><style>.cls-1{fill:#31b0c8;}.cls-2{fill:#062f87;}.cls-3{fill:#3c3935;}</style></defs><g><path class="cls-2" d="m35.83,102.2c0-6.38,0-12.76,0-19.15,0-3.14,2-5.13,5.18-5.13,11.47,0,22.94-.13,34.41.03,9.84.14,18.28,3.6,24.45,11.54,4.64,5.97,6.12,12.9,5.49,20.29-.75,8.81-4.51,15.95-12.24,20.67-4,2.45-8.42,3.57-13.11,3.67-1.56.03-3.12.01-4.68,0-2.43-.01-3.61-1.15-3.62-3.59-.02-5.19,0-10.37-.01-15.56,0-.6-.02-1.2-.1-1.79-.47-3.57-3.53-5.7-7.02-4.78-1.06.28-2.11.76-3.05,1.34-7.17,4.49-14.31,9.02-21.46,13.54-.27.17-.53.35-.82.5-1.51.79-3.53-.02-3.49-2.08.13-6.5.05-13,.05-19.5Z"/><path class="cls-1" d="m66.56,133.9c0,5.22,0,10.44,0,15.66,0,3.21-1.93,5.17-5.13,5.14-3.91-.03-7.86.19-11.71-.28-7.85-.96-13.88-8.11-13.88-15.98,0-1.39,0-2.79,0-4.18,0-1.39.56-2.47,1.73-3.21,8.21-5.21,16.43-10.42,24.65-15.63.99-.63,2.02-.75,3.05-.17,1.01.57,1.32,1.51,1.31,2.63-.02,5.34,0,10.68,0,16.02Z"/></g><g><path class="cls-3" d="m131.3,122.4v7.66h-6.03v-24.14c1.65,0,3.23-.01,4.82,0,2.39.03,4.8-.06,7.18.14,6.24.54,8.18,4.9,7.35,10.15-.59,3.75-3.3,5.93-7.42,6.16-1.91.11-3.82.02-5.9.02Zm.03-4.82c1.6,0,3.15.1,4.68-.03,1.74-.15,2.72-1.47,2.69-3.34-.02-1.92-.87-3.06-2.65-3.22-1.56-.14-3.15-.03-4.72-.03v6.62Z"/><path class="cls-3" d="m162.14,120.05c.14-1.14.19-2.31.45-3.42.98-4.24,3.94-6.55,8.68-6.77,1.15-.05,2.33-.01,3.46.19,3.88.7,6.38,3.01,6.94,6.9.33,2.24.32,4.64-.11,6.86-.82,4.22-4.08,6.53-8.87,6.67-1.15.03-2.33-.06-3.45-.3-4.25-.89-6.78-4.11-6.99-8.8-.02-.44,0-.88,0-1.32-.04,0-.07,0-.11-.01Zm13.98.1c-.21-1.2-.31-2.35-.65-3.44-.45-1.46-1.55-2.16-3.06-2.21-1.83-.05-3.01.53-3.57,2.02-.91,2.43-.92,4.92.11,7.33.62,1.45,1.84,2,3.39,1.95,1.53-.05,2.63-.75,3.09-2.18.35-1.12.47-2.32.69-3.47Z"/><path class="cls-3" d="m277.71,117.95c-.14-1.99-.83-2.84-2.56-3.25-2.78-.65-5.09.33-7.29,2.16-.77-1.41-1.51-2.77-2.3-4.22,1.88-1.53,4.03-2.43,6.35-2.57,2.16-.14,4.41-.03,6.52.42,2.95.63,4.79,2.71,4.9,5.74.17,4.57.05,9.16.05,13.92-1.21,0-2.51.03-3.81-.03-.2,0-.46-.38-.55-.63-.29-.85-.52-1.72-.83-2.76-1.85,3.31-4.67,4.11-8.03,3.58-2.4-.38-3.92-1.81-4.31-4.02-.51-2.82.24-5.2,2.45-6.19,1.93-.87,4.08-1.26,6.16-1.76,1.03-.25,2.12-.27,3.26-.4Zm-.09,3.09c-1.62.4-3.26.69-4.81,1.23-1.08.38-1.48,1.53-1.17,2.58.32,1.07,1.18,1.33,2.15,1.35,2.7.04,4.36-2.07,3.83-5.16Z"/><path class="cls-3" d="m215.09,110.15c1.31,0,2.5-.04,3.69.03.28.02.67.35.78.63.32.77.51,1.59.76,2.38.09-.02.2,0,.23-.05,1.85-3.12,4.76-3.63,8-3.14,2.83.43,4.77,2.44,4.86,5.4.15,4.85.04,9.71.04,14.67h-5.75c0-.42,0-.84,0-1.26,0-3.59.05-7.18-.03-10.76-.06-2.91-2.54-4.27-4.99-2.81-1.17.7-1.64,1.86-1.69,3.13-.1,2.67-.09,5.34-.12,8.01-.01,1.19,0,2.39,0,3.68h-5.78v-19.92Z"/><path class="cls-3" d="m202.92,110.15c-.6,1.85-1.12,3.51-1.67,5.16-1.51,4.61-3.05,9.22-4.54,13.84-.24.75-.58,1.09-1.43,1.04-1.55-.08-3.12.02-4.67-.05-.36-.02-.91-.36-1.01-.67-2.11-6.26-4.17-12.54-6.23-18.81-.03-.11,0-.23,0-.5,1.75,0,3.5-.04,5.23.05.28.01.65.59.76.97,1.27,4.27,2.49,8.55,3.69,12.71,1.21-4.15,2.49-8.42,3.69-12.71.23-.81.57-1.07,1.39-1.03,1.51.07,3.03.02,4.79.02Z"/><path class="cls-3" d="m252.18,116.73c-3.42-2.41-6.32-2.62-8.13-.68-1.77,1.89-1.8,5.97-.07,8,1.8,2.12,4.48,1.98,8.21-.46.54,1.38,1.1,2.73,1.59,4.11.08.24-.09.73-.3.87-4.14,2.85-11.11,2.53-14.28-1.01-2.05-2.3-2.6-5.06-2.49-8,.13-3.72,1.29-7,4.93-8.63,3.99-1.8,8-1.55,11.79.75.23.14.42.69.33.96-.46,1.35-1.01,2.67-1.57,4.09Z"/><path class="cls-3" d="m155.23,157.07c.46-.95.83-1.73,1.26-2.62,2.57,1.75,5.38,2.02,8.28,1.68.95-.11,2.29-.12,2.24-1.44-.05-1.38-1.4-1.12-2.35-1.18-1.63-.09-3.28-.03-4.9-.22-3.06-.36-3.96-2.61-2.11-5.11.07-.09.12-.2.18-.31-1.65-1.53-2.07-3.41-1.29-5.45.89-2.32,2.96-3.01,5.19-3.2,2.02-.18,3.99.07,5.71,1.46.84-.9,1.57-2,3.12-1.67v2.77c-.78.26-1.53.5-2.31.76,1.24,2.86.24,5.39-2.58,6.11-1.72.44-3.61.19-5.42.3-.34.02-.95.28-.95.42,0,.4.16,1.04.44,1.16.64.27,1.38.33,2.09.38,1.63.1,3.27.07,4.9.23,2,.19,3.04,1.19,3.26,2.91.25,1.96-.51,3.39-2.42,4.01-4.18,1.37-8.24.85-12.35-.98Zm7.36-10.21c.54-.09,1.06-.13,1.55-.26,1.26-.32,1.8-1.03,1.82-2.3.01-1.25-.52-2.22-1.7-2.39-1.18-.17-2.45-.14-3.62.1-1.14.23-1.58,1.22-1.51,2.39.06,1.14.65,1.85,1.72,2.14.57.16,1.17.21,1.74.3Z"/><path class="cls-3" d="m153.65,130.12h-5.71v-19.97c1.26,0,2.52-.03,3.78.03.24.01.57.37.67.64.33.91.58,1.86.94,3.03,1.49-2.86,3.5-4.45,6.74-3.88v5.83c-.85,0-1.64-.06-2.42.01-2.29.19-3.55,1.27-3.76,3.56-.22,2.41-.17,4.85-.23,7.27-.02,1.11,0,2.22,0,3.47Z"/><path class="cls-3" d="m123.59,152.95c.49-.95.93-1.82,1.31-2.55,1.66.52,3.21,1.13,4.82,1.45.89.18,1.9-.03,2.81-.26,1.03-.26,1.56-1.1,1.6-2.15.04-.98-.51-1.69-1.37-2.07-.84-.36-1.73-.59-2.6-.87-.72-.23-1.46-.4-2.18-.65-2.67-.92-3.71-2.39-3.62-5.07.08-2.26,1.5-3.97,4.02-4.57,3.04-.72,5.93-.22,8.78,1.34-.4.9-.78,1.75-1.1,2.49-1.6-.44-3.1-.98-4.64-1.23-.86-.14-1.86.01-2.67.35-.55.23-1.19.99-1.22,1.54-.03.61.43,1.45.95,1.85.62.49,1.52.66,2.31.92,1.02.34,2.08.56,3.09.94,2.37.9,3.32,2.29,3.32,4.7,0,2.49-1.15,4.31-3.38,5.13-2.81,1.03-5.58.64-8.3-.39-.63-.24-1.22-.57-1.92-.9Z"/><path class="cls-3" d="m151.65,150.33c.47.79.9,1.53,1.33,2.24-2.66,2.66-8.13,2.98-10.9.66-1.96-1.64-2.27-3.94-2.31-6.29-.02-.79.09-1.6.24-2.38.71-3.64,3.03-5.43,6.91-5.37,3.43.05,5.67,2.02,6.24,5.57.18,1.09.19,2.21.29,3.44h-10.63c.18,1.58.63,2.88,2.03,3.52,2.51,1.14,4.74.44,6.79-1.39Zm-1.4-4.51c-.03-2.63-1.34-4.05-3.56-4.07-2.3-.02-3.71,1.46-3.78,4.07h7.33Z"/><path class="cls-3" d="m204.97,130.07v-19.82h5.66v19.82h-5.66Z"/><path class="cls-3" d="m256.74,110.21h5.62v19.88h-5.62v-19.88Z"/><path class="cls-3" d="m207.03,154.75c-4.08-.03-6.39-2.14-6.81-6.43-.14-1.4-.03-2.88.27-4.26.79-3.61,3.95-5.43,8-4.8,3.28.51,5.19,2.46,5.53,5.77.12,1.1.14,2.23.05,3.33-.38,4.32-2.73,6.43-7.05,6.39Zm4.24-7.89c-.11-.74-.16-1.58-.35-2.39-.43-1.76-1.63-2.67-3.45-2.73-2.16-.07-3.58.66-3.94,2.51-.31,1.6-.35,3.33-.11,4.94.31,2.04,1.88,3.11,3.83,3.07,2.04-.04,3.28-1.07,3.75-3.18.16-.69.18-1.42.27-2.23Z"/><path class="cls-3" d="m173.04,139.45h2.87c0,1.34,0,2.68,0,4.02,0,1.79-.01,3.59.04,5.38.06,1.91.74,2.87,2.12,3.18,1.78.39,3.63-.28,4.32-1.77.42-.91.65-1.97.69-2.98.09-2.58.03-5.16.03-7.82h2.75v15.05h-1.98c-.19-.69-.38-1.4-.61-2.27-1.38,2.04-3.27,2.6-5.48,2.51-2.8-.11-4.67-1.84-4.73-4.66-.07-3.5-.02-7.01-.02-10.66Z"/><path class="cls-3" d="m216.4,152.68c.46-.76.89-1.47,1.25-2.06,1.36.54,2.64,1.17,3.98,1.53.76.2,1.72.14,2.45-.16.59-.24,1.19-.94,1.38-1.56.25-.82-.41-1.44-1.19-1.68-1.29-.4-2.62-.69-3.92-1.06-2.77-.79-3.93-2.48-3.44-4.99.33-1.67,1.45-2.62,2.98-3.11,2.97-.95,5.72-.35,8.44,1.35-.47.8-.9,1.54-1.39,2.38-1.54-1.11-3.15-1.85-5.02-1.57-.46.07-.95.19-1.35.42-1.15.68-1.14,2.06.05,2.66.7.35,1.5.53,2.26.75.73.21,1.48.33,2.2.56,2.36.73,3.42,2.08,3.36,4.19-.07,2.25-1.25,3.74-3.66,4.21-3,.59-5.86.2-8.37-1.86Z"/><path class="cls-3" d="m192.72,154.52h-2.71v-15.31c.79.22,1.67.21,2.07.64.42.45.37,1.33.58,2.27,1.29-2.02,2.85-3.19,5.24-2.87v2.91c-.35.02-.66.06-.96.06-2.4.04-3.75,1.11-3.97,3.53-.2,2.21-.11,4.45-.15,6.68-.01.67-.06,1.34-.09,2.09Z"/><path class="cls-3" d="m204.99,108.42v-3.63h5.63v3.63h-5.63Z"/><path class="cls-3" d="m262.35,108.46h-5.59v-3.66h5.59v3.66Z"/></g></svg>