<?xml version="1.0" encoding="UTF-8"?><svg id="Capa_1" xmlns="http://www.w3.org/2000/svg" viewBox="0 0 320 241.5"><defs><style>.cls-1{fill:#ab0062;fill-rule:evenodd;}</style></defs><path class="cls-1" d="m56.25,87.57c15.91,0,29.2,11.62,31.86,26.84h-22.46s-4.03-8.93-4.03-8.93l-5.22-12.19-5.23,12.19-5.22,12.19h42.56c.06.78.09,1.56.09,2.35,0,17.87-14.53,32.45-32.34,32.45-15.83,0-29.06-11.51-31.82-26.61l22.15.07,4.51,8.78,5.23,11.22,5.23-11.22,5.23-11.22H24.1c-.12-1.14-.19-2.31-.19-3.48,0-17.87,14.53-32.45,32.34-32.45Z"/><g><path class="cls-1" d="m117.23,115.47c-2.1,0-3.94-.2-5.53-.61-1.59-.4-3.07-.91-4.43-1.51v-6.52h.63c1.37,1.16,2.89,2.06,4.55,2.69,1.66.62,3.27.94,4.83.94.4,0,.91-.04,1.56-.13.64-.09,1.16-.23,1.55-.41.49-.21.89-.5,1.22-.87.33-.38.5-.87.5-1.48,0-.69-.27-1.25-.81-1.67-.54-.43-1.19-.74-1.94-.94-.93-.24-1.93-.48-2.99-.7-1.06-.22-2.06-.49-2.98-.81-2.13-.75-3.65-1.76-4.57-3.02-.92-1.26-1.38-2.85-1.38-4.76,0-2.57,1.09-4.65,3.27-6.24,2.17-1.59,4.89-2.38,8.14-2.38,1.64,0,3.26.16,4.87.5,1.62.33,3.06.78,4.34,1.35v6.27h-.61c-1.02-.87-2.26-1.61-3.73-2.21-1.47-.6-2.98-.91-4.53-.91-.6,0-1.14.04-1.62.13-.48.09-.98.26-1.51.5-.43.2-.8.48-1.11.88-.31.38-.47.82-.47,1.29,0,.7.25,1.26.75,1.67.5.41,1.46.79,2.88,1.11.93.21,1.81.42,2.67.61.86.19,1.77.46,2.74.81,1.91.69,3.32,1.61,4.25,2.77.92,1.16,1.39,2.69,1.39,4.6,0,2.72-1.07,4.92-3.21,6.58-2.15,1.65-5.04,2.48-8.69,2.48h0Zm19.94-.5l9.27-27.44h7.52l9.27,27.44h-7.1l-1.72-5.6h-8.61l-1.72,5.6h-6.91Zm15.74-10.58l-2.8-9.04-2.8,9.04h5.6Zm43.65,10.58h-6.64l-10.57-19.13v19.13h-6.3v-27.44h8.46l8.75,15.72v-15.72h6.3v27.44h0Zm22.23.54c-4.12,0-7.38-1.25-9.81-3.73-2.42-2.49-3.63-5.99-3.63-10.5s1.21-7.81,3.64-10.4c2.43-2.59,5.7-3.88,9.81-3.88,1.09,0,2.08.06,2.95.18.87.13,1.71.3,2.51.52.62.19,1.31.44,2.04.76.74.32,1.33.6,1.79.83v6.54h-.7c-.33-.3-.75-.65-1.26-1.06-.5-.42-1.08-.82-1.71-1.21-.64-.4-1.35-.73-2.11-1.01-.77-.28-1.57-.41-2.4-.41-.99,0-1.9.16-2.74.47-.83.31-1.62.86-2.37,1.63-.69.7-1.25,1.65-1.68,2.84-.43,1.2-.65,2.6-.65,4.22,0,1.71.22,3.14.68,4.31.46,1.16,1.05,2.09,1.79,2.8.71.69,1.5,1.19,2.38,1.5.88.31,1.76.46,2.63.46s1.77-.15,2.6-.45,1.52-.63,2.08-1c.62-.38,1.16-.78,1.62-1.16.47-.4.87-.74,1.21-1.05h.63v6.45c-.5.23-1.09.5-1.75.8-.67.3-1.35.55-2.05.76-.86.26-1.66.45-2.42.59-.75.13-1.78.2-3.09.2h0Zm44.31-14.25c0,4.44-1.18,7.92-3.55,10.47-2.37,2.54-5.62,3.81-9.75,3.81s-7.39-1.29-9.75-3.86c-2.36-2.57-3.54-6.04-3.54-10.42s1.18-7.89,3.54-10.46c2.36-2.56,5.6-3.84,9.75-3.84s7.38,1.28,9.75,3.82c2.37,2.55,3.55,6.04,3.55,10.47h0Zm-7.11-.01c0-1.64-.17-3.03-.51-4.18-.34-1.15-.79-2.09-1.35-2.83-.59-.75-1.26-1.29-2-1.61-.74-.33-1.52-.49-2.32-.49-.84,0-1.61.15-2.3.45-.69.3-1.35.84-1.99,1.61-.57.71-1.02,1.66-1.37,2.84-.35,1.18-.53,2.59-.53,4.22s.16,3.08.5,4.2c.33,1.11.78,2.04,1.36,2.79.59.76,1.26,1.31,2.01,1.63.75.33,1.53.49,2.32.49s1.6-.18,2.37-.53c.76-.35,1.42-.89,1.97-1.63.59-.8,1.04-1.73,1.37-2.79.32-1.06.48-2.45.48-4.17h0Zm41.01,13.72h-8.4l-7.63-10.06h-2.48v10.06h-6.86v-27.44h11.04c1.52,0,2.85.1,3.97.28,1.13.2,2.18.59,3.13,1.19.99.63,1.77,1.42,2.34,2.39.58.96.87,2.19.87,3.67,0,2.1-.47,3.81-1.42,5.11-.95,1.31-2.21,2.35-3.8,3.12l9.23,11.67h0Zm-11.09-19.03c0-.69-.13-1.28-.4-1.78-.26-.5-.7-.88-1.31-1.15-.43-.18-.91-.3-1.44-.35-.53-.05-1.18-.07-1.97-.07h-2.3v7.38h1.97c.96,0,1.77-.06,2.44-.18.67-.11,1.24-.36,1.7-.74.44-.35.77-.76.99-1.24.22-.48.32-1.1.32-1.87Z"/><path class="cls-1" d="m117.23,152.99c-2.1,0-3.94-.2-5.53-.61-1.59-.4-3.07-.91-4.43-1.51v-6.52h.63c1.37,1.16,2.89,2.06,4.55,2.69,1.66.62,3.27.94,4.83.94.4,0,.91-.04,1.56-.13.64-.09,1.16-.23,1.55-.41.49-.21.89-.5,1.22-.87.33-.38.5-.87.5-1.48,0-.69-.27-1.25-.81-1.67-.54-.43-1.19-.74-1.94-.94-.93-.25-1.93-.48-2.99-.7-1.06-.22-2.06-.49-2.98-.81-2.13-.75-3.65-1.75-4.57-3.02-.92-1.26-1.38-2.85-1.38-4.75,0-2.57,1.09-4.65,3.27-6.24,2.17-1.59,4.89-2.38,8.14-2.38,1.64,0,3.26.16,4.87.5,1.62.33,3.06.78,4.34,1.35v6.27h-.61c-1.02-.87-2.26-1.61-3.73-2.21-1.47-.6-2.98-.91-4.53-.91-.6,0-1.14.04-1.62.13-.48.09-.98.26-1.51.5-.43.2-.8.48-1.11.88-.31.38-.47.82-.47,1.29,0,.7.25,1.26.75,1.67.5.42,1.46.79,2.88,1.11.93.22,1.81.42,2.67.61.86.19,1.77.47,2.74.81,1.91.69,3.32,1.61,4.25,2.77.92,1.16,1.39,2.69,1.39,4.6,0,2.72-1.07,4.92-3.21,6.58-2.15,1.65-5.04,2.48-8.69,2.48h0Zm16.76-.5v-27.44h18.56v5.23h-11.7v4.81h10.78v5.23h-10.78v6.93h11.7v5.23h-18.56Zm47.48-1.57c-1.2.49-2.77.97-4.69,1.44-1.92.47-3.82.7-5.69.7-4.31,0-7.75-1.25-10.31-3.73-2.56-2.49-3.84-6.02-3.84-10.59,0-4.3,1.28-7.75,3.84-10.34,2.56-2.59,6.06-3.89,10.51-3.89,2.3,0,4.16.22,5.61.65,1.44.43,2.92,1.03,4.46,1.78v6.43h-.63c-.33-.26-.81-.62-1.43-1.1-.62-.48-1.22-.88-1.81-1.21-.69-.4-1.49-.74-2.39-1.02-.9-.28-1.85-.42-2.86-.42-1.18,0-2.26.18-3.23.55-.97.37-1.84.93-2.6,1.69-.72.74-1.3,1.67-1.72,2.81-.42,1.12-.63,2.44-.63,3.94,0,3.21.8,5.57,2.41,7.09,1.61,1.52,3.8,2.28,6.6,2.28.24,0,.53,0,.86-.02.33-.01.62-.03.87-.06v-5.38h-5.33v-5.14h12v13.5h0Zm17.62,2.14c-3.69,0-6.52-.89-8.5-2.67-1.98-1.78-2.98-4.38-2.98-7.81v-17.52h6.89v17.12c0,1.9.36,3.32,1.08,4.25.71.94,1.89,1.4,3.51,1.4s2.75-.45,3.49-1.34c.74-.89,1.11-2.33,1.11-4.31v-17.12h6.9v17.51c0,3.38-.97,5.98-2.9,7.79-1.94,1.81-4.8,2.72-8.6,2.72h0Zm43.5-.57h-8.4l-7.63-10.06h-2.48v10.06h-6.86v-27.44h11.04c1.52,0,2.85.09,3.97.28,1.13.19,2.18.59,3.13,1.19.99.63,1.77,1.42,2.34,2.39.58.96.87,2.19.87,3.67,0,2.1-.47,3.81-1.42,5.11-.95,1.31-2.21,2.35-3.8,3.12l9.23,11.67h0Zm-11.09-19.03c0-.69-.13-1.28-.4-1.78-.26-.5-.7-.88-1.31-1.15-.43-.18-.91-.3-1.44-.35-.53-.05-1.18-.08-1.97-.08h-2.3v7.38h1.97c.96,0,1.77-.06,2.44-.18.67-.11,1.24-.36,1.7-.74.44-.35.77-.75.99-1.24.21-.48.32-1.1.32-1.87h0Zm39.44,5.32c0,4.44-1.18,7.93-3.55,10.47-2.37,2.54-5.62,3.81-9.75,3.81s-7.39-1.29-9.75-3.86c-2.36-2.57-3.54-6.04-3.54-10.42s1.18-7.89,3.54-10.45c2.36-2.56,5.6-3.84,9.75-3.84s7.38,1.28,9.75,3.82c2.37,2.55,3.55,6.04,3.55,10.47h0Zm-7.11-.01c0-1.64-.17-3.03-.51-4.18-.33-1.15-.79-2.09-1.35-2.83-.59-.75-1.26-1.29-2-1.61-.74-.33-1.52-.49-2.31-.49-.84,0-1.61.15-2.3.45-.69.3-1.35.84-1.99,1.61-.57.71-1.02,1.66-1.37,2.84-.35,1.18-.53,2.59-.53,4.22s.16,3.08.5,4.2c.33,1.11.78,2.05,1.36,2.79.59.76,1.26,1.31,2,1.63.75.33,1.53.49,2.32.49s1.6-.18,2.37-.53c.76-.35,1.42-.89,1.97-1.63.59-.8,1.04-1.73,1.36-2.79.32-1.06.48-2.45.48-4.17h0Zm21,14.22c-2.1,0-3.95-.2-5.54-.61-1.59-.4-3.07-.91-4.43-1.51v-6.52h.63c1.37,1.16,2.89,2.06,4.55,2.69,1.66.62,3.27.94,4.83.94.39,0,.91-.04,1.56-.13.64-.09,1.16-.23,1.55-.41.48-.21.89-.5,1.22-.87.34-.38.5-.87.5-1.48,0-.69-.27-1.25-.81-1.67-.54-.43-1.19-.74-1.94-.94-.93-.25-1.93-.48-2.99-.7-1.06-.22-2.06-.49-2.98-.81-2.13-.75-3.65-1.75-4.57-3.02-.93-1.26-1.38-2.85-1.38-4.75,0-2.57,1.09-4.65,3.27-6.24,2.17-1.59,4.89-2.38,8.14-2.38,1.64,0,3.26.16,4.87.5,1.62.33,3.06.78,4.34,1.35v6.27h-.61c-1.02-.87-2.26-1.61-3.73-2.21-1.47-.6-2.98-.91-4.53-.91-.6,0-1.14.04-1.62.13-.48.09-.98.26-1.51.5-.43.2-.8.48-1.11.88-.31.38-.47.82-.47,1.29,0,.7.25,1.26.75,1.67.49.42,1.46.79,2.88,1.11.93.22,1.81.42,2.67.61.86.19,1.77.47,2.74.81,1.91.69,3.32,1.61,4.25,2.77.92,1.16,1.39,2.69,1.39,4.6,0,2.72-1.07,4.92-3.21,6.58-2.15,1.65-5.05,2.48-8.69,2.48Z"/></g></svg>