<?xml version="1.0" encoding="UTF-8"?><svg id="Capa_1" xmlns="http://www.w3.org/2000/svg" xmlns:xlink="http://www.w3.org/1999/xlink" viewBox="0 0 320 246.06"><defs><style>.cls-1{mask:url(#mask-10);}.cls-2{mask:url(#mask);}.cls-3,.cls-4{fill:#171669;}.cls-5,.cls-6{fill:#19d596;}.cls-7{mask:url(#mask-4-5);}.cls-6,.cls-4,.cls-8{fill-rule:evenodd;}.cls-8{fill:#fff;}.cls-9{mask:url(#mask-3);}.cls-10{mask:url(#mask-2);}.cls-11{mask:url(#mask-5);}.cls-12{mask:url(#mask-1);}.cls-13{mask:url(#mask-7);}.cls-14{mask:url(#mask-6);}.cls-15{mask:url(#mask-8);}.cls-16{mask:url(#mask-9);}</style><mask id="mask" x="79.34" y="79.31" width="220.66" height="58.04" maskUnits="userSpaceOnUse"><g id="mask-4"><polygon id="path-3" class="cls-8" points="79.34 137.34 300 137.34 300 79.31 79.34 79.31 79.34 137.34"/></g></mask><mask id="mask-1" x="79.34" y="79.31" width="220.66" height="58.04" maskUnits="userSpaceOnUse"><g id="mask-4-2"><polygon id="path-3-2" class="cls-8" points="79.34 137.34 300 137.34 300 79.31 79.34 79.31 79.34 137.34"/></g></mask><mask id="mask-2" x="79.34" y="79.31" width="220.66" height="58.04" maskUnits="userSpaceOnUse"><g id="mask-4-3"><polygon id="path-3-3" class="cls-8" points="79.34 137.34 300 137.34 300 79.31 79.34 79.31 79.34 137.34"/></g></mask><mask id="mask-3" x="79.34" y="79.31" width="220.66" height="58.04" maskUnits="userSpaceOnUse"><g id="mask-4-4"><polygon id="path-3-4" class="cls-8" points="79.34 137.34 300 137.34 300 79.31 79.34 79.31 79.34 137.34"/></g></mask><mask id="mask-4-5" x="79.34" y="79.31" width="220.66" height="58.04" maskUnits="userSpaceOnUse"><g id="mask-4-6"><polygon id="path-3-5" class="cls-8" points="79.34 137.34 300 137.34 300 79.31 79.34 79.31 79.34 137.34"/></g></mask><mask id="mask-5" x="79.34" y="79.31" width="220.66" height="58.04" maskUnits="userSpaceOnUse"><g id="mask-4-7"><polygon id="path-3-6" class="cls-8" points="79.34 137.34 300 137.34 300 79.31 79.34 79.31 79.34 137.34"/></g></mask><mask id="mask-6" x="79.34" y="79.31" width="220.66" height="58.04" maskUnits="userSpaceOnUse"><g id="mask-4-8"><polygon id="path-3-7" class="cls-8" points="79.34 137.34 300 137.34 300 79.31 79.34 79.31 79.34 137.34"/></g></mask><mask id="mask-7" x="79.34" y="79.31" width="220.66" height="58.04" maskUnits="userSpaceOnUse"><g id="mask-4-9"><polygon id="path-3-8" class="cls-8" points="79.34 137.34 300 137.34 300 79.31 79.34 79.31 79.34 137.34"/></g></mask><mask id="mask-8" x="79.34" y="79.31" width="220.66" height="58.04" maskUnits="userSpaceOnUse"><g id="mask-4-10"><polygon id="path-3-9" class="cls-8" points="79.34 137.34 300 137.34 300 79.31 79.34 79.31 79.34 137.34"/></g></mask><mask id="mask-9" x="79.34" y="79.31" width="220.66" height="58.04" maskUnits="userSpaceOnUse"><g id="mask-4-11"><polygon id="path-3-10" class="cls-8" points="79.34 137.34 300 137.34 300 79.31 79.34 79.31 79.34 137.34"/></g></mask><mask id="mask-10" x="79.34" y="79.31" width="220.66" height="58.04" maskUnits="userSpaceOnUse"><g id="mask-4-12"><polygon id="path-3-11" class="cls-8" points="79.34 137.34 300 137.34 300 79.31 79.34 79.31 79.34 137.34"/></g></mask></defs><g id="Logos"><g id="logo_grupo_negativo"><path id="Fill-1" class="cls-6" d="m88.3,116.07c3.77,0,5.45,2.79,5.45,4.03.91,0,2.97,0,3.98,0-.43-2.81-2.43-7.47-9.36-7.47s-8.57,5.01-4.63,7.24c-.28-2.4,1.8-3.8,4.57-3.8"/><path id="Fill-5" class="cls-6" d="m161.74,116.31c4.38,0,7.32,2.57,7.93,4.95h3.92c-.55-2.67-3.71-8.62-11.85-8.62-5.97,0-10.44,3.8-7.15,7.38,1.41-1.86,3.68-3.71,7.15-3.71"/><g><path id="Fill-14" class="cls-4" d="m131.6,117.81c-2.74,0-4.73,1.15-5.84,2.13l-3.89-1.73v17.98h3.89v-8.67c0-2.76,1.18-6.12,5.32-6.12,3.49,0,4.13,3.22,4.13,4.62v10.16h3.89v-10.64c0-2.81-1.47-7.75-7.51-7.75"/><path id="Fill-16" class="cls-4" d="m108.13,133.85c-2.33,0-3.25-1.48-3.25-2.5,0-2.06,1.95-2.64,3.6-2.64h5.06c0,2.25-1.49,5.15-5.41,5.15m1.6-16.04c-4.26,0-7.22,2.58-7.76,6.56h3.72c0-1.7,1.97-2.93,4.17-2.93,2.51,0,3.66,1.77,3.66,3.88h-5.02c-5.08,0-7.33,2.88-7.33,6.07,0,2.83,1.97,5.96,6.69,5.96,2.9,0,4.96-1.45,5.67-2.13l3.73,1.67v-11.92c0-2.87-1.43-7.16-7.54-7.16"/><path id="Fill-18" class="cls-4" d="m89.11,122.34c-1.91-.4-4.45-.71-4.73-2.81h-4.2c.57,4.02,2.08,5.43,8.93,6.81,3.24.65,5.75.82,5.75,3.58s-2.79,3.73-5.06,3.73c-2.92,0-6.31-1.74-6.31-4.53h-4.15c0,3.98,3.69,8.23,10.21,8.23,7.41,0,9.32-4.82,9.32-7.56,0-5.16-3.84-6.21-9.77-7.44"/><g class="cls-2"><polygon id="Fill-20" class="cls-4" points="295.98 137.34 300 137.34 300 110.91 295.98 110.91 295.98 137.34"/></g><g class="cls-12"><path id="Fill-22" class="cls-4" d="m207.77,125.52c-1.31-.28-3.25-.5-3.25-2.04,0-1.41,1.31-2.22,3.12-2.22,2.3,0,3.81,1.48,4.02,2.64h3.72c-.31-2.16-2.04-6.1-7.67-6.1-4.55,0-7.03,2.67-7.03,5.89s2.3,4.7,7.09,5.57c2.09.38,3.95.89,3.95,2.26,0,1.1-.97,2.33-3.43,2.33s-4.3-1.43-4.49-2.93h-3.79c0,2.63,2.16,6.42,8.07,6.42,3.39,0,7.44-1.57,7.44-6,0-3.77-2.8-4.77-7.76-5.82"/></g><g class="cls-10"><polygon id="Fill-23" class="cls-4" points="247.13 110.91 241.64 110.91 238.51 116.08 242.84 116.08 247.13 110.91"/></g><g class="cls-9"><path id="Fill-24" class="cls-4" d="m263.83,133.77c-2.22,0-5.85-1.65-5.85-5.95,0-2.82,2.31-5.98,5.85-5.98,3.17,0,5.85,2.29,5.85,5.98,0,3.13-2.16,5.95-5.85,5.95m.42-15.47c-3.23,0-5.67,1.67-6.28,2.19v-9.58h-3.95v25.98l3.95-1.74c.61.52,2.7,2.19,6.28,2.19,4.68,0,9.31-3.56,9.31-9.52,0-3.69-2.69-9.52-9.31-9.52"/></g><g class="cls-7"><polygon id="Fill-25" class="cls-4" points="191.97 137.34 195.99 137.34 195.99 118.96 191.97 118.96 191.97 137.34"/></g><g class="cls-11"><polygon id="Fill-26" class="cls-4" points="191.97 115.51 195.99 115.51 195.99 112.63 191.97 112.63 191.97 115.51"/></g><g class="cls-14"><path id="Fill-27" class="cls-4" d="m186.87,117.81c-2.73,0-4.53,1.15-5.56,2.13l-3.71-1.73v17.98h3.71v-8.67c0-3.81,1.87-6.12,5.06-6.12.96,0,2.44.31,2.44.31l.29-3.58c-.77-.21-1.51-.33-2.23-.33"/></g><g class="cls-13"><path id="Fill-29" class="cls-4" d="m152.92,124.58c0,6.87,6.11,8.92,8.71,8.92,5.02,0,7.64-3.47,8.01-5.33h3.95c-.8,3.89-4.84,9.17-11.96,9.17-9.54,0-12.75-8.45-12.75-12.76,0-1.72.45-3.91,1.02-5.05h4.52c-.98,1.48-1.49,3.84-1.49,5.05"/></g><g class="cls-15"><path id="Fill-30" class="cls-4" d="m228.55,122.4l1.92-3.77h-6.86v-5.42h-4.06v17.75c0,3.28,1.94,6.39,6.51,6.39,1.55,0,3.16-.79,3.85-1.28v-4.08c-1.16.83-2.54,1.63-3.67,1.63-1.92,0-2.62-1.28-2.62-2.83v-8.39h4.94Z"/></g><g class="cls-16"><path id="Fill-31" class="cls-4" d="m241.39,133.72c-3.32,0-6.01-2.75-6.01-6.14s2.69-6.14,6.01-6.14,6.01,2.75,6.01,6.14-2.69,6.14-6.01,6.14m0-15.91c-5.39,0-9.77,4.37-9.77,9.77s4.37,9.77,9.77,9.77,9.77-4.37,9.77-9.77-4.37-9.77-9.77-9.77"/></g><g class="cls-1"><path id="Fill-33" class="cls-4" d="m282.82,133.85c-2.33,0-3.25-1.48-3.25-2.5,0-2.06,1.95-2.65,3.6-2.65h5.06c0,2.25-1.49,5.15-5.41,5.15m1.6-16.04c-4.26,0-7.22,2.58-7.76,6.56h3.72c0-1.7,1.97-2.93,4.17-2.93,2.51,0,3.66,1.77,3.66,3.88h-5.02c-5.08,0-7.33,2.88-7.33,6.07,0,2.83,1.97,5.96,6.69,5.96,2.9,0,4.96-1.45,5.67-2.13l3.73,1.67v-11.92c0-2.87-1.43-7.16-7.54-7.16"/></g></g></g></g><g><path class="cls-3" d="m24.78,125.12c-.03-.3-.07-.6-.09-.89-.01-.2-.02-.4,0-.59.03-.21.17-.25.37-.18.63.24,1.27.47,1.89.71.26.1.55.18.65.5.01.05.03.09.03.14.02.44.01.88.06,1.32.05.47.14.93.22,1.4.02.1.05.19.06.28.03.54.21,1.05.36,1.57.18.62.39,1.23.64,1.83.5,1.16,1.08,2.27,1.78,3.31.71,1.05,1.51,2.02,2.45,2.88.43.39.87.78,1.31,1.17.08.07.16.13.25.17.17.09.27.03.28-.16.02-.18.04-.36.06-.54.05-.56.1-1.11.14-1.67,0-.06,0-.13-.02-.19-.01-.07-.05-.15-.05-.22-.02-.67-.3-1.28-.39-1.94-.06-.38-.13-.77-.1-1.15.04-.69.27-1.33.74-1.87.22-.26.44-.53.74-.71.22-.13.27-.3.24-.54-.09-.79-.08-1.58.09-2.35.13-.58.35-1.14.56-1.69.1-.27.09-.59.12-.89,0-.12-.1-.19-.22-.13-.21.11-.43.09-.66.09-.38,0-.76,0-1.14,0-.03,0-.07,0-.1,0-.89-.16-1.8-.27-2.62-.67-.57-.28-1.11-.61-1.66-.93-.37-.22-.73-.47-1.1-.7-.1-.06-.22-.07-.34-.09-.35-.08-.69-.17-1.05-.24-.28-.05-.57-.08-.86-.1-.29-.02-.43-.15-.42-.42,0-.03,0-.06.01-.1.05-.14.49-.41.64-.42.18,0,.38-.01.55-.07.19-.07.2-.29.04-.42-.1-.09-.21-.07-.31,0-.18.12-.36.25-.54.37-.11.07-.48.04-.59-.05-.11-.1-.13-.3-.05-.48.02-.04.04-.07.06-.11.05-.12.02-.2-.1-.24-.11-.03-.22-.06-.32-.11-.17-.08-.26-.25-.24-.42.01-.11.1-.21.18-.3.05-.05.14-.07.22-.08.61-.14,1.24-.18,1.86-.12.58.06,1.12.26,1.57.65.37.32.75.61,1.21.78.52.19,1.05.36,1.6.43.25.03.51.07.76.09.78.05,1.53-.13,2.25-.4.38-.14.74-.32,1.11-.47.48-.19.96-.37,1.45-.54.54-.18,1.09-.35,1.64-.51.32-.09.65-.14.98-.2.26-.05.52-.07.78-.12.08-.01.19-.07.21-.13.04-.11-.08-.15-.17-.17-.83-.23-1.44-1.18-1.39-1.98.02-.29.02-.59.04-.88.01-.17-.02-.31-.13-.45-.19-.25-.15-.66.09-.86.13-.12.28-.22.42-.33.34-.28.41-.51.3-.94-.03-.11-.03-.23,0-.34.12-.52.2-1.03.03-1.55-.05-.16-.04-.35-.03-.52,0-.12.05-.23.06-.35.05-.54.34-.96.72-1.3.45-.41.98-.71,1.56-.92.79-.29,1.59-.28,2.41-.24,1.08.05,2,.49,2.86,1.09.5.35.87.83,1.16,1.36.15.28.31.56.41.85.1.28.12.58.2.86.15.49.11,1,.06,1.49-.04.34-.01.63.11.94.24.62.1,1.2-.21,1.76-.26.47-.66.79-1.13,1.01-.1.05-.23.06-.34.08-.13.03-.16.09-.09.21.14.27.09.4-.22.46-.2.04-.4.05-.61.05-.22,0-.28.08-.21.29.19.55.41,1.09.77,1.55.03.03.05.07.07.11.22.28.22.28.54.15.63-.26,1.28-.49,1.96-.53,1.18-.08,2.36-.07,3.48.41.53.22,1.05.45,1.5.79.44.33.84.73,1.24,1.12.39.38.74.82.98,1.31.28.56.59,1.11.63,1.76.02.29.08.58-.02.88-.1.31-.24.59-.6.67-.13.03-.17.13-.14.25,0,.04.02.09.04.12.18.27.2.58.2.88,0,.46.02.93-.04,1.38-.12.9-.49,1.7-1.06,2.42-.23.29-.48.53-.75.77-.26.23-.46.51-.56.85-.03.1-.01.21,0,.31.02.09.08.18.11.27.09.24-.02.47-.27.49-.4.02-.81.03-1.21.01-.12,0-.24-.09-.36-.13-.06-.02-.12,0-.18,0,0,.06,0,.13,0,.19,0,.04.04.08.06.11.12.24.06.36-.21.37-.15,0-.32,0-.46-.05-.32-.1-.65-.19-.92-.41-.05-.04-.13-.03-.2-.04,0,.07-.03.15,0,.21.13.3.25.6.41.89.16.29.36.56.54.83.1.16.27.2.44.24.13.04.22-.04.3-.14.3-.36.57-.74.9-1.07.35-.34.78-.56,1.3-.45.17.03.27-.04.34-.2.24-.56.49-1.12.72-1.69.12-.29.21-.59.33-.89.12-.29.25-.57.37-.85.13-.29.25-.58.37-.87.14-.33.28-.66.42-.99.21-.52.42-1.03.63-1.55.11-.25.23-.5.33-.75.14-.32.26-.63.4-.95.24-.56.48-1.11.71-1.67.21-.49.4-.99.61-1.49.32-.76.65-1.52.98-2.27.14-.32.4-.44.75-.39.42.06.79.23,1.1.52.2.19.24.51.13.76-.25.59-.5,1.17-.75,1.76-.22.51-.44,1.01-.65,1.52-.31.74-.61,1.48-.92,2.21-.21.49-.43.98-.63,1.48-.13.31-.24.63-.37.94-.21.49-.42.97-.63,1.46-.21.49-.4.99-.61,1.49-.1.23-.21.46-.3.69-.13.32-.24.64-.38.96-.25.58-.52,1.16-.76,1.74-.13.3-.23.61-.33.92-.07.22-.21.27-.37.09-.14-.15-.24-.35-.39-.49-.26-.25-.53-.49-.82-.69-.36-.25-.67-.21-1.02.07-.14.11-.27.23-.4.35-.05.04-.08.1-.1.16-.04.1,0,.16.11.16.05,0,.1,0,.14-.02.5-.16.94-.07,1.3.3.22.23.43.48.63.72.03.04.04.15.02.16-.05.03-.14.06-.19.03-.1-.05-.18-.13-.27-.19-.22-.15-.42-.32-.65-.44-.14-.07-.33-.11-.48-.07-.28.08-.55.22-.81.35-.1.05-.23.16-.16.3.06.13.21.09.32.06.34-.09.63-.02.91.2.24.18.48.36.72.54.07.06.18.15.1.26-.08.11-.21.07-.31.01-.24-.12-.47-.25-.71-.38-.28-.15-.57-.13-.86-.02-.13.05-.24.13-.36.21-.13.08-.16.19-.14.33.02.14.08.26.24.29.4.07.77.23,1.13.41.1.05.19.14.25.24.07.1.02.18-.11.17-.15-.01-.3-.04-.45-.06-.32-.05-.65-.1-.97-.13-.12-.01-.24,0-.31.13-.06.13-.01.24.05.35.16.27.44.41.71.49.54.16.85.58,1.18.98.07.09.12.19.19.28.08.1.07.18-.01.28-.36.43-.78.78-1.29,1.01-.54.24-1.06.52-1.61.73-.63.24-1.27.42-1.91.63-.13.04-.27.08-.4.12-.59.16-1.17.34-1.79.39-.33.03-.65.13-.98.17-.41.05-.82.06-1.24.09-.07,0-.15-.01-.21.02-.3.14-.62.1-.94.1-.31,0-.61,0-.92,0-.06,0-.14,0-.19-.02-.22-.11-.45-.09-.68-.1-.56-.05-1.12-.11-1.68-.18-.72-.08-1.42-.23-2.11-.42-.68-.19-1.36-.36-2-.64-.69-.31-1.41-.55-2.08-.9-.78-.4-1.57-.8-2.28-1.33-.48-.36-.98-.7-1.47-1.05-.13-.09-.25-.2-.37-.31-.97-.84-1.88-1.73-2.7-2.72-.45-.54-.86-1.11-1.24-1.7-.44-.67-.86-1.36-1.23-2.08-.38-.74-.73-1.5-1.03-2.27-.25-.65-.42-1.34-.61-2.01-.14-.51-.26-1.02-.37-1.54-.07-.36-.1-.73-.15-1.1-.05-.41-.12-.82-.16-1.23-.02-.23,0-.46,0-.69,0,0,.02,0,.03,0Zm12.36,4.1c0,.13-.02.26,0,.39.01.08.06.18.12.23.16.11.54.03.65-.13.28-.4.54-.81.81-1.22.29-.42.62-.8,1.11-1,.1-.04.23-.08.34-.06.23.05.49.41.47.65-.02.2.06.34.16.5.19.3.38.6.41.98.03.32.08.66.19.96.26.67.35,1.36.36,2.06,0,.39-.02.77-.05,1.16-.02.27-.04.55-.1.81-.14.6-.3,1.18-.45,1.78,0,.03-.02.05-.03.08-.21.58-.43,1.15-.64,1.73-.12.32-.23.64-.36.95-.27.64-.55,1.28-.82,1.93-.09.21-.04.31.18.37.15.04.3.08.45.13.45.14.88.3,1.34.41.55.14,1.1.23,1.66.34.3.06.42,0,.51-.29.12-.38.21-.77.31-1.16.04-.15.06-.3.09-.46.12-.69.27-1.38.36-2.08.07-.52.06-1.05.07-1.58.01-.39.08-.78,0-1.18-.05-.29-.05-.6-.03-.9.05-.86-.09-1.71,0-2.57.05-.5.02-1,.03-1.5.02-.69.17-1.35.43-1.99.16-.37.4-.72.22-1.16,0,0,0-.02,0-.03,0-.41,0-.83,0-1.24,0-.73.21-1.41.46-2.08.14-.38.36-.73.56-1.09.44-.77,1.07-1.38,1.74-1.94.16-.13.17-.26.04-.42-.1-.12-.18-.26-.28-.39-.06-.08-.11-.17-.18-.25-.1-.12-.18-.09-.23.05-.05.12-.09.26-.16.36-.17.25-.34.49-.53.73-.57.7-1.29,1.2-2.12,1.52-.69.27-1.41.47-2.12.7-.53.17-1.08.33-1.6.53-.3.12-.6.28-.86.46-.48.33-.9.73-1.24,1.2-.36.5-.66,1.03-.86,1.61-.24.68-.42,1.38-.44,2.1Zm3.35.5c-.04-.07-.08-.21-.16-.24-.13-.04-.16.11-.2.2-.08.17-.14.35-.22.52-.26.51-.52,1.02-.79,1.53-.13.25-.27.49-.41.73-.06.1-.14.16-.25.11-.12-.06-.13-.17-.08-.28.03-.06.07-.12.1-.18.05-.08.11-.16.14-.25.21-.56.41-1.12.62-1.69.02-.05.04-.09.05-.13.13-.34.27-.69.4-1.03.04-.11.06-.23.09-.34,0-.03,0-.09-.02-.1-.02-.02-.08-.01-.1,0-.08.05-.17.1-.22.18-.27.39-.52.79-.78,1.18-.37.56-.76,1.12-1.12,1.69-.32.5-.6,1.01-.91,1.52-.03.04-.06.1-.1.11-.06.01-.15,0-.19-.03-.04-.04-.06-.13-.04-.18.09-.22.2-.43.29-.65.19-.5.42-.98.74-1.42.08-.11.02-.24-.12-.23-.1,0-.2.05-.28.11-.5.36-.89.8-1.13,1.37-.22.54-.32,1.09-.26,1.67.03.34.05.69.11,1.02.08.4.21.8.32,1.2.03.1.05.2.05.3.04.93-.01,1.85-.15,2.77-.04.3-.02.37.25.53.36.22.73.44,1.1.64.22.12.45.23.67.35.1.05.19.05.25-.05.09-.14.19-.28.26-.43.34-.7.69-1.39,1.01-2.1.31-.7.59-1.41.86-2.13.21-.57.37-1.15.56-1.73.04-.13,0-.16-.13-.15-.11,0-.21-.01-.32-.02.03-.11.05-.22.08-.33,0-.03.04-.05.05-.08.08-.14.16-.28.23-.42.05-.1.09-.2.11-.3.07-.32.13-.64.18-.96.01-.1-.02-.21-.06-.31-.02-.06-.08-.1-.13-.15-.04.05-.11.09-.13.14-.04.09-.04.19-.08.28-.26.54-.56,1.05-.95,1.51-.03.03-.06.07-.1.07-.06,0-.13.02-.18-.01-.03-.02-.05-.11-.03-.16.04-.12.11-.23.17-.35.05-.09.11-.17.15-.27.12-.31.23-.62.34-.93.02-.05.04-.1.06-.15.05-.16.1-.31.14-.47.04-.19.08-.38.11-.57.05-.29.1-.58.16-.91Zm13.98-2.51c-.01-.11,0-.31-.07-.48-.16-.41-.37-.81-.7-1.13-.35-.34-.69-.71-.9-1.17-.18-.39-.39-.78-.38-1.23,0-.2,0-.4-.02-.6,0-.12-.05-.24-.19-.23-.26.02-.52.03-.76.09-.47.12-.89.33-1.25.66-.07.06-.2.11-.28.09-.13-.04-.19-.17-.2-.32,0-.08-.04-.17-.06-.25-.09.03-.18.06-.28.09-.02,0-.04.02-.05.04-.4.35-.81.71-1.21,1.06-.13.12-.12.2.02.31.2.16.41.31.61.48.32.28.44.63.41,1.05-.03.34-.24.58-.41.84-.3.45-.63.88-.94,1.32-.13.18-.1.27.11.35.71.26,1.3.69,1.79,1.27.41.48.97.67,1.6.55.41-.08.8-.19,1.21-.28.41-.09.75-.29,1.07-.56.57-.5.87-1.12.9-1.95Zm-8.41-13.06c.04-.24-.11-.45-.36-.6-.07-.05-.22-.07-.28-.03-.22.14-.43.32-.63.49-.11.09-.19.2-.29.3-.13.14-.29.16-.46.1-.4-.13-.9-.63-.8-1.08.02-.11,0-.22,0-.34-.01-.25.03-.48.15-.7.06-.11.11-.23.14-.36.03-.12-.01-.2-.14-.23-.07-.01-.15-.03-.22-.03-.21,0-.38-.1-.53-.24-.06-.06-.11-.12-.17-.17-.11-.1-.16-.08-.23.05-.13.26-.27.5-.38.76-.08.18-.14.38-.19.57-.04.13.04.22.18.23.08,0,.17,0,.26,0,.37-.03.71.15.85.46.03.07.02.17-.01.24-.02.04-.14.06-.18.04-.17-.09-.28-.01-.4.1-.12.1-.24.21-.41.18-.15-.02-.25.03-.32.16-.15.25-.35.46-.6.62-.14.09-.13.18-.02.31.06.06.14.13.15.2.04.24.17.38.4.47.21.08.22.28.03.41-.1.07-.22.11-.32.19-.06.05-.12.15-.12.22.09.68.66,1.31,1.39,1.35.32.02.64.03.96-.07.07-.02.15-.03.22-.03.16,0,.23.1.15.25-.06.11-.15.21-.25.29-.23.17-.24.21-.14.48.13.37.26.74.36,1.12.05.19.04.41.08.61.04.18.04.35-.04.53-.04.08-.02.24.04.29.06.05.2.03.29,0,.09-.03.16-.1.24-.15.55-.31.99-.75,1.37-1.25.46-.61.7-1.32.91-2.05.04-.15,0-.24-.15-.3-.43-.18-.8-.43-1.14-.75-.38-.36-.68-.77-.93-1.23-.05-.09-.06-.22-.03-.31.04-.12.19-.12.3-.09.28.08.53,0,.77-.13.31-.17.49-.43.49-.86Zm-17.82,5.78c.19.13.34.26.52.35.19.1.31.24.41.42.06.11.07.21-.02.31-.09.1-.18.2-.27.3-.1.12-.06.23.09.26.05.01.11.01.16,0,.31-.04.6.06.86.21.26.15.5.33.77.46.45.22.91.41,1.36.6.32.14.64.25.99.32.36.07.71.19,1.07.29.62.16,1.25.19,1.88.21.27.01.53-.06.8-.05.57.01,1.1-.16,1.63-.33.28-.08.55-.17.82-.29.44-.18.86-.42,1.31-.58.6-.21,1.21-.37,1.82-.54.24-.07.34-.18.35-.43,0-.14,0-.28.04-.42.09-.39-.02-.77-.09-1.14-.02-.1-.1-.17-.21-.16-.27.05-.55.1-.82.15-.27.05-.54.11-.82.17-.08.02-.16.02-.24.05-.72.23-1.45.47-2.17.71-.29.1-.58.19-.87.29-.66.23-1.31.47-1.98.68-.32.1-.65.17-.99.21-.34.04-.69.1-1.02.05-.69-.11-1.38-.21-2.04-.47-.6-.24-1.17-.53-1.69-.92-.4-.3-.77-.64-1.27-.77-.13-.03-.24-.07-.39.04Zm22.12,14.5c0-.24-.07-.31-.23-.23-.45.21-.94.32-1.43.32-.35,0-.71-.1-1.06-.16-.17-.03-.35-.04-.5-.11-.4-.2-.83-.36-1.16-.69-.11-.11-.23-.08-.26.08-.03.18-.04.36-.03.54,0,.2.05.39.05.59-.01.67.06,1.33.24,1.98.04.15.12.24.26.31.44.22.88.42,1.29.68.6.37,1.17.77,1.74,1.19.35.26.66.56.99.84.17.14.29.1.36-.1.03-.09.06-.18.09-.27.06-.18.14-.35.19-.53.07-.3.12-.6.19-.9.06-.29,0-.36-.28-.32-.22.03-.34-.06-.39-.27-.17-.8-.23-1.61-.13-2.43.02-.18.05-.35.07-.51Zm-3.73-4.54c.53.01.96.26,1.34.59.04.04.08.09.11.14.17.25.16.32-.07.51-.03.03-.07.06-.09.09-.07.09-.07.19.04.24.34.15.66.33,1.04.36.27.02.49-.19.45-.46-.09-.57-.34-1.05-.82-1.39-.4-.29-.85-.49-1.34-.59-.43-.09-.77.05-1.1.26-.06.04-.1.11-.14.17-.02.04-.04.1-.02.13.02.03.08.03.13.03.15-.02.31-.05.46-.08Zm1.16-3.68c-.02-.39-.18-.61-.42-.76-.09-.06-.27-.06-.36,0-.16.09-.31.22-.43.37-.19.24-.16.53-.16.82,0,.43.09.86-.08,1.27-.02.04-.02.08-.01.13,0,.19.13.25.28.15.07-.05.12-.12.18-.18.11-.14.22-.27.33-.42.15-.21.33-.42.44-.65.12-.25.18-.52.25-.71Zm-1.78,4.03s-.07-.08-.1-.12c-.03.04-.07.08-.07.12,0,.04.05.07.08.11.03-.03.05-.07.09-.12Z"/><path class="cls-3" d="m44.53,103.27c.41-.02.81-.06,1.22-.05,1.27.02,2.53.06,3.78.32.63.13,1.26.29,1.89.44.35.09.71.19,1.05.3.4.13.79.28,1.17.44.41.17.82.35,1.22.54.34.16.67.34,1,.52.34.18.68.35,1,.55.78.5,1.54,1.02,2.25,1.61,1.16.96,2.22,2.01,3.15,3.19.44.57.89,1.15,1.28,1.76.41.64.72,1.33,1.12,1.97.23.37.23.68.03,1.05-.19.35-.33.73-.48,1.1-.12.28-.22.56-.34.83-.07.17-.17.33-.26.48-.11.18-.31.22-.47.08-.09-.08-.17-.19-.22-.31-.21-.49-.37-1.01-.61-1.49-.35-.7-.72-1.39-1.14-2.05-.42-.66-.89-1.31-1.38-1.92-.44-.54-.94-1.04-1.44-1.54-.86-.87-1.84-1.59-2.88-2.24-.54-.33-1.09-.65-1.65-.95-.31-.17-.65-.3-.99-.43-.53-.21-1.06-.44-1.61-.61-.53-.17-1.08-.28-1.62-.41-.33-.08-.66-.15-.99-.19-.72-.09-1.45-.17-2.18-.21-.51-.03-1.03,0-1.54.03-.35.02-.7.06-1.06.09-.93.08-1.85.24-2.75.52-.47.15-.95.26-1.41.43-.47.17-.94.36-1.39.59-.73.37-1.46.74-2.17,1.16-.52.31-1.01.7-1.5,1.06-.89.65-1.65,1.45-2.39,2.25-.62.67-1.18,1.39-1.65,2.18-.33.55-.65,1.1-.98,1.64-.17.29-.25.32-.58.24-.06-.02-.12-.03-.18-.06-.5-.18-.99-.37-1.49-.55-.07-.03-.14-.06-.2-.1-.32-.2-.36-.3-.19-.63.3-.57.6-1.14.93-1.69.93-1.55,2.06-2.93,3.37-4.18.86-.83,1.78-1.59,2.78-2.24.51-.33,1.02-.66,1.54-.97.38-.22.79-.41,1.2-.59.56-.26,1.12-.52,1.69-.74.52-.2,1.05-.33,1.58-.5.92-.3,1.88-.45,2.83-.62.56-.1,1.13-.12,1.69-.18,0,.01,0,.03,0,.04Z"/><path class="cls-3" d="m50.1,126.28c0-.34.35-.58.7-.52.44.08.83.28,1.19.53.32.22.59.47.77.81.1.18.08.31-.05.46-.1.11-.27.14-.43.07-.1-.05-.19-.11-.29-.17-.11-.07-.23-.09-.35-.03-.23.13-.45.09-.65-.07-.25-.2-.48-.4-.71-.62-.13-.13-.19-.3-.18-.46Z"/></g><g><path class="cls-5" d="m105.55,151.24c0,1.12-.01,2.23,0,3.35.01.84-.29,1.55-.84,2.15-.47.52-1.08.81-1.75.98-1.17.32-2.18.06-2.36.05-.5-.03-.96-.21-1.39-.43-.2-.1-.39-.29-.51-.48-.24-.39.06-.92.53-.92.32,0,.66.05.95.17.67.29,1.36.34,2.07.25.83-.1,1.6-.69,1.7-1.72.01-.14.07-.32-.09-.41-.17-.09-.31.03-.44.13-.44.35-.93.59-1.5.64-.51.05-1.04.08-1.53-.07-.37-.12-.74-.28-1.04-.51-.54-.41-1.04-.88-1.28-1.54-.13-.36-.29-.73-.33-1.11-.12-1.13-.12-2.28.56-3.26.52-.75,1.16-1.35,2.1-1.61.82-.22,1.59-.11,2.36.13.25.08.48.27.71.42.32.21.44.18.61-.17.16-.33.5-.47.92-.38.35.08.53.28.53.67.01.56,0,1.13,0,1.69,0,.66,0,1.33,0,1.99h0Zm-3.79,2.32c.67.04,1.25-.33,1.75-.92.24-.28.32-.62.45-.94.3-.79.15-1.58-.26-2.24-.67-1.1-1.35-1.34-2.7-1.14-.42.06-.76.32-1.05.63-.88.94-.92,2.45-.41,3.33.47.81,1.12,1.3,2.22,1.29Z"/><path class="cls-5" d="m83.89,155.03c-.35-.03-.7-.03-1.05-.08-.98-.16-1.83-.6-2.5-1.35-.23-.26-.28-.69-.11-.94.19-.29.57-.41.93-.28.14.05.28.12.39.22.67.58,1.45.89,2.33.94.25.01.51-.02.74-.09.43-.13.84-.28,1.2-.59.34-.3.37-1.22.12-1.51-.22-.26-.47-.47-.79-.62-.75-.33-1.56-.46-2.35-.67-.66-.18-1.28-.45-1.75-.98-.4-.45-.67-.97-.63-1.6,0-.16,0-.33,0-.49-.05-1.02.47-1.71,1.29-2.22.95-.58,1.99-.72,3.08-.58.7.09,1.34.32,1.93.69.21.13.41.29.58.48.41.44.23,1.14-.31,1.33-.29.1-.51-.03-.74-.17-.19-.12-.38-.24-.57-.36-.62-.36-1.29-.47-1.99-.43-.46.03-.89.14-1.25.45-.08.07-.17.15-.23.24-.39.53-.35,1.05.12,1.52.39.4.9.58,1.43.72.79.21,1.59.35,2.34.68,1.04.46,1.6,1.24,1.69,2.37.11,1.32-.73,2.48-1.88,2.92-.85.33-.95.36-2.02.38Z"/><path class="cls-5" d="m93.26,151.39c-.74,0-1.48,0-2.22,0-.43,0-.55.21-.37.6.31.69.82,1.16,1.51,1.45.1.04.22.09.32.09.38.01.75.03,1.13,0,.4-.03.74-.24,1.04-.49.23-.19.48-.26.77-.24.52.03.79.53.51.97-.25.39-.6.66-1.04.83-.38.15-.75.35-1.17.38-.67.05-1.34.09-1.98-.1-.94-.27-1.71-.8-2.23-1.67-.27-.44-.35-.93-.49-1.41-.2-.68-.04-1.33.07-2,.17-1.01.75-1.73,1.49-2.36.52-.43,1.15-.59,1.81-.67.55-.07,1.08.02,1.6.18.18.05.33.17.5.26.87.46,1.45,1.16,1.76,2.1.12.36.22.72.25,1.09.04.55-.3.94-.85.97-.33.02-.65,0-.98,0-.46,0-.93,0-1.39,0h0Zm-.59-1.38s0,0,0,0c.53,0,1.05,0,1.58,0,.16,0,.34.02.43-.15.1-.17.04-.34-.06-.5-.41-.67-.98-1.08-1.8-1.11-.57-.02-1.09.1-1.54.47-.29.24-.46.56-.61.89-.09.2.01.34.23.38.09.02.17,0,.26.01.5,0,1,0,1.5,0Z"/><path class="cls-5" d="m130.21,150.95c.04.87-.22,1.66-.69,2.38-.37.57-.89.97-1.49,1.29-1,.54-2.04.45-3.08.27-.47-.08-.9-.37-1.28-.68-.76-.62-1.28-1.39-1.42-2.36-.1-.73-.13-1.48.06-2.21.2-.78.65-1.42,1.26-1.96.59-.52,1.28-.83,2.03-.89,1.69-.14,2.97.27,3.99,1.85.43.67.61,1.41.61,2.32Zm-3.96,2.6c.37.06.74-.09,1.11-.3.6-.35.98-.87,1.15-1.52.12-.46.13-.94.04-1.42-.2-1.06-1.06-2.12-2.47-2.07-1.05.04-1.89.86-2.14,1.57-.25.7-.29,1.37-.02,2.09.39,1.02,1.19,1.65,2.33,1.65Z"/><path class="cls-5" d="m114.26,150.03c0,.7,0,1.41,0,2.11-.02.97-.43,1.76-1.19,2.32-.5.37-1.1.54-1.74.54-.3,0-.6.01-.9,0-.96-.05-1.75-.46-2.29-1.25-.26-.38-.44-.8-.49-1.29-.13-1.57-.04-3.13-.06-4.7,0-.53.34-.84.82-.82.39.01.66.26.69.65.01.16,0,.33,0,.49,0,.9.01,1.81,0,2.71,0,.51.07,1,.14,1.49.11.73.94,1.33,1.52,1.27.32-.03.64.01.96-.13.75-.34.97-.98.98-1.72.01-1.23,0-2.46,0-3.69,0-.22.04-.45.12-.66.15-.37.45-.49.87-.4.31.06.53.33.56.67,0,.09,0,.18,0,.26,0,.72,0,1.43,0,2.15Z"/><path class="cls-5" d="m134.45,155.03c-.34-.04-.68-.05-1.01-.11-.78-.14-1.44-.51-1.96-1.1-.25-.27-.29-.66-.11-.98.19-.36.64-.46.97-.21.16.12.31.26.46.39.55.46,1.16.75,1.89.7.27-.02.55-.08.8-.19.61-.25.68-1.01.16-1.41-.23-.17-.49-.29-.77-.37-.7-.21-1.41-.4-2.06-.7-.73-.34-1.23-.91-1.21-1.79,0-.09,0-.18,0-.26-.04-.79.4-1.32,1-1.74.53-.37,1.14-.46,1.78-.5.52-.04,1,.1,1.47.25.51.16.93.49,1.25.92.21.29.19.62-.04.86-.24.25-.55.3-.86.13-.09-.05-.18-.1-.24-.18-.25-.28-.58-.42-.92-.55-.52-.21-1.01-.17-1.48.1-.62.35-.64,1.04-.04,1.42.29.18.59.3.93.4.66.19,1.34.33,1.94.68.42.25.76.57.92,1.06.19.6.18,1.19-.07,1.77-.18.43-.53.72-.92.96-.57.35-1.2.49-1.88.46Z"/><path class="cls-5" d="m116.28,150.9c0-.94,0-1.88,0-2.82,0-.2.01-.41.07-.59.09-.31.32-.51.65-.54.33-.03.58.09.75.39.25.45.31.46.71.12.38-.32.8-.55,1.3-.65.38-.07.75-.06,1.11.09.31.13.48.48.41.84-.07.37-.3.58-.67.59-.17,0-.36,0-.52-.07-.48-.19-.9-.03-1.27.24-.62.44-.89,1.08-.9,1.81-.02,1.14,0,2.28,0,3.42,0,.24-.07.5-.15.73-.12.33-.33.44-.71.43-.32,0-.6-.19-.69-.49-.06-.2-.08-.42-.09-.63,0-.95,0-1.91,0-2.86h0Z"/></g></svg>