<?xml version="1.0" encoding="UTF-8"?><svg id="Capa_1" xmlns="http://www.w3.org/2000/svg" viewBox="0 0 320 241.75"><defs><style>.cls-1{fill:#e4002b;}.cls-2{fill:#1a1a1a;}.cls-3{fill:#6f6f6e;}</style></defs><g><path class="cls-2" d="m100.06,118.44c-.73-.88-1.67-1.56-2.73-1.99-1.65-.61-3.35-1.09-5.07-1.42-1.35-.24-2.65-.69-3.87-1.32-.74-.42-1.18-1.21-1.15-2.06-.03-1,.46-1.94,1.3-2.49,1.05-.64,2.28-.95,3.51-.89,2.11.06,4.17.57,6.07,1.49v-3.36c-.49-.23-1-.43-1.52-.61-1.47-.48-3-.72-4.55-.72-1.58-.03-3.15.27-4.61.88-1.24.51-2.3,1.35-3.09,2.43-.72,1.03-1.11,2.26-1.09,3.52-.04,1.12.27,2.22.9,3.14.7.9,1.61,1.6,2.67,2.03,1.49.63,3.03,1.1,4.62,1.41,1.5.26,2.96.69,4.35,1.29.75.38,1.22,1.15,1.21,1.99.02.95-.47,1.85-1.3,2.33-1.27.61-2.67.89-4.07.83-1.35.01-2.69-.18-3.98-.58-1.49-.57-2.9-1.34-4.19-2.29v3.83c1.01.65,2.09,1.16,3.23,1.53,1.59.48,3.24.71,4.9.7,1.78.03,3.54-.24,5.23-.81,1.24-.45,2.33-1.26,3.12-2.32.72-1.03,1.1-2.26,1.08-3.51.04-1.08-.3-2.15-.95-3.03Z"/><path class="cls-2" d="m120.56,122.96l-4.52-13.2h-2.56l-4.65,13.12-4.43-13.12h-3.68l6.52,18.32h2.92l4.49-12.67,4.47,12.67h2.92l6.54-18.32h-3.5l-4.55,13.2Z"/><rect class="cls-2" x="131.24" y="109.76" width="3.63" height="18.32"/><path class="cls-2" d="m149.57,118.64c-1.22-.5-2.47-.88-3.76-1.15-1.05-.19-2.08-.53-3.03-1.03-.54-.3-.86-.87-.83-1.49-.03-.74.34-1.43.96-1.83.81-.49,1.75-.73,2.7-.68,1.67.05,3.32.46,4.82,1.2l.21.1v-3.1l-.09-.04c-.41-.19-.83-.36-1.26-.51-1.19-.39-2.44-.59-3.69-.58-1.29-.02-2.57.22-3.75.72-1.02.42-1.9,1.12-2.54,2.01-.6.85-.92,1.88-.91,2.92-.03.93.23,1.85.75,2.62.58.74,1.33,1.33,2.2,1.69,1.2.51,2.45.89,3.72,1.14,1.07.2,2.12.54,3.1,1.01.55.27.88.83.87,1.43.02.7-.35,1.36-.95,1.7-.87.47-1.84.69-2.83.63-1.05,0-2.11-.16-3.12-.45-1.15-.41-2.25-.94-3.28-1.59v3.33l.07.05c.72.45,1.51.8,2.33,1.03,1.29.39,2.63.58,3.97.57,1.33.03,2.67-.2,3.92-.66,1.03-.38,1.92-1.04,2.57-1.92.6-.85.91-1.87.89-2.91.03-.91-.25-1.81-.79-2.55-.61-.72-1.38-1.29-2.26-1.64Z"/><path class="cls-2" d="m166.7,118.64c-1.22-.5-2.47-.88-3.76-1.15-1.06-.19-2.08-.53-3.03-1.03-.54-.3-.86-.87-.83-1.49-.03-.74.34-1.43.96-1.83.81-.49,1.75-.73,2.7-.68,1.67.05,3.32.46,4.82,1.2l.21.1v-3.1l-.09-.04c-.41-.19-.83-.36-1.26-.51-1.19-.39-2.44-.59-3.69-.58-1.29-.02-2.57.22-3.75.72-1.02.42-1.9,1.12-2.54,2.01-.6.85-.92,1.88-.91,2.92-.04.93.23,1.85.75,2.62.58.74,1.33,1.33,2.2,1.69,1.2.51,2.45.89,3.72,1.14,1.07.2,2.12.54,3.1,1.01.55.27.89.83.87,1.43.02.7-.35,1.35-.95,1.7-.87.47-1.84.69-2.83.63-1.05,0-2.11-.16-3.12-.45-1.15-.41-2.24-.94-3.28-1.59v3.33l.07.05c.72.45,1.51.8,2.33,1.03,1.29.39,2.63.58,3.97.57,1.33.03,2.67-.2,3.92-.66,1.02-.38,1.92-1.04,2.57-1.92.6-.85.91-1.87.89-2.91.03-.91-.25-1.81-.79-2.55-.61-.72-1.38-1.29-2.26-1.64Z"/><path class="cls-2" d="m188.72,121.39l-6.16-11.62h-2.88v18.32h3.24l-.03-11.36,4.6,8.44h2.4l4.57-8.55v11.47h3.24v-18.33h-2.85l-6.14,11.63Z"/><path class="cls-2" d="m201.28,128.09h12.5v-2.9h-8.94v-4.97h8.43v-2.88h-8.43v-4.66h8.94v-2.91h-12.5v18.33Z"/><path class="cls-2" d="m223.66,109.76h-6.87v18.33h6.87c3,0,5.38-.81,7.04-2.42,1.67-1.61,2.51-3.88,2.51-6.75s-.84-5.14-2.51-6.74c-1.67-1.6-4.04-2.41-7.04-2.41Zm-3.24,2.98h3.03c4.13,0,6.13,2.02,6.13,6.17s-2.01,6.19-6.13,6.19h-3.03v-12.36Z"/><rect class="cls-2" x="236.13" y="109.76" width="3.63" height="18.32"/><path class="cls-2" d="m251.65,112.51c.98.03,1.96.19,2.9.47.79.23,1.55.52,2.28.88l-.02-3.18c-.56-.26-1.13-.48-1.71-.66-1.14-.34-2.32-.51-3.5-.49-1.66-.04-3.3.36-4.76,1.16-1.35.76-2.44,1.9-3.13,3.28-1.45,3.14-1.45,6.76,0,9.89.69,1.39,1.78,2.53,3.13,3.3,1.46.8,3.1,1.19,4.76,1.16,1.8.02,3.58-.37,5.21-1.15l.03-3.18c-1.62.79-3.39,1.25-5.19,1.35-1.5.08-2.95-.52-3.96-1.64-1.87-2.91-1.87-6.64,0-9.55,1-1.12,2.46-1.73,3.95-1.64Z"/><path class="cls-2" d="m270.02,109.76h-2.9l-8.38,18.33h3.69l1.83-4.22h8.67l1.83,4.22h3.64l-8.38-18.33Zm1.67,11.26h-6.22l3.11-7.15,3.11,7.15Z"/><path class="cls-2" d="m284.3,105.79h-3.56v22.3h13.26v-3.07h-9.7v-19.24Z"/></g><g><path class="cls-3" d="m221.46,139.34c-.49-.3-1.06-.43-1.64-.39h-2.51v3.26h2.51c.58.05,1.15-.09,1.64-.39.68-.69.68-1.79,0-2.48Z"/><path class="cls-3" d="m248.84,139.66c-.07.07-.14.14-.21.21-1.12,1.85-1.11,4.16,0,6.01,1.15,1.29,3.13,1.4,4.42.24.09-.08.17-.16.25-.24,1.13-1.84,1.14-4.16,0-6.01-1.18-1.29-3.18-1.39-4.47-.21Z"/><path class="cls-3" d="m83.48,133.54v18.89h210.52v-18.89H83.48Zm15.75,14.45c-1.07.7-2.35,1.04-3.62.97-.89,0-1.76-.11-2.6-.36-.75-.2-1.45-.54-2.07-1l.84-1.87c1.13.79,2.48,1.21,3.86,1.19.59.03,1.18-.09,1.71-.36.37-.2.6-.58.6-1,0-.38-.21-.72-.55-.89-.62-.3-1.27-.51-1.95-.62-.86-.15-1.7-.41-2.5-.77-.55-.24-1.02-.63-1.37-1.12-.3-.49-.45-1.06-.43-1.64-.01-.69.2-1.36.6-1.92.43-.59,1.01-1.04,1.68-1.32.79-.33,1.64-.5,2.5-.48.83,0,1.65.12,2.44.37.69.2,1.32.54,1.86.99l-.84,1.87c-.99-.76-2.19-1.18-3.44-1.19-.57-.03-1.13.11-1.62.39-.38.23-.6.64-.59,1.08,0,.24.07.48.23.66.21.21.47.37.76.46.49.17,1,.31,1.51.42,1.18.19,2.3.63,3.3,1.29.67.52,1.04,1.34,1,2.19.04,1.04-.45,2.04-1.3,2.65Zm31.64-9h-5.63v2.77h5.3v2.03h-5.3v2.98h5.63v2.03h-8.19v-11.85h8.19v2.03h0Zm32.23,9.08c-.65.3-1.32.52-2.02.66-.79.16-1.59.24-2.39.24-1.13.03-2.26-.22-3.27-.73-.9-.47-1.64-1.2-2.12-2.1-.98-2.04-.99-4.42,0-6.47.47-.9,1.21-1.63,2.1-2.11.98-.51,2.08-.76,3.19-.74.81,0,1.61.11,2.39.35.67.2,1.29.53,1.83.97l-.83,1.87c-.49-.36-1.04-.65-1.61-.85-.55-.18-1.12-.27-1.7-.26-2.29,0-3.44,1.33-3.44,3.98-.09,1.1.23,2.18.89,3.06.71.71,1.69,1.09,2.7,1.01.65,0,1.31-.09,1.94-.25v-2.6h-2.33v-1.82h4.69v5.8h0Zm29.58-.41c-2.25,1.72-5.37,1.73-7.61,0-.93-1.02-1.41-2.38-1.31-3.76v-6.96h2.58v7.08c-.05.77.18,1.54.65,2.15,1.06.99,2.71.98,3.77,0,.48-.61.71-1.37.66-2.14v-7.08h2.58v6.96c.1,1.37-.38,2.73-1.32,3.75Zm29.54,1.14l-2.06-3.78c-.14-.26-.35-.48-.61-.63-.28-.14-.58-.2-.89-.19h-1.3v4.61h-2.6v-11.85h5.46c1.13-.08,2.25.24,3.16.92.74.67,1.14,1.65,1.07,2.65.03.81-.24,1.61-.75,2.25-.55.63-1.29,1.05-2.12,1.19.68.21,1.25.69,1.57,1.33l1.93,3.51h-2.86s0,0,0,0Zm33.84-2.71c-.45.89-1.15,1.63-2.01,2.12-1.93,1-4.23,1-6.15,0-.87-.49-1.57-1.23-2.01-2.12-.94-2.04-.94-4.39,0-6.44.45-.89,1.15-1.62,2.01-2.11,1.93-.98,4.22-.98,6.15,0,.87.49,1.57,1.22,2.01,2.11.94,2.04.94,4.39,0,6.44Zm29.46,1.9c-1.07.7-2.34,1.04-3.62.97-.88,0-1.76-.11-2.6-.36-.75-.2-1.45-.54-2.07-1l.84-1.87c1.13.79,2.48,1.21,3.86,1.19.59.03,1.18-.09,1.71-.36.37-.2.6-.58.6-1,0-.38-.21-.72-.55-.89-.62-.3-1.27-.51-1.95-.62-.86-.15-1.7-.41-2.5-.77-.55-.24-1.02-.63-1.36-1.12-.3-.49-.45-1.06-.43-1.64-.01-.69.2-1.36.6-1.92.43-.59,1.01-1.04,1.68-1.32.79-.33,1.64-.5,2.5-.48.83,0,1.65.12,2.44.37.69.2,1.32.54,1.86.99l-.84,1.87c-.98-.76-2.19-1.18-3.44-1.19-.57-.03-1.13.11-1.62.39-.38.23-.6.65-.59,1.08,0,.24.07.48.23.66.21.21.47.37.76.46.49.17,1,.31,1.51.42,1.18.19,2.3.63,3.3,1.29.67.52,1.04,1.34,1,2.19.04,1.04-.45,2.04-1.3,2.65Z"/></g><g><rect class="cls-1" x="26" y="135.42" width="16.89" height="16.89"/><rect class="cls-1" x="26" y="105.03" width="16.89" height="16.89"/><rect class="cls-1" x="56.4" y="135.42" width="16.89" height="16.89"/><rect class="cls-1" x="56.4" y="105.03" width="16.89" height="16.89"/></g></svg>