<?xml version="1.0" encoding="utf-8"?>
<!-- Generator: Adobe Illustrator 27.1.1, SVG Export Plug-In . SVG Version: 6.00 Build 0)  -->
<svg version="1.1" id="Capa_1" xmlns="http://www.w3.org/2000/svg" xmlns:xlink="http://www.w3.org/1999/xlink" x="0px" y="0px"
	 viewBox="0 0 495.8 632.1" style="enable-background:new 0 0 495.8 632.1;" xml:space="preserve">
<style type="text/css">
	.st0{fill:#F88C7E;}
	.st1{fill:#3F3D56;}
	.st2{fill:#2F2E41;}
	.st3{fill:#E5E5E5;}
	.st4{fill:#E4E4E4;}
	.st5{fill:#CACACA;}
	.st6{fill:#FFB6B6;}
</style>
<g>
	<g>
		<path id="a24dc8e0-63f3-4c57-9da7-8d00cfa1aebe-196" class="st0" d="M171.3,548.8c9.4,3.3,19.8,1.5,27.5-4.9
			c9.7-8.1,12.6-21.3,15.1-33.7l7.3-36.4L206,484.2c-11,7.5-22.1,15.3-29.7,26.2c-7.5,11-10.9,25.8-4.8,37.6"/>
		<path id="bc8b2ee0-9ec2-4139-a7e3-e0b1b1382397-197" class="st1" d="M173.7,595.5c-1.9-14-3.9-28.1-2.6-42.1
			c1.2-12.5,5-24.8,12.8-34.8c4.1-5.3,9.1-9.8,14.8-13.4c1.5-0.9,2.9,1.4,1.4,2.4c-9.8,6.3-17.5,15.5-21.7,26.2
			c-4.7,12.1-5.5,25.2-4.7,38c0.5,7.7,1.6,15.5,2.6,23.1c0.2,0.7-0.3,1.5-0.9,1.7C174.7,596.6,173.9,596.2,173.7,595.5L173.7,595.5z
			"/>
		<path id="a6bcb68f-fec1-4497-88cc-56de52c10faf-198" class="st0" d="M187.5,573.1c4,6.1,11,9.7,18.2,9.4c9.2-0.5,16.9-6.9,23.9-13
			l20.5-18.1l-13.6-0.6c-9.8-0.5-19.8-0.9-29.1,2.1c-9.3,3-17.9,10.2-19.6,19.9"/>
		<path id="a1650e23-bf32-4c95-848c-aacb59e17a01-199" class="st2" d="M168.3,603.5c9.2-16.3,19.9-34.4,39-40.2
			c5.3-1.6,10.9-2.2,16.4-1.7c1.7,0.2,1.3,2.9-0.5,2.7c-9.3-0.7-18.5,1.7-26.2,6.9c-7.4,5.1-13.2,12.1-18,19.4
			c-2.9,4.5-5.6,9.3-8.3,14C169.9,606.1,167.4,605,168.3,603.5z"/>
	</g>
	<path class="st0" d="M81,196c-2,0-3.5,2.5-3.5,5.6s1.6,5.6,3.5,5.6h122.2c2,0,3.5-2.5,3.5-5.6s-1.6-5.6-3.5-5.6H81z"/>
	<path class="st0" d="M81,229.4c-2,0-3.5,2.5-3.5,5.6s1.5,5.6,3.5,5.6l0,0h122.4c2,0,3.5-2.5,3.5-5.6s-1.5-5.6-3.5-5.6l0,0H81z"/>
	<path class="st0" d="M81,262.4c-2,0-3.5,2.5-3.5,5.6s1.5,5.6,3.5,5.6l0,0h27.5c2,0,3.5-2.5,3.5-5.6s-1.5-5.6-3.5-5.6l0,0H81z"/>
	<path class="st3" d="M443.6,435.7H37.1V28.9h406.6V435.7z M46.5,426.3h385.4v-388H46.5V426.3z"/>
	<path class="st4" d="M263.5,346.3c-5.5,0-10,4.5-10.1,10c0,5.5,4.5,10,10,10.1h95.8c5.5,0,10-4.5,10-10s-4.5-10-10-10l0,0h-95.7
		V346.3z"/>
	<path class="st4" d="M263.5,224.7c-5.5,0-10,4.5-10.1,10c0,5.5,4.5,10,10,10.1h95.8c5.5,0,10-4.5,10-10s-4.5-10-10-10l0,0h-95.7
		V224.7z"/>
	<path class="st4" d="M81,350.9c-2,0-3.5,2.5-3.5,5.6s1.5,5.6,3.5,5.6l0,0h122.4c2,0,3.5-2.5,3.5-5.6s-1.5-5.6-3.5-5.6l0,0H81z"/>
	<path class="st4" d="M81,383.9c-2,0-3.5,2.5-3.5,5.6s1.5,5.6,3.5,5.6l0,0h27.5c2,0,3.5-2.5,3.5-5.6s-1.5-5.6-3.5-5.6l0,0H81z"/>
	<path class="st4" d="M81,317.5c-2,0-3.5,2.5-3.5,5.6s1.6,5.6,3.5,5.6h122.2c2,0,3.5-2.5,3.5-5.6s-1.6-5.6-3.5-5.6H81z"/>
	<path class="st4" d="M81,74.5c-2,0-3.5,2.5-3.5,5.6s1.6,5.6,3.5,5.6h122.2c2,0,3.5-2.5,3.5-5.6s-1.6-5.6-3.5-5.6H81z"/>
	<path class="st4" d="M81,107.9c-2,0-3.5,2.5-3.5,5.6s1.5,5.6,3.5,5.6l0,0h122.4c2,0,3.5-2.5,3.5-5.6s-1.6-5.6-3.5-5.6l0,0H81z"/>
	<path class="st4" d="M81,140.9c-2,0-3.5,2.5-3.5,5.6s1.5,5.6,3.5,5.6l0,0h27.5c2,0,3.5-2.5,3.5-5.6s-1.5-5.6-3.5-5.6l0,0H81z"/>
	<path class="st4" d="M263.5,103.3c-5.5,0-10,4.5-10.1,10c0,5.5,4.5,10,10,10.1h95.8c5.5,0,10-4.5,10-10s-4.5-10-10-10l0,0
		L263.5,103.3L263.5,103.3z"/>
	<circle class="st5" cx="283.6" cy="113.2" r="18"/>
	<circle class="st5" cx="283.6" cy="356.2" r="18"/>
	<g>
		<path class="st6" d="M294.6,239.1c-0.8,5.5,3.1,10.5,8.5,11.2c0.6,0.1,1.2,0.1,1.8,0.1l9.6,20.7l14-2.7l-13.9-29
			c-0.6-5.5-5.5-9.5-11-8.9C298.9,231,295.2,234.5,294.6,239.1L294.6,239.1z"/>
		<polygon class="st1" points="391.4,317.5 352.4,298.2 324.9,251.5 305.7,260.8 330.6,314.7 393.7,351.1 		"/>
		<polygon class="st6" points="303.4,593.6 291.1,593.6 285.3,558.2 303.4,558.2 		"/>
		<path class="st2" d="M306.5,605.5H267V605c0-8.5,6.9-15.4,15.4-15.4l0,0h24.1V605.5z"/>
		<polygon class="st6" points="425.8,571.1 417.2,579.9 387.8,559.4 400.4,546.4 		"/>
		<path class="st2" d="M436.5,577.2l-27.6,28.3l-0.4-0.3c-6.1-5.9-6.2-15.7-0.3-21.8l0,0l16.8-17.3L436.5,577.2z"/>
		<path class="st2" d="M318.5,383.2h-8.4l0,0c-22,24.1-38.9,52.5-49.4,83.4l-10.1,29.7l36.1,75.6l22.5,0.4L283.5,492l25.9-34.4
			l1.3,69.2l83.4,43.7l16.7-24.7l-67.9-37.1l11.6-58.8c0,0,23.3-19.4,9.7-49.8L318.5,383.2z"/>
		<path class="st1" d="M430.1,306.2l-35.2-15.4L356.1,308c0,0-11,6.2-4,22.2l-42.1,53c0,0,0.1,0,53,16.9l47.7-42
			C425.4,345.1,432.7,325.7,430.1,306.2L430.1,306.2z"/>
		
			<ellipse transform="matrix(0.2898 -0.9571 0.9571 0.2898 46.9359 594.7537)" class="st6" cx="424.2" cy="265.8" rx="24.6" ry="24.6"/>
		<path class="st2" d="M456,233.2c-5.6-4.6-14.4-5.6-20.2-1.2c-10.1-5.3-23.9-2.5-31.1,6.3c-2.6,3.2-4.5,7.5-3.2,11.4
			s6.9,6.2,9.8,3.3l-0.1,1.2c7.6,7.6,7.6,20,0,27.6c-3.2,3.2-7.5,5.2-12.1,5.6c8,3.3,16.1,6.5,24.1,9.8c3.4,1.4,6.9,2.8,10.5,2.7
			s7.5-1.8,9-5.2c1,3.1,2,6.2,3.1,9.4c6-9.5,10.9-19.7,14.7-30.3c2.4-6.8,4.4-14,4.1-21.3C464.4,245.2,461.7,237.8,456,233.2z"/>
		<circle class="st0" cx="319.1" cy="234.8" r="18"/>
		<path class="st6" d="M319.6,229.1c-0.8,5.5,3.1,10.5,8.5,11.2c0.6,0.1,1.2,0.1,1.8,0.1l9.6,20.7l14-2.7l-13.9-29
			c-0.6-5.5-5.5-9.5-11-8.9C323.9,221,320.2,224.5,319.6,229.1L319.6,229.1z"/>
		<polygon class="st1" points="416.4,307.5 377.4,288.2 349.9,241.5 330.7,250.8 355.6,304.7 418.7,341.1 		"/>
	</g>
	<path class="st5" d="M473.7,614.4H25.2c-0.6,0-1.2-1.7-1.2-3.9s0.5-3.9,1.2-3.9h448.6c0.6,0,1.2,1.7,1.2,3.9
		S474.4,614.4,473.7,614.4z"/>
</g>
</svg>
