<?xml version="1.0" encoding="utf-8"?>
<!-- Generator: Adobe Illustrator 27.1.1, SVG Export Plug-In . SVG Version: 6.00 Build 0)  -->
<svg version="1.1" id="Capa_1" xmlns="http://www.w3.org/2000/svg" xmlns:xlink="http://www.w3.org/1999/xlink" x="0px" y="0px"
	 viewBox="0 0 629.4 605.3" style="enable-background:new 0 0 629.4 605.3;" xml:space="preserve">
<style type="text/css">
	.st0{fill:#F88C7E;}
	.st1{fill:#3F3D56;}
	.st2{fill:#2F2E41;}
	.st3{fill:#FFFFFF;}
	.st4{fill:#E5E5E5;}
	.st5{fill:#E4E4E4;}
	.st6{fill:#CACACA;}
	.st7{fill:#FFB6B6;}
</style>
<g>
	<path id="a24dc8e0-63f3-4c57-9da7-8d00cfa1aebe-196" class="st0" d="M257.5,529.4c10.2,3.6,21.5,1.6,29.9-5.3
		c10.5-8.8,13.7-23.2,16.4-36.6l7.9-39.6l-16.5,11.4c-11.9,8.2-24,16.6-32.3,28.5c-8.2,11.9-11.8,28-5.2,40.9"/>
	<path id="bc8b2ee0-9ec2-4139-a7e3-e0b1b1382397-197" class="st1" d="M260.1,580.2c-2.1-15.2-4.2-30.5-2.8-45.8
		c1.3-13.6,5.4-26.9,13.9-37.8c4.5-5.8,9.9-10.7,16.1-14.6c1.6-1,3.1,1.5,1.5,2.6c-10.7,6.8-19,16.8-23.6,28.5
		c-5.1,13.1-6,27.4-5.1,41.3c0.5,8.4,1.7,16.8,2.8,25.1c0.2,0.8-0.3,1.6-1,1.8C261.1,581.4,260.3,581,260.1,580.2L260.1,580.2z"/>
	<path id="a6bcb68f-fec1-4497-88cc-56de52c10faf-198" class="st0" d="M275,555.9c4.4,6.6,11.9,10.5,19.8,10.2
		c10-0.5,18.4-7.5,26-14.1l22.3-19.7l-14.8-0.7c-10.6-0.5-21.5-1-31.6,2.3c-10.1,3.3-19.4,11.1-21.3,21.6"/>
	<path id="a1650e23-bf32-4c95-848c-aacb59e17a01-199" class="st2" d="M254.2,588.9c10-17.7,21.6-37.4,42.4-43.7
		c5.8-1.7,11.8-2.4,17.8-1.8c1.9,0.2,1.4,3.1-0.5,2.9c-10.1-0.8-20.1,1.8-28.5,7.5c-8,5.5-14.3,13.1-19.6,21.1
		c-3.2,4.9-6.1,10.1-9,15.2C255.9,591.7,253.2,590.5,254.2,588.9z"/>
	<path class="st3" d="M524,421.2H16.3V14.4H524V421.2z"/>
	<path class="st0" d="M75.3,181.5c-2.7,0-4.8,2.5-4.8,5.6c0,3.1,2.2,5.6,4.8,5.6H242c2.7,0,4.8-2.5,4.8-5.6c0-3.1-2.2-5.6-4.8-5.6
		H75.3z"/>
	<path class="st0" d="M75.3,214.9c-2.7,0-4.8,2.5-4.8,5.6c0,3.1,2.1,5.6,4.8,5.6c0,0,0,0,0,0h166.9c2.7,0,4.8-2.5,4.8-5.6
		c0-3.1-2.1-5.6-4.8-5.6c0,0,0,0,0,0H75.3z"/>
	<path class="st0" d="M75.3,247.9c-2.7,0-4.8,2.5-4.8,5.6c0,3.1,2.1,5.6,4.8,5.6c0,0,0,0,0,0h37.5c2.7,0,4.8-2.5,4.8-5.6
		c0-3.1-2.1-5.6-4.8-5.6c0,0,0,0,0,0H75.3z"/>
	<path class="st4" d="M524,421.2H16.3V14.4H524V421.2z M28.1,411.8h486.8v-388H28.1V411.8z"/>
	<path class="st5" d="M343.9,331.8c-5.5,0-10,4.5-10.1,10c0,5.5,4.5,10,10,10.1h95.8c5.5,0,10-4.5,10-10c0-5.5-4.5-10-10-10
		c0,0,0,0,0,0H343.9z"/>
	<path class="st5" d="M343.9,210.2c-5.5,0-10,4.5-10.1,10c0,5.5,4.5,10,10,10.1h95.8c5.5,0,10-4.5,10-10c0-5.5-4.5-10-10-10
		c0,0,0,0,0,0H343.9z"/>
	<path class="st5" d="M75.3,336.4c-2.7,0-4.8,2.5-4.8,5.6c0,3.1,2.1,5.6,4.8,5.6c0,0,0,0,0,0h166.9c2.7,0,4.8-2.5,4.8-5.6
		c0-3.1-2.1-5.6-4.8-5.6c0,0,0,0,0,0H75.3z"/>
	<path class="st5" d="M75.3,369.4c-2.7,0-4.8,2.5-4.8,5.6c0,3.1,2.1,5.6,4.8,5.6c0,0,0,0,0,0h37.5c2.7,0,4.8-2.5,4.8-5.6
		s-2.1-5.6-4.8-5.6c0,0,0,0,0,0H75.3z"/>
	<path class="st5" d="M75.3,303c-2.7,0-4.8,2.5-4.8,5.6c0,3.1,2.2,5.6,4.8,5.6H242c2.7,0,4.8-2.5,4.8-5.6c0-3.1-2.2-5.6-4.8-5.6
		H75.3z"/>
	<path class="st5" d="M75.3,60c-2.7,0-4.8,2.5-4.8,5.6c0,3.1,2.2,5.6,4.8,5.6H242c2.7,0,4.8-2.5,4.8-5.6c0-3.1-2.2-5.6-4.8-5.6H75.3
		z"/>
	<path class="st5" d="M75.3,93.4c-2.7,0-4.8,2.5-4.8,5.6c0,3.1,2.1,5.6,4.8,5.6l0,0h166.9c2.7,0,4.8-2.5,4.8-5.6
		c0-3.1-2.2-5.6-4.8-5.6l0,0H75.3z"/>
	<path class="st5" d="M75.3,126.4c-2.7,0-4.8,2.5-4.8,5.6c0,3.1,2.1,5.6,4.8,5.6c0,0,0,0,0,0h37.5c2.7,0,4.8-2.5,4.8-5.6
		c0-3.1-2.1-5.6-4.8-5.6c0,0,0,0,0,0H75.3z"/>
	<path class="st5" d="M343.9,88.8c-5.5,0-10,4.5-10.1,10c0,5.5,4.5,10,10,10.1h95.8c5.5,0,10-4.5,10-10c0-5.5-4.5-10-10-10
		c0,0,0,0,0,0H343.9z"/>
	<circle class="st6" cx="364" cy="98.7" r="18"/>
	<path class="st7" d="M395.5,224.6c-0.8,5.5,3.1,10.5,8.5,11.2c0.6,0.1,1.2,0.1,1.8,0.1l9.6,20.7l14-2.7l-13.9-29
		c-0.6-5.5-5.5-9.5-11-8.9C399.8,216.5,396.1,220,395.5,224.6L395.5,224.6z"/>
	<polygon class="st1" points="492.3,303 453.3,283.7 425.8,237 406.6,246.3 431.5,300.2 494.6,336.6 	"/>
	<polygon class="st7" points="404.3,579.1 392,579.1 386.2,543.7 404.3,543.7 	"/>
	<path class="st2" d="M407.4,591l-39.5,0v-0.5c0-8.5,6.9-15.4,15.4-15.4h0l24.1,0L407.4,591z"/>
	<polygon class="st7" points="526.7,556.6 518.1,565.4 488.7,544.9 501.3,531.9 	"/>
	<path class="st2" d="M537.4,562.7L509.8,591l-0.4-0.3c-6.1-5.9-6.2-15.7-0.3-21.8l0,0l16.8-17.3L537.4,562.7z"/>
	<path class="st2" d="M419.4,368.7H411l0,0c-22,24.1-38.9,52.5-49.4,83.4l-10.1,29.7l36.1,75.6l22.5,0.4l-25.7-80.3l25.9-34.4
		l1.3,69.2L495,556l16.7-24.7l-67.9-37.1l11.6-58.8c0,0,23.3-19.4,9.7-49.8L419.4,368.7z"/>
	<path class="st1" d="M531,291.7l-35.2-15.4L457,293.5c0,0-11,6.2-4,22.2l-42.1,53c0,0,0.1,0,53,16.9l47.7-42
		C526.3,330.6,533.6,311.2,531,291.7L531,291.7z"/>
	<circle class="st7" cx="525.1" cy="251.3" r="24.6"/>
	<path class="st2" d="M556.9,218.7c-5.6-4.6-14.4-5.6-20.2-1.2c-10.1-5.3-23.9-2.5-31.1,6.3c-2.6,3.2-4.5,7.5-3.2,11.4
		c1.3,3.9,6.9,6.2,9.8,3.3l-0.1,1.2c7.6,7.6,7.6,20,0,27.6c-3.2,3.2-7.5,5.2-12.1,5.6c8,3.3,16.1,6.5,24.1,9.8
		c3.4,1.4,6.9,2.8,10.5,2.7s7.5-1.8,9-5.2c1,3.1,2,6.2,3.1,9.4c6-9.5,10.9-19.7,14.7-30.3c2.4-6.8,4.4-14,4.1-21.3
		C565.3,230.7,562.6,223.3,556.9,218.7z"/>
	<circle class="st6" cx="364" cy="341.7" r="18"/>
	<circle class="st0" cx="420" cy="220.3" r="18"/>
	<path class="st7" d="M420.5,214.6c-0.8,5.5,3.1,10.5,8.5,11.2c0.6,0.1,1.2,0.1,1.8,0.1l9.6,20.7l14-2.7l-13.9-29
		c-0.6-5.5-5.5-9.5-11-8.9C424.8,206.5,421.1,210,420.5,214.6L420.5,214.6z"/>
	<polygon class="st1" points="517.3,293 478.3,273.7 450.8,227 431.6,236.3 456.5,290.2 519.6,326.6 	"/>
	<path class="st6" d="M621.7,598.8H106.4c-0.7,0-1.4-1.1-1.4-2.5s0.6-2.5,1.4-2.5h515.3c0.7,0,1.4,1.1,1.4,2.5
		S622.4,598.8,621.7,598.8z"/>
</g>
</svg>
