<?xml version="1.0" encoding="utf-8"?>
<!-- Generator: Adobe Illustrator 27.1.1, SVG Export Plug-In . SVG Version: 6.00 Build 0)  -->
<svg version="1.1" id="Capa_1" xmlns="http://www.w3.org/2000/svg" xmlns:xlink="http://www.w3.org/1999/xlink" x="0px" y="0px"
	 viewBox="0 0 300 300" style="enable-background:new 0 0 300 300;" xml:space="preserve">
<style type="text/css">
	.st0{fill:#E6E6E6;}
	.st1{fill:#FFFFFF;}
	.st2{fill:#E1E1E1;}
	.st3{fill:#FAFAFA;}
	.st4{fill:#1A2E35;}
	.st5{fill:#375A64;}
	.st6{opacity:0.2;}
	.st7{fill:#F88C7E;}
	.st8{opacity:0.3;}
	.st9{fill:#ECECEC;}
	.st10{fill:#F5F5F5;}
	.st11{fill:#C27460;}
	.st12{fill:#7C4235;}
</style>
<g>
	<path class="st0" d="M46.4,240.2c0,0-24.4-11.2-15.8-19C39.2,213.4,46.4,240.2,46.4,240.2z"/>
	<path class="st0" d="M46.1,242.8c0,0-11.2-36.9,5.3-35.1S46.1,242.8,46.1,242.8z"/>
	<path class="st0" d="M33,237.1l0.9,11.4v0.2c0,1.8,0.1,3.5,0.2,5.4c1.2,11.7,6.3,17,12.2,17s10.8-5.3,12-17
		c0.2-1.8,0.2-3.5,0.2-5.4v-0.2v-0.1l0.9-11.4L33,237.1L33,237.1z"/>
	<path class="st1" d="M59.6,248.3L59.6,248.3v0.2c0,1.8-0.1,3.7-0.3,5.6H34.2c-0.2-1.8-0.3-3.7-0.3-5.6v-0.2H59.6z"/>
	<g>
		<rect x="0.3" y="265.4" class="st0" width="299.7" height="32.5"/>
	</g>
</g>
<g>
	<g>
		<g>
			<g>
				<rect x="119.6" y="46.7" class="st2" width="155.4" height="127.6"/>
			</g>
			<g>
				<path class="st2" d="M277.8,65.8H118.3c-1,0-1.8-0.8-1.8-1.8v-0.7c0-1,0.8-1.8,1.8-1.8h159.5c1,0,1.8,0.8,1.8,1.8V64
					C279.6,65,278.8,65.8,277.8,65.8z"/>
			</g>
			<g>
				<g>
					<rect x="129.1" y="75.1" class="st3" width="76" height="54.5"/>
				</g>
				<g>
					<g>
						<path class="st4" d="M205.1,129.6c0,0,0-0.4,0-1c0-0.7,0-1.6,0-2.9c0-2.6,0-6.2-0.1-11c0-9.5-0.1-23.1-0.1-39.6l0.1,0.1
							c-21.2,0-47.6,0-76,0.1l0,0l0.2-0.2c0,19.5,0,38,0,54.5l-0.2-0.2c22.5,0.1,41.4,0.1,54.8,0.1c6.7,0,12,0.1,15.6,0.1
							c1.8,0,3.2,0,4.2,0c0.5,0,0.8,0,1.1,0C205,129.6,205.1,129.6,205.1,129.6s-0.1,0-0.4,0c-0.2,0-0.6,0-1,0c-0.9,0-2.3,0-4.1,0
							c-3.6,0-8.9,0-15.6,0.1c-13.4,0-32.4,0.1-54.9,0.1H129v-0.2c0-16.5,0-35,0-54.5v-0.2h0.2l0,0c28.4,0,54.8,0,76,0.1h0.1V75
							c0,16.5-0.1,30.2-0.1,39.7c0,4.8,0,8.4-0.1,11c0,1.2,0,2.2,0,2.9C205.1,129.2,205.1,129.6,205.1,129.6z"/>
					</g>
				</g>
			</g>
			<g>
				<rect x="216.7" y="70.8" class="st5" width="51.8" height="98.8"/>
			</g>
			<g>
				<rect x="223.5" y="77.4" class="st3" width="38.9" height="40.8"/>
			</g>
			<g>
				<rect x="223.5" y="130.3" class="st3" width="38.9" height="32.7"/>
			</g>
			<g>
				<circle class="st2" cx="222.2" cy="124.3" r="2.3"/>
			</g>
			<g>
				<g class="st6">
					<g>
						<path d="M133.3,46.8c0,7.1-6.5,14.3-13.6,14.3l-0.5-14.3H133.3"/>
					</g>
					<g>
						<path d="M172.2,61.7c7.2,0,13-6.7,13-14.8h-26C159.2,55,165.1,61.7,172.2,61.7z"/>
					</g>
					<g>
						<path d="M224.2,61.7c7.2,0,13-6.7,13-14.8h-26C211.2,55,217,61.7,224.2,61.7z"/>
					</g>
					<g>
						<path d="M146.3,61.7c7.2,0,13-6.7,13-14.8h-26C133.3,55,139.1,61.7,146.3,61.7z"/>
					</g>
					<g>
						<path d="M198.2,61.7c7.2,0,13-6.7,13-14.8h-26C185.2,55,191,61.7,198.2,61.7z"/>
					</g>
					<g>
						<path d="M250.3,61.7c7.2,0,13.1-6.7,13.1-14.8h-26.1C237.2,55,243,61.7,250.3,61.7z"/>
					</g>
					<g>
						<path d="M263.3,46.8c0,8.2,4.6,14.5,11.7,14.5l0.3-14.5H263.3z"/>
					</g>
				</g>
				<g>
					<polygon class="st7" points="127,16.6 106.8,46.7 288.3,46.7 268.7,16.6 					"/>
				</g>
				<g>
					<g>
						<path class="st7" d="M106.8,46.7c0,7.1,5.8,12.9,13,12.9c7.2,0,13-5.7,13-12.9H106.8z"/>
					</g>
					<g>
						<path class="st7" d="M132.7,46.7c0,7.1,5.8,12.9,13,12.9s13-5.7,13-12.9H132.7z"/>
					</g>
					<g>
						<path class="st7" d="M158.7,46.7c0,7.1,5.8,12.9,13,12.9c7.2,0,13-5.7,13-12.9H158.7z"/>
					</g>
					<g>
						<path class="st7" d="M184.7,46.7c0,7.1,5.8,12.9,13,12.9c7.2,0,13-5.7,13-12.9H184.7z"/>
					</g>
					<g>
						<path class="st7" d="M210.7,46.7c0,7.1,5.8,12.9,13,12.9c7.2,0,13-5.7,13-12.9H210.7z"/>
					</g>
					<g>
						<path class="st7" d="M236.7,46.7c0,7.1,5.9,12.9,13.1,12.9s13.1-5.7,13.1-12.9H236.7z"/>
					</g>
					<g class="st8">
						<path class="st1" d="M132.7,46.7c0,7.1,5.8,12.9,13,12.9s13-5.7,13-12.9H132.7z"/>
					</g>
					<g class="st8">
						<path class="st1" d="M184.7,46.7c0,7.1,5.8,12.9,13,12.9c7.2,0,13-5.7,13-12.9H184.7z"/>
					</g>
					<g class="st8">
						<path class="st1" d="M236.7,46.7c0,7.1,5.9,12.9,13.1,12.9s13.1-5.7,13.1-12.9H236.7z"/>
					</g>
					<g>
						<path class="st7" d="M262.8,46.7c0,7.1,5.7,12.9,12.8,12.9c7.1,0,12.8-5.7,12.8-12.9H262.8z"/>
					</g>
				</g>
				<g class="st8">
					<polygon class="st1" points="132.7,46.8 146.5,16.6 165,16.6 158.7,46.8 					"/>
				</g>
				<g class="st8">
					<polygon class="st1" points="184.4,16.6 184.7,46.8 210.7,46.8 207.8,16.6 					"/>
				</g>
				<g class="st8">
					<polygon class="st1" points="236.7,46.8 229.8,16.6 249.5,16.6 262.6,46.8 					"/>
				</g>
				<g>
					<path class="st7" d="M271.1,16.6H123.6c-2.1,0-3.9-1.8-3.9-3.9v-1c0-2.1,1.8-3.9,3.9-3.9h147.5c2.1,0,3.9,1.8,3.9,3.9v1
						C275,14.8,273.3,16.6,271.1,16.6z"/>
				</g>
				<g>
					<g>
						<path class="st4" d="M288.3,46.8c0,0.1-40.7,0.2-90.8,0.2c-50.2,0-90.8-0.1-90.8-0.2c0-0.1,40.7-0.2,90.8-0.2
							C247.7,46.6,288.3,46.7,288.3,46.8z"/>
					</g>
				</g>
			</g>
			<g>
				<g>
					<path class="st4" d="M275.2,168.7c0,0,0-0.2,0-0.5c0-0.3,0-0.8,0-1.4c0-1.3,0-3.1,0-5.6c0-4.9,0-12-0.1-21.1
						c0-18.1-0.1-43.8-0.1-74.3l0.2,0.2c-23.4,0-50.1,0-78.2,0c-27.8,0-54.1,0-77.3,0l0.2-0.2c0,30.8-0.1,56.7-0.1,75
						c0,9.1-0.1,16.4-0.1,21.2c0,2.4,0,4.3,0,5.6c0,0.6,0,1.1,0,1.5c0,0.3,0,0.5,0,0.5s0-0.2,0-0.5c0-0.3,0-0.8,0-1.5
						c0-1.3,0-3.2,0-5.6c0-4.9,0-12.1-0.1-21.2c0-18.3-0.1-44.2-0.1-75v-0.2h0.2c23.2,0,49.6,0,77.3,0c28.1,0,54.8,0,78.2,0h0.2v0.2
						c0,30.5-0.1,56.2-0.1,74.3c0,9-0.1,16.2-0.1,21.1c0,2.4,0,4.3,0,5.6c0,0.6,0,1.1,0,1.4C275.2,168.5,275.2,168.7,275.2,168.7z"
						/>
				</g>
			</g>
			<g>
				<g>
					<path class="st4" d="M275.7,61.5c0,0.1-34.9,0.2-78,0.2s-78-0.1-78-0.2c0-0.1,34.9-0.2,78-0.2
						C240.8,61.4,275.7,61.4,275.7,61.5z"/>
				</g>
			</g>
			<g>
				<g>
					<path class="st4" d="M271.4,16.6c0,0.1-32.9,0.2-73.5,0.2s-73.6-0.1-73.6-0.2s32.9-0.2,73.6-0.2
						C238.5,16.4,271.4,16.5,271.4,16.6z"/>
				</g>
			</g>
			<g>
				<g>
					<g>
						<path class="st2" d="M152.6,129.3c-0.1,0-0.2-12.1-0.2-27s0.1-27,0.2-27c0.1,0,0.2,12.1,0.2,27S152.7,129.3,152.6,129.3z"/>
					</g>
				</g>
				<g>
					<g>
						<path class="st2" d="M179.9,129.3c-0.1,0-0.2-12.1-0.2-27s0.1-27,0.2-27s0.2,12.1,0.2,27S180,129.3,179.9,129.3z"/>
					</g>
				</g>
				<g>
					<g>
						<path class="st2" d="M205,103.1c0,0.1-17,0.2-38.1,0.2s-38.1-0.1-38.1-0.2c0-0.1,17-0.2,38.1-0.2C188,103,205,103,205,103.1z"
							/>
					</g>
				</g>
			</g>
			<g>
				<g>
					<path class="st4" d="M267.7,70.8c0,0-0.1,0.2-0.4,0.5s-0.6,0.8-1,1.3c-0.9,1.2-2.2,2.9-3.8,4.9l-0.1,0.1h-0.1
						c-5.1,0-12.2,0-20,0.1c-7.3,0-14-0.1-19-0.1h-0.1l-0.1-0.1c-2-2.1-3.7-3.7-4.8-4.9c-0.5-0.5-1-1-1.3-1.3
						c-0.1-0.1-0.2-0.2-0.3-0.4c-0.1-0.1-0.1-0.1-0.1-0.1s0.1,0.1,0.1,0.1c0.1,0.1,0.2,0.2,0.4,0.3c0.3,0.3,0.8,0.7,1.3,1.3
						c1.2,1.2,2.9,2.8,4.9,4.8l-0.1-0.1c5,0,11.7,0,19-0.1c7.8,0,14.8,0.1,20,0.1l-0.1,0.1c1.6-2,3-3.7,3.9-4.8
						c0.4-0.5,0.8-1,1.1-1.3C267.5,70.9,267.6,70.8,267.7,70.8z"/>
				</g>
			</g>
			<g>
				<g>
					<path class="st4" d="M268.7,169.4c0,0-0.1,0-0.1-0.1c-0.1-0.1-0.2-0.2-0.4-0.3c-0.3-0.3-0.7-0.7-1.3-1.2
						c-1.2-1.1-2.7-2.7-4.7-4.6l0.1,0.1c-5.1,0-12,0-19.7,0.1c-7.4,0-14.2-0.1-19.3-0.1l0.1-0.1c-2.1,2-3.7,3.6-4.9,4.8
						c-0.5,0.5-1,1-1.3,1.3c-0.1,0.1-0.2,0.2-0.4,0.3c-0.1,0.1-0.1,0.1-0.1,0.1s0.1-0.1,0.1-0.1c0.1-0.1,0.2-0.2,0.3-0.4
						c0.3-0.3,0.7-0.8,1.3-1.3c1.2-1.2,2.8-2.8,4.8-4.8l0.1-0.1h0.1c5.1,0,11.8,0,19.3-0.1c7.6,0,14.5,0.1,19.7,0.1h0.1l0.1,0.1
						c2,2,3.5,3.5,4.6,4.7c0.5,0.5,0.9,1,1.2,1.3c0.1,0.1,0.2,0.2,0.3,0.4C268.6,169.3,268.7,169.4,268.7,169.4z"/>
				</g>
			</g>
			<g>
				<g>
					<path class="st4" d="M262.4,78.8c0,0,0,0.1,0,0.2c0,0.1,0,0.3,0,0.5c0,0.5,0,1.2,0,2.2c0,1.9,0,4.7,0.1,8.2
						c0,7,0.1,16.8,0.1,28.4v0.2h-0.2c-6.2,0-13.1,0-20.1,0c-6.6,0-12.9,0-18.8,0h-0.2v-0.2c0-11.9,0.1-22.1,0.1-29.4
						c0-3.6,0.1-6.5,0.1-8.5c0-1,0-1.7,0-2.3c0-0.2,0-0.4,0-0.6c0-0.1,0-0.2,0-0.2s0,0.1,0,0.2c0,0.1,0,0.4,0,0.6c0,0.5,0,1.3,0,2.3
						c0,2,0,4.9,0.1,8.5c0,7.3,0.1,17.5,0.1,29.4l-0.2-0.2c5.8,0,12.2,0,18.8,0c7.1,0,13.9,0,20.1,0l-0.2,0.2
						c0-11.5,0.1-21.4,0.1-28.4c0-3.5,0.1-6.2,0.1-8.2c0-0.9,0-1.6,0-2.2c0-0.2,0-0.4,0-0.5C262.4,78.9,262.4,78.8,262.4,78.8z"/>
				</g>
			</g>
			<g>
				<g>
					<path class="st4" d="M262.4,163.1c0,0,0-0.1,0-0.2s0-0.2,0-0.5c0-0.4,0-1,0-1.8c0-1.6,0-3.8-0.1-6.8c0-5.8-0.1-14-0.1-23.6
						l0.2,0.2c-6,0-12.6,0-19.5,0c-6.9,0-13.5,0-19.5,0l0.2-0.2c0,9.6-0.1,17.8-0.1,23.6c0,2.9-0.1,5.2-0.1,6.8c0,0.8,0,1.3,0,1.8
						c0,0.2,0,0.4,0,0.5c0,0.1,0,0.2,0,0.2s0-0.1,0-0.2s0-0.2,0-0.5c0-0.4,0-1,0-1.8c0-1.6,0-3.8-0.1-6.8c0-5.8-0.1-14-0.1-23.6
						v-0.2h0.2c6,0,12.6,0,19.5,0c6.9,0,13.5,0,19.5,0h0.2v0.2c0,9.6-0.1,17.8-0.1,23.6c0,2.9-0.1,5.2-0.1,6.8c0,0.8,0,1.3,0,1.8
						c0,0.2,0,0.4,0,0.5C262.4,163,262.4,163.1,262.4,163.1z"/>
				</g>
			</g>
			<g>
				<g>
					<g>
						<path class="st4" d="M248.5,91.9c-0.2-0.2-0.3-0.3-0.5-0.5c-0.4-0.4-0.9-0.9-1.4-1.4c-1.2-1.3-2.9-2.9-4.6-4.7l0,0h0.2
							c-1.6,2-3.1,3.8-4.2,5.1c-0.5,0.7-1,1.2-1.3,1.5c-0.3,0.4-0.5,0.5-0.5,0.5s0.1-0.2,0.4-0.6c0.3-0.4,0.7-1,1.2-1.6
							c1-1.3,2.5-3.2,4.2-5.1l0.1-0.1l0.1,0.1l0,0c1.8,1.8,3.4,3.5,4.6,4.8C247.8,91.1,248.5,91.9,248.5,91.9z"/>
					</g>
				</g>
				<g>
					
						<rect x="228.5" y="92.2" transform="matrix(0.9994 -3.598432e-02 3.598432e-02 0.9994 -3.3631 8.8042)" class="st5" width="28.9" height="11.3"/>
				</g>
			</g>
			<g>
				<path class="st1" d="M236,99.8c-0.3-0.2-0.6-0.4-0.8-0.7s-0.3-0.6-0.3-1c0-0.4,0.1-0.7,0.2-1c0.2-0.3,0.4-0.5,0.7-0.7
					c0.3-0.2,0.7-0.3,1.1-0.3s0.7,0.1,1.1,0.2c0.3,0.2,0.6,0.4,0.8,0.7s0.3,0.6,0.3,1c0,0.4-0.1,0.7-0.2,1s-0.4,0.5-0.7,0.7
					c-0.3,0.2-0.7,0.3-1.1,0.3C236.7,100.1,236.3,100,236,99.8z M237.7,99.1c0.2-0.1,0.3-0.2,0.4-0.4c0.1-0.2,0.1-0.4,0.1-0.7
					c0-0.2-0.1-0.4-0.2-0.6s-0.2-0.3-0.4-0.4c-0.2-0.1-0.4-0.1-0.6-0.1c-0.2,0-0.4,0.1-0.6,0.2c-0.2,0.1-0.3,0.2-0.4,0.4
					c-0.1,0.2-0.1,0.4-0.1,0.7c0,0.2,0.1,0.4,0.2,0.6c0.1,0.2,0.2,0.3,0.4,0.4c0.2,0.1,0.4,0.1,0.6,0.1S237.5,99.2,237.7,99.1z"/>
				<path class="st1" d="M242.3,96.1c0.2,0.1,0.4,0.2,0.6,0.5c0.1,0.2,0.2,0.4,0.2,0.7s-0.1,0.5-0.2,0.7c-0.1,0.2-0.3,0.4-0.5,0.5
					c-0.2,0.1-0.5,0.2-0.9,0.2h-0.8l0.1,1l-0.9,0.1l-0.1-3.8l1.6-0.1C241.8,96,242.1,96,242.3,96.1z M242.1,97.8
					c0.1-0.1,0.2-0.3,0.2-0.5c0-0.2-0.1-0.4-0.2-0.5c-0.1-0.1-0.4-0.2-0.6-0.1h-0.7l0.1,1.3h0.7C241.7,98,241.9,97.9,242.1,97.8z"/>
				<path class="st1" d="M246.8,98.9v0.7l-3,0.1l-0.1-3.8l2.9-0.1v0.7l-2,0.1v0.9l1.8-0.1V98l-1.8,0.1l0.1,0.9L246.8,98.9z"/>
				<path class="st1" d="M250.9,95.6l0.1,3.8h-0.7l-2-2.3l0.1,2.3l-0.9,0.1l-0.1-3.8h0.7l2,2.3l-0.1-2.3L250.9,95.6z"/>
			</g>
			<g>
				<g>
					<rect x="114.1" y="169.2" class="st2" width="164.7" height="8.8"/>
				</g>
				<g>
					<g>
						<path class="st4" d="M278.8,169.2c0,0.1-36.9,0.2-82.5,0.2c-45.6,0-82.5-0.1-82.5-0.2c0-0.1,36.9-0.2,82.5-0.2
							S278.8,169.1,278.8,169.2z"/>
					</g>
				</g>
			</g>
			<g>
				<path d="M133.3,46.8"/>
			</g>
		</g>
		<g>
			<rect x="184.9" y="136.2" class="st9" width="21.2" height="6.6"/>
		</g>
		<g>
			<rect x="129.9" y="135.5" class="st9" width="21.2" height="6.6"/>
		</g>
		<g>
			<rect x="173.6" y="143" class="st10" width="21.2" height="6.6"/>
		</g>
		<g>
			<g>
				<path class="st4" d="M167.3,159.9c0,0,0-0.2,0-0.5c0-0.3,0-0.7,0-1.3c0-1.2-0.1-2.8-0.1-4.8l0.1,0.1c-5.1,0-12.7,0.1-21.2,0.1
					c0.1-0.1-0.2,0.2,0.2-0.2l0,0l0,0l0,0l0,0l0,0v0.1v0.1v0.2v0.4c0,0.3,0,0.5,0,0.9c0,0.5,0,1.1,0,1.6c0,1.1,0,2.2,0,3.2l-0.2-0.2
					c6,0.1,11.4,0.1,15.1,0.1c1.9,0,3.4,0.1,4.5,0.1c0.5,0,0.9,0,1.2,0C167.1,159.9,167.3,159.9,167.3,159.9s-0.1,0-0.4,0
					c-0.3,0-0.7,0-1.2,0c-1,0-2.6,0-4.4,0.1c-3.8,0-9.2,0.1-15.3,0.1h-0.2v-0.2c0-1,0-2.1,0-3.2c0-0.5,0-1.1,0-1.6
					c0-0.3,0-0.5,0-0.9v-0.4v-0.2v-0.1v-0.1l0,0l0,0l0,0l0,0l0,0c0.4-0.4,0.1-0.1,0.2-0.2c8.5,0,16.2,0.1,21.2,0.1h0.1v0.1
					c0,2.1-0.1,3.7-0.1,4.9c0,0.5,0,1,0,1.3C167.3,159.8,167.3,159.9,167.3,159.9z"/>
			</g>
		</g>
	</g>
	<g>
		<g>
			<g>
				<polygon class="st7" points="153.4,284.9 160.2,285.2 165,168.3 160.5,168.4 				"/>
			</g>
			<g>
				<polygon class="st7" points="229.2,284.9 222.4,285.2 217.4,167.3 223.3,167.1 				"/>
			</g>
			<g>
				<polygon class="st7" points="224.2,256.4 157.8,256.4 160,168.3 223.3,167.1 				"/>
			</g>
			<g>
				<polygon class="st4" points="220.9,252.1 161.6,252.1 165.1,173 218,173 				"/>
			</g>
			<g>
				<path class="st1" d="M180.1,196.3c0,0.1,0,0.1-0.1,0.1c0,0.1-0.1,0.1-0.1,0.1c0,0.1-0.1,0.1-0.1,0.1c0,0.1-0.1,0.1-0.1,0.1
					s0,0.1-0.1,0.2c0,0.1-0.1,0.1-0.1,0.2c0,0.1,0,0.1-0.1,0.1c0,0,0,0,0,0.1c0,0.1,0,0.1,0,0.1c0,0.1,0,0.1,0,0.1v0.1v0.1
					c0,0.1,0,0.1,0,0.1v0.1v0.1c0,0.1,0,0.1,0,0.1s0,0,0,0.1v0.1c0,0,0,0,0,0.1s0,0.1,0,0.1s0,0,0,0.1c-0.1,0.1-0.1,0.1-0.1,0.1v0.1
					c0,0.1,0,0.1-0.1,0.2c0,0.1-0.1,0.2-0.1,0.2s0,0.1-0.1,0.1c0,0,0,0.1-0.1,0.1c0,0,0,0.1-0.1,0.1c0,0.1,0,0.1-0.1,0.1
					c0,0,0,0.1,0,0.1c0,0.1,0,0.1,0,0.1s0,0.1-0.1,0.1l0,0c0,0.1,0,0.1,0,0.1c0,0.1,0,0.1,0,0.1c0,0.1-0.1,0.1-0.1,0.1v0.1
					c0,0.1-0.1,0.1-0.1,0.2c0,0.1,0,0.1-0.1,0.1c0,0.1,0,0.1,0,0.1v0.1c0,0.1,0,0.1,0,0.1s0,0.1-0.1,0.1c0,0.1,0,0.1,0,0.1
					s0,0.1,0,0.1c0,0.1,0,0.1-0.1,0.1c0,0.1-0.1,0.1-0.1,0.1s0,0.1,0,0.1v0.1c-0.1,0.1-0.1,0.2-0.1,0.3c0,0.1-0.1,0.2-0.1,0.2v0.1
					v0.1v0.1c0,0,0,0.1-0.1,0.1v0.1v0.1c0,0.1-0.1,0.1-0.1,0.1c0,0.1-0.1,0.1-0.1,0.1c0,0,0,0.1-0.1,0.1c0,0,0,0-0.1,0.1
					c0,0.1,0,0.1,0,0.1c0,0.1,0,0.1,0,0.1c-0.1,0.1-0.1,0.1-0.1,0.1s-0.1,0.1-0.1,0.1c-0.1,0-0.1,0-0.1,0c-0.1,0-0.1-0.1-0.1-0.1
					c-0.1-0.1-0.1-0.1-0.1-0.1c0-0.1-0.1-0.1-0.1-0.1c-0.1-0.1-0.1-0.1-0.1-0.1c-0.1-0.1-0.1-0.1-0.1-0.2l-0.1-0.1l-0.1-0.1
					c-0.1-0.1-0.1-0.1-0.1-0.1c-0.1-0.1-0.1-0.1-0.1-0.1s-0.1-0.1-0.1-0.1c-0.1-0.1-0.1-0.1-0.2-0.2c-0.1-0.1-0.1-0.2-0.1-0.2
					c0-0.1-0.1-0.1-0.1-0.1s0,0,0-0.1c0,0-0.1-0.1-0.1-0.1c0-0.1-0.1-0.1-0.1-0.1s-0.1-0.1-0.1-0.1l-0.1-0.1c0-0.1,0-0.1,0-0.1
					l-0.1-0.1c0-0.1,0-0.1-0.1-0.1c0-0.1-0.1-0.1-0.1-0.1v-0.1v-0.1c0-0.1,0-0.1-0.1-0.1c0,0,0-0.1-0.1-0.1c0,0,0-0.1-0.1-0.1
					c0,0,0-0.1-0.1-0.1c0-0.1,0-0.1,0-0.1l0,0c0-0.1-0.1-0.2-0.1-0.3c0-0.1,0-0.1,0-0.1s0-0.1-0.1-0.1v-0.1v-0.1
					c-0.1-0.1-0.1-0.1-0.1-0.1c0,0,0,0,0-0.1c0,0,0,0,0-0.1v-0.1c0-0.1-0.1-0.1-0.1-0.2c0-0.1-0.1-0.1-0.1-0.2c0-0.1,0-0.1,0-0.1
					c0-0.1,0-0.1-0.1-0.1c-0.1,0-0.1,0.1-0.1,0.1c0,0.1,0,0.1,0,0.1c0,0,0,0.1-0.1,0.1c0,0.1,0,0.1-0.1,0.1c0,0.1-0.1,0.1-0.1,0.1
					c0,0.1-0.1,0.1-0.1,0.1c-0.1,0.1-0.1,0.1-0.1,0.2c0,0.1,0,0.1,0,0.1c0,0.1-0.1,0.1-0.1,0.1s-0.1,0.1-0.1,0.1
					c-0.1,0.1-0.1,0.1-0.1,0.1c0,0.1-0.1,0.1-0.1,0.1c-0.1,0.1-0.1,0.1-0.1,0.1c-0.1,0.1-0.1,0.1-0.1,0.1s-0.1,0.1-0.1,0.1
					c0,0.1,0,0.1-0.1,0.1c0,0,0,0.1-0.1,0.1c0,0.1,0,0.1-0.1,0.1c-0.1,0.1-0.1,0.1-0.1,0.2c0,0.1-0.1,0.1-0.1,0.2c0,0.1,0,0.1,0,0.1
					l0,0c0,0.1,0,0.1,0,0.1s0,0-0.1,0.1v0.1v0.1c-0.1,0-0.1,0.1-0.1,0.1v0.1c-0.1,0.1-0.1,0.1-0.1,0.1l-0.1,0.1
					c-0.1,0.1-0.1,0.1-0.1,0.1s0,0-0.1,0.1c0,0,0,0,0,0.1c0,0.1,0,0.1,0,0.1s0,0.1-0.1,0.1c0,0,0,0.1-0.1,0.1c0,0.1-0.1,0.1-0.1,0.2
					c0,0.1,0,0.1,0,0.2c0,0,0,0-0.1,0.1c0,0,0,0.1-0.1,0.1v0.1c0,0,0,0,0,0.1c-0.1,0.1-0.1,0.1-0.1,0.1s0,0.1-0.1,0.2
					c-0.1,0.1-0.1,0.1-0.1,0.1c0,0,0,0.1-0.1,0.1c0,0-0.1,0-0.1,0.1c-0.1,0-0.1,0-0.1-0.1s-0.1-0.1-0.1-0.1c0,0,0-0.1-0.1-0.1
					c0,0,0,0,0-0.1v-0.1v-0.1v-0.1c0,0,0-0.1-0.1-0.1c0-0.1,0-0.1-0.1-0.1c0-0.1-0.1-0.1-0.1-0.1v-0.1v-0.1c0,0,0-0.1-0.1-0.1
					c0-0.1,0-0.1,0-0.1c0-0.1,0-0.1-0.1-0.1v-0.1c0,0,0,0,0-0.1v-0.1c-0.1-0.1-0.1-0.2,0-0.2v-0.1v-0.1v-0.1c0,0,0-0.1-0.1-0.1
					c0-0.1,0-0.1-0.1-0.1c-0.1-0.1-0.1-0.1-0.1-0.1c0-0.1,0-0.1,0-0.1c0-0.1,0-0.1,0-0.1c0,0,0-0.1,0-0.1c0,0,0-0.1,0-0.1
					c0,0,0-0.1-0.1-0.1c0,0,0-0.1,0-0.1c0,0,0,0-0.1-0.1c0-0.1,0-0.1,0-0.1s-0.1-0.1-0.1-0.1s0-0.1-0.1-0.1v-0.1v-0.1
					c-0.1-0.1-0.1-0.1-0.1-0.2s0-0.1,0-0.2v-0.1v-0.1v-0.1v-0.1c0-0.1,0-0.1-0.1-0.1c0,0,0,0,0-0.1v-0.1v-0.1c0-0.1,0-0.1,0-0.1
					v-0.1c0-0.1,0-0.1-0.1-0.2c0-0.1,0-0.1-0.1-0.1c0-0.1,0-0.1,0-0.1s0,0,0-0.1s0-0.1,0-0.1s0,0,0-0.1c0-0.1,0-0.1,0-0.1
					c0,0,0,0,0-0.1c0-0.1,0-0.1-0.1-0.1c0-0.1,0-0.1-0.1-0.1c0-0.1,0-0.1,0-0.1v-0.1c0,0,0,0-0.1-0.1c0,0,0-0.1-0.1-0.1V198
					c0-0.1,0-0.1,0-0.1v-0.1c0,0,0-0.1-0.1-0.1c0-0.1,0-0.1-0.1-0.2c0-0.1-0.1-0.1-0.1-0.1c0-0.1,0-0.1-0.1-0.1
					c0-0.1-0.1-0.1-0.1-0.1c0-0.1,0-0.1-0.1-0.1c0,0,0,0,0-0.1c0,0,0,0-0.1-0.1V197v-0.1v-0.1c0,0,0,0,0-0.1v-0.1v-0.1v-0.1
					c0,0,0-0.1-0.1-0.1c0,0,0-0.1,0-0.1s-0.1-0.1-0.1-0.2c0-0.1,0-0.1,0-0.1v-0.1c0.1,0,0.1,0,0.2,0c0.1,0,0.1,0,0.2,0
					c0.1,0,0.1,0,0.1,0h0.1h0.1h0.1c0.2,0,0.3,0,0.4,0c0.1,0,0.2,0,0.4-0.1c0,0,0.1,0,0.1,0.1c0.1,0.1,0.1,0.1,0.1,0.1
					c0,0.1,0,0.1,0,0.2s0,0.1,0,0.2s0,0.1,0.1,0.1c0,0.1,0,0.1,0.1,0.1c0,0.1,0,0.1,0,0.1s0,0.1,0,0.1c0,0.1,0,0.1,0,0.1v0.1v0.1
					v0.1c0,0.1,0,0.1,0.1,0.1c0,0,0.1,0.1,0.1,0.1c0,0.1,0,0.1,0,0.1s0,0.1,0,0.1c0,0.1,0.1,0.1,0.1,0.2c0.1,0.1,0.1,0.1,0,0.2
					c0,0.1,0.1,0.1,0.1,0.1c0,0.1,0,0.1,0,0.1v0.1v0.1v0.1v0.1c0,0.1,0.1,0.1,0.1,0.2c0,0,0,0,0,0.1v0.1c0,0.1,0.1,0.1,0.1,0.2
					c0,0.1,0,0.1,0,0.1v0.1v0.1c0.1,0.1,0.1,0.1,0.1,0.1c0,0.1,0,0.1,0.1,0.1c0,0.1,0.1,0.1,0.1,0.1s0,0.1,0.1,0.1v0.1v0.1
					c0,0.1,0,0.1,0,0.1v0.1c0,0.1,0.1,0.1,0.1,0.1c0,0.1,0,0.1,0.1,0.1c0.1-0.1,0.1-0.1,0.1-0.1s0-0.1,0.1-0.1c0,0,0,0,0-0.1V200
					v-0.1v-0.1c0-0.1,0.1-0.1,0.1-0.1v-0.1c0-0.1,0-0.1,0.1-0.1c0-0.1,0-0.1,0.1-0.1c0,0,0-0.1,0.1-0.1c0,0,0-0.1,0.1-0.1
					s0.1-0.1,0.1-0.1c0,0,0.1-0.1,0.1-0.1s0.1-0.1,0.1-0.1c0-0.1,0-0.1,0.1-0.1c0,0,0.1-0.1,0.1-0.1l0.1-0.1c0,0,0-0.1,0.1-0.1v-0.1
					c0,0,0-0.1,0.1-0.1c0-0.1,0.1-0.1,0.1-0.1c0-0.1,0.1-0.1,0.1-0.1c0.1-0.1,0.1-0.1,0.1-0.1c0,0,0-0.1,0.1-0.1l0.1-0.1
					c0,0,0,0,0-0.1v-0.1v-0.1v-0.1v-0.1c0,0,0-0.1,0.1-0.1c0,0,0-0.1,0.1-0.1v-0.1v-0.1v-0.1v-0.1v-0.1v-0.1v-0.1v-0.1
					c0-0.1,0-0.1,0.1-0.1c0-0.1,0-0.1,0.1-0.2c0-0.1,0-0.1,0.1-0.1c0-0.1,0.1-0.1,0.1-0.1c0.1,0,0.1,0,0.1,0s0.1,0,0.1,0.1l0.1,0.1
					c0,0,0,0.1,0.1,0.1v0.1c0,0,0,0.1,0.1,0.1v0.1c0,0,0,0.1,0.1,0.1c0,0.1,0.1,0.1,0.1,0.1c0,0.1,0.1,0.1,0.1,0.1v0.1v0.1
					c0,0.1,0,0.1,0.1,0.1c0,0,0,0,0,0.1c0,0.1,0,0.1,0,0.1l0,0v0.1c0,0.1,0,0.1,0.1,0.1c0,0.1,0,0.1,0,0.1v0.1v0.1
					c0,0,0.1,0,0.1,0.1s0.1,0.1,0.1,0.2c0,0.1,0.1,0.1,0.1,0.2c0,0,0,0.1,0.1,0.1c0,0,0,0.1,0,0.1c0.1,0.1,0.1,0.1,0.1,0.2
					c0,0.1,0.1,0.1,0.1,0.2c0,0.1,0,0.1,0,0.1v0.1c0,0,0,0.1,0.1,0.1c0,0,0,0.1,0.1,0.1v0.1v0.1v0.1v0.1c0,0.1,0,0.1,0.1,0.1
					c0,0,0,0.1,0.1,0.1c0.1,0.1,0.1,0.2,0.1,0.2c0.1,0.1,0.1,0.1,0.1,0.2v0.1c0,0,0,0.1,0,0.1c0,0.1,0,0.1,0.1,0.1
					c0,0.1,0.1,0.1,0.1,0.1c0.1,0.1,0.1,0.1,0.1,0.1s0.1,0.1,0.1,0.1c0.1,0,0.1-0.1,0-0.1v-0.1c0.1,0,0.1-0.1,0.1-0.1
					c0-0.1,0-0.1,0-0.1s0-0.1,0-0.1c0-0.1,0-0.1,0.1-0.1c0-0.1,0-0.1,0-0.1s0-0.1,0-0.1c0-0.1,0-0.1,0-0.1s0-0.1,0-0.1
					c0,0,0-0.1,0-0.1c0,0,0-0.1,0-0.1c0-0.1,0-0.1,0-0.1s0-0.1,0-0.1v-0.1v-0.1v-0.1v-0.1c0-0.1,0-0.1,0.1-0.1c0,0,0-0.1,0.1-0.1
					c0,0,0-0.1,0-0.1s0-0.1,0-0.1v-0.1v-0.1c0.1,0,0.1-0.1,0.1-0.1c0-0.1,0-0.1,0.1-0.1c0.1-0.1,0.1-0.1,0.1-0.2
					c0-0.1,0-0.1,0.1-0.1c0.1-0.1,0.1-0.1,0.1-0.2c0-0.1,0-0.1,0-0.1c0-0.1,0.1-0.1,0.1-0.1v-0.1v-0.1v-0.1c0.1-0.1,0.1-0.1,0.1-0.1
					s0.1,0,0.1-0.1v-0.1v-0.1c0.1-0.1,0.1-0.1,0.2-0.1c0.1,0,0.1,0,0.2,0c0.1,0,0.1,0,0.1,0c0,0,0.1,0,0.1,0.1c0.1,0,0.1-0.1,0.2,0
					c0.1,0,0.1,0,0.2,0c0.1,0,0.1,0,0.1,0c0.1,0,0.1,0,0.1,0s0.1,0,0.1,0c0.1,0,0.1,0,0.1,0C180,196.2,180.1,196.2,180.1,196.3
					C180.1,196.3,180.1,196.3,180.1,196.3z"/>
				<path class="st1" d="M185,196.2L185,196.2l0.1,0.1v0.1l-0.1,0.1c0,0,0.1,0.1,0,0.1v0.1c0,0.1,0,0.1,0,0.2c0,0.1,0,0.1,0,0.2v0.1
					c0,0,0,0.1-0.1,0.1c0,0,0,0.1-0.1,0.1c0,0,0,0.1-0.1,0.1c-0.1,0.1-0.1,0.1-0.2,0c-0.1,0-0.1,0-0.2,0c-0.1-0.1-0.1-0.1-0.1-0.1
					c-0.1,0-0.1,0-0.2-0.1c-0.1,0-0.1,0-0.2,0s-0.1,0-0.2,0h-0.1h-0.1c-0.1,0-0.1,0-0.1-0.1c-0.1,0-0.1,0-0.1,0h-0.1h-0.1h-0.2
					c-0.1,0-0.2,0-0.2,0c-0.1,0-0.2,0-0.3,0c-0.1,0-0.2,0-0.3,0c-0.1,0-0.2,0-0.3,0c-0.1,0.1-0.1,0.1-0.1,0.2s0,0.1,0,0.2
					c0,0.1,0,0.1,0,0.2c0,0.1,0,0.1,0,0.2v0.1v0.1c0,0.1,0,0.1,0,0.1c0,0.1,0,0.1,0,0.2c0,0.1,0,0.1,0,0.1c0,0.1,0,0.1,0,0.1
					c0.1,0,0.1,0,0.2,0c0.1,0,0.1,0,0.1,0c0.1,0,0.1,0,0.1,0s0.1,0,0.2,0c0.1,0,0.1,0,0.2,0c0.1,0,0.2,0,0.3,0c0.1,0,0.2,0,0.3,0
					c0.1,0,0.1,0,0.2,0s0.1,0,0.2,0.1c0.1,0,0.1,0,0.1,0s0.1,0,0.1,0c0.1,0,0.1,0,0.1,0h0.1c0.1,0,0.2,0,0.2,0c0.1,0,0.1,0,0.2,0
					s0.1,0,0.1,0h0.1c0.1,0,0.1,0,0.1,0.1v0.1c0,0.1,0.1,0.1,0.1,0.1c0,0.1,0,0.1,0,0.2s0,0.1,0,0.1v0.1c0,0.1,0,0.1,0,0.2
					c0,0.1,0,0.1,0.1,0.2c0,0,0,0.1-0.1,0.1c0,0.1-0.1,0.1-0.1,0.1h-0.1h-0.1c-0.1,0-0.1,0-0.1,0s-0.1,0-0.1-0.1h-0.1
					c0,0-0.1,0-0.1-0.1c-0.1,0.1-0.1,0.1-0.2,0.1s-0.1,0-0.1,0.1c-0.1,0-0.1-0.1-0.1-0.1c-0.1,0-0.1,0-0.1,0s-0.1,0-0.1,0
					c-0.1,0-0.1,0-0.1,0s-0.1,0-0.1,0c-0.1,0-0.1,0.1-0.1,0.1s-0.1,0-0.2,0s-0.1,0-0.1,0.1c-0.1,0-0.1,0-0.1,0s0,0-0.1,0
					c0,0-0.1,0-0.1,0s-0.1,0-0.1,0.1c-0.1,0-0.1-0.1-0.1,0c-0.1,0-0.1,0-0.1-0.1c0,0,0,0.1-0.1,0h-0.1h-0.1h-0.1c-0.1,0-0.1,0-0.1,0
					s-0.1,0-0.1,0c-0.1,0-0.1,0.1-0.1,0.1s0,0.1,0,0.1v0.1v0.1v0.1v0.1c0,0.1,0,0.1,0,0.2c0,0.1,0,0.1-0.1,0.2
					c0,0.1-0.1,0.2-0.1,0.2c0,0.1,0,0.1-0.1,0.1c0,0.1,0,0.1,0,0.1c0,0.1,0,0.1,0,0.2c0,0.1,0,0.1,0,0.2c0,0.1,0,0.1,0,0.1
					c0,0.1,0,0.1,0,0.1v0.1v0.1c0,0.1,0,0.1,0,0.1s0,0.1,0,0.1c0.1,0.1,0.1,0.1,0.2,0.1s0.1,0,0.2,0c0.1,0,0.2,0,0.3,0
					c0.1,0,0.2,0,0.3,0c0.1,0,0.1,0,0.1,0c0.1,0,0.1,0,0.1,0s0.1,0,0.1-0.1c0.1,0,0.1,0,0.2,0s0.1,0,0.2,0s0.1,0,0.1,0s0.1,0,0.1,0
					c0.1,0,0.1,0,0.1,0h0.1h0.1c0.1,0,0.1,0,0.1,0h0.1c0.1,0,0.1,0,0.1,0l0,0c0,0,0.1,0,0.1,0c0.1,0,0.1,0,0.1,0c0,0,0,0.1,0.1,0.1
					c0,0,0,0.1,0.1,0.1c0,0.1,0,0.1,0,0.1s0.1,0,0.1,0.1c0,0.1,0,0.3,0,0.4c0,0.1-0.1,0.3-0.1,0.4c0,0,0,0.1-0.1,0.1
					c0,0-0.1,0-0.1,0.1c0,0-0.1,0-0.1,0.1h-0.1h-0.1h-0.1c-0.1,0-0.1,0-0.1,0s-0.1,0-0.1,0s-0.1,0-0.2,0c-0.1,0-0.1,0-0.2,0
					c-0.1,0-0.1,0-0.2,0c-0.1,0-0.1,0-0.1-0.1c-0.1,0-0.1,0-0.1,0h-0.1c-0.1,0-0.1,0-0.2,0s-0.1,0-0.2,0c-0.1,0-0.1,0-0.2,0
					c-0.1,0-0.1,0-0.2,0c-0.1,0-0.1,0-0.1,0c-0.1,0-0.1,0-0.1,0c-0.1,0-0.1,0-0.1,0c-0.1,0-0.1,0-0.1,0c-0.1,0-0.1,0-0.1,0h-0.1
					c-0.1,0-0.1,0-0.1,0h-0.1c-0.1,0-0.1,0-0.2,0s-0.1,0-0.2-0.1h-0.1H181c-0.1,0-0.1,0-0.1,0h-0.1c-0.1,0-0.1,0-0.1,0.1
					c-0.1,0-0.1,0-0.1,0c-0.1,0-0.1-0.1-0.1-0.1v-0.1V203v-0.1c0-0.1,0-0.1,0-0.1v-0.1v-0.1c0,0,0-0.1-0.1-0.1c0-0.1,0-0.1,0-0.2
					c0-0.1,0-0.1,0-0.2c0-0.1,0-0.1,0-0.1v-0.1v-0.1V202c0-0.1,0-0.1,0-0.1s0,0,0-0.1s0-0.1-0.1-0.2c0-0.1,0-0.1,0-0.2
					c0-0.1,0-0.1,0-0.1v-0.1c0-0.1,0-0.1,0-0.1s0-0.1,0.1-0.1c0-0.1,0-0.1,0-0.1V201c0-0.1,0-0.1,0-0.1s0,0,0-0.1v-0.1v-0.1
					c0-0.1,0-0.1,0-0.1c0-0.1,0-0.1-0.1-0.1c0-0.1,0.1-0.1,0-0.2c0-0.1,0-0.1,0-0.2v-0.1v-0.1V200v-0.1c0-0.1,0-0.1,0-0.1
					s0-0.1,0-0.1v-0.1v-0.1v-0.1v-0.1c0-0.1,0-0.1,0-0.1s0-0.1-0.1-0.1v-0.1c0-0.1-0.1-0.1,0-0.1c0,0,0,0,0-0.1c0-0.1,0-0.1,0-0.2
					c0-0.1,0-0.1,0-0.1v-0.1v-0.1v-0.1v-0.1c0.1-0.1,0.1-0.2,0.1-0.2c0-0.1,0-0.1,0.1-0.1c-0.1-0.1-0.1-0.2,0-0.3
					c0-0.1,0.1-0.2,0.1-0.3c0-0.1,0-0.1,0-0.2c0-0.1,0-0.2,0-0.2s0-0.1,0-0.2c0-0.1,0-0.1,0-0.1c0,0,0-0.1,0-0.1c0,0,0-0.1,0.1-0.1
					c0,0,0-0.1,0.1-0.1c0,0,0-0.1,0.1-0.1c0.2,0.1,0.5,0.1,0.8,0.1c0.2,0,0.5-0.1,0.7,0c0.1,0,0.1,0,0.2,0.1c0.1,0,0.1,0,0.2,0.1
					c0.1,0,0.1,0,0.1,0c0.1,0,0.1,0,0.2,0c0.1,0,0.1,0,0.1,0h0.1c0.1,0,0.1,0,0.1,0h0.1c0.1,0,0.1,0,0.1,0c0.1,0,0.1,0,0.1,0
					s0.1,0,0.1,0c0.1,0,0.1,0,0.1,0s0.1,0,0.2,0c0.1,0,0.2,0,0.2,0.1c0.1,0,0.1,0,0.1,0h0.1c0.1,0,0.2,0,0.2,0
					C184.9,196.2,184.9,196.2,185,196.2z"/>
			</g>
			<g>
				<path class="st1" d="M195.5,204c0,0.1-0.1,0.1-0.1,0.1c-0.1,0-0.1,0.1-0.1,0.1s-0.1-0.1-0.2-0.1c-0.1,0.1-0.1,0.1-0.1,0.1h-0.1
					c-0.1,0-0.1,0.1-0.1,0.1c0,0-0.1,0-0.1-0.1c0,0-0.1,0-0.1-0.1c-0.1,0-0.1,0-0.2,0c-0.1,0-0.1,0-0.1,0c-0.1,0-0.1,0-0.2,0
					c-0.1,0-0.1,0-0.2,0c-0.1,0-0.1,0-0.1,0c-0.1,0-0.1,0-0.1,0.1c-0.1,0-0.1,0-0.1,0h-0.1c-0.1,0-0.1,0.1-0.1,0.1s-0.1,0-0.2,0.1
					c-0.1,0-0.1-0.1-0.1-0.1c0-0.1-0.1-0.1-0.1-0.1s0-0.1,0-0.1c0-0.1,0-0.1,0-0.1l-0.1-0.1c0,0,0-0.1,0-0.1
					c-0.1-0.1-0.1-0.1-0.1-0.2s-0.1-0.1-0.1-0.2c0-0.1,0-0.1,0-0.1c-0.1-0.1-0.1-0.1-0.1-0.1c0-0.1,0-0.1-0.1-0.2
					c0-0.1-0.1-0.1,0-0.1v-0.1c-0.1-0.1-0.1-0.1-0.1-0.2s0-0.1,0-0.1c-0.1-0.1-0.1-0.1-0.1-0.2c0-0.1,0-0.1-0.1-0.1l-0.1-0.1
					l-0.1-0.1c0-0.1,0-0.1,0-0.1c0-0.1,0-0.1,0-0.1s0-0.1-0.1-0.1v-0.1c0-0.1,0-0.1,0-0.1c0-0.1,0-0.1-0.1-0.1s-0.1,0-0.1,0
					c-0.1,0-0.1,0-0.1,0.1h-0.1H192c-0.1,0-0.1,0-0.1,0c-0.1,0-0.1,0-0.1,0s-0.1,0-0.1,0h-0.1c0,0-0.1,0-0.1,0s-0.1,0-0.2,0
					c-0.1,0-0.1,0-0.2,0c-0.1,0-0.1,0-0.1,0c-0.1,0-0.1,0-0.2,0c-0.1,0-0.1,0-0.1,0c-0.1,0-0.1,0-0.2,0c-0.1,0-0.1,0-0.2,0
					c0,0-0.1,0-0.1,0.1c-0.1,0-0.1,0-0.1,0.1c-0.1,0-0.2,0-0.2,0s-0.1,0-0.2,0c-0.1,0.1-0.1,0.1-0.1,0.2c0,0.1,0,0.1,0,0.2
					s-0.1,0.1-0.1,0.2c-0.1,0.1-0.1,0.1-0.1,0.2c0,0.1-0.1,0.1-0.1,0.1s-0.1,0.1-0.1,0.1c0,0.1,0,0.1-0.1,0.1v0.1l0,0
					c0,0.1,0,0.1-0.1,0.1v0.1c0,0.1,0,0.1,0,0.1c0,0.1,0,0.1,0,0.1s-0.1,0.1-0.1,0.1c0,0.1-0.1,0.1-0.1,0.2
					c-0.1,0.1-0.1,0.1-0.1,0.2c-0.1,0.1-0.1,0.1-0.1,0.2c0,0.1,0,0.1-0.1,0.2c0,0.1-0.1,0.1-0.1,0.2c0,0.1-0.1,0.1-0.1,0.2
					c0,0.1,0,0.1,0,0.2c0,0-0.1,0.1-0.1,0.1c-0.1,0-0.1,0-0.1,0c-0.1-0.1-0.1-0.1-0.2-0.1s-0.1-0.1-0.1-0.1s-0.1,0-0.1,0
					c-0.1,0-0.1,0-0.2,0s-0.1,0-0.1,0h-0.1c-0.1,0-0.1,0-0.1,0s-0.1,0-0.1,0c-0.1,0-0.2-0.1-0.2-0.1c-0.1,0-0.2-0.1-0.2-0.1
					c0-0.1,0-0.1,0-0.1c0,0,0-0.1,0.1-0.1c0-0.1,0.1-0.1,0.1-0.1s0.1-0.1,0-0.1c0-0.1,0.1-0.1,0.1-0.2c0-0.1,0.1-0.1,0.1-0.2
					c0.1-0.1,0.1-0.1,0.1-0.1l0.1-0.1c0.1-0.1,0.1-0.1,0.1-0.2v-0.1c0-0.1,0-0.1,0.1-0.1c0,0,0-0.1,0.1-0.1l0.1-0.1
					c0-0.1,0.1-0.1,0.1-0.2c0-0.1,0.1-0.1,0.1-0.1c0.1-0.1,0.1-0.1,0.1-0.1c0-0.1,0.1-0.1,0.1-0.2c0.1-0.1,0.1-0.1,0.1-0.1
					s0.1-0.1,0.1-0.1c0-0.1,0-0.1,0.1-0.1c0,0,0,0,0-0.1c0-0.1,0-0.1,0-0.1s0,0,0-0.1c0.1-0.1,0.1-0.1,0.1-0.2
					c0-0.1,0.1-0.1,0.1-0.2c0-0.1,0.1-0.1,0.1-0.1c0.1-0.1,0.1-0.1,0.1-0.1c0.1,0,0.1-0.1,0.1-0.1c0-0.1,0.1-0.1,0.1-0.1
					s0.1-0.1,0.1-0.1c0-0.1,0.1-0.1,0.1-0.1c0-0.1,0.1-0.1,0.1-0.1s0.1-0.1,0.1-0.1c0-0.1,0.1-0.1,0.1-0.1s0.1-0.1,0.1-0.1
					c0-0.1,0-0.1,0-0.1c0-0.1,0.1-0.1,0.1-0.1c0-0.1,0.1-0.1,0.1-0.1l0.1-0.1l0.1-0.1c0.1-0.1,0.1-0.1,0.1-0.1l0.1-0.1v-0.1v-0.1
					c0.1-0.1,0.1-0.1,0.1-0.1c0-0.1,0.1-0.1,0.1-0.2s0.1-0.1,0.1-0.1s0.1-0.1,0.1-0.2c0-0.1,0-0.1,0-0.1c0,0,0.1-0.1,0.1-0.1
					c0,0,0-0.1,0.1-0.1c0,0,0-0.1,0.1-0.1c0.1-0.1,0.1-0.1,0.1-0.2c0-0.1,0-0.1,0.1-0.2c0-0.1,0.1-0.1,0.1-0.1l0.1-0.1
					c0-0.1,0-0.1,0.1-0.1c0-0.1,0-0.1,0.1-0.1c0-0.1,0-0.1,0.1-0.2c0.1-0.1,0.1-0.1,0.1-0.2s0.1-0.1,0.1-0.2c0-0.1,0-0.1,0-0.1
					c0-0.1,0-0.1,0-0.1c0-0.1,0.1-0.1,0.1-0.1l0.1-0.1c0.1-0.1,0.1-0.2,0.1-0.2c0-0.1,0.1-0.1,0.1-0.2c0-0.1,0.1-0.1,0.1-0.2
					c0-0.1,0.1-0.1,0.1-0.2c0-0.1,0.1-0.1,0.1-0.1c0-0.1,0.1-0.1,0.1-0.1c0.1-0.1,0.1-0.1,0.2-0.2c0.1-0.1,0.1-0.1,0.1-0.2
					c0.1,0,0.1,0,0.1,0h0.1c0.1,0,0.1,0.1,0.1,0.1c0,0.1,0.1,0.1,0.1,0.1c0.1,0.1,0.1,0.1,0.1,0.1s0.1,0.1,0.1,0.1
					c0.1,0.1,0.1,0.1,0.1,0.1c0.1,0.1,0.1,0.1,0.1,0.2s0.1,0.1,0.1,0.1s0.1,0.1,0.1,0.1c0,0.1,0.1,0.1,0.1,0.1s0.1,0.1,0.1,0.2
					c0,0.1,0.1,0.1,0.1,0.2c0,0.1,0.1,0.2,0.1,0.2c0,0.1,0,0.1,0,0.1s0,0.1,0,0.1c0,0.1,0,0.1,0.1,0.1c0,0,0,0.1,0.1,0.1
					c0.1,0.1,0.1,0.1,0.1,0.2c0.1,0.1,0.1,0.2,0.1,0.2c0,0,0,0.1,0.1,0.1c0,0,0,0.1,0.1,0.1c0,0,0,0.1,0.1,0.1c0,0,0,0.1,0.1,0.1
					c0,0,0,0.1,0.1,0.1c0,0.1,0,0.1,0.1,0.1c0,0.1,0.1,0.1,0.1,0.1c0,0.1,0.1,0.1,0.1,0.1s0.1,0.1,0.1,0.2c0,0.1,0.1,0.1,0.1,0.2
					c0.1,0.1,0.1,0.1,0.1,0.2s0.1,0.2,0.1,0.2l0.1,0.1l0.1,0.1c0,0.1,0.1,0.1,0.1,0.1s0,0.1,0.1,0.1c0.1,0.1,0.1,0.1,0.1,0.2
					c0,0.1,0.1,0.1,0.1,0.2c0,0.1,0.1,0.1,0.1,0.1c0,0.1,0.1,0.1,0.1,0.1c0.1,0.1,0.1,0.1,0.1,0.2c0,0.1,0.1,0.1,0.1,0.1
					c0.1,0.1,0.1,0.1,0.1,0.1l0.1,0.1c0.1,0.1,0.1,0.1,0.1,0.2c0,0.1,0,0.1,0,0.1s0,0.1,0,0.1c0,0.1,0.1,0.1,0.1,0.2
					s0.1,0.1,0.1,0.2c0.1,0.1,0.1,0.1,0.1,0.1s0.1,0.1,0.1,0.1c0,0,0.1,0.1,0.1,0.1s0.1,0.1,0.1,0.1c0,0.1,0.1,0.1,0.1,0.2
					c0.1,0.1,0.1,0.1,0.1,0.2c0,0.1,0.1,0.1,0.1,0.1c0,0.1,0.1,0.1,0.1,0.1s0,0.1,0,0.1v0.1c0,0.1,0.1,0.1,0.1,0.2
					c0.1,0.2,0.1,0.3,0.2,0.5c0.1,0.1,0.1,0.2,0.1,0.3C195.4,203.7,195.5,203.8,195.5,204z M192.3,200.4c0-0.1,0-0.1,0-0.1
					s0-0.1,0-0.1c0-0.1,0-0.1,0-0.1c0-0.1,0-0.1,0-0.1s-0.1-0.1-0.1-0.1l-0.1-0.1c0-0.1,0-0.2-0.1-0.3c0-0.1,0-0.2-0.1-0.2
					c-0.1-0.1-0.1-0.1-0.1-0.1c-0.1-0.1-0.1-0.1-0.1-0.2c0-0.1,0-0.1,0-0.1c0-0.1-0.1-0.1-0.1-0.2s-0.1-0.1-0.1-0.1s0-0.1-0.1-0.2
					c0-0.1,0-0.1-0.1-0.1v-0.1v-0.1c0-0.1-0.1-0.1-0.1-0.2c0-0.1-0.1-0.1-0.1-0.1c-0.1,0.1-0.1,0.1-0.1,0.1s-0.1,0.1-0.1,0.2
					c-0.1,0.1-0.1,0.1-0.1,0.1c0,0.1,0,0.1-0.1,0.2c0,0.1,0,0.1-0.1,0.1c0,0.1,0,0.1-0.1,0.1c0,0.1,0,0.1-0.1,0.1c0,0,0,0.1-0.1,0.1
					v0.1c-0.1,0.1-0.1,0.2-0.2,0.4c-0.1,0.1-0.1,0.2-0.1,0.3c0,0.1,0,0.1-0.1,0.1c0,0.1,0,0.1-0.1,0.1c0,0.1-0.1,0.1-0.1,0.1
					s-0.1,0.1-0.1,0.1v0.1v0.1c-0.1,0.1-0.1,0.2-0.1,0.2c0,0.1,0,0.1-0.1,0.1c0.1,0.1,0.2,0.1,0.2,0.1s0.2,0,0.2,0
					c0.1,0,0.3,0,0.5,0s0.3,0,0.4-0.1c0.1,0,0.2,0,0.3,0C192.1,200.4,192.3,200.4,192.3,200.4z"/>
				<path class="st1" d="M202.5,204.3c0,0.1-0.1,0.1-0.2,0.1c-0.1,0.1-0.1,0.1-0.1,0.1h-0.1c-0.1,0-0.1,0-0.2-0.1
					c-0.1,0.1-0.2,0.1-0.3,0.1c-0.1,0-0.2,0-0.2,0c-0.1,0-0.1,0-0.1,0.1l-0.1,0.1c-0.1,0-0.1,0-0.1,0s-0.1,0-0.1,0
					c-0.1,0-0.1-0.1-0.1-0.1c0-0.1-0.1-0.1-0.1-0.1c-0.1-0.1-0.1-0.1-0.1-0.1s0-0.1-0.1-0.1c0,0,0-0.1-0.1-0.1
					c-0.1-0.1-0.1-0.1-0.1-0.2c-0.1-0.1-0.1-0.1-0.1-0.2c0-0.1-0.1-0.1-0.1-0.1c0-0.1-0.1-0.1-0.1-0.1s-0.1-0.1-0.1-0.1
					c-0.1-0.1-0.1-0.1-0.1-0.1c0-0.1,0-0.1,0-0.1v-0.1c0-0.1-0.1-0.1-0.1-0.1c-0.1-0.1-0.1-0.1-0.1-0.2c-0.1-0.1-0.1-0.1-0.1-0.1
					s-0.1-0.1-0.1-0.1c0-0.1-0.1-0.1-0.1-0.1c-0.1-0.1-0.1-0.1-0.1-0.1c0,0-0.1-0.1-0.1-0.2v-0.1v-0.1c0-0.1-0.1-0.1-0.1-0.1
					c-0.1,0-0.1-0.1-0.1-0.1c-0.1,0-0.1,0-0.1-0.1c0-0.1-0.1-0.1-0.1-0.1c-0.1-0.1-0.1-0.1-0.1-0.2c-0.1-0.1-0.1-0.1-0.2-0.2
					c-0.1-0.1-0.2-0.1-0.3-0.2c-0.1-0.1-0.2-0.2-0.3-0.2c-0.1-0.1-0.1-0.1-0.2-0.1c-0.1,0.1-0.1,0.1-0.1,0.2c0,0.1,0,0.1,0,0.2
					c0,0.1,0,0.2-0.1,0.2c0,0.1-0.1,0.2-0.1,0.2s0,0.1,0,0.1s0.1,0.1,0,0.1v0.1c0,0.1,0,0.1,0,0.1c0,0.1,0,0.1,0,0.1s0,0.1,0,0.1
					c0,0.1,0,0.1,0,0.2c0,0.1-0.1,0.2-0.1,0.2s0,0.1,0,0.1v0.1c0,0.1,0,0.1,0,0.2c0,0.1,0,0.1,0,0.2c0,0.1,0,0.1,0,0.2
					c0,0.1,0,0.1-0.1,0.1c0,0.1,0,0.1,0,0.1c0,0,0,0,0,0.1v0.1v0.1c0,0.1,0,0.2-0.1,0.2c0,0.1,0,0.1,0,0.2c0,0.1,0,0.1,0.1,0.1v0.1
					c0,0.1-0.1,0.1-0.1,0.1c-0.1,0.1-0.1,0.1-0.1,0.1c-0.1,0-0.2,0-0.2,0s-0.1,0-0.2,0c-0.1,0-0.1,0.1-0.2,0.1s-0.2,0-0.2,0
					c-0.1,0-0.1-0.1-0.2,0h-0.1c0-0.2-0.1-0.3-0.1-0.4c0-0.1,0-0.2,0.1-0.2v-0.1V204c0-0.1,0-0.1,0-0.2c0-0.1,0-0.1,0-0.1
					s0-0.1,0-0.1v-0.1c0-0.1,0-0.1,0-0.1c0-0.1,0-0.1,0-0.1s0-0.1,0-0.1c0-0.1,0-0.1,0-0.1s0-0.1,0-0.1c0-0.1,0-0.1,0-0.1
					c0-0.1,0-0.1,0-0.1c0-0.1,0-0.1,0-0.2c0-0.1,0-0.1,0-0.1s0-0.1,0-0.1c0-0.1,0-0.1,0-0.1c0-0.1,0-0.1,0-0.1V202V202
					c0-0.1,0-0.1,0-0.2s0-0.1,0-0.1s0-0.1,0-0.1c0-0.1,0-0.1,0-0.1c0-0.1,0-0.1,0-0.1c0-0.1,0-0.1,0-0.1s0-0.1,0-0.1V201v-0.1v-0.1
					c0-0.1,0-0.1,0-0.2c0-0.1,0-0.1,0-0.2c0-0.2,0-0.2,0-0.2c0-0.1,0-0.1,0.1-0.1c0-0.1,0-0.1,0-0.1s0-0.1,0-0.2c0-0.1,0-0.1,0-0.2
					v-0.1v-0.1c0-0.1,0-0.1,0-0.1s0-0.1,0-0.1c0-0.1,0-0.1,0-0.2c0-0.1,0-0.2,0.1-0.2c0-0.1,0-0.1,0-0.2s0-0.1,0-0.1
					c0-0.1,0-0.1,0-0.2c0-0.1,0-0.1,0-0.2v-0.1c0,0,0-0.1,0-0.1c0-0.1,0-0.1,0-0.2c0-0.1,0-0.1,0-0.1s0-0.1,0-0.1s0,0,0-0.1
					s0-0.1,0-0.1v-0.1c0-0.1,0-0.1,0-0.2c0-0.1,0-0.1,0-0.2c0-0.1,0-0.1,0-0.1c0,0,0,0,0-0.1v-0.1c0-0.1-0.1-0.1-0.1-0.1
					s0-0.1,0-0.2s0-0.1,0-0.2v-0.1v-0.1c0-0.1-0.1-0.1-0.1-0.1V196c0-0.1,0-0.1-0.1-0.1c0-0.1,0-0.1,0-0.1c0-0.1,0-0.1,0.1-0.1
					c0-0.1,0.1-0.1,0.1-0.1c0,0,0.1,0,0.1-0.1h0.1l0.1-0.1l0.1-0.1c0.1,0,0.1,0,0.1,0c0.1,0,0.1,0.1,0.1,0.1c0.1,0,0.1,0,0.2,0
					s0.1,0,0.2,0c0.1,0,0.1,0,0.2,0c0.1,0,0.1,0,0.1,0c0.1,0,0.2-0.1,0.2-0.1c0.1,0,0.1,0,0.2,0s0.1,0,0.1,0s0,0,0.1,0
					c0.1,0,0.1,0,0.1,0s0.1,0,0.1,0c0.1,0,0.1,0,0.2,0s0.1,0,0.2,0s0.1,0,0.2,0c0.1,0,0.1,0,0.2,0.1c0,0,0.1,0,0.1,0.1
					c0,0,0.1,0,0.1,0.1c0.1,0,0.1,0,0.1,0c0.1,0,0.1,0,0.1,0s0.2,0.1,0.2,0.1c0.1,0.1,0.2,0.1,0.2,0.1s0.1,0,0.1,0.1
					c0.1,0,0.1,0.1,0.1,0.1c0.1,0,0.2,0,0.3,0c0.1,0,0.2,0.1,0.2,0.1s0.1,0.1,0.1,0.1c0.1,0,0.1,0.1,0.1,0.1
					c0.1,0.1,0.1,0.1,0.1,0.1c0.1,0,0.1,0.1,0.1,0.1c0.1,0.1,0.1,0.1,0.1,0.1s0,0.1,0.1,0.1c0.1,0.1,0.1,0.1,0.1,0.1
					c0,0,0,0.1,0.1,0.1s0.1,0.1,0.1,0.1l0.1,0.1c0,0.1,0.1,0.1,0.1,0.1c0.1,0.1,0.1,0.1,0.1,0.1c0.1,0.1,0.1,0.1,0.1,0.2
					c0,0.1,0,0.1,0.1,0.1c0.1,0.1,0.1,0.2,0.1,0.4c0,0.1,0.1,0.2,0.1,0.2c0,0.1,0,0.1,0,0.2s0.1,0.1,0.1,0.2s0,0.1,0,0.1
					s0,0.1,0,0.1c0,0.1,0,0.1,0,0.1s0,0.1,0,0.1c-0.1,0.1-0.1,0.2-0.1,0.3c0,0.1-0.1,0.2-0.1,0.3c0,0,0,0.1-0.1,0.1h-0.1
					c0,0.1,0,0.1,0,0.1l-0.1,0.1c-0.1,0.1-0.1,0.1-0.1,0.1c-0.1,0.1-0.1,0.1-0.1,0.1c0,0.1-0.1,0.1-0.1,0.1l-0.1,0.1
					c-0.1,0.1-0.1,0.1-0.1,0.1c-0.1,0-0.1,0.1-0.1,0.1c-0.1,0-0.1,0.1-0.1,0.1c0,0,0,0-0.1,0.1c0,0-0.1,0-0.1,0.1c0,0-0.1,0-0.1,0.1
					c-0.1,0.1-0.1,0.1-0.1,0.1H201c-0.1,0.1-0.1,0.1-0.2,0.1c-0.1,0-0.2,0.1-0.2,0.1c-0.1,0-0.1,0-0.1,0c-0.1,0-0.1,0.1-0.1,0.1
					s-0.1,0-0.2,0c-0.1,0-0.1,0-0.1,0.1s0,0.1,0.1,0.1s0.1,0.1,0.1,0.1s0.1,0.1,0.1,0.1c0,0.1,0.1,0.1,0.1,0.1
					c0.1,0.1,0.1,0.1,0.1,0.2c0,0.1,0.1,0.1,0.1,0.1c0,0.1,0.1,0.1,0.1,0.2c0.1,0.1,0.1,0.1,0.1,0.1v0.1c0.1,0.1,0.1,0.1,0.1,0.1
					s0,0,0,0.1c0.1,0.1,0.1,0.1,0.1,0.2c0.1,0.1,0.1,0.1,0.1,0.2l0.1,0.1l0.1,0.1c0,0.1,0,0.1,0,0.1v0.1c0.1,0.1,0.1,0.1,0.2,0.2
					c0.1,0.1,0.1,0.1,0.1,0.2l0.1,0.1l0.1,0.1c0,0.1,0.1,0.1,0.1,0.2c0.1,0.1,0.1,0.1,0.1,0.2c0,0.1,0.1,0.1,0.1,0.1
					c0.1,0.1,0.1,0.1,0.1,0.1c0,0.1,0.1,0.1,0.1,0.1c0.1,0.1,0.1,0.1,0.1,0.2s0.1,0.1,0.1,0.1c0,0.1,0,0.1,0.1,0.1c0,0,0,0.1,0,0.1
					c0.1,0,0.1,0.1,0.1,0.1c0.1,0,0.1,0.1,0.1,0.1c0,0.1,0,0.1,0.1,0.2C202.5,204.2,202.5,204.3,202.5,204.3z M200.9,198
					c-0.1-0.1-0.1-0.1-0.1-0.2c0-0.1,0-0.1,0-0.1s0-0.1-0.1-0.1l-0.1-0.1c-0.1-0.1-0.1-0.1-0.1-0.2l-0.1-0.1l-0.1-0.1
					c-0.1-0.1-0.1-0.1-0.1-0.1s-0.1-0.1-0.1-0.1c0-0.1-0.1-0.1-0.1-0.1c-0.1,0-0.1-0.1-0.1-0.1s-0.1,0-0.2-0.1
					c-0.1,0-0.1-0.1-0.1-0.1c0,0-0.1,0-0.1,0.1h-0.1c-0.1,0-0.1,0-0.1-0.1c0,0-0.1,0-0.1-0.1c-0.1,0-0.1,0-0.2,0s-0.1,0-0.1,0
					c-0.1-0.1-0.1-0.1-0.2-0.1c-0.1,0-0.1,0-0.2,0c-0.1,0-0.1,0-0.2,0c-0.1,0-0.2,0-0.4,0s-0.2,0-0.4,0c0,0.1,0,0.1,0,0.1v0.1
					c0,0.1,0,0.1,0,0.2c0,0.1,0,0.1,0,0.1s0,0.1,0,0.1s0,0,0,0.1v0.2c0,0.1,0,0.2,0,0.3c0,0.1,0,0.2,0,0.3c0,0.1,0,0.2,0,0.3
					s0,0.2,0,0.3c0,0.1,0,0.1,0,0.2v0.1c0,0.1,0,0.2,0,0.2c0.1,0,0.2,0.1,0.2,0.1c0.1,0,0.1,0,0.2,0c0.1,0,0.1,0,0.1,0h0.1
					c0.1,0,0.1,0,0.2,0c0.1,0,0.1,0,0.2,0c0.1,0,0.1,0,0.1,0c0.1,0,0.1,0,0.1,0s0.1-0.1,0.1-0.1h0.1c0.1-0.1,0.1-0.1,0.2-0.1
					c0.1,0,0.1,0,0.1,0c0.2-0.1,0.2-0.1,0.4-0.1c0.1-0.1,0.2-0.1,0.2-0.1c0.1,0,0.1,0,0.2-0.1c0-0.1,0.1-0.1,0.1-0.1
					s0.1-0.1,0.1-0.2h0.1c0,0,0.1,0,0.1-0.1s0.1-0.1,0.1-0.2c0-0.1,0.1-0.1,0.1-0.2C200.9,198.2,200.9,198.1,200.9,198
					C200.9,198.2,200.9,198.1,200.9,198z"/>
				<path class="st1" d="M209.4,195.7L209.4,195.7c0.1,0.1,0.1,0.1,0.1,0.2c0,0.1,0,0.1,0,0.1s-0.1,0.1-0.1,0.1
					c0.1,0.1,0.1,0.1,0,0.1c0,0,0,0.1,0,0.1c0,0.1,0,0.2,0,0.2c0,0.1,0,0.2,0,0.2s0,0.1-0.1,0.1l-0.1,0.1c0,0.1-0.1,0.1-0.1,0.1
					c0,0.1-0.1,0.1-0.1,0.1c-0.1,0.1-0.1,0.1-0.2,0c-0.1-0.1-0.2-0.1-0.2,0c-0.1-0.1-0.1-0.1-0.2-0.1c-0.1,0-0.1,0-0.2-0.1
					c-0.1,0-0.1,0-0.2,0c-0.1,0-0.1,0-0.2-0.1h-0.1h-0.1c-0.1,0-0.1,0-0.1-0.1c-0.1,0-0.1,0-0.1,0s-0.1,0-0.1,0c-0.1,0-0.1,0-0.1,0
					H207c-0.1,0-0.2,0-0.4-0.1c-0.1,0-0.2,0-0.4-0.1c-0.1,0-0.2,0-0.4,0s-0.2,0-0.4,0c-0.1,0.1-0.1,0.2-0.1,0.2s0,0.2,0,0.2
					c0,0.1,0,0.2,0,0.2s0,0.2,0,0.2v0.1v0.1c0,0.1,0,0.1,0,0.2c0,0.1,0,0.1,0,0.2c0,0.1,0,0.1,0,0.1s0,0.1,0,0.1
					c0.1,0,0.1,0.1,0.2,0.1c0.1,0,0.1,0,0.2,0s0.1,0,0.1,0c0.1,0,0.2,0,0.2,0s0.2,0,0.2,0c0.1,0,0.2,0,0.4,0c0.1,0,0.2,0,0.4,0
					c0.1,0,0.1,0,0.2,0s0.1,0,0.2,0.1c0.1,0,0.1,0,0.1,0s0.1,0,0.1,0c0.1,0,0.1,0,0.1,0c0,0,0.1,0,0.1,0c0.1,0,0.2,0,0.3,0
					c0.1,0,0.1,0,0.2,0s0.1,0,0.1,0s0.1,0,0.1,0c0.1,0,0.1,0,0.1,0.1v0.1c0.1,0.1,0.1,0.1,0.1,0.2c0,0.1,0,0.1,0,0.2
					c0,0.1,0,0.1,0,0.1s0,0.1,0,0.1c0,0.1,0,0.2,0,0.3c0,0.1,0,0.2,0.1,0.2c0,0.1-0.1,0.1-0.1,0.1c0,0.1-0.1,0.1-0.1,0.1
					c-0.1,0-0.1,0-0.1,0h-0.1c-0.1,0-0.1,0-0.1,0c0,0-0.1,0-0.1-0.1h-0.1c-0.1,0-0.1,0-0.1-0.1c-0.1,0.1-0.1,0.1-0.2,0.1
					s-0.1,0-0.1,0.1c-0.1-0.1-0.1-0.1-0.1-0.1c-0.1,0-0.1,0-0.1,0c-0.1,0-0.1,0-0.1,0c-0.1,0-0.1,0-0.2,0c-0.1,0-0.1,0-0.1,0
					s-0.1,0.1-0.1,0.1c-0.1,0-0.1,0-0.2,0c-0.1,0-0.1,0.1-0.2,0.1c-0.1,0-0.1,0-0.1,0s-0.1-0.1-0.1,0c-0.1,0-0.1,0.1-0.1,0
					c-0.1,0-0.1,0-0.1,0.1c-0.1-0.1-0.1-0.1-0.2,0c-0.1,0-0.1,0-0.2-0.1c0,0.1-0.1,0.1-0.1,0c0,0-0.1,0-0.1,0s-0.1,0-0.1,0H206
					c-0.1,0-0.1,0-0.1,0c-0.1,0-0.1,0-0.1,0c-0.1,0-0.1,0.1-0.1,0.1s0,0.1,0,0.1v0.1v0.1c0,0.1,0,0.1,0,0.1v0.1c0,0.1,0,0.1,0,0.2
					c0,0.1-0.1,0.1-0.1,0.2c-0.1,0.1-0.1,0.2-0.1,0.3c0,0.1,0,0.1-0.1,0.2c0,0.1,0.1,0.1,0.1,0.1s0,0.1,0,0.2c0,0.1,0,0.1,0,0.2
					c0,0.1,0,0.1,0,0.1c0,0.1,0,0.1,0,0.2v0.1v0.1c0,0.1,0,0.1,0,0.1c0,0.1,0,0.1,0,0.1c0.1,0.1,0.1,0.1,0.2,0.1c0.1,0,0.2,0,0.3,0
					c0.1,0,0.2,0,0.4-0.1c0.1,0,0.2,0,0.4,0c0.1,0,0.1,0,0.2,0s0.1,0,0.2,0s0.1,0,0.2-0.1c0.1,0,0.1,0,0.2,0s0.2,0,0.2,0
					c0.1,0,0.1,0,0.1,0c0.1,0,0.1,0,0.2,0c0.1,0,0.1,0,0.2,0c0.1,0,0.1,0,0.1,0h0.1c0.1,0,0.1,0,0.1,0h0.1c0.1,0,0.1,0,0.1,0
					c0,0,0,0,0.1,0c0.1,0,0.1,0,0.1,0s0.1,0,0.2,0l0.1,0.1c0,0.1,0,0.1,0.1,0.1c0,0.1,0,0.1,0,0.1s0.1,0,0.1,0.1c0,0.2,0,0.4,0,0.5
					s-0.1,0.4-0.1,0.6l-0.1,0.1c0,0-0.1,0-0.1,0.1l-0.1,0.1H209c-0.1,0-0.1,0-0.1,0c-0.1,0-0.1,0-0.1,0s-0.1,0-0.1,0
					c-0.1,0-0.1,0-0.1,0s-0.1,0-0.2,0c-0.1,0-0.1,0-0.2,0c-0.1,0-0.2,0-0.2,0c-0.1,0-0.1,0-0.2-0.1c-0.1,0-0.1,0-0.1,0h-0.1
					c-0.1,0-0.2-0.1-0.2-0.1c-0.1,0-0.2,0-0.3,0c-0.1,0-0.1,0-0.2,0c-0.1,0-0.1,0-0.2,0c-0.1,0-0.1,0-0.2,0s-0.1,0-0.2,0
					c-0.1,0-0.1,0-0.2,0c-0.1,0-0.1,0-0.2,0c-0.1,0-0.1,0-0.1,0c0,0-0.1,0-0.1,0c-0.1,0-0.1,0-0.1,0s-0.1,0-0.1,0
					c-0.1,0-0.1,0-0.2,0c-0.1,0-0.1,0-0.2-0.1c-0.1,0-0.1,0-0.1,0h-0.1c-0.1,0-0.1,0-0.1,0h-0.1c-0.1,0-0.1,0-0.2,0.1
					c-0.1,0-0.1,0-0.2,0c-0.1-0.1-0.1-0.1-0.1-0.1c0-0.1,0-0.1-0.1-0.1v-0.1v-0.1c0-0.1,0-0.1,0-0.1v-0.1c0-0.1,0-0.1-0.1-0.1
					c0-0.1-0.1-0.1-0.1-0.1s0-0.2,0-0.2c0-0.1,0-0.2,0-0.2s0-0.1,0-0.2c0-0.1,0-0.1,0-0.1v-0.1v-0.1c0-0.1,0-0.1,0-0.1s0,0,0-0.1
					c0-0.1,0-0.1-0.1-0.2c0-0.1,0-0.1,0-0.2s0-0.1,0-0.1v-0.1c0-0.1,0-0.1,0-0.1c0-0.1,0-0.1,0.1-0.1c0-0.1,0-0.1,0-0.1v-0.1
					c0-0.1,0-0.1,0-0.1c0,0,0,0,0-0.1s0-0.1,0-0.1c0-0.1,0-0.1,0-0.1s0-0.1,0-0.2c0-0.1,0-0.1-0.1-0.1c0.1-0.1,0.1-0.2,0-0.2
					c0-0.1,0-0.2,0-0.2s0-0.1,0-0.1c0-0.1,0-0.1,0-0.1c0-0.1,0-0.1,0-0.1v-0.1c0-0.1,0-0.1,0-0.1c0-0.1,0-0.1,0-0.1v-0.1v-0.1v-0.1
					c0-0.1,0-0.1,0-0.1c0-0.1,0-0.1,0.1-0.1c0-0.1,0-0.1-0.1-0.1c0,0,0-0.1,0-0.1c-0.1-0.1-0.1-0.1,0-0.2v-0.1c0-0.1,0-0.2,0-0.2
					c0-0.1,0-0.1,0-0.2v-0.1v-0.1c0-0.1,0-0.1,0-0.1v-0.1c0.1-0.1,0.1-0.2,0.1-0.3c0-0.1,0-0.1,0.1-0.2c-0.1-0.1-0.1-0.2-0.1-0.4
					c0.1-0.1,0.1-0.3,0.1-0.4c0-0.1,0-0.2,0-0.3c0-0.1,0-0.2,0-0.4c0-0.1,0-0.2,0-0.2c0-0.1,0-0.1,0-0.1s0-0.1,0-0.1
					s0.1-0.1,0.1-0.1c0-0.1,0-0.1,0.1-0.1l0.1-0.1c0.4,0.1,0.7,0.1,1,0.1c0.3-0.1,0.6-0.1,0.9,0c0.1,0,0.2,0.1,0.2,0.1
					c0.1,0,0.2,0.1,0.2,0.1s0.1,0,0.2,0c0.1,0,0.1,0,0.2,0c0.1,0,0.1,0,0.2,0h0.1c0.1,0,0.1,0,0.1,0s0.1,0,0.1,0c0.1,0,0.1,0,0.2,0
					s0.1,0,0.2,0s0.1,0,0.2,0s0.1,0,0.2,0c0.1,0,0.2,0,0.2,0c0.1,0,0.2,0.1,0.3,0.1c0.1,0,0.1,0,0.1,0h0.1c0.1,0,0.2,0,0.3,0
					C209.1,195.7,209.2,195.7,209.4,195.7z"/>
			</g>
			<g>
				<path class="st1" d="M182.3,218.3c0,0.2,0,0.4-0.1,0.6s-0.1,0.4-0.1,0.6v0.1v0.1c0,0,0,0.1-0.1,0.1l-0.1,0.1
					c0,0.1-0.1,0.2-0.1,0.3c0,0.1,0,0.2-0.1,0.2c-0.1,0.1-0.1,0.1-0.1,0.1c0,0-0.1,0.1-0.1,0.1c-0.1,0.1-0.1,0.1-0.1,0.2
					c0,0.1-0.1,0.1-0.1,0.1v0.1c0,0,0,0.1,0,0.1c-0.1,0.1-0.1,0.1-0.2,0.2c0,0.1-0.1,0.2-0.1,0.2c-0.1,0.1-0.1,0.1-0.1,0.1l-0.1,0.1
					l-0.1,0.1l-0.1,0.1c-0.1,0.1-0.1,0.2-0.2,0.2c-0.1,0.1-0.1,0.1-0.1,0.2c-0.1,0-0.1,0.1-0.1,0.1c-0.1,0.1-0.1,0.1-0.1,0.1
					s0,0.1-0.1,0.1c-0.1,0.1-0.1,0.1-0.1,0.1c-0.1,0-0.1,0-0.1,0.1c-0.1,0.1-0.1,0.1-0.2,0.1c-0.1,0.1-0.2,0.1-0.2,0.2
					c-0.1,0.1-0.2,0.1-0.2,0.1c-0.1,0.1-0.1,0.1-0.1,0.1s-0.1,0.1-0.2,0.1c-0.1,0-0.1,0.1-0.1,0.1c-0.1,0.1-0.2,0.1-0.3,0.1
					s-0.2,0.1-0.3,0.1c-0.1,0.1-0.1,0.1-0.3,0.1c-0.1,0.1-0.2,0.1-0.4,0.1c-0.1,0-0.1,0-0.1,0c-0.1,0-0.1,0-0.1,0
					c-0.1,0-0.1,0-0.2,0.1c-0.1,0-0.1,0.1-0.2,0.1s-0.1,0-0.1,0s-0.1-0.1-0.1-0.1c-0.1,0-0.2,0-0.2,0.1c-0.1,0-0.1,0-0.2,0
					c-0.1,0-0.1,0-0.2,0c-0.1,0-0.1,0-0.2,0c0,0-0.1,0-0.1,0c-0.1,0-0.1-0.1-0.1-0.1c-0.1,0.1-0.1,0.1-0.2,0
					c-0.1-0.1-0.1-0.1-0.2-0.1c-0.1,0-0.2-0.1-0.3-0.1c-0.1,0-0.2,0-0.2-0.1c-0.2,0-0.4-0.1-0.5-0.2c-0.1,0-0.2-0.1-0.2-0.1
					c-0.1,0-0.1-0.1-0.1-0.1c-0.1-0.1-0.1-0.1-0.1-0.1l-0.1-0.1c-0.1-0.1-0.1-0.1-0.1-0.1c0,0-0.1,0-0.1-0.1c0,0-0.1-0.1-0.1-0.1
					s-0.1-0.1-0.1-0.1c-0.1,0-0.1,0-0.1-0.1c-0.1,0-0.1-0.1-0.1-0.1c-0.1-0.1-0.1-0.1-0.2-0.1c-0.1-0.1-0.1-0.1-0.1-0.2
					c-0.1,0-0.1-0.1-0.2-0.1s-0.1-0.1-0.1-0.1c-0.1-0.1-0.1-0.1-0.2-0.2c-0.1-0.1-0.1-0.1-0.1-0.1c-0.1-0.1-0.1-0.2-0.1-0.2
					c0-0.1-0.1-0.1-0.1-0.1c-0.1-0.1-0.1-0.2-0.2-0.2c-0.1-0.1-0.1-0.1-0.1-0.2c-0.1,0-0.1-0.1-0.1-0.1c0-0.1-0.1-0.1-0.1-0.1
					c0-0.1-0.1-0.1-0.1-0.1s-0.1-0.1-0.1-0.1c0-0.1,0-0.2-0.1-0.2c-0.1-0.1-0.1-0.1-0.1-0.2c0-0.1-0.1-0.1-0.1-0.2s0-0.1,0-0.2
					c0,0-0.1-0.1-0.1-0.1s0-0.1,0-0.1c0-0.1,0-0.1,0-0.2c0-0.1,0-0.1-0.1-0.1c0-0.1,0-0.1,0-0.1c0-0.1,0-0.1,0-0.1l-0.1-0.2
					c0,0,0-0.1,0-0.1s0-0.1-0.1-0.1c0-0.1,0-0.2,0-0.2c0-0.1,0-0.1,0-0.2c0,0,0,0,0-0.1s0-0.1,0-0.2c0-0.1,0-0.1,0-0.2
					c0-0.1,0-0.1,0-0.1s0-0.1,0-0.2c0-0.1-0.1-0.2-0.1-0.2c0-0.1,0-0.1,0-0.1c0-0.1,0-0.1,0-0.1c0,0,0-0.1,0-0.1c0-0.1,0-0.2,0-0.2
					c0-0.1,0-0.1,0-0.1v-0.1v-0.1c0-0.1,0-0.1,0-0.2c0-0.1,0-0.1,0-0.2c0-0.1,0-0.1,0-0.2c0-0.1,0-0.1,0-0.1
					c0.1-0.1,0.1-0.2,0.2-0.3c0.1-0.1,0.1-0.2,0.1-0.2c0.1-0.1,0.1-0.2,0.1-0.3c0-0.1,0.1-0.2,0.2-0.2c0-0.1,0-0.1,0.1-0.2
					c0-0.1,0.1-0.1,0.1-0.2c0.1-0.1,0.1-0.2,0.1-0.2c0,0,0.1-0.1,0.1-0.1c0.1-0.1,0.1-0.1,0.1-0.2c0-0.1,0-0.1,0-0.1
					c0.1-0.1,0.1-0.2,0.2-0.2c0.1-0.1,0.1-0.1,0.1-0.2c0.1-0.1,0.2-0.1,0.2-0.2c0.1,0,0.1-0.1,0.1-0.1c0-0.1,0.1-0.1,0.1-0.1
					c0-0.1,0.1-0.1,0.1-0.1c0-0.1,0.1-0.1,0.1-0.1s0.1,0,0.1-0.1c0.1,0,0.1-0.1,0.2-0.1c0.1-0.1,0.1-0.1,0.2-0.1
					c0.1,0,0.1-0.1,0.2-0.1c0.1,0,0.1-0.1,0.2-0.1c0.1,0,0.2,0,0.2,0c0.1,0,0.1-0.1,0.1-0.1c0.1,0,0.1,0,0.2,0
					c0.1,0,0.1-0.1,0.2-0.1c0.1,0,0.2-0.1,0.3-0.1c0.1,0,0.2-0.1,0.4-0.1c0.1,0,0.2-0.1,0.2-0.1c0.1,0,0.2-0.1,0.2-0.1
					c0.1,0,0.1-0.1,0.1-0.1h0.1h0.1h0.1c0.1,0,0.1,0.1,0.1,0.1h0.1c0.1,0,0.2,0.1,0.2,0.1c0.2,0.1,0.3,0.1,0.4,0.1
					c0.1,0,0.2,0.1,0.2,0.1c0.1,0,0.2-0.1,0.2,0c0.1,0,0.2,0,0.2,0c0.1,0,0.1,0,0.1,0.1l0.1,0.1c0.1,0,0.2,0,0.3,0.1
					c0.1,0,0.1,0.1,0.2,0.1c0.1,0,0.1,0,0.1,0s0.1,0,0.1,0.1c0.1,0,0.1,0,0.1,0.1c0.1,0,0.2,0.1,0.2,0.1c0.1,0,0.1,0.1,0.2,0.1
					c0.1,0,0.1,0,0.1-0.1h0.1c0.1,0.1,0.2,0.1,0.3,0.1c0.1,0,0.2,0.1,0.3,0.1c0.1,0.1,0.1,0.1,0.2,0.1l0.1,0.1
					c0.1,0,0.1,0.1,0.1,0.1c0.1,0,0.1,0.1,0.1,0.1c0.1,0,0.1,0,0.1,0c0.1,0,0.1,0.1,0.1,0.1c0.1,0,0.1,0.1,0.1,0.1
					c0.1,0.1,0.1,0.1,0.1,0.1c0.1,0.1,0.1,0.1,0.1,0.1c0.1,0,0.1,0,0.1,0c0,0.1,0.1,0.1,0.1,0.1c0,0.1,0.1,0.1,0.1,0.1
					c0.1,0,0.1,0.1,0.2,0.1c0.1,0.1,0.1,0.1,0.2,0.1c0.1,0.1,0.1,0.1,0.2,0.2c0.1,0.1,0.1,0.1,0.1,0.2c0,0.1,0.1,0.1,0.1,0.1
					c0,0,0.1,0.1,0.1,0.1s0,0.1,0.1,0.1c0,0.1,0.1,0.1,0.1,0.2s0.1,0.2,0.1,0.3c0.1,0,0.1,0.1,0.1,0.1c0,0.1,0.1,0.1,0.1,0.2
					c0.1,0.1,0.1,0.1,0.1,0.2c0,0.1,0,0.1,0,0.1c0,0.1,0.1,0.1,0.1,0.2c0,0.1,0,0.1,0.1,0.2c0,0.1,0,0.1,0,0.1v0.1
					c0,0.1,0.1,0.2,0.1,0.3c0.1,0.1,0.1,0.2,0.1,0.2c0,0.1,0,0.2,0,0.3c0,0.1,0,0.2,0,0.4c0,0.1,0,0.2,0,0.4
					C182.3,218,182.3,218.1,182.3,218.3z M180.7,217.3c0-0.1,0-0.1,0-0.1c0-0.1,0-0.1,0-0.1c0-0.1,0-0.1,0-0.1c0-0.1,0-0.1,0-0.1
					c0-0.1,0-0.1-0.1-0.1c0,0-0.1-0.1-0.1-0.1c0-0.1,0-0.1,0-0.1v-0.1c0-0.1-0.1-0.1-0.1-0.2c0-0.1-0.1-0.2-0.1-0.2
					c-0.1-0.1-0.1-0.1-0.1-0.1l-0.1-0.1c-0.1-0.1-0.1-0.1-0.1-0.2s-0.1-0.1-0.1-0.1c-0.1-0.1-0.1-0.1-0.2-0.2
					c-0.1-0.1-0.2-0.1-0.2-0.2c-0.1,0-0.1-0.1-0.1-0.1c-0.1-0.1-0.1-0.1-0.1-0.1c-0.1-0.1-0.2-0.1-0.2-0.1l-0.1-0.1
					c-0.1-0.1-0.2-0.1-0.2-0.1c-0.1,0-0.2-0.1-0.2-0.1c-0.1,0-0.2,0-0.4-0.1c-0.1-0.1-0.3-0.1-0.4-0.1c0,0-0.1,0-0.1-0.1l-0.1-0.1
					c-0.1,0-0.1,0.1-0.2,0c-0.1,0-0.1-0.1-0.1-0.1c-0.1,0-0.1,0-0.1,0h-0.1c-0.1,0-0.1-0.1-0.2-0.1c-0.1,0-0.1-0.1-0.2-0.1
					c-0.1,0-0.2,0-0.2,0s-0.1,0-0.2,0c-0.1,0-0.1,0-0.2,0c-0.1,0-0.1,0-0.1,0c-0.1-0.1-0.3-0.1-0.4-0.1c-0.1,0-0.2,0-0.3-0.1
					c-0.1,0-0.1-0.1-0.1-0.1c-0.1,0-0.1,0-0.1-0.1c0,0.1-0.1,0.1-0.1,0.1s-0.1,0-0.1,0.1c-0.1,0-0.1,0.1-0.2,0.1
					c-0.1,0.1-0.1,0.1-0.1,0.1c-0.1,0-0.1,0.1-0.2,0.1c-0.1,0-0.1,0.1-0.2,0.1l-0.1,0.1l-0.1,0.1l-0.1,0.1c0,0-0.1,0-0.1,0.1
					c-0.1,0.1-0.1,0.1-0.1,0.1c-0.1,0.1-0.1,0.1-0.1,0.1c0,0.1-0.1,0.1-0.1,0.1c-0.1,0.1-0.1,0.1-0.1,0.1c-0.1,0.1-0.1,0.1-0.1,0.1
					c-0.1,0.1-0.1,0.1-0.1,0.1c0,0.1,0,0.1-0.1,0.2c0,0.1-0.1,0.1-0.1,0.2c-0.1,0.1-0.1,0.1-0.1,0.2c0,0.1-0.1,0.1-0.1,0.1
					c-0.1,0.1-0.1,0.2-0.1,0.2c0,0.1-0.1,0.1-0.1,0.1c-0.1,0.1-0.1,0.2-0.1,0.2c-0.1,0.1-0.1,0.1-0.1,0.2c0,0.1-0.1,0.1-0.1,0.2
					c0,0.1-0.1,0.2-0.1,0.3c0,0.1-0.1,0.2,0,0.3c0,0.1,0,0.1,0,0.2c0,0.1,0,0.1,0,0.1c-0.1,0.2-0.1,0.4-0.1,0.5
					c0,0.1,0.1,0.3,0.1,0.4c0,0.1,0,0.2,0,0.3c0,0.1,0,0.2,0,0.2c0,0.1,0,0.1,0,0.1c0,0.1,0.1,0.1,0.1,0.1s0,0.1,0,0.1
					c0,0.1,0,0.1,0,0.1c0.1,0.1,0.1,0.2,0.1,0.3c0,0.1,0.1,0.1,0.1,0.2c0,0.1,0.1,0.1,0.1,0.1c0.1,0,0.1,0.1,0.1,0.1
					c0,0.1,0.1,0.1,0.1,0.1s0.1,0.1,0.1,0.1c0.1,0.1,0.1,0.1,0.1,0.2l0.1,0.1c0,0.1,0.1,0.1,0.1,0.1c0.1,0,0.1,0.1,0.1,0.1
					c0,0.1,0.1,0.1,0.1,0.1c0,0.1,0.1,0.1,0.1,0.1c0.1,0.1,0.3,0.2,0.4,0.2c0.1,0.1,0.2,0.2,0.4,0.3c0.1,0,0.2,0.1,0.4,0.1
					c0.1,0.1,0.2,0.1,0.4,0.1c0.1,0,0.1,0,0.1,0.1c0.1,0,0.1,0,0.1,0.1c0.1,0,0.1,0,0.1,0c0.1,0,0.1,0,0.1,0s0.2,0,0.2,0.1
					c0.1,0,0.1,0.1,0.2,0.1c0.1,0,0.2,0,0.2,0s0.2,0,0.2,0.1c0.1,0,0.1-0.1,0.1-0.1c0.1,0,0.1,0,0.1,0c0.1-0.1,0.2-0.1,0.4-0.1
					c0.1,0,0.2,0,0.4,0c0.1-0.1,0.1-0.1,0.1-0.1h0.1c0.1,0,0.1-0.1,0.2-0.1c0.1,0,0.1-0.1,0.2-0.1c0,0,0.1,0,0.1,0
					c0.1,0,0.1,0,0.1,0c0.1-0.1,0.1-0.1,0.1-0.1h0.1l0.1-0.1c0,0,0.1-0.1,0.1,0c0-0.1,0.1-0.1,0.1-0.1c0.1,0,0.1-0.1,0.2-0.1
					c0-0.1,0.1-0.1,0.1-0.1l0.1-0.1c0.1-0.1,0.1-0.1,0.1-0.1l0.1-0.1c0.1-0.1,0.1-0.2,0.2-0.3c0-0.1,0-0.1,0.1-0.1l0.1-0.1
					c0-0.1,0-0.1,0.1-0.1c0-0.1,0.1-0.1,0.1-0.1c0-0.1,0.1-0.1,0.1-0.1c0-0.1,0.1-0.1,0.1-0.1c0.1,0,0.1-0.1,0.1-0.1
					c0-0.1,0.1-0.1,0.1-0.1c0.1-0.1,0.1-0.2,0.1-0.2s0.1-0.1,0.1-0.1c0-0.1,0.1-0.1,0.1-0.1c0,0,0-0.1,0.1-0.1
					c0.1-0.1,0.1-0.2,0.1-0.2l0.1-0.1c0-0.1,0-0.1,0-0.1s0-0.1,0-0.1c0-0.1,0.1-0.1,0.1-0.1s0.1-0.1,0.1-0.2c0-0.1,0-0.1,0-0.1
					c0-0.1,0-0.1,0-0.1c0-0.1,0-0.1,0.1-0.1c0-0.1,0.1-0.1,0.1-0.1c0-0.1,0.1-0.1,0.1-0.2s0.1-0.1,0-0.1c0-0.1,0-0.1,0-0.2
					c0-0.1,0-0.1,0-0.1c0-0.1,0-0.1,0.1-0.1C180.7,217.3,180.7,217.3,180.7,217.3z"/>
				<path class="st1" d="M191.5,215.5c0,0.1,0,0.1,0,0.1v0.1c0,0.1,0,0.1,0,0.1c0,0.1,0,0.1-0.1,0.1c0,0.1-0.1,0.3-0.1,0.4
					c-0.1,0.1-0.1,0.3-0.2,0.4c-0.1,0.1-0.1,0.1-0.1,0.2c0,0.1-0.1,0.1-0.1,0.1c-0.1,0.2-0.2,0.3-0.2,0.4c-0.1,0.1-0.1,0.1-0.2,0.2
					c-0.1,0.1-0.1,0.1-0.2,0.2c-0.1,0.1-0.2,0.1-0.2,0.2c-0.1,0.1-0.2,0.1-0.3,0.1c-0.1,0.1-0.1,0.1-0.2,0.1c-0.1,0-0.1,0.1-0.2,0.1
					c-0.1,0.1-0.1,0.1-0.2,0.1c-0.1,0-0.1,0.1-0.1,0.1c-0.1,0-0.1,0.1-0.1,0.1H189c-0.1,0.1-0.1,0.1-0.1,0.1
					c-0.1,0.1-0.2,0.1-0.3,0.1c-0.1,0-0.2,0.1-0.2,0c-0.1,0-0.1,0-0.2,0H188c-0.1,0-0.2,0-0.3,0.1c-0.1,0-0.1,0-0.2,0
					c-0.1,0-0.1,0.1-0.1,0.1s-0.1,0-0.1,0.1c-0.1,0-0.1,0-0.1,0c-0.1,0-0.1,0-0.2,0c-0.1,0-0.2,0.1-0.3,0.1s-0.1,0-0.2,0
					c-0.1,0-0.2,0-0.4,0c-0.1,0-0.2,0.1-0.4,0.1c0,0.2,0,0.4,0.1,0.5c0,0.2,0,0.4,0,0.5c0,0.1,0,0.1,0,0.1c0,0.1,0,0.1,0,0.1
					c0,0.1,0,0.2,0,0.4c0,0.1,0,0.2,0,0.3c0,0.1,0,0.1,0,0.2s0,0.1,0,0.2s0,0.1,0,0.1c0,0.1,0,0.1,0,0.1c0.1,0.1,0.1,0.2,0.1,0.4
					c0,0.1,0,0.3,0,0.4c0,0.1,0,0.1,0,0.1v0.1c0,0.1,0,0.2,0,0.2s0,0.2,0,0.2c-0.1,0-0.2,0.1-0.3,0.1c-0.1,0.1-0.2,0.1-0.3,0
					c-0.1,0-0.2,0-0.4,0c-0.1,0-0.2,0.1-0.3,0.1c-0.1,0-0.3,0-0.4,0c-0.1-0.1-0.3-0.1-0.4-0.1c0-0.1,0-0.1,0-0.2s0-0.1,0-0.1
					s0-0.1,0-0.1c0,0,0-0.1,0.1-0.1v-0.1v-0.1c0-0.1,0-0.1,0-0.2s0-0.1,0-0.2s0-0.1,0-0.1s0-0.1,0-0.1c0-0.1,0-0.2,0-0.2
					s0-0.2,0-0.2s0-0.1,0-0.1c0-0.1,0-0.1,0-0.2v-0.1v-0.1c0-0.1,0.1-0.1,0.1-0.2v-0.1c0-0.1,0-0.1,0-0.1c0-0.1,0-0.1,0-0.2
					c0-0.1,0-0.2,0-0.3s0.1-0.1,0.1-0.2c0-0.1,0-0.1,0-0.1c0-0.1-0.1-0.1-0.1-0.1c0,0,0-0.1,0-0.2c0-0.1,0-0.1,0-0.2
					c0-0.1,0-0.1,0-0.2c0-0.1,0-0.1,0-0.1c0-0.1,0-0.1,0-0.2v-0.1c0-0.1,0-0.1,0-0.1v-0.1c0-0.1,0-0.1,0-0.2c0-0.1,0-0.1,0-0.1
					c0,0,0-0.1,0-0.1s0-0.1,0-0.1c0-0.1,0-0.1,0-0.2s0-0.1,0-0.2v-0.1v-0.1c0-0.1,0-0.1,0-0.3c0-0.1,0-0.2,0-0.4c0-0.1,0-0.2,0-0.2
					s0-0.1,0-0.1c0-0.1,0-0.1,0-0.1s0-0.1,0-0.1c0-0.1,0-0.2,0-0.2c0-0.1,0-0.2,0-0.2c0-0.1,0-0.2,0-0.2c0-0.1,0-0.1,0.1-0.2
					c0-0.1,0-0.1,0-0.2c0-0.1,0-0.1,0-0.2c-0.1-0.1-0.1-0.2-0.1-0.4c0-0.2,0-0.3,0-0.4c-0.1-0.1-0.1-0.1-0.1-0.2c0-0.1,0-0.2,0-0.2
					s0-0.2,0-0.3c0-0.1,0-0.2,0.1-0.3c-0.1-0.1-0.1-0.2-0.1-0.4c0-0.2,0-0.3,0.1-0.4c0.1,0,0.2-0.1,0.3,0c0.1,0,0.2,0,0.4,0
					c0.2,0,0.4-0.1,0.5-0.1c0.2-0.1,0.4-0.1,0.5-0.1c0.1,0,0.2,0,0.3,0c0.1,0,0.2,0,0.3,0c0.1,0,0.2-0.1,0.4-0.1c0.1,0,0.2,0,0.4,0
					c0.1,0,0.1,0,0.1,0l0,0c0,0,0.1,0,0.1,0s0.1,0,0.1,0c0.2,0,0.4,0.1,0.6,0.1c0.2,0.1,0.4,0.1,0.5,0.2c0.1,0,0.1,0.1,0.1,0.1h0.1
					c0.1,0,0.2,0.1,0.2,0.1c0.1,0,0.1,0.1,0.1,0.1c0.1,0.1,0.2,0.1,0.3,0.1c0.1,0.1,0.1,0.1,0.2,0.1c0.1,0.1,0.1,0.1,0.1,0.1
					c0.1,0,0.1,0.1,0.1,0.1l0.1,0.1l0.1,0.1c0.1,0.1,0.1,0.1,0.2,0.1c0.1,0.1,0.1,0.1,0.2,0.1c0,0,0.1,0.1,0.1,0.1s0.1,0.1,0.1,0.1
					c0.1,0.1,0.1,0.1,0.1,0.1h0.1c0.1,0.1,0.1,0.1,0.1,0.2c0.1,0.1,0.1,0.1,0.1,0.2c0.1,0.1,0.1,0.1,0.1,0.2l0.1,0.1
					c0.1,0.1,0.1,0.2,0.1,0.2s0,0.1,0.1,0.2c0,0.1,0.1,0.1,0.1,0.1c0,0.1,0,0.1,0.1,0.1c0,0.1,0,0.1,0,0.2s0,0.1,0,0.2
					s0,0.1,0.1,0.2C191.4,215.6,191.5,215.4,191.5,215.5z M189.6,215.4c0-0.1,0-0.2-0.1-0.3s-0.1-0.2-0.1-0.2c0-0.1-0.1-0.1-0.1-0.1
					s-0.1-0.1-0.1-0.1c-0.1-0.1-0.1-0.1-0.2-0.2c-0.1-0.1-0.1-0.1-0.1-0.2c-0.1-0.1-0.1-0.1-0.1-0.2c-0.1,0-0.1,0-0.2-0.1
					c-0.1-0.1-0.1-0.1-0.2,0c-0.1-0.1-0.1-0.1-0.2-0.1c-0.1,0-0.1-0.1-0.2-0.1c-0.1-0.1-0.2-0.1-0.3-0.1c-0.1,0-0.1,0-0.2,0h-0.5
					c-0.1,0-0.1,0-0.2,0s-0.1,0-0.2,0s-0.1,0-0.1,0c-0.1,0-0.1,0-0.1,0c-0.1,0-0.2,0-0.3,0s-0.1,0-0.2,0c-0.1,0.1-0.1,0.1-0.2,0.1
					c-0.1,0-0.2,0.1-0.2,0.1c0,0.2,0.1,0.5,0.1,0.9c0,0.3,0,0.5,0.1,0.9c0,0.1,0,0.1,0,0.1c0,0.1,0,0.1,0,0.1c0,0.1,0,0.2,0,0.3
					c0,0.1,0,0.1,0,0.2c0,0,0,0.1,0.1,0.1c0,0,0,0.1,0.1,0.1c0,0.1,0,0.1,0,0.1s0,0.1,0,0.1c0,0.1,0.1,0.1,0.1,0.1
					c0,0.1,0,0.1,0,0.1s0,0.1,0.1,0.1c0,0,0,0.1,0,0.1c0,0.1,0,0.2,0.1,0.2c0.1,0,0.2,0,0.4,0c0.1,0,0.2-0.1,0.2-0.1
					c0.1,0,0.2-0.1,0.2-0.1c0.1,0,0.1-0.1,0.1-0.1s0.1,0,0.2,0c0.1,0,0.1,0,0.2,0c0.1-0.1,0.2-0.1,0.2-0.1c0.1,0,0.1,0,0.2,0
					c0.1,0,0.2-0.1,0.2-0.1s0.1-0.1,0.2-0.1h0.1h0.1c0.1,0,0.1-0.1,0.2-0.1s0.1,0,0.1,0c0.1,0,0.1-0.1,0.2-0.1
					c0.1-0.1,0.1-0.1,0.1-0.1c0.1-0.1,0.1-0.1,0.1-0.1s0-0.1,0.1-0.1h0.1c0.1,0,0.1,0,0.1,0c0-0.1,0.1-0.1,0.1-0.2
					c0.1-0.1,0.1-0.1,0.1-0.2c0-0.1,0-0.2,0.1-0.2C189.6,215.6,189.6,215.5,189.6,215.4z"/>
				<path class="st1" d="M199.6,212.5c0,0,0.1,0.1,0.1,0.1c0,0.1,0.1,0.1,0.1,0.1c0,0.1,0,0.1,0,0.1c0,0.1-0.1,0.1-0.1,0.1
					c0.1,0.1,0.1,0.1,0,0.1c0,0.1,0,0.1,0,0.1c0,0.1,0,0.2,0,0.3c0,0.1,0,0.2,0,0.3c0,0.1,0,0.1-0.1,0.1c0,0.1-0.1,0.1-0.1,0.1
					c0,0.1-0.1,0.1-0.1,0.1c0,0.1-0.1,0.1-0.1,0.1c-0.1,0.1-0.2,0.1-0.3,0c-0.1-0.1-0.2-0.1-0.3,0c-0.1-0.1-0.2-0.1-0.2-0.1
					c-0.1,0-0.2,0-0.2-0.1c-0.1,0-0.2,0.1-0.2,0c-0.1,0-0.2-0.1-0.3-0.1h-0.1h-0.1c-0.1,0-0.1,0-0.1-0.1c-0.1,0-0.1-0.1-0.1-0.1
					c-0.1,0-0.1,0-0.1,0c-0.1,0-0.1,0-0.1,0h-0.2c-0.1,0-0.3-0.1-0.4-0.1c-0.1,0-0.3,0-0.5-0.1c-0.1,0-0.3,0-0.5,0s-0.3,0-0.5,0
					c-0.1,0.1-0.1,0.2-0.1,0.3c0,0.1,0,0.2,0.1,0.3c0,0.1,0,0.2,0,0.3c0,0.1,0,0.2,0,0.3c0,0,0,0.1,0,0.1s0,0.1,0,0.1
					c0,0.1,0,0.1,0,0.2c0,0.1,0,0.2,0,0.2c0,0.1,0,0.1,0,0.2s0,0.1,0,0.2c0.1,0,0.2,0.1,0.3,0.1c0.1,0,0.1,0,0.2,0
					c0.1,0,0.1,0,0.2,0c0.1,0,0.2,0,0.3,0c0.1,0,0.2,0,0.3,0c0.2,0,0.4,0,0.5,0c0.2,0,0.4,0,0.5,0c0.1,0,0.2,0,0.2-0.1
					c0.1,0,0.2,0,0.2,0.1c0.1,0,0.1,0,0.2,0s0.1,0,0.2,0c0.1,0,0.1,0,0.1,0c0,0,0.1,0,0.1,0c0.2,0,0.3,0,0.4,0c0.1,0,0.2,0,0.2,0
					s0.1,0,0.1,0c0.1,0,0.1,0,0.1,0s0.1,0,0.1,0.1s0,0.1,0.1,0.1c0.1,0.1,0.1,0.2,0.1,0.2s0,0.2,0,0.3c0,0.1,0,0.1,0,0.1
					c0,0.1,0,0.1,0,0.1c0,0.1,0,0.2,0,0.4c0,0.1,0.1,0.2,0.1,0.3s-0.1,0.1-0.1,0.2c0,0.1-0.1,0.1-0.1,0.1c-0.1,0-0.1,0-0.1,0h-0.1
					c-0.1,0-0.1,0-0.1,0c0,0-0.1-0.1-0.1-0.1c0,0-0.1-0.1-0.1,0c-0.1,0-0.1,0-0.1-0.1c-0.1,0.1-0.2,0.1-0.2,0.1
					c-0.1,0-0.1,0-0.1,0.1c-0.1-0.1-0.1-0.1-0.2-0.1c-0.1,0-0.1,0-0.2,0.1c-0.1,0-0.1-0.1-0.2-0.1c-0.1,0-0.1,0-0.2,0
					c-0.1,0-0.1,0-0.2,0c-0.1,0-0.1,0.1-0.2,0.1c-0.1,0-0.2-0.1-0.2,0c-0.1,0-0.2,0.1-0.2,0.1c-0.1,0-0.1,0-0.1-0.1
					s-0.1-0.1-0.1-0.1c-0.1,0-0.1,0.1-0.2,0.1c-0.1,0-0.1,0-0.2,0.1c-0.1-0.1-0.1-0.1-0.2-0.1c-0.1,0-0.2,0-0.2-0.1
					c0,0.1-0.1,0.1-0.1,0.1c-0.1,0-0.1,0-0.1,0c-0.1,0-0.1,0-0.1,0s-0.1,0-0.1,0c-0.1,0-0.1,0-0.2,0s-0.1,0-0.2,0
					c-0.1,0-0.1,0.1-0.1,0.1c0,0.1,0,0.1,0,0.2v0.1v0.1c0,0.1,0,0.1,0,0.1c0,0.1,0,0.1,0,0.1s0,0.2-0.1,0.2c0,0.1-0.1,0.2-0.1,0.2
					c-0.1,0.2-0.1,0.3-0.1,0.4c0,0.1,0,0.2-0.1,0.2c0,0.1,0.1,0.1,0.1,0.2c0,0.1,0,0.2,0,0.2s0,0.2,0,0.2c0,0.1,0,0.1,0,0.2
					c0,0.1,0,0.1,0,0.2v0.1v0.1c0,0.1,0,0.1,0,0.2c0,0.1,0,0.1,0,0.2c0.1,0.1,0.2,0.1,0.3,0.1s0.2,0,0.4,0c0.2,0,0.4,0,0.5-0.1
					c0.2,0,0.4,0,0.5,0c0.1,0,0.2,0,0.2,0c0.1,0,0.1,0,0.2,0c0.1,0,0.2-0.1,0.2-0.1c0.1,0,0.2,0,0.2,0c0.1,0,0.2,0,0.2,0
					c0.1,0,0.1,0,0.2,0c0.1,0,0.2,0,0.2,0s0.2,0,0.2,0c0.1,0,0.1,0,0.1,0s0.1,0,0.1,0c0.1,0,0.1,0,0.1,0h0.1c0.1,0,0.1,0,0.1,0h0.1
					c0.1,0,0.1,0,0.1,0c0.1,0,0.1,0,0.2,0c0,0,0.1,0.1,0.1,0.1c0,0.1,0,0.1,0.1,0.1c0,0.1,0,0.1,0,0.1l0.1,0.1c0,0.2,0,0.5,0,0.7
					c0,0.2-0.1,0.5-0.1,0.7l-0.1,0.1c0,0-0.1,0.1-0.1,0.1c0,0-0.1,0.1-0.1,0.1s-0.1,0-0.1,0c-0.1,0-0.1,0-0.1,0s-0.1,0-0.1-0.1
					c-0.1,0-0.1,0-0.1,0c-0.1,0-0.1,0-0.2,0c-0.1,0-0.2,0-0.2,0c-0.1,0-0.2,0-0.3,0c-0.1,0-0.2,0-0.3,0c-0.1,0-0.2,0-0.2-0.1
					c-0.1,0-0.1,0-0.1,0c0,0-0.1,0.1-0.1,0.1c-0.1,0-0.2-0.1-0.3-0.1c-0.1,0-0.2,0-0.4,0c-0.1,0-0.2,0-0.2,0s-0.2,0-0.3,0
					c-0.1,0-0.2,0-0.2,0c-0.1,0-0.2,0-0.2,0s-0.2,0-0.2,0c-0.1,0-0.2,0-0.2,0c-0.1,0-0.1,0-0.1,0c-0.1,0-0.1,0-0.1,0
					c-0.1,0-0.1,0-0.1,0c-0.1,0-0.1,0-0.1,0s-0.2-0.1-0.2-0.1s-0.2-0.1-0.2-0.1c-0.1,0-0.1,0-0.1,0s-0.1,0-0.1,0c-0.1,0-0.1,0-0.1,0
					h-0.1c-0.1,0-0.1,0-0.2,0.1c-0.1,0-0.1,0-0.2,0c-0.1-0.1-0.1-0.1-0.1-0.1c0-0.1,0-0.1-0.1-0.1c0,0,0-0.1-0.1-0.1
					c0-0.1,0-0.1,0-0.1s0-0.1,0-0.1c0-0.1,0-0.1,0-0.1c0-0.1,0-0.1-0.1-0.1c0-0.1-0.1-0.1-0.1-0.1c0-0.1,0-0.2,0-0.3
					c0-0.1,0-0.2,0-0.3c0-0.1,0-0.2,0-0.2c0-0.1,0-0.1,0-0.1v-0.1v-0.1c0-0.1,0-0.1,0-0.1v-0.1c0-0.1-0.1-0.2-0.1-0.2
					c-0.1-0.1-0.1-0.2,0-0.2c0-0.1,0-0.1,0-0.1v-0.1c0-0.1,0-0.1,0-0.2c0-0.1,0.1-0.1,0.1-0.2c0-0.1,0-0.1,0-0.1c0-0.1,0-0.1,0-0.1
					s0-0.1,0-0.1v-0.1c0-0.1,0-0.1,0-0.1s0-0.1,0-0.1c0-0.1,0-0.2,0-0.2s0-0.1-0.1-0.2c0.1-0.1,0.1-0.2,0.1-0.3
					c0-0.1-0.1-0.2-0.1-0.4c0-0.1,0-0.1,0-0.1c0-0.1,0-0.1,0-0.1c0-0.1,0-0.1,0-0.1s0-0.1,0-0.1c0-0.1,0-0.1,0-0.2
					c0-0.1,0-0.1,0-0.2v-0.1v-0.1c0,0,0-0.1,0-0.1s0-0.1,0-0.1c0-0.1,0-0.1,0.1-0.2c0-0.1-0.1-0.1-0.1-0.1c0,0,0-0.1,0.1-0.1
					c-0.1-0.1-0.1-0.2-0.1-0.2v-0.1c0-0.1,0-0.2,0-0.3c0-0.1,0-0.2,0-0.2c0,0,0-0.1,0-0.1c0-0.1,0-0.1,0-0.1s0-0.1,0-0.1
					c0,0,0-0.1,0-0.1c0.1-0.2,0.1-0.3,0.1-0.4c0-0.1,0-0.2,0.1-0.2c-0.1-0.1-0.1-0.3-0.1-0.5c0.1-0.2,0.1-0.4,0.1-0.5
					c0-0.1,0-0.2,0-0.4c0-0.1,0-0.3,0-0.4c0-0.1,0-0.2,0-0.2c0-0.1,0-0.1,0-0.2s0-0.1,0-0.1c0-0.1,0.1-0.1,0.1-0.1
					c0-0.1,0.1-0.1,0.1-0.1s0.1-0.1,0.1-0.1c0.4,0.1,0.9,0.1,1.3,0.1c0.4-0.1,0.8-0.1,1.2,0c0.1,0,0.2,0.1,0.3,0.1
					c0.1,0,0.2,0.1,0.3,0.1s0.1,0,0.2,0c0.1,0,0.2,0,0.2-0.1c0.1,0,0.2,0,0.2,0c0.1,0,0.1,0,0.1,0c0.1,0,0.1,0,0.1,0
					c0.1,0,0.1,0,0.1,0s0.2,0,0.2,0s0.1,0,0.2,0c0.1,0,0.1,0,0.2,0c0.1,0,0.1,0,0.2,0c0.1,0,0.2,0,0.3,0.1c0.1,0,0.2,0.1,0.4,0.1
					c0.1,0,0.1,0,0.2,0c0.1,0,0.1,0,0.1,0c0.1,0,0.2,0,0.4,0C199.4,212.5,199.5,212.5,199.6,212.5z"/>
				<path class="st1" d="M212.1,212.3c0,0.1,0,0.2,0,0.4c0,0.2-0.1,0.3-0.1,0.4c0,0.2,0,0.4-0.1,0.6c-0.1,0.2-0.1,0.4-0.1,0.6
					c0,0.1,0,0.2,0,0.3c0,0.1,0,0.2,0,0.3c0,0.1-0.1,0.2-0.1,0.3c0,0.1,0,0.2,0,0.3c0,0.1,0,0.2-0.1,0.2c0,0.1-0.1,0.1-0.1,0.2
					c0,0.1,0,0.2,0,0.2c0,0.1,0,0.2,0,0.2c0,0.2,0,0.4,0,0.5s0,0.4,0,0.5c0,0.1,0,0.2,0,0.4c0,0.1,0,0.2,0,0.4c0,0.1,0,0.2,0,0.4
					c0,0.1,0,0.2,0,0.4c0,0.1,0,0.1,0,0.2s0,0.1,0,0.2s0,0.1,0,0.1s0,0.1,0,0.1c0,0.1,0,0.1,0,0.1c0,0.1,0,0.1-0.1,0.1
					c0,0.1-0.1,0.2-0.1,0.4c0,0.1,0,0.2-0.1,0.4c0,0,0,0.1,0,0.1c0,0.1-0.1,0.1-0.1,0.1c0,0.2,0,0.4-0.1,0.6c0,0.2,0,0.4-0.1,0.5
					c0,0.1,0,0.2,0,0.4c0,0.1,0,0.2,0,0.4c0,0.1,0,0.1-0.1,0.1c0,0.1-0.1,0.1-0.1,0.1s0,0.1,0,0.2c0,0.1,0,0.2,0,0.3
					c0,0.1,0,0.1,0,0.2c0,0.1,0,0.1-0.1,0.2c0,0.1-0.1,0.1-0.1,0.1c-0.1,0-0.2,0-0.2,0s-0.2,0-0.2,0c-0.1-0.1-0.1-0.1-0.2-0.1
					c-0.1,0-0.1-0.1-0.2-0.1c-0.1-0.1-0.1-0.1-0.1-0.1l-0.1-0.1c-0.1-0.1-0.1-0.1-0.2-0.2c0-0.1-0.1-0.1-0.1-0.1h-0.1l-0.1-0.1
					c0-0.1-0.1-0.1-0.1-0.1c-0.1,0-0.1-0.1-0.1-0.1c0,0-0.1-0.1-0.1-0.1s-0.1-0.1-0.1,0c0-0.1,0-0.1,0-0.1s0-0.1,0-0.1
					c-0.1,0-0.1-0.1-0.1-0.1s-0.1,0-0.1-0.1l-0.1-0.1c0-0.1-0.1-0.1-0.1-0.1c0,0-0.1-0.1-0.1-0.1c-0.1-0.1-0.1-0.1-0.1-0.1
					c-0.1-0.1-0.1-0.1-0.1-0.1v-0.1c-0.1-0.1-0.1-0.1-0.1-0.1c-0.1,0-0.1-0.1-0.1-0.1c0-0.1-0.1-0.1-0.1-0.1c0-0.1-0.1-0.1-0.1-0.1
					c0-0.1-0.1-0.1-0.1-0.1s0-0.1-0.1-0.1c-0.1-0.1-0.1-0.1-0.1-0.1v-0.1c-0.1-0.1-0.1-0.1-0.1-0.2c0-0.1-0.1-0.1-0.1-0.1
					c-0.1-0.1-0.1-0.1-0.1-0.1l-0.1-0.1c0-0.1-0.1-0.1-0.1-0.2c0-0.1,0-0.1-0.1-0.2c0-0.1-0.1-0.1-0.1-0.1c-0.1-0.1-0.1-0.1-0.1-0.1
					c0,0-0.1-0.1-0.1-0.1s-0.1-0.1-0.1-0.1c-0.1-0.1-0.1-0.1-0.1-0.1s-0.1,0-0.1-0.1c-0.1-0.1-0.1-0.1-0.1-0.2
					c0-0.1-0.1-0.1-0.1-0.1c-0.1-0.1-0.1-0.1-0.1-0.1c0-0.1-0.1-0.1-0.1-0.1c-0.1-0.1-0.1-0.2-0.2-0.2c-0.1-0.1-0.1-0.1-0.1-0.2
					c-0.1-0.1-0.1-0.1-0.2-0.1c-0.1-0.1-0.1-0.1-0.1-0.2c-0.1-0.1-0.1-0.1-0.1-0.1c-0.1,0-0.1,0-0.1-0.1c0-0.1-0.1-0.1-0.1-0.1
					c-0.1,0-0.1-0.1-0.1-0.1h-0.1l-0.1-0.1c-0.1,0-0.1-0.1-0.1-0.1l-0.1-0.1c0-0.1-0.1-0.1-0.1-0.1l-0.1-0.1l-0.1-0.1
					c-0.1-0.1-0.1-0.2-0.1-0.2c0-0.1-0.1-0.1-0.1-0.1c0-0.1,0-0.1-0.1-0.2c0-0.1-0.1-0.1-0.1-0.1c-0.1-0.1-0.1-0.1-0.1-0.2l-0.1-0.1
					c-0.1-0.1-0.1-0.1-0.1-0.1v-0.1c-0.1-0.1-0.1-0.1-0.1-0.2l-0.1-0.1c-0.1-0.1-0.1-0.1-0.1-0.2l-0.1-0.1c-0.1,0.5-0.2,1-0.2,1.5
					s-0.1,1.1-0.1,1.7c0,0.1,0,0.2,0,0.3c0,0.1,0,0.2,0,0.3v0.1v0.1c0,0.1,0,0.2,0,0.2c0,0.1,0,0.2,0,0.2c0,0.1,0,0.2,0,0.3
					c0,0.1,0,0.3,0,0.4c0,0.1,0,0.2,0,0.3c0,0.1,0.1,0.2,0.1,0.3c0,0.1,0.1,0.2,0.1,0.3c0,0.1,0.1,0.2,0,0.3c0,0.1,0,0.2-0.1,0.2
					c-0.1,0.1-0.1,0.1,0,0.2c-0.1,0.1-0.1,0.1-0.1,0.2c-0.1,0.1-0.1,0.1-0.1,0.1c-0.1,0-0.1,0-0.1,0c-0.1,0-0.1-0.1-0.1-0.1
					c-0.1,0-0.1,0-0.1,0h-0.1c-0.1,0-0.1,0-0.2,0c-0.1,0-0.1,0-0.2-0.1c-0.1,0-0.1,0-0.1,0h-0.1c-0.1,0-0.1,0-0.1,0
					c-0.1,0-0.1,0-0.1,0c0,0-0.1,0-0.1,0c-0.1,0-0.1,0-0.2,0c-0.1-0.1-0.1-0.1-0.1-0.1c-0.1-0.1-0.1-0.2-0.1-0.2
					c0-0.1-0.1-0.1-0.1-0.2v-0.1v-0.1c0-0.1,0-0.1,0-0.1v-0.1c0-0.1,0-0.1,0-0.1c0-0.1,0-0.1,0-0.1s0-0.2,0-0.2c0-0.1,0-0.2,0-0.3
					v-0.1v-0.1c0-0.1,0.1-0.3,0.1-0.4c0.1-0.1,0.1-0.3,0-0.5c0-0.1,0-0.1,0-0.1c0-0.1,0-0.1,0-0.1c0-0.1,0-0.2,0-0.2
					c0-0.1,0-0.2,0.1-0.2c0-0.1,0-0.1,0-0.1V220v-0.1l0.1-0.1c0-0.1,0-0.2,0-0.3c0-0.1,0.1-0.2,0.1-0.4c0-0.1,0-0.2,0-0.4
					c0-0.1,0.1-0.2,0.1-0.2s0-0.2,0-0.2s0-0.1,0.1-0.2v-0.7c0-0.1,0-0.2,0-0.2s0-0.1,0-0.1c0-0.1,0-0.1,0-0.2c0-0.1,0-0.1,0-0.2
					c0-0.1,0-0.1,0-0.1c0,0,0-0.1-0.1-0.1c0-0.2,0-0.4,0.1-0.5c0-0.1,0-0.2,0-0.4c0-0.1,0-0.1,0-0.1v-0.1c0-0.1,0-0.2,0-0.2
					c0-0.1,0-0.1,0-0.1c0-0.1,0-0.1,0-0.1s0-0.1-0.1-0.1c0,0,0-0.1,0-0.1s0-0.1-0.1-0.1c0-0.1,0.1-0.2,0-0.2c0-0.1,0-0.1,0-0.1
					s0-0.1,0-0.1v-0.1c0-0.1,0-0.1,0-0.1v-0.1c0-0.1,0-0.1,0-0.1c0-0.1,0-0.1,0-0.1c0,0,0-0.1,0-0.1c0-0.1,0-0.1,0-0.1s0-0.1,0-0.2
					c0-0.1,0-0.1,0-0.2c0-0.1,0-0.1,0-0.1c0-0.1,0-0.1,0-0.1c0-0.1,0-0.2,0-0.3c0-0.1,0-0.2,0-0.2s0.1-0.1,0.2-0.2
					c0.1-0.1,0.2,0,0.3,0.1c0.1,0,0.2,0,0.2,0.1c0.1,0,0.1,0.1,0.1,0.2c0.1,0,0.1,0,0.1,0.1c0,0.1,0.1,0.1,0.1,0.1
					c0.1,0.1,0.2,0.1,0.2,0.1c0.1,0.1,0.1,0.1,0.2,0.2c0.1,0,0.1,0.1,0.1,0.1c0.1,0.1,0.1,0.1,0.1,0.1s0,0.1,0.1,0.1
					c0,0,0.1,0.1,0.1,0.1c0.1,0.1,0.1,0.1,0.1,0.1c0.1,0.1,0.1,0.1,0.2,0.2c0.1,0.1,0.1,0.1,0.2,0.2c0,0,0.1,0.1,0.1,0.1
					c0,0.1,0.1,0.1,0.1,0.1c0.1,0.1,0.1,0.2,0.2,0.2c0.1,0.1,0.2,0.2,0.2,0.3c0,0.1,0.1,0.1,0.1,0.1c0,0.1,0.1,0.1,0.1,0.1
					c0,0.1,0.1,0.2,0.2,0.2c0,0.1,0.1,0.2,0.1,0.2c0.1,0.1,0.1,0.1,0.1,0.2c0.1,0.1,0.1,0.1,0.2,0.2c0.1,0.1,0.1,0.1,0.2,0.2
					l0.1,0.1l0.1,0.1c0.1,0.1,0.1,0.1,0.1,0.1c0,0.1,0,0.1,0.1,0.1c0,0.1,0.1,0.1,0.1,0.1s0.1,0.1,0.1,0.1c0.1,0.1,0.2,0.3,0.2,0.4
					c0.1,0.1,0.1,0.2,0.2,0.3c0.1,0.1,0.1,0.1,0.1,0.2c0,0.1,0.1,0.1,0.1,0.1c0.1,0.1,0.1,0.2,0.2,0.2c0.1,0.1,0.1,0.1,0.1,0.2
					c0.1,0.1,0.1,0.1,0.1,0.2c0.1,0.1,0.1,0.1,0.1,0.1v0.1c0.1,0.1,0.1,0.1,0.1,0.1c0,0,0,0,0,0.1c0.1,0.1,0.2,0.2,0.3,0.4
					c0.1,0.1,0.2,0.2,0.4,0.4c0.1,0.1,0.1,0.1,0.2,0.2c0.1,0.1,0.1,0.1,0.2,0.2c0.1,0.1,0.1,0.1,0.1,0.1s0,0.1,0.1,0.1
					c0.1,0.1,0.1,0.2,0.2,0.2c0.1,0.1,0.2,0.2,0.3,0.2c0-0.1,0-0.1,0-0.2s0-0.1,0-0.2c0-0.1,0-0.1,0-0.1c0-0.1,0-0.1,0.1-0.1
					c0-0.1-0.1-0.1-0.1-0.2c0-0.1,0-0.2,0.1-0.2c0-0.1-0.1-0.2,0-0.2c0-0.1,0-0.1,0-0.1s0-0.1,0-0.1c0,0,0-0.1,0-0.1s0-0.2,0-0.2
					s0.1-0.2,0.1-0.3c0-0.2,0-0.4,0-0.5s0-0.4,0.1-0.5v-0.1c0-0.1,0.1-0.1,0.1-0.1c0-0.1,0-0.1,0-0.2c0-0.1,0-0.1,0-0.1
					c0-0.1,0-0.1,0-0.2s0-0.2,0-0.3c0-0.1,0-0.2,0-0.2c0-0.1,0.1-0.1,0.1-0.2c0-0.1,0-0.1,0-0.2c0-0.1,0-0.1,0-0.2c0,0,0-0.1,0-0.1
					c0-0.1,0-0.1,0-0.1s0-0.1,0-0.2c0-0.1,0.1-0.1,0.1-0.2c0-0.1,0-0.1,0-0.2c0-0.1,0-0.1,0.1-0.2c0-0.1-0.1-0.1-0.1-0.1
					c0,0,0-0.1-0.1-0.1c0.1-0.2,0.1-0.3,0.1-0.4c0-0.1,0-0.3,0-0.5c0-0.1,0-0.1,0-0.1v-0.1c0-0.1,0-0.1,0-0.1c0-0.1,0-0.1,0-0.1
					s0.1-0.1,0.1-0.2c0.1-0.1,0.1-0.1,0.2-0.1c0.1,0,0.1,0,0.1,0c0.1,0,0.1,0.1,0.1,0.1c0.1,0,0.2,0,0.4-0.1
					c0.1-0.1,0.2-0.1,0.4-0.1c0.1,0,0.2,0,0.4,0c0.2,0,0.3,0,0.4,0c0.1,0,0.2,0.1,0.4,0.1c0.1,0,0.1,0.1,0.1,0.1
					C212,212.2,212,212.3,212.1,212.3z"/>
			</g>
			<g>
				<rect x="157.8" y="267.3" class="st7" width="65.6" height="6"/>
			</g>
		</g>
		<g>
			<g>
				<path class="st4" d="M160,168.3c0,0,0.1,0.1,0.4,0.3s0.6,0.5,1,0.9c0.9,0.8,2.2,2,3.8,3.4h-0.1c6.1,0,15.9-0.1,27-0.1
					c10.5,0,19.8,0.1,26,0.1l-0.1,0.1c1.6-1.8,3-3.2,3.9-4.3c0.4-0.5,0.8-0.9,1-1.1c0.1-0.1,0.2-0.2,0.3-0.3
					c0.1-0.1,0.1-0.1,0.1-0.1c0,0,0,0.1-0.1,0.1c-0.1,0.1-0.2,0.2-0.2,0.3c-0.2,0.3-0.6,0.7-1,1.2c-0.9,1-2.2,2.5-3.8,4.3l-0.1,0.1
					h-0.1c-6.1,0-15.5,0.1-26,0.1c-11,0-20.8-0.1-27-0.1h-0.1l0,0c-1.6-1.5-2.9-2.6-3.7-3.4c-0.4-0.4-0.7-0.7-1-0.9
					C160,168.4,159.9,168.3,160,168.3z"/>
			</g>
		</g>
		<g>
			<g>
				<path class="st4" d="M160.2,285.2c-0.1,0,0.2-7.4,0.6-16.7c0.4-9.2,0.9-16.7,1-16.6c0.1,0-0.2,7.4-0.6,16.7
					C160.8,277.8,160.3,285.2,160.2,285.2z"/>
			</g>
		</g>
		<g>
			<g>
				<path class="st4" d="M222.4,285.2c-0.1,0-0.5-7.4-0.9-16.5s-0.6-16.5-0.5-16.5c0.1,0,0.5,7.4,0.9,16.5
					C222.2,277.8,222.4,285.2,222.4,285.2z"/>
			</g>
		</g>
		<g>
			<g>
				<path class="st1" d="M176.3,185c0.1,0,0.4,0.4,1,1.1c0.7,0.8,1.5,1.7,2.3,2.7c1.5,1.7,2.7,3.1,3.1,3.7l0.1,0.1h-0.1
					c-0.2-0.1-0.3-0.1-0.3-0.1s0.1,0,0.3-0.1l-0.1,0.1c-0.5-0.4-1.8-1.8-3.3-3.5c-0.9-1-1.7-2.1-2.3-2.8
					C176.6,185.5,176.3,185,176.3,185z"/>
			</g>
		</g>
		<g>
			<g>
				<path class="st1" d="M188.5,179.2c0.1,0,0.1,0.7,0.1,2c0.1,1.3,0.1,2.9,0.2,4.8c0.1,1.8,0.2,3.4,0.3,4.8c0.1,1.2,0.1,2,0.1,2
					s-0.2-0.7-0.3-2c-0.1-1.2-0.3-2.9-0.4-4.8c-0.1-1.8-0.1-3.5-0.1-4.8C188.4,180,188.5,179.2,188.5,179.2z"/>
			</g>
		</g>
		<g>
			<g>
				<path class="st1" d="M203.9,181.9c0.1,0-0.4,0.6-1,1.5c-0.7,1-1.5,2.3-2.4,3.6c-0.9,1.3-1.8,2.6-2.4,3.6c-0.6,0.9-1,1.5-1,1.5
					c-0.1,0,0.3-0.6,0.9-1.6s1.4-2.3,2.4-3.7s1.8-2.7,2.6-3.5C203.4,182.4,203.8,181.9,203.9,181.9z"/>
			</g>
		</g>
		<g>
			<g>
				<path class="st1" d="M173.8,236.2c-0.1-0.1,0.4-0.4,1-1.1c0.7-0.7,1.7-1.5,2.8-2.4c1.1-0.9,2.2-1.6,2.9-2.2
					c0.8-0.5,1.3-0.9,1.3-0.8c0,0.1-0.4,0.4-1.2,1c-0.9,0.7-1.8,1.4-2.9,2.3c-1,0.9-2,1.6-2.9,2.3
					C174.3,235.9,173.8,236.3,173.8,236.2z"/>
			</g>
		</g>
		<g>
			<g>
				<path class="st1" d="M189.6,246.7c-0.1,0-0.2-3.8-0.2-8.5s0.1-8.5,0.2-8.5c0.1,0,0.2,3.8,0.2,8.5
					C189.8,242.9,189.7,246.7,189.6,246.7z"/>
			</g>
		</g>
		<g>
			<g>
				<path class="st1" d="M205.5,235.8c-0.1,0.1-1.8-1.4-3.8-3.3c-2.1-1.9-3.7-3.5-3.6-3.5s1.8,1.4,3.8,3.3
					C203.9,234.2,205.6,235.8,205.5,235.8z"/>
			</g>
		</g>
		<g>
			<g>
				<g>
					<g>
						<path class="st9" d="M181.9,182.9l-0.4,0.2l0.4,0.2c0.1,0.1,0.2,0.2,0.3,0.3l0.2,0.4l0.2-0.4c0.1-0.1,0.2-0.2,0.3-0.3l0.4-0.2
							l-0.4-0.2c-0.1-0.1-0.2-0.2-0.3-0.3l-0.2-0.4l-0.2,0.4C182.2,182.8,182.1,182.8,181.9,182.9z"/>
					</g>
				</g>
			</g>
		</g>
		<g>
			<g>
				<g>
					<g>
						<path class="st9" d="M207.3,229.7l-0.4,0.2l0.4,0.2c0.1,0.1,0.2,0.2,0.3,0.3l0.2,0.4l0.2-0.4c0.1-0.1,0.2-0.2,0.3-0.3l0.4-0.2
							l-0.4-0.2c-0.1-0.1-0.2-0.2-0.3-0.3l-0.2-0.4l-0.2,0.4C207.6,229.5,207.5,229.7,207.3,229.7z"/>
					</g>
				</g>
			</g>
		</g>
		<g>
			<g>
				<g>
					<g>
						<path class="st9" d="M205.2,189.4l-0.6,0.4l0.6,0.4c0.2,0.1,0.4,0.2,0.5,0.5l0.4,0.6l0.4-0.6c0.1-0.2,0.2-0.4,0.5-0.5l0.6-0.4
							l-0.6-0.4c-0.2-0.1-0.4-0.2-0.5-0.5l-0.4-0.6l-0.4,0.6C205.5,189.1,205.4,189.3,205.2,189.4z"/>
					</g>
				</g>
			</g>
		</g>
		<g>
			<g>
				<g>
					<g>
						<path class="st9" d="M183.5,235.5l-0.6,0.4l0.6,0.4c0.2,0.1,0.4,0.2,0.5,0.5l0.4,0.6l0.4-0.6c0.1-0.2,0.2-0.4,0.5-0.5l0.6-0.4
							l-0.6-0.4c-0.2-0.1-0.4-0.2-0.5-0.5l-0.4-0.6L184,235C183.9,235.2,183.7,235.4,183.5,235.5z"/>
					</g>
				</g>
			</g>
		</g>
		<g>
			<g>
				<g>
					<g>
						<path class="st9" d="M169.9,208.4l-0.6,0.4l0.6,0.4c0.2,0.1,0.4,0.2,0.5,0.5l0.4,0.6l0.4-0.6c0.1-0.2,0.2-0.4,0.5-0.5l0.6-0.4
							l-0.6-0.4c-0.2-0.1-0.4-0.2-0.5-0.5l-0.4-0.6l-0.4,0.6C170.2,208.1,170,208.2,169.9,208.4z"/>
					</g>
				</g>
			</g>
		</g>
	</g>
	<g>
		<g>
			<g>
				<g>
					<g>
						<g>
							<g>
								<g>
									<g>
										<g>
											<g>
												<g>
													<g>
														<path class="st1" d="M81.2,88.7l-5.7-1c-2.4,1.5-5.4,2.4-8.5,2.5c-9,0.1-16.3-7.1-16.4-16.1
															c-0.1-9,7.1-16.3,16.1-16.4c9-0.1,16.3,7.1,16.4,16.1c0.1,3.7-1.2,7.2-3.3,9.9l0,0L81.2,88.7z"/>
													</g>
													<g>
														<g>
															<path class="st4" d="M81.2,88.7c0,0,0-0.1-0.1-0.3c-0.1-0.2-0.1-0.5-0.2-1c-0.2-0.9-0.6-2.1-1-3.8
																c0-0.1-0.1-0.1-0.1-0.1l0,0l0,0l0.1,0.1c1.3-1.6,2.7-4.2,3.2-7.4c0.2-1.6,0.2-3.4-0.1-5.2c-0.3-1.8-1-3.8-2.1-5.6
																c-1.1-1.8-2.6-3.5-4.5-4.8c-1.8-1.3-4.1-2.4-6.5-2.8c-2.4-0.4-5-0.4-7.5,0.4c-0.6,0.1-1.2,0.4-1.8,0.6
																c-0.3,0.1-0.6,0.3-0.9,0.4c-0.3,0.1-0.6,0.3-0.9,0.4c-0.5,0.4-1.2,0.7-1.6,1.1l-0.8,0.6L55.6,62
																c-3.9,3.7-5.6,9-4.9,13.8c0.3,2.4,1.1,4.6,2.3,6.6c1.2,2,2.7,3.5,4.4,4.7c3.4,2.4,7.3,3.2,10.5,3.1
																c3.3-0.2,5.9-1.3,7.7-2.5h-0.1c1.9,0.3,3.3,0.5,4.3,0.7c0.5,0.1,0.9,0.1,1.1,0.2C81,88.7,81.2,88.7,81.2,88.7
																s-0.1-0.1-0.4-0.1c-0.2-0.1-0.6-0.1-1.1-0.2c-1-0.2-2.4-0.5-4.2-0.8h-0.1c-1.8,1.1-4.4,2.3-7.6,2.4
																c-3.2,0.2-7-0.6-10.4-3.1c-1.6-1.2-3.2-2.7-4.3-4.6c-1.2-1.9-2-4.1-2.3-6.5c-0.6-4.7,1-10,4.9-13.6l0.7-0.7l0.8-0.6
																c0.5-0.4,1.1-0.7,1.6-1.1c0.3-0.2,0.5-0.3,0.9-0.4c0.3-0.1,0.5-0.3,0.9-0.4c0.6-0.2,1.2-0.5,1.8-0.6
																c2.4-0.7,5-0.8,7.4-0.4c2.4,0.4,4.6,1.5,6.4,2.7c1.8,1.3,3.3,3,4.4,4.8c1.1,1.8,1.8,3.7,2.1,5.5
																c0.3,1.8,0.4,3.6,0.1,5.2c-0.5,3.2-1.8,5.7-3.1,7.4v0.1h0.1l0,0l-0.1-0.1c0.5,1.6,0.9,2.9,1.1,3.7
																c0.1,0.4,0.2,0.7,0.3,1C81.1,88.6,81.2,88.7,81.2,88.7z"/>
														</g>
													</g>
												</g>
											</g>
										</g>
									</g>
								</g>
							</g>
						</g>
					</g>
				</g>
			</g>
		</g>
		<g>
			<g>
				<g>
					<g>
						<g>
							<g>
								<g>
									<g>
										<polygon class="st7" points="59.2,74.4 61.4,71.8 66.3,75.7 73.4,67.5 75.7,69.8 66.1,80.3 										"/>
									</g>
								</g>
							</g>
						</g>
					</g>
				</g>
			</g>
		</g>
	</g>
	<g>
		<g>
			<g>
				<path class="st4" d="M78.8,133.5c1.5-3.8,2.5-7.8,3.1-11.8c0.5-4.5,0.5-9,1.9-13.2c1.3-4.3,4.5-8.4,8.9-9.2l3.8,1.4
					c0.1,13.4-1,26.8-3.5,40c-0.1,0.5-0.2,1-0.6,1.4c-0.5,0.4-1.2,0.4-1.9,0.4c-3.2-0.3-6.5-1.1-9.5-2.3c-0.9-0.4-1.9-0.8-2.4-1.6
					C77.4,137.1,78.1,135.1,78.8,133.5z"/>
			</g>
			<g>
				<g>
					<g>
						<g>
							<g>
								<g>
									<g>
										<path class="st4" d="M91.5,83.2c3-4,7.1-6.3,12-6.7c2.8-0.2,4,0.4,6,0.8c2,0.4,3.9,1.5,5.2,3.1c1.5,2,2.8,4.2,3.2,6.6
											c0.4,2.5,0.8,5.1,0.7,7.6c-0.1,2.6-0.7,5.1-2.1,7.3l-6.4,1.4c-3.5,0.3-7.1,0.5-10.6-0.1c-3.5-0.7-7-2.4-8.9-5.3
											C87.8,93.7,88.6,87.1,91.5,83.2z"/>
									</g>
								</g>
								<g>
									<g>
										<path class="st11" d="M97.3,82.9l8.4-3.8l2.3,0.2c5.1-0.2,8.8,5.2,9,9.3c0.2,4.5,0.4,10.1-0.2,13.5
											c-1.2,6.8-6.9,7.6-6.9,7.6l0.1,5.7l2.9,1.5l-0.5,15.7l-10.5,1.6l-5.2-19.2l-0.1-4.9L95,85.4C95.1,84,96.1,83,97.3,82.9z"
											/>
									</g>
								</g>
								<g>
									<g>
										<path class="st12" d="M109.9,109.6c0,0-4.6,0.2-9.1-2.5c0,0,2.4,4.8,9.2,4.2L109.9,109.6z"/>
									</g>
								</g>
								<g>
									<g>
										<path class="st11" d="M96.8,96.7c0-0.5-0.5-1.7-1.1-1.8c-1.3-0.2-3.7-0.1-3.8,3.2c-0.1,4.6,4.6,3.8,4.6,3.6
											C96.5,101.6,96.8,98.4,96.8,96.7z"/>
									</g>
								</g>
								<g>
									<g>
										<path class="st12" d="M95.3,100c0,0-0.1,0.1-0.2,0.1c-0.1,0.1-0.4,0.1-0.6,0c-0.5-0.2-0.9-1-0.9-1.8
											c0-0.4,0.1-0.8,0.2-1.2c0.1-0.4,0.4-0.5,0.6-0.6c0.2-0.1,0.4,0.1,0.5,0.2s0,0.2,0.1,0.2c0,0,0.1-0.1,0.1-0.2
											c0-0.1-0.1-0.2-0.2-0.3c-0.1-0.1-0.2-0.1-0.4-0.1c-0.4,0-0.7,0.4-0.9,0.7c-0.2,0.4-0.3,0.8-0.3,1.3c0,0.9,0.5,1.8,1.2,2
											c0.3,0.1,0.6,0,0.7-0.1C95.3,100.1,95.3,100,95.3,100z"/>
									</g>
								</g>
								<g>
									<g>
										<path class="st4" d="M95.5,94.9l1.2,1.2c4.9-5.1,14.2-17.7,13.7-16.9c0,0-3.5-1.3-7.3-0.5c-3.7,0.8-10.8,3-10.5,7.4
											C93,90.6,95.5,94.9,95.5,94.9z"/>
									</g>
								</g>
							</g>
						</g>
					</g>
				</g>
			</g>
		</g>
		<g>
			<g>
				<g>
					<path class="st4" d="M122.1,162.3c0.4,0.4,6.3,13.7,5.9,22.9c-0.4,9.2-5.9,41.3-5.9,41.3l-8.9,49.7h-12.9c0,0,0-31.7,1.2-40.5
						c1.2-8.7,2.5-13.5,2.9-19.8c0.4-6.4,0.5-19.8,0.9-19.3c0.4,0.5-29.8,77.8-29.8,77.8l-12.7-0.9c0,0,4.6-26.6,5.6-31.6
						s4.8-20.4,7.7-28.3c2.9-7.8,3.9-27.3,7.9-35.6c4-8.4,4-11,4-11L122.1,162.3z"/>
				</g>
			</g>
			<g>
				<g>
					<g>
						<g>
							<g>
								<g>
									<g>
										<g>
											<g>
												<g>
													<g>
														<g>
															<g>
																<g>
																	<g>
																		<path class="st4" d="M112.5,265.1l-0.7,12.3c0,0,12.3,4.8,12.4,7.1l-24-0.4l0.2-19.3L112.5,265.1z"/>
																	</g>
																</g>
															</g>
														</g>
													</g>
												</g>
											</g>
										</g>
									</g>
								</g>
							</g>
						</g>
					</g>
					<g>
						<g>
							<g>
								<g>
									<g>
										<g>
											<g>
												<g>
													<g>
														<g>
															<g>
																<g>
																	<g>
																		<path class="st5" d="M100.2,284.1v-1.9l23,1.1c0,0,1,0.5,0.9,1.2L100.2,284.1z"/>
																	</g>
																</g>
															</g>
														</g>
													</g>
												</g>
											</g>
										</g>
									</g>
								</g>
							</g>
						</g>
					</g>
					<g>
						<g>
							<g>
								<g>
									<g>
										<g>
											<g>
												<g>
													<g>
														<g>
															<g>
																<g>
																	<g>
																		<g>
																			<path class="st1" d="M112.2,277.3c0,0.1-0.6,0.2-1.2,0.5c-0.6,0.4-0.9,0.9-1,0.8c-0.1,0,0.1-0.7,0.8-1.2
																				C111.5,277,112.2,277.2,112.2,277.3z"/>
																		</g>
																	</g>
																</g>
															</g>
														</g>
													</g>
												</g>
											</g>
										</g>
									</g>
								</g>
							</g>
						</g>
					</g>
					<g>
						<g>
							<g>
								<g>
									<g>
										<g>
											<g>
												<g>
													<g>
														<g>
															<g>
																<g>
																	<g>
																		<g>
																			<path class="st1" d="M114.7,278.4c0,0.1-0.5,0.3-0.9,0.8c-0.4,0.5-0.5,1-0.7,1c-0.1,0-0.2-0.7,0.4-1.3
																				C114,278.3,114.7,278.3,114.7,278.4z"/>
																		</g>
																	</g>
																</g>
															</g>
														</g>
													</g>
												</g>
											</g>
										</g>
									</g>
								</g>
							</g>
						</g>
					</g>
					<g>
						<g>
							<g>
								<g>
									<g>
										<g>
											<g>
												<g>
													<g>
														<g>
															<g>
																<g>
																	<g>
																		<g>
																			<path class="st1" d="M116,281.4c-0.1,0-0.2-0.5,0.1-1.2c0.3-0.6,0.9-0.9,0.9-0.8c0.1,0.1-0.3,0.4-0.5,1
																				C116.2,280.9,116.1,281.4,116,281.4z"/>
																		</g>
																	</g>
																</g>
															</g>
														</g>
													</g>
												</g>
											</g>
										</g>
									</g>
								</g>
							</g>
						</g>
					</g>
				</g>
			</g>
			<g>
				<g>
					<g>
						<g>
							<g>
								<g>
									<g>
										<g>
											<g>
												<g>
													<path class="st4" d="M66.9,263.5l-4,14.4l-6.5,10.5c-0.5,0.7-0.2,1.8,0.6,2.1l0,0c0.4,0.2,1,0.2,1.4,0
														c2.8-1.4,13.2-6.7,13.4-7.8c0.2-1.2,5.2-14.9,5.2-14.9L66.9,263.5z"/>
												</g>
											</g>
										</g>
									</g>
								</g>
							</g>
						</g>
					</g>
					<g>
						<g>
							<g>
								<g>
									<g>
										<g>
											<g>
												<g>
													<path class="st5" d="M57.1,290.6l15.1-8.7l-0.2,0.6c-0.2,0.5-0.5,1-1,1.3c-1.2,0.8-4.7,2.9-12.5,6.9
														C58,290.8,57.5,290.8,57.1,290.6L57.1,290.6z"/>
												</g>
											</g>
										</g>
									</g>
								</g>
							</g>
						</g>
					</g>
					<g>
						<g>
							<g>
								<g>
									<g>
										<g>
											<g>
												<g>
													<g>
														<path class="st1" d="M62.2,285.3c-0.1,0-0.2-0.9-0.9-1.5c-0.7-0.7-1.6-0.7-1.5-0.8c0-0.1,0.2-0.1,0.5-0.1
															c0.4,0.1,0.8,0.2,1.2,0.6c0.4,0.4,0.6,0.9,0.7,1.2C62.3,285.1,62.2,285.3,62.2,285.3z"/>
													</g>
												</g>
											</g>
										</g>
									</g>
								</g>
							</g>
						</g>
					</g>
					<g>
						<g>
							<g>
								<g>
									<g>
										<g>
											<g>
												<g>
													<g>
														<path class="st1" d="M60.6,286.9c-0.1,0.1-0.4-0.5-1.1-1c-0.7-0.4-1.3-0.5-1.3-0.6c0-0.1,0.7-0.2,1.5,0.3
															C60.5,286.1,60.7,286.9,60.6,286.9z"/>
													</g>
												</g>
											</g>
										</g>
									</g>
								</g>
							</g>
						</g>
					</g>
					<g>
						<g>
							<g>
								<g>
									<g>
										<g>
											<g>
												<g>
													<g>
														<path class="st1" d="M64.9,283.4c-0.1,0.1-0.5-0.9-1.6-1.6c-1-0.8-2-1-2-1.2c0-0.1,1.1,0.1,2.2,0.9
															C64.6,282.3,64.9,283.4,64.9,283.4z"/>
													</g>
												</g>
											</g>
										</g>
									</g>
								</g>
							</g>
						</g>
					</g>
					<g>
						<g>
							<g>
								<g>
									<g>
										<g>
											<g>
												<g>
													<g>
														<path class="st1" d="M66.5,279.2c-0.1,0.1-0.7-0.5-1.8-0.9c-1-0.4-1.9-0.4-1.9-0.4s0.9-0.2,2,0.1
															C65.9,278.4,66.5,279.1,66.5,279.2z"/>
													</g>
												</g>
											</g>
										</g>
									</g>
								</g>
							</g>
						</g>
					</g>
					<g>
						<g>
							<g>
								<g>
									<g>
										<g>
											<g>
												<g>
													<g>
														<path class="st1" d="M67.7,275.8c-0.1,0.1-0.7-0.7-1.8-0.9c-1.1-0.3-2,0-2-0.1c0-0.1,0.2-0.2,0.6-0.2
															c0.4-0.1,1-0.1,1.5,0.1c0.6,0.2,1.1,0.5,1.3,0.7C67.7,275.6,67.8,275.8,67.7,275.8z"/>
													</g>
												</g>
											</g>
										</g>
									</g>
								</g>
							</g>
						</g>
					</g>
				</g>
			</g>
		</g>
		<g>
			<g>
				<g>
					<path class="st11" d="M134.5,132.7l-9.6,11.4l-0.2-3.1l-10.6,2.3c0,0,2.7,15.4,4.9,16.5c2.2,1.2,3.8,1.6,9-5.1
						c5.2-6.7,10.9-17.9,10.9-17.9L134.5,132.7z"/>
				</g>
			</g>
			<g>
				<g>
					<path class="st11" d="M134.8,132.4c0,0,0.5-1.5,3.1-2c2.6-0.4,7.6,0.7,8.2,0.9c0.5,0.2,4.5-0.6,5.4,0.4c0.9,1,0.7,1.3,0.7,1.3
						l-10.7,1.8L134.8,132.4z"/>
				</g>
			</g>
			<g>
				<g>
					<path class="st11" d="M134.5,132.7c0,0,1.7-2.2,5.5-1.6c1.8,0.2,5.6,1.3,6.2,1.3c0.5,0,3.8-0.8,4.6-0.4
						c0.8,0.4,0.7,1.2,0.7,1.2s3-1.5,3.7-0.5l0.2,0.2c0,0,1.8-0.7,1.9,0.7l-2.7,1.5c0,0,2.6-0.9,2.7,1c0,0-4.7,1.6-5.4,1.5
						c-0.7-0.1-2.1-0.5-2.1-0.5s-2.4,0.4-3.6,0.2c-1.2-0.1-7.1-0.6-7.4-0.5C138.5,136.8,134.5,132.7,134.5,132.7z"/>
				</g>
			</g>
			<g>
				<g>
					<g>
						<path class="st12" d="M151.2,133.2c0,0.1,0.4-0.2,1.2-0.4c0.4-0.1,0.9-0.2,1.3-0.3c0.2-0.1,0.5-0.1,0.9,0
							c0.2,0.1,0.5,0.2,0.6,0.4v0.1l0,0c0.1,0.1,0.1,0.3-0.1,0.4c-0.1,0.1-0.4,0.2-0.5,0.3c-0.4,0.2-0.9,0.4-1.3,0.5
							c-0.9,0.4-1.8,0.7-2.6,1c-0.4,0.2-0.8,0.3-1.2,0.4s-0.7,0.1-1,0.2c-1.3,0.2-2.1,0.2-2.1,0.3c0,0,0.2,0,0.5,0s0.9-0.1,1.6-0.1
							c0.3-0.1,0.7-0.1,1.1-0.2c0.4-0.1,0.7-0.2,1.2-0.4c0.8-0.3,1.7-0.6,2.6-1c0.4-0.2,0.9-0.4,1.3-0.5c0.2-0.1,0.4-0.2,0.6-0.4
							c0.1-0.1,0.2-0.2,0.2-0.4c0-0.2-0.1-0.3-0.1-0.4v0.1c-0.1-0.4-0.5-0.5-0.9-0.6c-0.3-0.1-0.6,0-0.9,0c-0.5,0.1-1,0.2-1.4,0.4
							C151.6,132.9,151.2,133.2,151.2,133.2z"/>
					</g>
				</g>
			</g>
			<g>
				<g>
					<g>
						<path class="st12" d="M149.5,137.1c0,0.1,0.5,0.2,1.3-0.1c0.8-0.2,1.7-0.7,2.7-1.3c1-0.5,2-1,2.7-1.5c0.7-0.4,1.1-0.7,1-0.7
							c0-0.1-0.5,0.2-1.2,0.5c-0.7,0.4-1.6,0.9-2.7,1.3c-1,0.5-2,1.1-2.7,1.3C150,137.1,149.5,137,149.5,137.1z"/>
					</g>
				</g>
			</g>
			<g>
				<g>
					<g>
						<path class="st12" d="M135.6,132c0,0,0.3-0.2,0.9-0.4c0.5-0.2,1.5-0.5,2.6-0.5c1.1,0.1,2.4,0.4,3.8,0.7
							c0.7,0.2,1.5,0.4,2.3,0.5c0.4,0.1,0.8,0.2,1.2,0.2c0.4,0,0.9-0.1,1.3-0.2c0.8-0.2,1.6-0.3,2.4-0.3c0.4,0,0.8,0.1,1,0.2
							c0.3,0.2,0.3,0.5,0.1,0.8l0.1-0.1c-2.1,0.7-4,1.2-5.4,1.4c-0.7,0.1-1.2,0.2-1.6,0.2c-0.4,0.1-0.5,0.1-0.5,0.1s0.2,0,0.5,0
							c0.4-0.1,0.9-0.1,1.6-0.2c1.3-0.2,3.2-0.6,5.4-1.3h0.1v-0.1c0.1-0.2,0.2-0.4,0.1-0.6c0-0.2-0.2-0.4-0.4-0.5
							c-0.4-0.2-0.8-0.2-1.2-0.2c-0.8,0-1.6,0.1-2.4,0.3c-0.4,0.1-0.9,0.2-1.2,0.2c-0.4,0-0.8-0.1-1.2-0.2c-0.8-0.2-1.5-0.4-2.3-0.5
							c-1.5-0.3-2.7-0.6-3.9-0.7c-1.2,0-2,0.4-2.6,0.7c-0.3,0.1-0.5,0.3-0.6,0.4C135.7,131.9,135.6,132,135.6,132z"/>
					</g>
				</g>
			</g>
		</g>
		<g>
			<g>
				<g>
					<path class="st5" d="M126.8,140.9c0,0,0.4-15.6-1-19c-1.5-3.4-3.5-4.2-5.4-4.9s-9.9-3.2-9.9-3.2s-2.4,3.5-5.7,3.5
						c-5.4-0.1-7.8-4.9-7.8-4.9s-9.2,1.1-12.6,2.7l-2.6,19.7c0,0,4.6,29.8,6.7,32.3c2,2.6,16.9,8.2,24.3,6
						c7.3-2.3,12.9-7.9,10.7-9.9c-3-2.9-3.8-14.7-2.5-18.6C121,143.9,126.8,140.9,126.8,140.9z"/>
				</g>
			</g>
			<g>
				<g>
					<g>
						<path class="st4" d="M123.3,128.6c0,0-0.1,0.2-0.1,0.7c0,0.5-0.1,1-0.1,1.8c-0.1,1.5-0.2,3.5-0.5,5.7
							c-0.3,2.3-0.8,4.2-1.2,5.7c-0.4,1.4-0.7,2.3-0.6,2.3c0,0,0.1-0.2,0.2-0.6c0.2-0.4,0.4-1,0.5-1.6c0.4-1.4,0.9-3.4,1.3-5.7
							c0.3-2.3,0.4-4.3,0.4-5.8c0-0.7,0-1.3,0-1.8C123.3,128.9,123.3,128.6,123.3,128.6z"/>
					</g>
				</g>
			</g>
		</g>
		<g>
			<g>
				<path class="st7" d="M121.5,163.1l-4.2-33.4l-26.8,1.5l2.3,33.2l-5.2,1l-1.6,8l0.5,0.2l0,0c0,0-7.5,58.7-6.7,60.4
					c0.9,1.7,46.1,0.5,46.1,0.5s3.1-45,2.6-54.1c-0.5-9-4.3-15.3-4.3-15.3L121.5,163.1z"/>
			</g>
			<g>
				<path class="st7" d="M118.6,116.3c0,0,0.1,16.3-2,17c-2.8,1-2.6-2.2-2.6-4.8c0-2.6,0.9-13.7,0.9-13.7S117.2,115,118.6,116.3z"/>
			</g>
			<g>
				<path class="st7" d="M93.5,112.8c0,0,2.4,18.6,1.8,20.1c-0.7,1.4-2.9,1.5-3.4,0c-0.4-1.5-2.6-19.3-2.6-19.3
					S92.2,112.4,93.5,112.8z"/>
			</g>
			<g>
				<g>
					<path class="st4" d="M95.3,129.9c0.1,0,0.2,0.5,0.2,1.3c0,0.4,0.1,0.9-0.1,1.5c-0.1,0.5-0.4,1.2-1.2,1.5
						c-0.7,0.2-1.4-0.1-1.8-0.5c-0.4-0.4-0.6-0.9-0.7-1.3c-0.2-0.8-0.2-1.3-0.2-1.3c0.1,0,0.1,0.5,0.4,1.3c0.1,0.4,0.4,0.8,0.7,1.2
						c0.4,0.3,0.9,0.6,1.5,0.4c0.5-0.2,0.9-0.7,1-1.2c0.1-0.5,0.1-1,0.1-1.4C95.4,130.5,95.3,130,95.3,129.9z"/>
				</g>
			</g>
			<g>
				<g>
					<path class="st4" d="M117.9,130.5c0.1,0-0.1,0.4-0.4,1c-0.2,0.3-0.5,0.6-0.9,0.9c-0.4,0.2-1,0.4-1.5,0.2s-0.9-0.7-1.1-1.1
						s-0.2-0.9-0.2-1.2c0-0.7,0.1-1.1,0.2-1.1s0.1,0.4,0.1,1.1c0,0.3,0.1,0.7,0.2,1.1c0.2,0.4,0.5,0.7,0.9,0.9
						c0.4,0.1,0.9,0.1,1.3-0.1s0.7-0.4,0.9-0.7C117.7,130.8,117.8,130.5,117.9,130.5z"/>
				</g>
			</g>
			<g>
				<g>
					<path class="st4" d="M93.9,173.7c-0.1,0-0.2-0.5-0.3-1.3c-0.1-0.8-0.2-1.9-0.2-3.1c0-1.2,0.2-2.3,0.3-3.1
						c0.1-0.8,0.3-1.3,0.3-1.3c0.1,0-0.2,2-0.3,4.4C93.7,171.7,94,173.7,93.9,173.7z"/>
				</g>
			</g>
			<g>
				<g>
					<path class="st4" d="M99.4,178.8c-0.1,0-0.9-3.4-1.8-7.6c-0.9-4.2-1.6-7.6-1.5-7.6c0.1,0,0.9,3.4,1.8,7.6
						C98.7,175.3,99.4,178.8,99.4,178.8z"/>
				</g>
			</g>
			<g>
				<g>
					<path class="st4" d="M116.9,147.8c0,0,0,0.1,0.1,0.2c0,0.1,0.1,0.2,0.1,0.5c0.1,0.4,0.2,1.1-0.1,1.8c-0.2,0.4-0.4,0.8-0.9,1
						c-0.4,0.3-0.9,0.5-1.5,0.7c-1.1,0.3-2.4,0.5-3.8,0.8c-1.4,0.2-3,0.4-4.7,0.5c-0.9,0.1-1.7,0.1-2.6,0.1c-0.9,0-1.8-0.1-2.8-0.2
						c-0.9-0.2-2-0.5-2.7-1.3c-0.7-0.7-1.1-1.8-1.3-2.8c-0.2-1-0.3-2.1-0.4-3.2c-0.1-1-0.2-2.1-0.3-3.2l-0.1-0.8
						c0-0.2-0.1-0.5,0-0.9c0.1-0.5,0.4-1.1,0.9-1.5c0.4-0.4,1-0.6,1.5-0.6c0.5-0.1,1-0.1,1.5-0.2c2.1-0.2,4-0.5,5.9-0.7
						c1.9-0.2,3.7-0.4,5.4-0.4c0.9,0,1.6-0.1,2.4,0c0.4,0,0.8,0,1.2,0.2c0.4,0.1,0.7,0.5,0.7,0.9c0.1,0.4,0.1,0.7,0.2,1
						c0.1,0.4,0.1,0.7,0.1,1c0.1,0.6,0.2,1.2,0.2,1.8c0.2,1.1,0.3,2.1,0.4,2.9c0.1,0.8,0.2,1.4,0.2,1.8c0,0.2,0.1,0.4,0.1,0.5
						C117,147.7,117,147.8,116.9,147.8c0,0,0-0.1-0.1-0.2c0-0.1-0.1-0.3-0.1-0.5c-0.1-0.4-0.2-1-0.3-1.8c-0.1-0.8-0.3-1.8-0.5-2.9
						c-0.1-0.5-0.2-1.2-0.3-1.8c-0.1-0.6-0.2-1.3-0.4-2c-0.1-0.3-0.3-0.6-0.6-0.7c-0.3-0.1-0.7-0.1-1.1-0.1c-0.8,0-1.6,0-2.4,0.1
						c-1.7,0.1-3.5,0.2-5.4,0.4c-1.9,0.2-3.8,0.5-5.9,0.7c-0.5,0.1-1,0.1-1.5,0.2s-1,0.2-1.3,0.5c-0.4,0.3-0.6,0.8-0.7,1.3
						c-0.1,0.5,0.1,1,0.1,1.6c0.1,1.1,0.2,2.2,0.3,3.2c0.1,1,0.2,2.1,0.4,3.1s0.5,2,1.2,2.6c0.7,0.7,1.6,1,2.5,1.2
						c0.9,0.2,1.8,0.2,2.7,0.2c0.9,0,1.8,0,2.6-0.1c1.7-0.1,3.2-0.2,4.6-0.4c1.4-0.2,2.7-0.4,3.8-0.7c1.1-0.3,2-0.9,2.3-1.6
						c0.3-0.7,0.2-1.4,0.2-1.8C117,148.1,116.9,147.8,116.9,147.8z"/>
				</g>
			</g>
		</g>
		<g>
			<g>
				<g>
					<g>
						<g>
							<path class="st11" d="M83.7,124.8c0,0-0.7-10-2.7-7.8c-2,2.3-15,19.1-17.5,24.1c-2.4,4.9,1.4,8.6,1.4,8.6l19.5,16.7l4.3-4.6
								l-15.9-17.3l13-13.5L83.7,124.8z"/>
						</g>
					</g>
					<g>
						<g>
							<g>
								<path class="st12" d="M66.8,144.6c0,0.1,1.5-0.3,3.4-0.3c1.8,0,3.3,0.4,3.4,0.4c0-0.1-0.4-0.2-0.9-0.3
									c-0.6-0.1-1.5-0.3-2.4-0.3c-0.9,0-1.8,0.1-2.4,0.2C67.1,144.5,66.7,144.6,66.8,144.6z"/>
							</g>
						</g>
					</g>
				</g>
				<g>
					<g>
						<path class="st11" d="M88.2,162c1.7-0.4,6.4-5.4,8.1-6.5c1.6-1,4.6,0,4.6,0c-0.1,2-1.3,1-2.4,1.2c-1.1,0.2-2.5,1.3-2.5,1.3
							l2.1,0.2l4,1.8c0,0,0,1.1-1.2,1.8s-4.3-0.4-4.3-0.4l-1.8,0.5l1.9,0.4c0,0,2.5,0.4,3.1,1c0.6,0.6,0.1,1.2,0.1,1.2l-3.8-0.9
							l-2.3,0.4c0,0-3.7,3.3-5.5,3.8c-1.8,0.5-4.2-1.6-4.2-1.6L88.2,162z"/>
					</g>
					<g>
						<g>
							<g>
								<path class="st12" d="M93.6,160c0,0.1,0.5,0,1.2-0.2c0.4-0.1,0.8-0.2,1.3-0.2s1,0.1,1.5,0.2c1.1,0.3,2.1,0.7,2.7,0.9
									c0.7,0.2,1.2,0.4,1.2,0.4c0-0.1-0.4-0.2-1.1-0.5c-0.7-0.3-1.6-0.7-2.7-1c-0.5-0.1-1.1-0.2-1.6-0.2c-0.5,0.1-0.9,0.2-1.3,0.3
									C94.1,159.9,93.6,160,93.6,160z"/>
							</g>
						</g>
					</g>
				</g>
				<g>
					<path class="st5" d="M84.4,115c0,0-1.2,0.1-3.7,1.8c-2.5,1.8-11.3,13.1-11.3,13.1l10.6,9.8l6.3-7.5c0,0,3.3-14.3,3-14.3
						C88.9,117.9,84.4,115,84.4,115z"/>
				</g>
			</g>
			<g>
				<g>
					<path class="st4" d="M86.3,132.1c0.1,0-0.2,0.5-0.7,1.2c-0.5,0.7-1.2,1.7-2.1,2.7s-1.6,2-2.3,2.6c-0.6,0.6-1,1-1,1
						c-0.1-0.1,1.4-1.6,3.1-3.7C84.9,133.8,86.2,132.1,86.3,132.1z"/>
				</g>
			</g>
		</g>
	</g>
</g>
</svg>
