<?xml version="1.0" encoding="utf-8"?>
<!-- Generator: Adobe Illustrator 27.1.1, SVG Export Plug-In . SVG Version: 6.00 Build 0)  -->
<svg version="1.1" id="Capa_1" xmlns="http://www.w3.org/2000/svg" xmlns:xlink="http://www.w3.org/1999/xlink" x="0px" y="0px"
	 viewBox="0 0 300 300" style="enable-background:new 0 0 300 300;" xml:space="preserve">
<style type="text/css">
	.st0{fill:#E6E6E6;}
	.st1{fill:#FFFFFF;}
	.st2{fill:#FFB8B8;}
	.st3{fill:#2F2E41;}
	.st4{fill:#F88C7E;}
	.st5{fill:#3F3D56;}
</style>
<g>
	<g>
		<path class="st0" d="M225.5,109.5V186H26.4v-76.5c0-52.7,41.2-96.4,93.8-99.4c1.9-0.1,3.8-0.2,5.8-0.2c1.1,0,2.2,0,3.3,0.1
			c25.3,0.8,49.3,11.2,67.1,29.1c0.5,0.5,1.1,1.1,1.6,1.6C215.6,59.2,225.5,83.8,225.5,109.5z"/>
		<path class="st1" d="M129.2,10V186h-9V10.1c1.9-0.1,3.8-0.2,5.8-0.2C127,9.9,128.2,9.9,129.2,10z"/>
		<path class="st1" d="M205.6,49.7H46.3c2.4-3.2,4.9-6.2,7.6-9h144C200.6,43.5,203.2,46.6,205.6,49.7z"/>
		<rect x="139.8" y="75.6" class="st1" width="70.5" height="119.5"/>
		<circle class="st1" cx="50" cy="147" r="14.7"/>
		<polygon class="st1" points="50.1,147 50.1,147 50.8,188.7 49.3,188.7 		"/>
		
			<rect x="50" y="169.7" transform="matrix(0.8849 -0.4659 0.4659 0.8849 -73.3304 43.5135)" class="st1" width="2.7" height="0.7"/>
		<circle class="st1" cx="93.3" cy="125.3" r="22.4"/>
		<polygon class="st1" points="93.4,125.3 93.4,125.3 94.5,188.7 92.2,188.7 		"/>
		
			<rect x="93.2" y="159.8" transform="matrix(0.8849 -0.4659 0.4659 0.8849 -63.7102 62.876)" class="st1" width="4.2" height="1.1"/>
		<path class="st1" d="M47.1,104l3.8-3c-2.9-0.3-4.1,1.3-4.6,2.5c-2.3-1-4.8,0.3-4.8,0.3l7.6,2.7C48.7,105.5,48,104.6,47.1,104z"/>
		<path class="st1" d="M87,79.3l3.8-3c-2.9-0.3-4.1,1.3-4.6,2.5c-2.3-1-4.8,0.3-4.8,0.3l7.6,2.7C88.5,80.9,87.9,80,87,79.3z"/>
		<path class="st1" d="M71.8,102.7l3.8-3c-2.9-0.3-4.1,1.3-4.6,2.5c-2.3-1-4.8,0.3-4.8,0.3l7.6,2.7
			C73.3,104.3,72.6,103.4,71.8,102.7z"/>
		<rect x="15.9" y="177" class="st0" width="220.1" height="18.1"/>
	</g>
	<rect x="153.7" y="95.8" class="st0" width="10.7" height="10.7"/>
	<rect x="170.9" y="95.8" class="st0" width="10.7" height="10.7"/>
	<rect x="188.1" y="95.8" class="st0" width="10.7" height="10.7"/>
	<rect x="154" y="120.1" class="st0" width="10.7" height="10.7"/>
	<rect x="171.2" y="120.1" class="st0" width="10.7" height="10.7"/>
	<rect x="154.3" y="144.4" class="st0" width="10.7" height="10.7"/>
	<rect x="171.5" y="144.4" class="st0" width="10.7" height="10.7"/>
	<rect x="154.6" y="168.7" class="st0" width="10.7" height="10.7"/>
</g>
<g>
	<path class="st0" d="M266.9,233.2c0,0-27.9-12.8-18.1-21.8C258.6,202.5,266.9,233.2,266.9,233.2z"/>
	<path class="st0" d="M266.4,236.2c0,0-12.8-42.2,6.1-40.1C291.4,198,266.4,236.2,266.4,236.2z"/>
	<path class="st0" d="M251.5,229.7l1,13.1v0.2c0,2,0.1,4,0.3,6.1c1.3,13.3,7.2,19.4,14,19.4c6.8,0,12.4-6.1,13.8-19.4
		c0.2-2,0.3-4,0.3-6.1v-0.2v-0.1l1-13.1L251.5,229.7L251.5,229.7z"/>
	<path class="st1" d="M281.9,242.5L281.9,242.5v0.2c0,2.1-0.1,4.2-0.3,6.4h-28.7c-0.2-2.1-0.3-4.2-0.3-6.4v-0.2H281.9z"/>
	<g>
		<rect x="2.5" y="265.6" class="st0" width="297.6" height="32.2"/>
		<rect x="183.5" y="160.7" class="st0" width="13.3" height="13.3"/>
		<path class="st2" d="M224.4,280.4l-3.6,0.4c-2.8,1.8-6.2,2.4-10,2.2c-1.1-0.1-2-0.6-2.5-1.6l0,0c-0.8-1.5-0.2-3.2,1.2-4
			c0.2-0.1,0.5-0.2,0.7-0.3l2.8-0.7l6.7-6.5l4-7.3l5.8,0.7l1.2,9.3l0,0C231,276.6,228.3,280,224.4,280.4z"/>
		<path class="st2" d="M167.7,275.7l-3.6,0.8c-2.7,2.1-5.9,3.1-9.6,3.4c-1,0.1-2.1-0.4-2.7-1.3l0,0c-1-1.3-0.6-3.2,0.7-4.1
			c0.2-0.2,0.4-0.3,0.7-0.4l2.7-1l5.9-7.3l3.2-7.7h5.9l2.2,9l0,0C173.9,271.1,171.5,274.8,167.7,275.7z"/>
		<path class="st3" d="M164.8,258.8l6.7,1l10.5-53l18.2-31l22,90.1l8.2,1.5c-0.9-50.7,3.6-114.6-6.7-122.4l-44.5,5.1l-19.5,52.2
			L164.8,258.8z"/>
		<circle class="st2" cx="197" cy="50.9" r="15.3"/>
		<polygon class="st2" points="218.6,74.5 200.1,77.5 195.5,61.2 208.9,57.1 		"/>
		<path class="st4" d="M226.3,147.2l-49.2,4.6c3.9-13.7,7.6-27.3,4.6-41c-3.8-12.1-0.1-19.4,9.8-25.1l6.7-14.8l17.9-2.1l0,0
			c4.7,7.6,6.7,16.7,5.5,25.6C218.9,113.8,219.6,131.8,226.3,147.2z"/>
		<path class="st3" d="M196.7,32.8c-5.2,1.2-11,2.8-11.3,4.4c-5.3,1.3-9.3,4.5-10.1,9.4c-0.2,1.6,0.8,3.1,2.4,3.3
			c0.2,0,0.4,0.1,0.5,0.1c2.8-0.1,7.2-0.3,10-1.5c8.2,5.3,9.6,19.2,6.1,28.6l5.7-0.5l5.9-17.2l1.5,16.5l13-1.7l-1.7-21
			c-0.5-5-2.2-9.8-4.9-13.9c-0.3-0.4-0.6-0.8-0.9-1.2C208.8,33.4,202.6,31.4,196.7,32.8z"/>
		<path class="st2" d="M164.2,285.7c-0.1,1,0.6,1.9,1.6,2c0.1,0,0.1,0,0.2,0l5.8,0.1c0.7-0.1,1.2-0.6,1.2-1.2l0,0
			c0-0.5-0.3-1-0.8-1.2l-1.7-0.7l-2.5-3.5h-2C165,282.6,164.4,284.1,164.2,285.7L164.2,285.7L164.2,285.7z"/>
		<path class="st2" d="M150.4,285.7c0.1,1-0.6,1.9-1.6,2c-0.1,0-0.1,0-0.2,0l-5.8,0.1c-0.7-0.1-1.2-0.6-1.2-1.2l0,0
			c0-0.5,0.3-1,0.8-1.2l1.7-0.7l2.5-3.5h2C149.6,282.6,150.3,284.1,150.4,285.7L150.4,285.7L150.4,285.7z"/>
		<polygon class="st5" points="146.2,281.2 149.2,281.2 159.5,236.3 165,281.7 168.4,281.7 173.1,223.2 149.2,222.9 		"/>
		<path class="st2" d="M132.9,198.7h3.9v-9.4l0.9-1.8c0.6-1.3,0.1-2.8-1.2-3.5c-0.2-0.1-0.5-0.2-0.7-0.2l0,0
			c-1.4-0.2-2.7,0.7-2.9,2.1c0,0.1,0,0.2,0,0.4L132.9,198.7L132.9,198.7z"/>
		<circle class="st2" cx="156.3" cy="166.3" r="9.2"/>
		<rect x="152.6" y="171" class="st2" width="9.4" height="10.8"/>
		<path class="st4" d="M148.1,224.4c8.3,5.2,17.1,4.6,26.2,0.5l-2-45.9l-10.4-0.5l-10.8,1.5l-5.5,4.4L148.1,224.4z"/>
		<polygon class="st4" points="138.3,208.1 149.2,199.7 145.7,184.4 139.3,196.2 137.3,194.3 131.3,198.7 		"/>
		<path class="st2" d="M186.6,179.7l-3.5,1.9l-4.5-8.2l-1.6-1.2c-1.2-0.8-1.5-2.4-0.7-3.6c0.1-0.2,0.4-0.4,0.5-0.6l0,0
			c1.1-0.8,2.7-0.7,3.6,0.5c0.1,0.1,0.2,0.2,0.2,0.3l1.5,2.6L186.6,179.7z"/>
		<polygon class="st4" points="167.2,193.5 180.3,186.6 187.2,182.9 188.2,176.9 183.8,172.5 178.3,176 178.8,179.9 172.4,178.9 		
			"/>
		<circle class="st3" cx="158.3" cy="162.9" r="10.8"/>
		<circle class="st3" cx="164.3" cy="150.5" r="5"/>
		<path class="st3" d="M164,154.6c2.4,1.3,5.4,0.3,6.7-2.1c0.8-1.6,0.7-3.6-0.3-5.1c2.2,1.6,2.6,4.7,1,6.9c-1.6,2.2-4.7,2.6-6.9,1
			c-0.4-0.3-0.8-0.7-1.1-1.2C163.5,154.4,163.8,154.5,164,154.6z"/>
		<path class="st2" d="M194.5,162.6l0.4,11.9c0.1,3.4-2.4,6.3-5.8,6.6l0,0c-3.6,0.4-6.7-2.2-7.1-5.8c-0.1-0.8,0-1.6,0.2-2.4l2.7-9.9
			l7.7-42L192,96.4l16.4-0.5l-3.1,27.6L194.5,162.6z"/>
		<path class="st4" d="M209.3,98.6c-5.9-2.2-12.5-2.2-18.4,0l1-20.5c0-4.5,3.7-8.2,8.2-8.2l0,0c4.5,0,8.2,3.7,8.2,8.2L209.3,98.6z"
			/>
	</g>
</g>
</svg>
