<?xml version="1.0" encoding="utf-8"?>
<!-- Generator: Adobe Illustrator 27.1.1, SVG Export Plug-In . SVG Version: 6.00 Build 0)  -->
<svg version="1.1" id="Capa_1" xmlns="http://www.w3.org/2000/svg" xmlns:xlink="http://www.w3.org/1999/xlink" x="0px" y="0px"
	 viewBox="0 0 300 300" style="enable-background:new 0 0 300 300;" xml:space="preserve">
<style type="text/css">
	.st0{fill:#F2F2F2;}
	.st1{fill:#E6E6E6;}
	.st2{fill:#FFFFFF;}
	.st3{fill:#3F3D56;}
	.st4{fill:#F88C7E;}
	.st5{fill:#A0616A;}
	.st6{fill:#2F2E41;}
</style>
<path class="st0" d="M284.5,160c-8.7,26.2-24.8,45.7-41.7,61.4c-18.4,17.3-38.3,31.2-59.1,41.3c-2.9,1.4-5.8,2.7-8.6,4H58
	c-0.8-1.2-1.6-2.6-2.4-4c-7.8-14.5-12.1-33-10.6-51.2c2-23.4,14.3-44.9,30.3-49.8c15.9-5,34.2,8.8,38.9,31.2
	c2.7-43.4,5.8-88.5,21.7-125.4c14.5-33.4,39.5-57.3,66.7-61.6c15.9-2.4,32.1,1.9,46.4,12.2c1.3,0.9,2.6,2,3.9,3
	c8.6,7,16.2,16.4,22.4,27.6C292.2,79.5,296.3,124.4,284.5,160z"/>
<g>
	<path class="st1" d="M31.1,198.3c0,0-38.9-17.9-25.2-30.4C19.6,155.6,31.1,198.3,31.1,198.3z"/>
	<path class="st1" d="M30.5,202.5c0,0-17.9-58.7,8.4-55.9C65.3,149.4,30.5,202.5,30.5,202.5z"/>
	<path class="st1" d="M9.7,193.4l1.4,18.2v0.3c0,2.8,0.1,5.6,0.4,8.6c1.9,18.6,10,27,19.4,27s17.2-8.4,19.1-27
		c0.3-2.8,0.4-5.6,0.4-8.6v-0.3v-0.1l1.4-18.2H9.7V193.4z"/>
	<path class="st2" d="M52,211.3L52,211.3v0.3c0,2.9-0.2,5.9-0.5,8.9h-40c-0.3-2.9-0.5-5.9-0.5-8.9v-0.3H52z"/>
</g>
<g>
	<g>
		<rect x="1.8" y="266.9" class="st1" width="296.3" height="32.1"/>
	</g>
</g>
<g>
	<g>
		<circle class="st3" cx="222.6" cy="241" r="30.6"/>
		<circle class="st2" cx="222.6" cy="241" r="20.4"/>
		<circle class="st3" cx="222.6" cy="241" r="11.6"/>
		
			<ellipse transform="matrix(3.327792e-02 -0.9994 0.9994 3.327792e-02 -196.6661 278.6703)" class="st3" cx="45.7" cy="241" rx="30.6" ry="30.6"/>
		
			<ellipse transform="matrix(3.327793e-02 -0.9994 0.9994 3.327793e-02 -196.6661 278.6703)" class="st2" cx="45.7" cy="241" rx="20.4" ry="20.4"/>
		<path class="st4" d="M264.5,226.4c-4-10.1-17.9-40.8-42.7-50.9c-0.2-0.1-0.4-0.1-0.6-0.2l-79.7-11.3c-1.3-0.2-2.5,0.7-2.7,2
			l-1.4,8.6c-0.1,0.6,0,1.2,0.4,1.7c4,6.3,29.9,48.8-11.5,48.8c-40.9,0-52.9-29.7-54.7-34.9c-0.2-0.5-0.2-1,0-1.5l12.6-39.8
			c0.2-0.7,0.1-1.4-0.2-2l5.6-10.3l10.1,5.7l5.3,0.1l17.9,9.4l3.6-6l-36.9-18.4c0,0,0.1-4.3-11.8-7.7l-18.7-8.5l-2.3,2.8l5.7,4.5
			l0.5,3.4l4,1.1l8,15.3l-2.3,4.4l2.8,1.3l-0.8-0.2c-1.1-0.2-2.3,0.3-2.8,1.4L59.2,174c-0.2,0.4-0.5,0.8-0.9,1.1l-4.5,2.9
			c-0.4,0.2-0.7,0.7-0.9,1.1l-5.1,12.4c-0.2,0.4-0.2,0.8-0.2,1.2c-6.3,1.2-25,6.4-35.2,26.9l11.9,9.7c0,0,18.6-12.1,49.5,0.5
			c5.4,8.3,13.2,15.3,24.5,15.9c29.8,1.8,79.1,3.4,84.8-3.4c4.2-5,7.1-8.1,8.3-9.4c0.4-0.5,1-0.7,1.7-0.7l69.4-2.2
			C264,229.7,265.1,228,264.5,226.4z"/>
		<circle class="st3" cx="72.9" cy="128.1" r="9.1"/>
		<path class="st3" d="M218.3,175.5c-0.1,0-0.2,0-0.3,0l-75.9-3c-3.4-0.1-6.2-2.3-7.3-5.4l-1-3c-0.8-2.5-0.5-5.1,1-7.2
			s3.9-3.4,6.5-3.4l78.4-1.8c2.4-0.1,4.8,1,6.3,2.8s2.2,4.3,1.8,6.8l-1.4,7.8C225.4,172.8,222.1,175.5,218.3,175.5z"/>
		<circle class="st3" cx="45.7" cy="241" r="11.6"/>
		<path class="st3" d="M248.7,207.9c-1.8,0-3.6-1-4.5-2.7l-5.7-10.4c-0.9-1.6-0.8-3.6,0.1-5.2c1-1.6,2.7-2.5,4.6-2.4l10.4,0.5
			c1.9,0.1,3.7,1.3,4.5,3.1l3,7.2c0.5,1.3,0.5,2.8-0.1,4c-0.6,1.3-1.6,2.3-3,2.8l-7.7,2.7C249.8,207.8,249.3,207.9,248.7,207.9z"/>
		<path class="st3" d="M116.9,277c-0.1,0-0.2,0-0.2,0l-2.3-0.2c-0.8-0.1-1.4-0.5-1.8-1.1c-0.4-0.7-0.4-1.4-0.1-2.1l12.1-28.6
			l0.2,0.1l-0.2-0.1c0.3-0.8,1.1-1.3,1.9-1.4c0.8-0.1,1.6,0.2,2.2,0.8c0.5,0.7,0.7,1.5,0.4,2.3l-9.7,28.8
			C118.8,276.4,117.8,277,116.9,277z"/>
	</g>
	<path class="st5" d="M179.4,77.5c0,0-4.4-8.8-3.5-16.7l-14.7,7.5l0.5,14.4L179.4,77.5L179.4,77.5z"/>
	<circle class="st5" cx="170.3" cy="59.1" r="13.2"/>
	<g>
		<polygon class="st5" points="183.8,266.8 175.7,266.8 171.8,235.7 183.8,235.7 		"/>
		<path class="st6" d="M156.1,266.6L156.1,266.6c-0.2,0.4-0.4,1.8-0.4,2.3l0,0c0,1.5,1.2,2.7,2.7,2.7h25c1,0,1.9-0.8,1.9-1.9v-1
			c0,0,1.2-3.1-1.3-7c0,0-3.1,3-7.9-1.7l-1.4-2.5l-10.1,7.4l-5.6,0.7C157.8,265.7,156.8,265.6,156.1,266.6L156.1,266.6L156.1,266.6z
			"/>
	</g>
	<path class="st1" d="M160,77.5l19.4-2.7l15,7.1l0.9,54.6c0,0-36.9,4.4-42.7-1.3s-1.4-51.5-1.4-51.5L160,77.5L160,77.5z"/>
	<path class="st6" d="M167,62.5h-3.6c0,0-3.1-3.8-2.7-1.5c0.4,2.3-1.3,4.8-1.3,4.8L157,65c0,0-5-20.9,10-22.1
		c15-1.1,18.3,10.5,18.3,10.5s-0.8,5.8-2.5,4.2c-1.6-1.6-10.8-2.5-10.8-2.5L167,62.5L167,62.5z"/>
	<g>
		<polygon class="st5" points="151,205.2 143.6,208.5 127.6,181.6 138.4,176.7 		"/>
		<path class="st6" d="M125.6,216.2L125.6,216.2c-0.1,0.5,0.4,1.8,0.5,2.2l0,0c0.6,1.4,2.2,2,3.6,1.4l22.9-10.1c1-0.4,1.4-1.5,1-2.5
			l-0.4-1c0,0-0.1-3.4-4-5.9c0,0-1.7,4-7.9,1.6l-2.3-1.8l-6.2,10.8l-4.8,2.9C126.8,214.7,125.8,215,125.6,216.2L125.6,216.2
			L125.6,216.2z"/>
	</g>
	<path class="st6" d="M192.6,131.2l2.7,8v27.5l-8.6,24.9l0.7,58.1h-15.5l-1.8-59.2l1.4-29.2l-10.6-4.4l-27.8,1.7l13,31.9l-14.3,9.5
		c0,0-21.4-48.7-18.2-53.4c3.2-4.7,40.6-13,40.6-13S192.6,132.1,192.6,131.2L192.6,131.2z"/>
	<g>
		<path class="st5" d="M200.5,99.5l4.3,7c0,0,6,23.7,0,23.8c-6,0.1-18.2-12.1-18.2-12.1l1.6-6.3l4.4,1.8l-0.9-14.1L200.5,99.5
			L200.5,99.5z"/>
		<path class="st1" d="M187.3,81.7c0,0,14.1-2.5,15.4,6.8c1.3,9.2,2.1,18,2.1,18l-15.3,1.3L187.3,81.7L187.3,81.7z"/>
		<ellipse transform="matrix(0.5801 -0.8145 0.8145 0.5801 -14.6502 197.1162)" class="st5" cx="183.9" cy="112.8" rx="4" ry="8"/>
	</g>
	<path class="st0" d="M290.5,250.7l-0.1-3C290.6,248.8,290.6,249.8,290.5,250.7z"/>
	<g>
		<polygon class="st5" points="265.7,268 271.8,266.7 269.6,242.6 260.6,244.6 		"/>
		<path class="st6" d="M286.5,263.4L286.5,263.4c0.2,0.3,0.6,1.3,0.7,1.6l0,0c0.2,1.1-0.5,2.3-1.6,2.5l-18.9,4.1
			c-0.8,0.2-1.6-0.3-1.7-1.1l-0.2-0.8c0,0-1.4-2.2-0.1-5.5c0,0,2.9,1.8,5.7-2.6l0.7-2.1l8.8,3.9l4.3-0.4
			C285.1,263,285.9,262.7,286.5,263.4L286.5,263.4L286.5,263.4z"/>
	</g>
	<g>
		<polygon class="st5" points="276.5,266.2 281.7,262.6 270.2,241.3 262.7,246.6 		"/>
		<path class="st6" d="M293.9,253.7L293.9,253.7c0.4,0.2,1,1,1.3,1.3l0,0c0.7,1,0.4,2.3-0.5,3L279,269.1c-0.7,0.5-1.6,0.3-2-0.4
			l-0.5-0.7c0,0-2.2-1.4-2.3-5c0,0,3.3,0.5,4.2-4.6l-0.2-2.2l9.7,0.1l3.8-2.1C292.4,253.9,293,253.4,293.9,253.7L293.9,253.7
			L293.9,253.7z"/>
	</g>
	<path class="st6" d="M203.3,146.9c0,0-9.5,12.9,9.5,27.4l38.7-12.4l-13.8-28.8l-12.3-6.7L203.3,146.9L203.3,146.9z"/>
	<polyline class="st6" points="251.6,161.9 266.5,191.1 276,252 264.2,252.8 252.4,195.1 231.4,163.9 246,157.2 	"/>
	<path class="st6" d="M212.8,165.1v9.2l26.9,29.5c0,0,0,22.1,10.3,32.4l11.8,18.2l10.3-5.6l-15-52.9l-26.9-34.8L212.8,165.1
		L212.8,165.1z"/>
	<path class="st5" d="M232,74.1l-5.1,19.3l-19.3-3.8c0,0,13.5-13.9,11.6-20.2L232,74.1L232,74.1z"/>
	<path class="st3" d="M217.2,77l11.8,5.6c0,0,6.1,3.7,6.2,6.2c0.1,2.5-0.7,14.3-0.7,14.3s4.8,4.8,1.6,14.2l1.6,15.8L202.2,152
		l3.1-33.2l-1.6-30.8L217.2,77L217.2,77z"/>
	<g>
		<path id="uuid-890a8f78-7002-4fae-ad75-e03b10042fc6-569" class="st5" d="M206.5,166.9c1.4,3.2,4.2,5.1,6.2,4.2
			c2.1-0.9,2.5-4.2,1.1-7.4c-0.5-1.3-1.4-2.4-2.4-3.3l-6-13.4l-6.2,3l6.6,12.9C205.7,164.3,206,165.6,206.5,166.9L206.5,166.9z"/>
		<path class="st3" d="M212.8,90.1c0,0-8.7-5.6-11.8,0.8c-3.1,6.3-10.3,38.7-10.3,38.7l10.3,30.8l9.5-3.9l-8.3-33.1L212.8,90.1
			L212.8,90.1z"/>
	</g>
	<g>
		<path id="uuid-bf6bc2d3-f134-421c-a442-5bb07c25212c-570" class="st5" d="M257.4,161.9c2.5,2.5,5.7,3.1,7.3,1.6
			c1.6-1.6,0.8-4.8-1.6-7.2c-1-1-2.2-1.8-3.5-2.2L249,143.8l-4.7,5.1l10.9,9.5C255.6,159.8,256.4,161,257.4,161.9L257.4,161.9z"/>
		<path class="st3" d="M234.9,88.2c0,0-15.1-0.6-15.8,6.4c-0.6,7.1,9.7,38.4,9.7,38.4l20.9,24.9l7.4-7.2L237.2,123
			C237.2,123,234.9,88.2,234.9,88.2z"/>
	</g>
	<g>
		<path class="st2" d="M220,134l-12.7-38.4c-10.2-9-21.3,12.7-51.1,0.4l9.4,43.5C188.1,127.2,207.5,122.5,220,134z"/>
		<path class="st3" d="M165.6,140c-0.1,0-0.2,0-0.2-0.1c-0.2-0.1-0.3-0.2-0.3-0.4L155.7,96c-0.1-0.2,0-0.4,0.2-0.5
			c0.2-0.1,0.4-0.2,0.6-0.1c16.9,7,27.8,2.8,35.8-0.2c6-2.3,10.9-4.1,15.4-0.1c0.1,0.1,0.1,0.2,0.2,0.2l12.7,38.4
			c0.1,0.2,0,0.5-0.2,0.7c-0.2,0.1-0.5,0.1-0.7-0.1c-11-10.1-28.1-8.4-53.7,5.5C165.8,139.9,165.7,140,165.6,140z M157,96.9l9,41.6
			c24.6-13.2,41.5-15.2,52.8-6.3l-11.9-36.3c-4-3.5-8.3-1.9-14.2,0.4C184.7,99.4,173.8,103.5,157,96.9z"/>
	</g>
	<g>
		<path class="st5" d="M141,100l-4.3,7c0,0-6,23.7,0,23.8c6,0.1,18.2-12.1,18.2-12.1l-1.6-6.3l-4.4,1.8l0.9-14.1H141L141,100z"/>
		<path class="st1" d="M154.2,82.3c0,0-14.1-2.5-15.4,6.8c-1.3,9.2-2.1,18-2.1,18l15.3,1.3L154.2,82.3L154.2,82.3z"/>
		<ellipse transform="matrix(0.8145 -0.5801 0.5801 0.8145 -36.5059 112.441)" class="st5" cx="157.6" cy="113.3" rx="8" ry="4"/>
	</g>
	<g>
		<path class="st5" d="M240.2,63.8c0,7.2-5.9,13.2-13.2,13.2s-13.2-5.9-13.2-13.2s5.9-13.2,13.2-13.2S240.2,56.6,240.2,63.8z"/>
		<path class="st6" d="M225.9,46.1c0.4,0.2,0.9-0.1,1-0.5c0.1-0.4,0-0.8-0.2-1.3c-0.2-0.7-0.5-1.4-0.7-2.1c-0.5-1.5-1-3-2.1-4.2
			c-1.6-1.7-4.3-2.2-6.6-1.8c-3,0.4-6,2.1-7.4,4.8c-1.4,2.7-0.8,6.5,1.8,8.1c-3.6,4.2-4.9,8.8-4.7,14.3c0.2,5.5,6.2,10.6,10.1,14.4
			c0.8-0.5,1.7-3,1.2-3.9s0.2-1.9-0.4-2.8c-0.6-0.8-1.1,0.5-0.5-0.4c0.4-0.5-1.1-1.7-0.5-2.1c2.7-1.5,3.6-4.9,5.4-7.5
			c2.1-3.1,5.6-5.3,9.4-5.6c2.1-0.2,4.2,0.2,5.9,1.3c1.7,1.2,2.8,3.3,2.4,5.4c1-1,1.5-2.5,1.3-4c-0.2-1.4-1.1-2.8-2.3-3.5
			c0.8-2.5,0.1-5.4-1.6-7.4c-1.8-1.9-8.9-1.6-11.5-1.1L225.9,46.1L225.9,46.1z"/>
		<path class="st6" d="M225.6,55.7c-3.4,0.4-5.9,3.3-8,6c-1.2,1.6-2.5,3.3-2.4,5.3c0.1,2,1.4,3.7,2,5.6c1,3.1,0,6.8-2.5,8.9
			c2.5,0.5,5.1-1.4,5.6-3.9c0.5-2.8-1.7-5.6-1.4-8.5c0.2-2.5,2.2-4.5,3.9-6.4c1.7-1.9,3.3-4.5,2.5-6.9
			C225.3,55.9,225.6,55.7,225.6,55.7z"/>
	</g>
</g>
</svg>
