<?xml version="1.0" encoding="utf-8"?>
<!-- Generator: Adobe Illustrator 27.1.1, SVG Export Plug-In . SVG Version: 6.00 Build 0)  -->
<svg version="1.1" id="Capa_1" xmlns="http://www.w3.org/2000/svg" xmlns:xlink="http://www.w3.org/1999/xlink" x="0px" y="0px"
	 viewBox="0 0 300 300" style="enable-background:new 0 0 300 300;" xml:space="preserve">
<style type="text/css">
	.st0{fill:#F2F2F2;}
	.st1{fill:#E6E6E6;}
	.st2{fill:#FFFFFF;}
	.st3{fill:#A0616A;}
	.st4{fill:#2F2E41;}
	.st5{fill:#1A2E35;}
	.st6{fill:#F88C7E;}
	.st7{fill:#E1E1E1;}
	.st8{fill:#375A64;}
	.st9{opacity:0.3;}
	.st10{fill:#C17560;}
	.st11{fill:#7C4236;}
	.st12{fill:#3F3D56;}
	.st13{fill:#ECECEC;}
	.st14{fill:#F5F5F5;}
	.st15{opacity:0.2;}
</style>
<g>
	<path class="st0" d="M247.3,157.9c-8.3,25.9-23.4,45.2-39.4,60.8c-17.4,17.1-36.2,30.8-55.8,40.9c-2.7,1.3-5.4,2.7-8.2,4H33.3
		c-0.8-1.3-1.5-2.6-2.2-4c-7.4-14.4-11.4-32.8-10-50.8c1.9-23.1,13.5-44.4,28.5-49.3c15.1-4.9,32.2,8.7,36.8,30.9
		c2.5-43,5.4-87.6,20.5-124.2c13.7-33.1,37.3-56.8,63-61C185,2.9,200.2,7,213.8,17.4c1.3,1,2.4,1.9,3.7,2.9
		c8.1,6.9,15.3,16.2,21.2,27.3C254.6,78.2,258.5,122.7,247.3,157.9z"/>
	<g>
		<path class="st1" d="M268.4,227.8c0,0-32.2-14.8-20.9-25.1C258.8,192.4,268.4,227.8,268.4,227.8z"/>
		<path class="st1" d="M267.8,231.3c0,0-14.8-48.7,7-46.3S267.8,231.3,267.8,231.3z"/>
		<path class="st1" d="M250.6,223.8l1.2,15.1v0.3c0,2.3,0.1,4.7,0.3,7.1c1.5,15.4,8.3,22.4,16.1,22.4c7.8,0,14.3-7,15.9-22.4
			c0.3-2.3,0.3-4.7,0.3-7.1v-0.3v-0.1l1.2-15.1L250.6,223.8L250.6,223.8L250.6,223.8z"/>
		<path class="st2" d="M285.7,238.6L285.7,238.6v0.3c0,2.4-0.2,4.8-0.4,7.3h-33.1c-0.3-2.4-0.4-4.8-0.4-7.3v-0.3H285.7z"/>
	</g>
	<g>
		<g>
			<rect x="1.1" y="266.3" class="st1" width="299" height="34.1"/>
		</g>
	</g>
	<g>
		<g>
			<polygon class="st3" points="103,251.5 116.6,251.5 112.3,287.1 103,287.1 			"/>
			<path class="st4" d="M134.6,286.8L134.6,286.8c-0.7-1.2-2-1-3.3-1.2l-6.4-0.8l-11.5-8.5l-1.6,2.9c-5.4,5.4-9,1.9-9,1.9
				c-2.9,4.4-1.5,7.9-1.5,7.9v1.2c0,1.2,1,2.1,2.1,2.1H132c1.7,0,3.1-1.4,3.1-3.1l0,0C135.1,288.9,134.9,287.3,134.6,286.8
				L134.6,286.8L134.6,286.8z"/>
		</g>
		<g>
			<g>
				<g>
					<g>
						<g>
							<g>
								<g>
									<path class="st2" d="M234.9,198h-60.2c-2.3,0-4.2-1.9-4.2-4.2v-36.9c0-2.3,1.9-4.2,4.2-4.2h60.2c2.3,0,4.2,1.9,4.2,4.2
										v36.9C239.1,196.1,237.2,198,234.9,198z"/>
								</g>
							</g>
							<g>
								<g>
									<g>
										<path class="st5" d="M234.9,198c0,0,0.2,0,0.6-0.1c0.4-0.1,0.9-0.2,1.5-0.6c0.6-0.4,1.3-1,1.7-2c0.4-1,0.3-2.2,0.3-3.7
											c0-5.6-0.1-13.7-0.1-23.6c0-2.5,0-5.1,0-7.8c0-0.7,0-1.3,0-2.1s0.1-1.4-0.1-2.1c-0.3-1.3-1.3-2.6-2.6-3
											c-0.6-0.3-1.4-0.2-2.1-0.2c-0.8,0-1.5,0-2.2,0c-1.5,0-3.1,0-4.6,0c-3.1,0-6.3,0-9.6,0c-13.2,0-27.6,0-42.9,0
											c-0.9,0-1.8,0.3-2.5,0.9c-0.7,0.6-1.2,1.3-1.4,2.2c-0.1,0.4-0.1,0.9-0.1,1.3v1.4c0,1,0,1.9,0,2.8c0,3.7,0,7.4,0,11
											c0,7.2,0,14.1,0,20.7c0,0.8,0.1,1.6,0.4,2.3c0.3,0.7,0.9,1.3,1.5,1.7c0.6,0.4,1.4,0.6,2.2,0.6c0.8,0,1.6,0,2.4,0
											c3.1,0,6.2,0,9.1,0c5.8,0,11.3,0,16.3,0c9.9,0,18,0.1,23.6,0.1c2.8,0,4.9,0,6.4,0.1c0.7,0,1.3,0,1.7,0
											C234.7,198,234.9,198,234.9,198s-0.2,0-0.6,0c-0.4,0-1,0-1.7,0c-1.5,0-3.7,0-6.4,0.1c-5.6,0-13.7,0.1-23.6,0.1
											c-5,0-10.4,0-16.3,0c-2.9,0-6,0-9.1,0c-0.8,0-1.5,0-2.4,0c-0.8,0-1.7-0.2-2.4-0.6c-0.7-0.4-1.3-1-1.7-1.8
											c-0.4-0.8-0.5-1.7-0.4-2.4c0-6.6,0-13.5,0-20.7c0-3.6,0-7.2,0-11c0-0.9,0-1.9,0-2.8v-1.4c0-0.4,0-1,0.1-1.4
											c0.2-1,0.8-1.9,1.5-2.4c0.8-0.6,1.7-1,2.8-1c15.2,0,29.7,0,42.9,0c3.3,0,6.5,0,9.6,0c1.5,0,3.1,0,4.6,0c0.8,0,1.5,0,2.2,0
											s1.5-0.1,2.2,0.3c1.5,0.5,2.5,1.8,2.8,3.2c0.1,0.7,0.1,1.4,0.1,2.1c0,0.7,0,1.4,0,2.1c0,2.7,0,5.3,0,7.8
											c0,9.9-0.1,18-0.1,23.6c0,0.7,0,1.3,0,2c0,0.6-0.1,1.2-0.3,1.7c-0.4,1-1.2,1.7-1.8,2.1s-1.2,0.5-1.6,0.5
											C235.1,198,234.9,198,234.9,198z"/>
									</g>
								</g>
							</g>
						</g>
						<g>
							<g>
								<g>
									<g>
										<g>
											<g>
												<g>
													<g>
														<g>
															<rect x="201.3" y="179" class="st6" width="2.6" height="10.4"/>
														</g>
													</g>
												</g>
											</g>
										</g>
										<g>
											<g>
												<g>
													<g>
														<g>
															<rect x="179.3" y="177.5" class="st6" width="2.6" height="12"/>
														</g>
													</g>
												</g>
											</g>
										</g>
										<g>
											<g>
												<g>
													<g>
														<g>
															<rect x="184.8" y="175" class="st6" width="2.6" height="14.5"/>
														</g>
													</g>
												</g>
											</g>
										</g>
										<g>
											<g>
												<g>
													<g>
														<g>
															<rect x="190.3" y="175.8" class="st6" width="2.6" height="13.7"/>
														</g>
													</g>
												</g>
											</g>
										</g>
										<g>
											<g>
												<g>
													<g>
														<g>
															<rect x="195.8" y="171.2" class="st6" width="2.6" height="18.3"/>
														</g>
													</g>
												</g>
											</g>
										</g>
										<g>
											<g>
												<g>
													<g>
														<g>
															<rect x="206.8" y="171.2" class="st6" width="2.6" height="18.2"/>
														</g>
													</g>
												</g>
											</g>
										</g>
										<g>
											<g>
												<g>
													<g>
														<g>
															<rect x="212.3" y="177.3" class="st6" width="2.6" height="12.2"/>
														</g>
													</g>
												</g>
											</g>
										</g>
										<g>
											<g>
												<g>
													<g>
														<g>
															<rect x="217.7" y="172.1" class="st6" width="2.6" height="17.4"/>
														</g>
													</g>
												</g>
											</g>
										</g>
										<g>
											<g>
												<g>
													<g>
														<g>
															<rect x="223.2" y="168.1" class="st6" width="2.6" height="21.3"/>
														</g>
													</g>
												</g>
											</g>
										</g>
										<g>
											<g>
												<g>
													<g>
														<g>
															<rect x="228.7" y="171.9" class="st6" width="2.6" height="17.5"/>
														</g>
													</g>
												</g>
											</g>
										</g>
									</g>
								</g>
							</g>
						</g>
					</g>
				</g>
				<g>
					<g>
						<path class="st5" d="M198.8,161.7c0,0.1-4.7,0.2-10.4,0.2c-5.8,0-10.4-0.1-10.4-0.2c0-0.1,4.7-0.2,10.4-0.2
							C194.1,161.4,198.8,161.5,198.8,161.7z"/>
					</g>
				</g>
			</g>
			<g>
				<g>
					<g>
						<path class="st2" d="M254.8,98.3h36.9c1.9,0,3.4,1.5,3.4,3.4v36.9c0,1.9-1.5,3.4-3.4,3.4h-25.5l-10.3,8.5V142h-1.1
							c-1.9,0-3.4-1.5-3.4-3.4v-36.9C251.4,99.8,252.9,98.3,254.8,98.3z"/>
					</g>
				</g>
				<g>
					<g>
						<g>
							<path class="st6" d="M251.4,112.1h43.7v-9.7c0-2.3-1.9-4.1-4.1-4.1h-35.5c-2.2,0-4.1,1.9-4.1,4.1L251.4,112.1L251.4,112.1z"
								/>
						</g>
					</g>
					<g>
						<g>
							<path class="st5" d="M270.4,117.6v14.9h-3.5v-12.1h-2.9v-2.8H270.4z"/>
						</g>
						<g>
							<path class="st5" d="M284.6,117.6v2.2l-5.5,12.6h-3.7l5.3-12.1h-4.9v2.4h-3.1v-5.2L284.6,117.6L284.6,117.6z"/>
						</g>
					</g>
					<g>
						<g>
							<g>
								<path class="st5" d="M267.2,106.1c0,0.1,3,0.1,6.7,0.1c3.7,0,6.7-0.1,6.7-0.1c0-0.1-3-0.1-6.7-0.1S267.2,106,267.2,106.1z"
									/>
							</g>
						</g>
					</g>
				</g>
				<g>
					<g>
						<g>
							<path class="st5" d="M254.8,98.3c0,0-0.1,0-0.3,0c-0.1,0-0.4,0-0.6,0.1c-0.6,0.1-1.5,0.6-2.1,1.5c-0.3,0.5-0.5,1.2-0.4,1.9
								c0,0.7,0,1.5,0,2.3c0,1.7,0,3.6,0,5.7c0,4.3,0,9.4,0,15.4c0,2.9,0,6.1,0,9.4c0,0.8,0,1.7,0,2.5c0,0.4,0,0.8,0,1.3
								c0,0.4,0.1,0.9,0.2,1.3c0.3,0.8,0.9,1.6,1.7,2c0.4,0.2,0.8,0.3,1.3,0.4c0.4,0,0.9,0,1.3,0l-0.1-0.1c0,2.7,0,5.5,0,8.5v0.3
								l0.2-0.2c3.3-2.7,6.7-5.5,10.3-8.5h-0.1c6.3,0,12.9,0,19.8,0c1.5,0,3.1,0,4.6,0h1.2c0.4,0,0.8-0.1,1.2-0.2
								c0.8-0.3,1.4-0.8,1.8-1.5c0.2-0.3,0.3-0.7,0.4-1.1c0.1-0.4,0.1-0.8,0.1-1.2c0-0.8,0-1.5,0-2.2c0-1.5,0-2.9,0-4.4
								c0-5.9,0-11.5,0-16.9c0-2.7,0-5.3,0-7.9c0-1.3,0-2.6,0-3.8c0-0.6,0.1-1.2-0.1-1.9c-0.1-0.6-0.4-1.2-0.8-1.7
								c-0.4-0.4-1-0.8-1.5-1s-1.2-0.2-1.8-0.2c-1.2,0-2.3,0-3.4,0c-2.2,0-4.4,0-6.4,0c-8.1,0-14.7,0.1-19.3,0.1c-2.3,0-4,0-5.3,0
								c-0.6,0-1,0-1.3,0C255,98.3,254.8,98.3,254.8,98.3s0.1,0,0.4,0s0.8,0,1.3,0c1.2,0,2.9,0,5.3,0c4.6,0,11.2,0,19.3,0.1
								c2.1,0,4.2,0,6.4,0c1.1,0,2.2,0,3.4,0c0.6,0,1.2,0,1.7,0.2c0.5,0.2,1,0.5,1.4,1c0.4,0.4,0.6,1,0.8,1.5
								c0.1,0.6,0.1,1.2,0.1,1.8c0,1.2,0,2.5,0,3.8c0,2.6,0,5.2,0,7.9c0,5.4,0,11.1,0,16.9c0,1.5,0,2.9,0,4.4c0,0.8,0,1.5,0,2.2
								c0,0.4,0,0.8-0.1,1.1c-0.1,0.4-0.2,0.7-0.4,1c-0.4,0.6-1,1.1-1.7,1.3s-1.5,0.2-2.2,0.2c-1.5,0-3.1,0-4.6,0
								c-6.8,0-13.5,0-19.8,0h-0.1H266c-3.5,2.9-7,5.8-10.3,8.5l0.2,0.1c0-2.9,0-5.8,0-8.5v-0.1h-0.1c-0.4,0-0.9,0-1.3,0
								s-0.8-0.1-1.2-0.3c-0.8-0.4-1.3-1.1-1.6-1.9c-0.1-0.4-0.2-0.8-0.2-1.2c0-0.4,0-0.8,0-1.3c0-0.8,0-1.7,0-2.5
								c0-3.3,0-6.5,0-9.4c0-5.9,0-11.1,0-15.4c0-2.1,0-4,0-5.7c0.1-1.7-0.2-3.1,0.4-4.1c0.6-1,1.5-1.4,2-1.5
								C254.5,98.3,254.8,98.3,254.8,98.3z"/>
						</g>
					</g>
				</g>
				<g>
					<g>
						<g>
							<path class="st7" d="M266.7,103.8L266.7,103.8c0.8,0,1.4-0.6,1.4-1.3v-7.1c0-0.8-0.6-1.3-1.3-1.3h-0.1
								c-0.8,0-1.3,0.6-1.3,1.3v7.1C265.4,103.3,266,103.8,266.7,103.8z"/>
						</g>
					</g>
					<g>
						<g>
							<g>
								<path class="st5" d="M266.7,103.8c0-0.1-0.4,0-0.8-0.3c-0.2-0.2-0.4-0.4-0.4-0.8s0-0.9,0-1.4c0-1.1,0-2.3,0-3.7
									c0-0.7,0-1.4,0-2.2c0-0.3,0.1-0.7,0.4-1c0.3-0.3,0.6-0.4,1-0.4s0.7,0.2,1,0.4s0.3,0.6,0.3,1c0,0.8,0,1.5,0,2.2
									c0,1.3,0,2.6,0,3.7c0,0.3,0,0.5,0,0.8c0,0.3,0,0.4,0,0.6c-0.1,0.4-0.3,0.6-0.5,0.8C267.1,103.9,266.7,103.8,266.7,103.8
									s0.1,0,0.3,0c0.1,0,0.4-0.1,0.6-0.2c0.3-0.2,0.5-0.4,0.6-0.9c0.1-0.2,0.1-0.4,0.1-0.7s0-0.5,0-0.8c0-1.1,0-2.3,0-3.7
									c0-0.7,0-1.4,0-2.2c0-0.4-0.1-0.8-0.4-1.2c-0.3-0.3-0.7-0.5-1.2-0.5c-0.4,0-0.9,0.1-1.2,0.4c-0.3,0.3-0.4,0.8-0.4,1.2
									c0,0.8,0,1.5,0,2.2c0,1.3,0,2.6,0,3.7c0,0.5,0,1,0.1,1.4s0.3,0.8,0.6,0.9c0.3,0.2,0.5,0.3,0.6,0.3
									C266.6,103.9,266.7,103.8,266.7,103.8z"/>
							</g>
						</g>
					</g>
				</g>
				<g>
					<g>
						<g>
							<path class="st7" d="M280,103.8L280,103.8c0.8,0,1.4-0.6,1.4-1.3v-7.1c0-0.8-0.6-1.3-1.3-1.3H280c-0.8,0-1.3,0.6-1.3,1.3v7.1
								C278.7,103.3,279.3,103.8,280,103.8z"/>
						</g>
					</g>
					<g>
						<g>
							<g>
								<path class="st5" d="M280,103.8c0-0.1-0.4,0-0.8-0.3c-0.2-0.2-0.4-0.4-0.4-0.8s0-0.9,0-1.4c0-1.1,0-2.3,0-3.7
									c0-0.7,0-1.4,0-2.2c0-0.3,0.1-0.7,0.4-1c0.3-0.3,0.6-0.4,1-0.4s0.7,0.2,1,0.4c0.3,0.3,0.3,0.6,0.3,1c0,0.8,0,1.5,0,2.2
									c0,1.3,0,2.6,0,3.7c0,0.3,0,0.5,0,0.8c0,0.3,0,0.4,0,0.6c-0.1,0.4-0.3,0.6-0.5,0.8C280.4,103.9,280,103.8,280,103.8
									s0.1,0,0.3,0c0.1,0,0.4-0.1,0.6-0.2c0.3-0.2,0.5-0.4,0.6-0.9c0.1-0.2,0.1-0.4,0.1-0.7s0-0.5,0-0.8c0-1.1,0-2.3,0-3.7
									c0-0.7,0-1.4,0-2.2c0-0.4-0.1-0.8-0.4-1.2c-0.3-0.3-0.7-0.5-1.2-0.5c-0.4,0-0.9,0.1-1.2,0.4c-0.3,0.3-0.4,0.8-0.4,1.2
									c0,0.8,0,1.5,0,2.2c0,1.3,0,2.6,0,3.7c0,0.5,0,1,0.1,1.4c0.1,0.4,0.3,0.8,0.6,0.9c0.3,0.2,0.5,0.3,0.6,0.3
									C280,103.9,280,103.8,280,103.8z"/>
							</g>
						</g>
					</g>
				</g>
			</g>
			<g>
				<g>
					<g>
						<g>
							<g>
								<g>
									<g>
										<g>
											<g>
												<g>
													<path class="st4" d="M103.9,138.3c0,0-3.8,4-5.6,7.9c-1.9,3.8-4.7,12.1-4.7,12.1s-3.5,12.6-2.8,18.6
														c0.8,6,6.1,46.6,6.1,46.6s-1,32.2,3.5,46.6l0.8,3.8l15.2-2.7l0,0l0,0l3.4-79.8l9.3-52.8L103.9,138.3z"/>
												</g>
											</g>
										</g>
									</g>
								</g>
							</g>
							<g>
								<g>
									<g>
										<g>
											<g>
												<g>
													<g>
														<path class="st8" d="M123.4,141.7c-0.1,0-0.1-0.5-0.6-0.9c-0.3-0.2-0.6-0.3-1-0.1c-0.4,0.1-0.7,0.6-0.7,1
															s0.3,0.8,0.7,1c0.4,0.1,0.8,0.1,1-0.1C123.4,142.1,123.3,141.6,123.4,141.7c0,0,0.1,0.1,0.1,0.3s-0.1,0.5-0.4,0.8
															c-0.3,0.3-0.8,0.4-1.3,0.3c-0.5-0.1-1-0.7-1-1.3c0-0.6,0.4-1.2,0.9-1.3c0.5-0.2,1-0.1,1.3,0.2s0.4,0.6,0.4,0.8
															C123.4,141.5,123.4,141.7,123.4,141.7z"/>
													</g>
												</g>
											</g>
										</g>
									</g>
								</g>
							</g>
							<g>
								<g>
									<g>
										<g>
											<g>
												<path class="st4" d="M141,149.2c0,0,5.6,50.6,6.3,59.3c0.8,8.7-30.7,55-30.7,55l-13.3-15.7l20.3-37.8l-6.9-37.6l9-33.9
													l14,0.2L141,149.2z"/>
											</g>
										</g>
									</g>
								</g>
							</g>
						</g>
						<g>
							<g>
								<g>
									<g>
										<g>
											<g>
												<path class="st8" d="M98.2,257.9c0,0,0,0.4,0.1,1.1c0.1,0.7,0.3,1.8,0.5,3.1c0.5,2.8,1.3,6.7,2.4,11.7v0.1h0.1
													c4.3-0.8,9.4-1.7,15.2-2.7h0.1v-0.1c0.4-10.4,0.9-22.9,1.5-36.3c0.6-14.4,1.1-27.8,1.5-38.7l0,0
													c1.2-8.8,2.1-16.1,2.8-21.2c0.3-2.5,0.6-4.5,0.8-5.9c0.1-0.6,0.1-1.2,0.2-1.5c0.1-0.3,0.1-0.5,0.1-0.5s-0.1,0.2-0.1,0.5
													c-0.1,0.4-0.1,0.9-0.3,1.5c-0.2,1.3-0.4,3.3-0.8,5.9c-0.7,5.1-1.7,12.4-2.9,21.2l0,0l0,0c-0.4,11-1,24.3-1.5,38.7
													c-0.5,13.4-1,25.8-1.4,36.3l0.1-0.1c-5.8,1-10.9,2-15.2,2.8l0.1,0.1c-1.2-5-2-9-2.5-11.7c-0.3-1.3-0.4-2.4-0.6-3.1
													c-0.1-0.4-0.1-0.6-0.1-0.8C98.2,258,98.2,257.9,98.2,257.9z"/>
											</g>
										</g>
									</g>
								</g>
							</g>
						</g>
					</g>
					<g>
						<g>
							<path class="st8" d="M121.2,158.9c0,0,0.3,0,0.8,0.1c0.5,0,1.3,0.1,2.1-0.4c0.4-0.3,0.7-0.6,0.8-1.2c0.2-0.5,0.2-1.1,0.3-1.7
								c0.1-1.3,0.2-2.6,0.3-4.1c0.2-2.9,0.3-5.6,0.4-7.5c0.1-0.9,0.1-1.7,0.1-2.2c0-0.5,0.1-0.8,0.1-0.8s0.1,0.3,0.1,0.8
								s0.1,1.3,0.1,2.2c0,1.9-0.1,4.6-0.3,7.5c-0.1,1.5-0.2,2.8-0.3,4.1c-0.1,0.6-0.1,1.2-0.3,1.8c-0.2,0.6-0.6,1-1,1.3
								c-0.4,0.3-0.9,0.3-1.3,0.3c-0.4,0-0.7,0-1-0.1C121.4,158.9,121.2,158.9,121.2,158.9z"/>
						</g>
					</g>
					<g>
						<g>
							<path class="st8" d="M140.4,149.2c0,0.1-0.6-0.2-1.5-0.8c-0.8-0.6-2-1.4-3-2.6c-1-1.2-1.8-2.4-2.2-3.3
								c-0.4-0.9-0.6-1.5-0.6-1.5c0.1-0.1,1,2.3,3.1,4.6C138.2,148,140.5,149.2,140.4,149.2z"/>
						</g>
					</g>
				</g>
				<g>
					<g>
						<g>
							<g>
								<g>
									<path class="st6" d="M92.5,92.6l6,22l2.7,11.7c0,10.1-2.7,14.7-2.7,14.7l41.2-2.1c0,0,0.7-27.9,0-33.2l-5-18.3l-13.1-3.2
										l-16.3,0.3L92.5,92.6z"/>
								</g>
							</g>
						</g>
						<g>
							<g>
								<g>
									<path class="st5" d="M149.2,123.6c-0.1,0-0.1-0.4-0.1-1.1c0-0.7,0.1-1.6,0.4-2.6c0.4-1,0.9-1.8,1.3-2.3s0.8-0.8,0.8-0.7
										c0.1,0.1-1.2,1.2-1.9,3.1C149.1,121.9,149.3,123.6,149.2,123.6z"/>
								</g>
							</g>
						</g>
						<g>
							<path class="st6" d="M161.8,109.1l-10.7,6.4L145,99.9c0,0-0.8-1.9-3.5-6.7c-3.5-6.2-8.1-5.9-8.1-5.9l-5.4,8.1l5.8,12.4
								c0,0,3.5,23,10.3,24.7C154.5,135.3,161.8,109.1,161.8,109.1L161.8,109.1z"/>
						</g>
					</g>
					<g class="st9">
						<g>
							<path d="M94.9,154.8c4.9-0.2,9.9-2.2,14-4.7c4.2-2.5,7.9-5.6,11.9-8.4c9.4-6.8,28.1-21.7,36.9-29.4l-2.6,0.6l-58.9,38.1
								L94.9,154.8z"/>
						</g>
					</g>
					<g>
						<g>
							<path class="st5" d="M140,132.8c0,0,0-0.1-0.1-0.4c0-0.3,0-0.7,0-1.2c0-1.1,0-2.5,0-4.3c0-3.7,0.1-8.7,0.1-14.1
								c0-1.4,0.1-2.8-0.1-4c-0.1-1.3-0.3-2.5-0.5-3.7c-0.5-2.3-1.6-4.2-2.6-5.8c-0.9-1.5-1.7-2.8-2.1-3.7c-0.2-0.4-0.4-0.8-0.4-1.1
								c-0.1-0.3-0.1-0.4-0.1-0.4s0.1,0.1,0.2,0.4c0.1,0.3,0.3,0.6,0.5,1c0.4,0.9,1.2,2.1,2.2,3.7c0.9,1.5,2.1,3.4,2.6,5.8
								c0.3,1.2,0.4,2.4,0.5,3.7c0.1,1.3,0.1,2.7,0.1,4c-0.1,5.5-0.1,10.4-0.2,14.1c-0.1,1.8-0.1,3.2-0.1,4.3c0,0.4-0.1,0.8-0.1,1.2
								C140,132.6,140,132.8,140,132.8z"/>
						</g>
					</g>
				</g>
				<g>
					<g>
						<path class="st5" d="M136,68.6c-1,0.1-2.1-0.3-2.6-1.2c0.6,0.1,1.4,0.2,2-0.1c0.6-0.3,1-1.2,0.4-1.7c-0.4-0.4-1-0.3-1.5-0.3
							c-1.2-0.1-2.4-1-2.8-2.1c-0.4-1.3-0.1-2.7,0.1-4c0.4-3.9-1.4-8-4.6-10.2l-8.5-4.9c-3.1,3.9-4,9.2-3.4,14.1
							c0.6,4.9,2.7,9.6,5.3,13.8c0.7,1.2,1.5,2.5,2.6,3.5c1,1,2.4,1.8,3.8,1.9c0.4-1.2,0.1-2.6-0.6-3.5c2.3,0.1,4.6-0.7,6.3-2.2
							c-0.6-0.4-1.2-0.9-1.8-1.4C132.6,70.5,134.6,69.9,136,68.6z"/>
					</g>
					<g>
						<g>
							<g>
								<g>
									<g>
										<g>
											<g>
												<path class="st10" d="M103.6,54.9c0.1-3.5,2.4-6.5,5.7-7.4l10.6-3c4.6-0.6,7.8,4.9,8.3,9.6c0.4,5.1,0.8,10.5,0.3,14.4
													c-1,7.8-6.9,8.9-6.9,8.9s0.1,3.5,0.1,5.8l-0.1,17.2L106,83.3L103.4,55C103.5,54.8,103.6,55,103.6,54.9z"/>
											</g>
										</g>
									</g>
									<g>
										<g>
											<g>
												<g>
													<g>
														<g>
															<g>
																<path class="st11" d="M111.3,74.7c0,0,2.6,5.2,10.3,4.2l-0.1-1.8C121.6,77.2,116.5,77.7,111.3,74.7z"/>
															</g>
														</g>
													</g>
												</g>
											</g>
										</g>
									</g>
								</g>
							</g>
						</g>
					</g>
					<g>
						<path class="st5" d="M107.1,42.6c1.2-1.9,4-3.8,6.2-4.2c2.5-0.4,4,0,5.6,1.5c0,0,1.3,1.2,2.5,1.5s2.2,0.1,3.7,0.8
							c2,1,2.8,3.6,3.7,5.6c1.2,2.5,2.8,4.8,3.5,7.4c0.7,2.6,0.3,5.8-1.9,7.4c0.4-2.2,0.8-4.7-0.4-6.7c-1-1.5-2.6-2.3-3.8-3.5
							c-1.5-1.5-1.7-3.5-3.1-5C119.5,44,113.3,49.9,107.1,42.6"/>
					</g>
					<g>
						<path class="st5" d="M131.4,65.1c-0.1-3.7-0.3-7.5-1.6-11c-1.5-4.4-4.8-8.1-8.8-10.3c-4.1-2.2-9-2.8-13.5-1.7l-0.9-0.3
							c1.4,4.6,5,8.3,9.5,10c2.6,1,5.8,1.4,7.5,3.6c1.7,2.1,1.5,5.2,2.6,7.7c0.8,1.7,2.1,3.1,2.8,4.7c0.8,1.8,0.7,3.8,0.6,5.8
							C131.4,71.4,131.5,68.1,131.4,65.1z"/>
					</g>
					<g>
						<path class="st5" d="M113,46.3l-4.9-4.4c-3.8-0.2-6.3,3.5-7.6,6.2c-1,2.1-1.3,4.4-2.1,6.6c-0.8,2.2-2,4.3-2.7,6.6
							c-0.7,2.2-0.8,4.9,0.6,6.8c0.3-0.5,0.6-1,0.8-1.6c0.1,2.2,1.1,4.3,2.6,5.9c0.1-0.6,0.2-1.1,0.3-1.7c0.8,1.7,2.1,3.1,3.7,4
							l2.3,6.2C109.6,70.7,100.8,69.9,113,46.3z"/>
					</g>
					<g>
						<path class="st5" d="M112.3,47.2c-0.3,1.4-0.6,2.8-1.2,4.1c-0.6,1.3-1.4,2.6-2.6,3.4c-1.7,1.2-3.8,1.5-5.9,2
							c-2.1,0.5-4.2,1.4-5,3.3c0.3-2.8,0.9-5.6,1.7-8.3c0.9-2.9,2.2-6,4.7-7.9c2.2-1.7,5.4-2.2,8.1-1.2"/>
					</g>
					<g>
						<g>
							<g>
								<g>
									<g>
										<g>
											<g>
												<g>
													<g>
														<g>
															<g>
																<g>
																	<g>
																		<g>
																			<g>
																				<g>
																					<g>
																						<g>
																							<g>
																								<g>
																									<g>
																										<g>
																											<path class="st10" d="M107.1,60.8c-0.1-0.3-4.9-1.9-4.8,3.2c0.1,4.9,5,3.8,5,3.7
																												C107.3,67.6,107.1,60.8,107.1,60.8z"/>
																										</g>
																									</g>
																								</g>
																							</g>
																						</g>
																					</g>
																				</g>
																			</g>
																		</g>
																	</g>
																</g>
															</g>
														</g>
													</g>
												</g>
											</g>
										</g>
									</g>
								</g>
							</g>
							<g>
								<g>
									<g>
										<g>
											<g>
												<g>
													<g>
														<g>
															<g>
																<g>
																	<g>
																		<g>
																			<g>
																				<g>
																					<g>
																						<g>
																							<g>
																								<g>
																									<g>
																										<g>
																											<g>
																												<path class="st11" d="M105.7,65.8c0,0-0.1,0.1-0.3,0.1c-0.1,0.1-0.4,0.1-0.6,0c-0.5-0.2-1-1-1-1.9
																													c0-0.4,0.1-0.9,0.2-1.2c0.1-0.4,0.4-0.6,0.6-0.6c0.3-0.1,0.4,0.1,0.5,0.2c0.1,0.1,0.1,0.3,0.1,0.3
																													s0.1-0.1,0.1-0.3c0-0.1-0.1-0.2-0.2-0.3c-0.1-0.1-0.3-0.1-0.4-0.1c-0.4,0.1-0.7,0.4-0.9,0.8
																													c-0.2,0.4-0.3,0.9-0.3,1.3c0.1,1,0.6,1.9,1.3,2.1c0.3,0.1,0.6,0,0.8-0.1
																													C105.7,66,105.7,65.8,105.7,65.8z"/>
																											</g>
																										</g>
																									</g>
																								</g>
																							</g>
																						</g>
																					</g>
																				</g>
																			</g>
																		</g>
																	</g>
																</g>
															</g>
														</g>
													</g>
												</g>
											</g>
										</g>
									</g>
								</g>
							</g>
						</g>
						<g>
							<g>
								<g>
									<g>
										<g>
											<g>
												<g>
													<g>
														<path class="st2" d="M105.2,66.7c-0.4-0.1-1,0.3-1.1,0.8c-0.1,0.4,0.2,1,0.7,1.2c0.4,0.1,1-0.1,1.2-0.6
															c0.2-0.4-0.1-1-0.5-1.2"/>
													</g>
												</g>
											</g>
										</g>
									</g>
								</g>
							</g>
							<g>
								<g>
									<g>
										<g>
											<g>
												<g>
													<g>
														<g>
															<path class="st5" d="M105.4,66.8c0,0,0.3,0.2,0.4,0.6c0.1,0.3,0.1,0.5-0.2,0.8c-0.2,0.3-0.6,0.4-0.9,0.3
																c-0.3-0.1-0.6-0.4-0.6-0.7c-0.1-0.3,0.1-0.6,0.3-0.8c0.4-0.3,0.8-0.3,0.7-0.3c0,0-0.1-0.1-0.3-0.1
																c-0.1,0-0.4,0.1-0.6,0.3c-0.2,0.2-0.4,0.5-0.4,0.9c0.1,0.4,0.3,0.8,0.8,0.9s0.9-0.1,1.2-0.4c0.3-0.3,0.3-0.7,0.2-1
																c-0.1-0.3-0.3-0.4-0.4-0.5C105.5,66.8,105.4,66.8,105.4,66.8z"/>
														</g>
													</g>
												</g>
											</g>
										</g>
									</g>
								</g>
							</g>
						</g>
					</g>
					<g>
						<g>
							<path class="st8" d="M112.7,47.6c-0.1,0.1-0.6-1.6-1.9-3.1c-1.3-1.5-2.9-2.2-2.9-2.3c0-0.1,0.4,0.1,1,0.4
								c0.6,0.3,1.4,0.9,2.1,1.7c0.7,0.8,1.2,1.7,1.4,2.3C112.6,47.1,112.7,47.6,112.7,47.6z"/>
						</g>
					</g>
				</g>
				<g>
					<g>
						<g>
							<path class="st5" d="M235.6,62.9c0,0,0.1,0.2,0.1,0.6c0.1,0.4,0.2,1,0.3,1.7c0.3,1.5,0.5,3.7,0.5,6.4c0,2.8-0.3,6-1,9.6
								c-0.4,1.8-0.9,3.6-1.5,5.4s-1.5,3.7-2.5,5.6c-1,1.8-2.2,3.5-3.4,5.1c-1.2,1.5-2.6,2.9-3.9,4.1c-2.7,2.4-5.4,4.3-7.8,5.6
								c-2.4,1.3-4.5,2.1-6,2.4c-0.7,0.3-1.3,0.3-1.7,0.4c-0.4,0.1-0.6,0.1-0.6,0.1s0.2-0.1,0.6-0.2c0.4-0.1,1-0.3,1.7-0.5
								c1.5-0.4,3.5-1.3,5.9-2.6s5.1-3.1,7.7-5.6c1.3-1.2,2.6-2.6,3.8-4.1c1.2-1.5,2.4-3.2,3.4-5c1-1.8,1.8-3.7,2.5-5.5
								c0.7-1.9,1.2-3.7,1.5-5.4c0.8-3.5,1-6.7,1.1-9.5c0-2.7-0.2-4.9-0.4-6.4c-0.1-0.8-0.2-1.3-0.3-1.7
								C235.6,63.1,235.6,62.9,235.6,62.9z"/>
						</g>
					</g>
					<g>
						<g>
							<g>
								<path class="st5" d="M239.2,55.5c-5.8-10.2-15.2-17.6-26.5-20.7c-11.3-3.1-23.1-1.7-33.3,4c-8,4.6-14.4,11.3-18.2,19.7
									c-6,12.8-5.4,27.8,1.5,40.1c5.8,10.2,15.2,17.6,26.5,20.7c3.9,1.1,7.9,1.6,11.9,1.6c7.4,0,14.8-1.9,21.5-5.7
									c10.2-5.8,17.6-15.1,20.7-26.5C246.4,77.6,245,65.8,239.2,55.5z M211.6,38.8c10.3,2.8,18.7,9.5,24,18.8
									c6.3,11.1,6.8,24.7,1.4,36.3c-3.5,7.6-9.2,13.7-16.5,17.9c-9.2,5.2-20,6.5-30.2,3.7c-10.3-2.8-18.7-9.5-24-18.8
									c-5.2-9.2-6.5-20-3.7-30.2c2.8-10.3,9.5-18.7,18.8-24c6-3.4,12.8-5.1,19.5-5.1C204.5,37.3,208.1,37.8,211.6,38.8z"/>
							</g>
						</g>
						<g>
							<g>
								<path class="st5" d="M167.3,91c0,0-0.1-0.1-0.2-0.3c-0.1-0.3-0.3-0.6-0.4-1c-0.2-0.4-0.4-1-0.6-1.5
									c-0.2-0.6-0.5-1.3-0.7-2.1c-0.1-0.4-0.3-0.8-0.3-1.2c-0.1-0.4-0.2-0.9-0.3-1.3c-0.2-1-0.3-2-0.5-3c-0.2-2.2-0.3-4.6-0.1-7.1
									c0.3-2.5,0.7-4.9,1.3-6.9c0.3-1,0.6-2.1,1-2.9c0.2-0.4,0.3-0.9,0.5-1.3c0.2-0.4,0.4-0.8,0.6-1.2c0.3-0.8,0.7-1.4,1-1.9
									c0.3-0.6,0.6-1,0.9-1.4c0.3-0.3,0.4-0.6,0.6-0.9c0.1-0.2,0.2-0.3,0.3-0.3c0,0-0.1,0.1-0.2,0.3c-0.1,0.3-0.3,0.5-0.5,0.9
									c-0.3,0.4-0.5,0.8-0.8,1.4s-0.7,1.2-1,2c-0.2,0.4-0.3,0.8-0.5,1.2c-0.2,0.4-0.3,0.8-0.5,1.3c-0.4,0.9-0.6,1.9-1,2.9
									c-0.6,2.1-1,4.4-1.3,6.9c-0.2,2.5-0.1,4.9,0.1,7c0.1,1.1,0.3,2.1,0.4,3c0.1,0.4,0.2,0.9,0.3,1.3c0.1,0.4,0.2,0.8,0.3,1.2
									c0.2,0.8,0.4,1.5,0.6,2.1c0.2,0.6,0.4,1.2,0.6,1.5c0.1,0.4,0.3,0.7,0.4,1C167.2,90.8,167.3,91,167.3,91z"/>
							</g>
						</g>
						<g>
							<g>
								<path class="st5" d="M173.2,98.5c-0.1,0.1-0.8-0.2-1.4-0.8c-0.7-0.6-1-1.3-1-1.3c0.1-0.1,0.6,0.5,1.2,1.1
									C172.7,98,173.3,98.4,173.2,98.5z"/>
							</g>
						</g>
						<g>
							<g>
								<g>
									<g>
										<g>
											<g>
												<g>
													<g>
														<g>
															<path class="st8" d="M161.1,55.2c3.7-7.9,9.8-14.8,17.9-19.4c10.1-5.7,21.7-7.1,32.9-4c11.2,3.1,20.4,10.4,26.1,20.4
																c11.7,20.8,4.4,47.2-16.4,59l0,0c-10.1,5.7-21.7,7.1-32.9,4c-11.2-3.1-20.4-10.4-26.1-20.4
																C155.5,82.1,155.5,67.4,161.1,55.2z M237,90.5c5.3-11.4,5.2-25.1-1.4-36.9c-5.3-9.4-14-16.2-24.4-19
																S190,33,180.5,38.3c-9.4,5.3-16.2,14-19,24.4c-2.9,10.4-1.5,21.3,3.7,30.7c5.3,9.4,14,16.2,24.4,19
																c10.4,2.9,21.3,1.5,30.7-3.7C227.9,104.4,233.6,97.9,237,90.5z"/>
															<path class="st12" d="M200.5,117.5c-4,0-7.9-0.5-11.9-1.6c-11.3-3.1-20.7-10.5-26.5-20.8
																c-6.9-12.3-7.5-27.3-1.5-40.2c3.9-8.4,10.2-15.2,18.3-19.7c10.3-5.8,22.1-7.2,33.4-4c11.3,3.1,20.7,10.5,26.5,20.8
																c11.9,21.1,4.4,48-16.7,59.9C215.3,115.6,207.9,117.5,200.5,117.5z M200.3,30.8c-7.2,0-14.4,1.9-20.9,5.5
																c-7.8,4.4-13.9,11-17.7,19.1c-5.8,12.4-5.2,27,1.5,38.9c5.6,9.9,14.7,17.1,25.6,20.1c11,3.1,22.4,1.7,32.4-3.9
																c20.4-11.5,27.7-37.6,16.2-58c-5.6-9.9-14.7-17.1-25.6-20.1C208,31.3,204.1,30.8,200.3,30.8z M200.4,114.6
																c-3.7,0-7.4-0.5-11.1-1.5c-10.6-2.9-19.4-9.8-24.7-19.4s-6.7-20.6-3.8-31.2s9.8-19.4,19.4-24.7
																c9.6-5.4,20.6-6.7,31.2-3.8s19.4,9.8,24.7,19.4c6.5,11.5,7.1,25.5,1.5,37.5l0,0c-3.7,7.8-9.6,14.2-17.1,18.5
																C214.3,112.8,207.4,114.6,200.4,114.6z M200.4,33.7c-6.7,0-13.4,1.7-19.4,5.1c-9.2,5.2-15.9,13.7-18.7,23.9
																c-2.8,10.2-1.5,20.9,3.7,30.2c5.2,9.2,13.7,15.9,23.9,18.7c10.2,2.8,20.9,1.5,30.2-3.7c7.2-4.1,12.9-10.3,16.5-17.8
																l0,0c5.4-11.6,4.9-25.2-1.4-36.3c-5.2-9.2-13.7-15.9-23.9-18.7C207.5,34.2,203.9,33.7,200.4,33.7z"/>
														</g>
													</g>
												</g>
											</g>
										</g>
									</g>
									<g>
										<g>
											<g>
												<g>
													<g>
														<g>
															<path class="st12" d="M79.5,154.9l-0.8-1.2c-1.7-2.6,0.3-6.9,2.1-8l81.7-51.5c0.4-0.3,1,0,1.4,0.6l5.4,8.7
																c0.4,0.6,0.3,1.3-0.1,1.5L88,156.2C86.2,157.4,81.2,157.6,79.5,154.9z"/>
														</g>
													</g>
												</g>
											</g>
										</g>
									</g>
								</g>
							</g>
						</g>
					</g>
					<g>
						<g>
							<g>
								<g>
									<path class="st10" d="M155.6,113.9l2.5-2.6c0,0-0.3-6,0.7-7.4l0.5-0.9c0,0-0.5-2.9,1-3.6c0.4-1.1,1-1.5,1.8-1
										c0,0-0.4-2.2,1.6-2.5s2.6,9,2.6,9s1,4.2-1.3,4.2c0,0-1.3,1.5-2.8,1.6c0,0-0.4,2.5-2.5,2.3L155.6,113.9z"/>
								</g>
							</g>
						</g>
						<g>
							<g>
								<g>
									<g>
										<path class="st11" d="M162,109.6c0,0,0.1,0.1,0.3,0.3c0.1,0.2,0.2,0.6,0.1,1c-0.1,0.4-0.3,1-0.8,1.3
											c-0.4,0.4-1,0.7-1.6,0.9c-1.2,0.4-2.4,0.6-3.3,0.6c-0.8,0.1-1.3-0.1-1.3-0.1c0-0.1,2.1,0,4.5-0.9c0.6-0.2,1.2-0.4,1.5-0.8
											c0.4-0.3,0.6-0.8,0.8-1.2C162.3,110.1,162,109.7,162,109.6z"/>
									</g>
								</g>
							</g>
						</g>
						<g>
							<g>
								<g>
									<g>
										<path class="st11" d="M163.8,106.3c-0.1,0-0.1-1.9-0.6-4.1c-0.4-2.2-1.2-4-1-4c0.1,0,0.3,0.4,0.5,1.1
											c0.3,0.7,0.6,1.7,0.8,2.8c0.2,1.2,0.3,2.2,0.3,2.9C163.9,105.9,163.9,106.3,163.8,106.3z"/>
									</g>
								</g>
							</g>
						</g>
						<g>
							<g>
								<g>
									<g>
										<path class="st11" d="M162.1,107.4c-0.1,0-0.3-1.8-0.8-4c-0.4-2.2-1-3.9-1-4c0.1,0,0.8,1.7,1.3,3.9
											C162.1,105.5,162.1,107.4,162.1,107.4z"/>
									</g>
								</g>
							</g>
						</g>
						<g>
							<g>
								<g>
									<g>
										<path class="st11" d="M165.4,107.3c0.1-0.1,0.4,0.5,0.2,1.2c-0.2,0.7-0.8,1.1-0.8,1c-0.1-0.1,0.3-0.4,0.4-1.1
											C165.4,107.8,165.2,107.3,165.4,107.3z"/>
									</g>
								</g>
							</g>
						</g>
						<g>
							<g>
								<g>
									<g>
										<path class="st11" d="M159.6,107.7c-0.1,0-0.1-1-0.2-2.2c-0.1-1.2-0.2-2.2-0.1-2.3c0.1,0,0.3,1,0.4,2.2
											C159.8,106.7,159.7,107.7,159.6,107.7z"/>
									</g>
								</g>
							</g>
						</g>
					</g>
					<g>
						<g>
							<g>
								<path class="st10" d="M105.2,129.2c0,0,0.8-1.2,2.4-2.2c1.6-1,4.9-1.3,5.5-2.4c0.6-1.1,1.6,0,1.1,1.4
									c-0.3,0.9-2.7,2.9-2.7,2.9s2.1,1,3.8,0.4c1.7-0.6,7.2-1.2,7.6-0.3c0.4,1-1,1-1.6,1.2c-0.5,0.2-4.3,1.3-4.3,1.3
									s6.9,1,7.8,1.5c0.9,0.5-0.3,1.2-0.7,1.2c-0.3-0.1-1.7,0.8-2.6,1.4c-0.6,0.4-1.5,0.6-2.2,0.4l-1.6-0.3l4.8,1.4
									c0,0,0.7,0.9-0.5,1.1c-0.6,0.1-15.7-0.5-16.9-0.6c-2-0.3-5.3-0.3-5.3-0.3l2.5-9L105.2,129.2z"/>
							</g>
						</g>
						<g>
							<g>
								<g>
									<path class="st11" d="M124.1,134.3c0,0.1-1.5,0.4-3.5,0.4s-3.5-0.3-3.5-0.4c0-0.1,1.5,0.1,3.5,0.1
										C122.5,134.4,124.1,134.2,124.1,134.3z"/>
								</g>
							</g>
						</g>
					</g>
					<g>
						<g>
							<path class="st6" d="M93.2,124.7l6.9-14.3l-6.2-18.6c0,0-2.4,1-4.6,4c-2.2,2.9-4.6,9.3-4.6,9.3S77.2,122.4,76,125
								c-1.2,2.6-3.3,7.4,0,10.1c3.3,2.7,25,2.8,25,2.8l2.3-9.6L93.2,124.7z"/>
						</g>
					</g>
					<g>
						<g>
							<path class="st5" d="M94,101.5c0.1,0,1.7,4.8,3.6,10.8c1.9,6,3.4,10.9,3.3,10.9c-0.1,0-1.7-4.8-3.6-10.8
								C95.3,106.4,93.9,101.5,94,101.5z"/>
						</g>
					</g>
					<g>
						<g>
							<path class="st5" d="M103.4,128.1c0,0-0.3-0.1-0.8-0.2c-0.6-0.2-1.3-0.4-2.2-0.6c-1.8-0.5-4.4-1.3-7.1-2
								c-2.8-0.7-5.4-1.3-7.2-1.2c-1.9,0-2.9,0.6-2.9,0.6c0,0,0.3-0.2,0.7-0.4c0.5-0.2,1.3-0.4,2.2-0.4c1.9-0.1,4.6,0.4,7.4,1.1
								c2.8,0.7,5.3,1.5,7.1,2.1c0.9,0.3,1.6,0.5,2.1,0.7C103.1,128,103.4,128.1,103.4,128.1z"/>
						</g>
					</g>
					<g class="st9">
						<g>
							<path d="M95.6,106.2c-0.2,3.8,0.1,8.3,0.6,12.1l1.9-3.9c-0.3-2-1.8-6-2.5-7.9"/>
						</g>
					</g>
				</g>
				<g>
					<rect x="208.2" y="59.2" class="st6" width="9" height="32.5"/>
					<g>
						<g>
							<rect x="180" y="78.3" class="st6" width="9" height="14.7"/>
						</g>
						<g>
							<rect x="193.9" y="70.3" class="st6" width="9" height="22.8"/>
						</g>
						<g>
							<g>
								<path class="st5" d="M213.9,48.5c0,0-0.1,0.1-0.2,0.3c-0.2,0.2-0.4,0.4-0.6,0.8c-0.6,0.7-1.5,1.7-2.6,2.9
									c-2.2,2.5-5.3,6-8.8,9.9l-0.1,0.1l-0.1-0.1c-1.7-1.2-3.6-2.4-5.5-3.6l0.3-0.1c-0.1,0.1-0.1,0.2-0.2,0.3
									c-4.6,5.3-8.7,10.2-11.7,13.7l-0.1,0.1l-0.1-0.1c-1.9-1.3-3.3-2.5-4.4-3.3c-0.5-0.4-0.9-0.7-1.2-0.9
									c-0.3-0.2-0.4-0.3-0.4-0.3s0.1,0.1,0.4,0.3s0.7,0.5,1.2,0.8c1.1,0.8,2.6,1.9,4.5,3.2h-0.2c3-3.5,7.1-8.4,11.6-13.8
									c0.1-0.1,0.1-0.2,0.2-0.3l0.1-0.1l0.1,0.1c1.9,1.3,3.8,2.5,5.5,3.7h-0.2c3.6-4,6.7-7.4,8.9-9.9c1.1-1.2,2-2.2,2.6-2.8
									c0.3-0.3,0.5-0.6,0.7-0.8C213.8,48.5,213.9,48.5,213.9,48.5z"/>
							</g>
						</g>
						<g>
							<g>
								<path class="st5" d="M214.1,55.3c-0.1,0-0.1-0.8-0.1-2.1c-0.1-1.3-0.1-3.1-0.1-5l0.2,0.2c-0.1,0-0.1,0-0.2,0
									c-2,0.3-3.8,0.6-5.1,0.8c-1.3,0.2-2.1,0.3-2.1,0.2s0.8-0.3,2.1-0.4c1.3-0.3,3.1-0.6,5.1-0.9c0.1,0,0.1,0,0.2,0l0.2-0.1v0.2
									c0,2,0,3.7-0.1,5C214.3,54.6,214.2,55.3,214.1,55.3z"/>
							</g>
						</g>
					</g>
				</g>
			</g>
		</g>
	</g>
	<g>
		<g>
			<path class="st13" d="M44.8,113.3V81.5c17.4,0,31.8,14.4,31.8,31.8s-14.4,31.8-31.8,31.8c-17.2,0-31.3-13.9-31.7-31L44.8,113.3z"
				/>
		</g>
		<g>
			<path class="st14" d="M38.9,101.3L7.1,102c0-8.3,3.2-16.9,9-22.9c5.8-5.9,14-9.4,22.2-9.6L38.9,101.3z"/>
		</g>
	</g>
	<g>
		<g>
			<g>
				<g>
					<g>
						<path class="st6" d="M84.8,24.4c-4.2-9.7-15.6-14.2-25.3-9.9c-9.7,4.3-14.2,15.6-9.9,25.3c3.1,7.1,9.9,11.3,17.1,11.5
							c0.9,2.1,1.9,4.4,1.9,4.4L83.9,49c0,0-1-2.6-1.9-4.8C86.4,38.8,87.7,31.2,84.8,24.4z"/>
					</g>
				</g>
			</g>
			<g>
				<g>
					<g>
						<g>
							<path class="st5" d="M78.4,51.3c0,0,0-0.1-0.1-0.3c-0.1-0.1-0.1-0.4-0.2-0.6c-0.2-0.6-0.4-1.5-0.8-2.6
								c-0.3-1.2-0.6-2.5-1-4.2c-0.3-1.6-0.6-3.5-0.5-5.6c0-1,0.1-2.1,0.3-3.3c0.1-0.6,0.3-1.2,0.7-1.6c0.4-0.4,1-0.8,1.7-0.7
								c0.3,0.1,0.6,0.2,0.8,0.4c0.2,0.3,0.3,0.6,0.3,1c0,0.7-0.4,1.3-0.8,1.8c-1,0.9-2.4,1.4-3.8,1.3c-1.4-0.1-2.8-0.7-3.8-1.9
								c-0.4-0.6-0.9-1.2-1-2c-0.1-0.8,0.3-1.7,1.1-1.9c0.4-0.1,0.8,0,1.2,0.3s0.5,0.6,0.6,1c0.1,0.8-0.1,1.6-0.4,2.3
								c-0.7,1.4-2,2.6-3.6,3c-1.6,0.4-3.3,0-4.5-1c-0.6-0.5-1-1.3-1-2.1c0-0.4,0.1-0.8,0.4-1.1c0.3-0.3,0.7-0.4,1.2-0.4
								c0.4,0,0.8,0.2,1.1,0.4c0.3,0.3,0.5,0.6,0.7,0.9c0.3,0.6,0.6,1.4,0.6,2.1c0.1,1.5-0.3,2.9-1.2,4c-0.9,1.1-2.1,1.9-3.4,2.1
								c-0.6,0.1-1.3,0.1-1.9-0.1c-0.6-0.3-1-1-0.8-1.7c0.1-0.3,0.3-0.6,0.6-0.7c0.3-0.1,0.6-0.2,0.9-0.2c0.6,0,1.2,0.4,1.6,0.8
								c0.8,0.8,1.6,1.5,2.4,2.2c2.9,2.9,5.3,5.4,6.8,7.2c0.8,0.9,1.3,1.5,1.8,2c0.2,0.3,0.3,0.4,0.4,0.5c0.1,0.1,0.1,0.2,0.1,0.2
								S75,53.1,74.8,53s-0.3-0.3-0.4-0.5c-0.4-0.4-1-1.2-1.8-2c-1.6-1.7-3.8-4.2-6.9-7.1c-0.8-0.7-1.5-1.5-2.4-2.2
								c-0.4-0.3-1-0.6-1.5-0.7c-0.6,0-1.2,0.3-1.3,0.8c-0.1,0.6,0.2,1.2,0.8,1.4c0.5,0.3,1.2,0.3,1.8,0.1c1.3-0.3,2.4-1,3.3-2.1
								c0.8-1,1.3-2.5,1.2-3.9c-0.1-0.7-0.3-1.4-0.6-2.1c-0.3-0.6-0.9-1.2-1.6-1.2c-0.3,0-0.7,0.1-1,0.3s-0.4,0.6-0.4,1
								c0,0.7,0.4,1.4,1,1.9c1.2,1,2.8,1.4,4.3,1c1.5-0.4,2.8-1.5,3.5-2.9c0.3-0.7,0.6-1.4,0.4-2.1c-0.1-0.3-0.3-0.6-0.5-0.9
								c-0.3-0.2-0.6-0.3-1-0.2s-0.6,0.4-0.8,0.6c-0.2,0.3-0.2,0.6-0.1,1c0.1,0.7,0.5,1.3,1,1.9c0.9,1.1,2.2,1.7,3.6,1.8
								c1.3,0.1,2.7-0.4,3.6-1.3c0.4-0.4,0.8-1,0.8-1.6c0.1-0.6-0.4-1.2-1-1.2c-0.6-0.1-1.2,0.2-1.5,0.6c-0.4,0.4-0.6,1-0.7,1.5
								c-0.2,1.1-0.3,2.2-0.3,3.2c-0.1,2.1,0.2,4,0.5,5.6s0.6,3,1,4.2c0.3,1.1,0.5,2,0.7,2.6c0.1,0.3,0.1,0.5,0.2,0.7
								C78.4,51.3,78.4,51.3,78.4,51.3z"/>
						</g>
					</g>
				</g>
			</g>
			<g>
				<g>
					<g>
						<path class="st5" d="M84,52.4l-13.3,5.8c-0.6,0.3-1.2,0-1.4-0.6l0,0c-0.3-0.6,0-1.2,0.6-1.4l13.3-5.8c0.6-0.3,1.2,0,1.4,0.6
							l0,0C84.8,51.5,84.6,52.1,84,52.4z"/>
					</g>
				</g>
			</g>
			<g>
				<g>
					<g>
						<path class="st5" d="M84.4,53.3L71.1,59c-0.6,0.3-0.8,0.9-0.6,1.4c0.3,0.6,0.9,0.8,1.4,0.6l1.5-0.6l3.5,2.8
							c0.4,0.3,1,0.4,1.4,0.2l4.7-2.1c0.4-0.2,0.8-0.6,0.8-1.2l0.3-4.5l1-0.4c0.6-0.3,0.8-0.9,0.6-1.4C85.6,53.3,85,53,84.4,53.3z"
							/>
					</g>
				</g>
			</g>
		</g>
		<g class="st15">
			<g>
				<g>
					<g>
						<path class="st2" d="M50.9,25.8c0.7-1.6,1.6-2.9,2.5-3.9c0.9-1,1.7-1.6,2.4-2c0.6-0.4,1-0.4,1.2-0.3c0.2,0.3-0.9,1.3-2.2,3.3
							c-1.3,2-2.6,5-2.7,8.5C52,34.9,53.2,38,54.4,40c1.2,2.1,2.2,3.1,2.1,3.4c-0.1,0.1-0.5,0-1.1-0.4c-0.6-0.4-1.4-1.1-2.3-2.1
							c-0.8-1-1.7-2.4-2.3-4c-0.6-1.7-1-3.6-1-5.6"/>
					</g>
				</g>
			</g>
		</g>
		<g class="st15">
			<g>
				<g>
					<g>
						<path class="st2" d="M61.5,18.5c-1.1,0.4-2.2,0.6-2.6,0.1c-0.2-0.3-0.1-0.7,0.2-1.1c0.3-0.4,0.8-0.8,1.5-1.2
							c0.6-0.3,1.3-0.4,1.9-0.3c0.5,0.1,0.8,0.3,0.9,0.6"/>
					</g>
				</g>
			</g>
		</g>
		<g>
			<g>
				<g>
					<g>
						<path class="st8" d="M83.9,60.6c0,0.1-0.4,0.1-1,0.1c-0.6,0.1-1.5,0.3-2.4,0.7c-0.9,0.4-1.6,1-2.1,1.4s-0.7,0.8-0.8,0.7
							c0,0,0.2-0.4,0.6-0.8c0.4-0.4,1.2-1,2.1-1.5c0.9-0.4,1.8-0.6,2.4-0.6C83.5,60.5,83.9,60.6,83.9,60.6z"/>
					</g>
				</g>
			</g>
		</g>
		<g>
			<g>
				<g>
					<g>
						<path class="st8" d="M84.3,55.7c0,0.1-2.4,1.2-5.3,2.4c-2.9,1.3-5.4,2.3-5.4,2.2s2.4-1.2,5.3-2.4
							C81.9,56.7,84.3,55.6,84.3,55.7z"/>
					</g>
				</g>
			</g>
		</g>
		<g>
			<g>
				<g>
					<g>
						<path class="st8" d="M84.2,57.6c0,0-0.4,0.3-1.2,0.7s-1.9,1-3.1,1.5c-1.2,0.6-2.4,1-3.2,1.3c-0.8,0.3-1.3,0.5-1.3,0.4
							c0,0,0.5-0.3,1.3-0.6c0.9-0.4,1.9-0.9,3.1-1.4c1.2-0.5,2.2-1,3.1-1.4C83.7,57.8,84.2,57.6,84.2,57.6z"/>
					</g>
				</g>
			</g>
		</g>
	</g>
	<g>
		<rect x="200.6" y="231.7" class="st1" width="11.2" height="34.9"/>
		<rect x="217.3" y="239.7" class="st1" width="11.2" height="27"/>
		<rect x="232.8" y="250.7" class="st1" width="11.2" height="16"/>
	</g>
</g>
</svg>
