<?xml version="1.0" encoding="utf-8"?>
<!-- Generator: Adobe Illustrator 27.1.1, SVG Export Plug-In . SVG Version: 6.00 Build 0)  -->
<svg version="1.1" id="Capa_1" xmlns="http://www.w3.org/2000/svg" xmlns:xlink="http://www.w3.org/1999/xlink" x="0px" y="0px"
	 viewBox="0 0 300 300" style="enable-background:new 0 0 300 300;" xml:space="preserve">
<style type="text/css">
	.st0{fill:#F2F2F2;}
	.st1{fill:#FFB8B8;}
	.st2{fill:#F88C7E;}
	.st3{fill:#CCCCCC;}
	.st4{fill:#2F2E41;}
	.st5{fill:#B3B3B3;}
	.st6{fill:#E6E6E6;}
</style>
<path class="st0" d="M263.8,160.5c-8.4,25.2-23.9,44-40.2,59.2c-17.7,16.6-36.9,30-57,39.8c-2.7,1.3-5.5,2.6-8.3,3.8H45.4
	c-0.8-1.2-1.5-2.5-2.3-3.8c-7.6-14-11.6-31.9-10.2-49.4c1.9-22.6,13.8-43.3,29.1-48c15.4-4.8,32.9,8.5,37.5,30.1
	c2.6-41.8,5.5-85.3,20.9-120.9c14-32.2,38.1-55.3,64.2-59.4c15.4-2.3,30.9,1.8,44.7,11.8c1.3,0.9,2.5,1.9,3.8,2.9
	c8.3,6.8,15.6,15.8,21.6,26.6C271.3,82.9,275.2,126.2,263.8,160.5z"/>
<path class="st1" d="M106.3,142.6c2.1-2.1,2.2-5.6,0.1-7.7c-0.2-0.2-0.5-0.5-0.7-0.6l-2.8-18.2l-11.3,3.6l6.2,16.2
	c-1.6,2.6-0.7,6,1.8,7.5C101.7,144.8,104.5,144.5,106.3,142.6L106.3,142.6z"/>
<path class="st2" d="M94.6,134.1l-7-32.7c-1.4-6.4,0.6-13,5.3-17.5c9-8.6,20.4-19.5,24.4-22.3c3.7-2.6,8.2-4,12.8-3.8h0.1l6,5.7
	l-13.1,21.6l-19.9,12.5l2.2,32L94.6,134.1z"/>
<path class="st3" d="M89.7,89.7H119c1.3,0,2.3,1,2.3,2.3l0,0c0,1.3-1,2.3-2.3,2.3H89.7c-1.3,0-2.3-1-2.3-2.3l0,0
	C87.4,90.8,88.4,89.7,89.7,89.7z"/>
<path class="st3" d="M89.7,139.8H119c1.3,0,2.3,1,2.3,2.3l0,0c0,1.3-1,2.3-2.3,2.3H89.7c-1.3,0-2.3-1-2.3-2.3l0,0
	C87.4,140.8,88.4,139.8,89.7,139.8z"/>
<path class="st3" d="M104.7,265.1c-0.6,0-1.1-0.5-1.2-1l-14.7-172c-0.1-0.6,0.4-1.2,1-1.3c0.6-0.1,1.2,0.4,1.3,1l13.5,158.9
	L117.8,92c0.1-0.6,0.6-1.1,1.3-1c0.6,0.1,1.1,0.6,1,1.3l-14.3,172C105.7,264.7,105.3,265.1,104.7,265.1L104.7,265.1z"/>
<circle class="st1" cx="137.6" cy="36" r="15.1"/>
<polygon class="st1" points="92.6,258.2 85.4,256 90.9,227.2 101.4,230.6 "/>
<path class="st4" d="M92.2,264.6l-23.1-7.4l0.2-0.6c1.6-4.8,6.6-7.4,11.4-5.9l14.4,4.6L92.2,264.6z"/>
<polygon class="st1" points="144.9,258.1 137.3,258.1 133.7,229.1 144.9,229.1 "/>
<path class="st4" d="M123.1,264.9h23.1v-8.6h-14.6C126.9,256.3,123.1,260.1,123.1,264.9L123.1,264.9z"/>
<path class="st4" d="M144.6,248.7l-2.5-0.4c-7.7-1.2-8.2-1.2-9.4-1.8c-0.6-0.3-0.7-4.4-0.3-27.8c0.3-17.1,0.6-38.4-0.1-49.9
	c-0.1-1.1-1-2-2.1-1.9c-0.7,0.1-1.4,0.5-1.7,1.2c-5.8,13.2-15.4,42.9-21.7,62.5c-2.2,6.8-4,12.2-5.1,15.5c-0.5,1.3-1.8,2-3.1,1.7
	c-5.2-1.3-4.9-1.8-12.4-3.8c-1.3-0.3-2.2-1.7-1.9-3c1.3-6.4,26.1-109.6,28-119.5c0.3-1.4,1.6-2.3,3-2.1l0,0c5.6,1.1,9,2.3,14.4,3.5
	c5.9,1.3,12.1,2.5,18.1,3.7l0,0c0.6,0.1,1.2,0.5,1.5,0.9c1.5,1.9,3.7,2.9,6,4c1.6,0.7-2,0.7-0.6,1.8c5.5,4.4-2.4,93.2-7.2,113.3
	C147.2,248.1,146,248.9,144.6,248.7L144.6,248.7z"/>
<path class="st4" d="M144.1,49.1c-0.9-3.7,3.6-11.8,2.7-15.5c-0.6-2.5-6.6-0.8-7.9-3s-3.7-4-6.3-4c-3-0.1-5.9,2.2-8.7,1.2
	c-2.9-1-3.8-4.9-2.5-7.6s4-4.5,6.7-5.9c4.6-2.4,9.9-4,14.8-2.5c3,0.9,5.5,2.9,7.9,4.9c2.2,1.8,4.4,3.6,5.9,6c3,4.7,2.8,11,0.2,15.9
	s-7.2,8.6-12.4,10.6"/>
<path class="st2" d="M107,136.1c1.6-2.7,4.1-15.5,7.1-36.9c2.1-14.6,3.9-29.4,4.8-37c0.1-1.3,0.9-2.4,2.1-2.9
	c0.6-0.3,1.2-0.6,1.7-0.8c7.4-3.2,15-4.3,22.4-3.2c7.4,1.2,14.4,4.3,20.1,9.1l0.1,0.1v0.1c0.1,0.2,3.2,17-3.2,28.3
	c-6.3,11.2-6.4,40.8-6.4,41.1v0.4l-0.3-0.1c-9.8-2.8-47.6,2.1-48,2.1l-0.6,0.1L107,136.1z"/>
<path class="st3" d="M134.6,97.2h29.3c1.3,0,2.3,1,2.3,2.3l0,0c0,1.3-1,2.3-2.3,2.3h-29.3c-1.3,0-2.3-1-2.3-2.3l0,0
	C132.3,98.2,133.3,97.2,134.6,97.2z"/>
<path class="st3" d="M134.6,147.2h29.3c1.3,0,2.3,1,2.3,2.3l0,0c0,1.3-1,2.3-2.3,2.3h-29.3c-1.3,0-2.3-1-2.3-2.3l0,0
	C132.3,148.3,133.3,147.2,134.6,147.2z"/>
<path class="st3" d="M149.5,265.7c-0.6,0-1.1-0.5-1.2-1L133.7,99.6c-0.1-0.6,0.4-1.2,1-1.3c0.6-0.1,1.2,0.4,1.3,1l13.5,152
	l13.1-151.9c0.1-0.6,0.6-1.1,1.3-1c0.6,0.1,1.1,0.6,1,1.3l-14.3,165.1C150.6,265.3,150.1,265.7,149.5,265.7L149.5,265.7z"/>
<path class="st1" d="M140.1,148c-0.6-2.9,1.2-5.9,4.1-6.5c0.3-0.1,0.6-0.1,1-0.1l12.2-13.7l7.6,9.1L151,147c-0.1,3-2.6,5.4-5.6,5.3
	C142.8,152.3,140.6,150.5,140.1,148L140.1,148z"/>
<path class="st2" d="M147.2,138.4l19.3-25.7l-9.9-21.3l0.7-25.2l8.1-1.5l0.1,0.1c4,2.3,7,5.9,8.7,10.1c1.8,4.5,5.6,19.9,8.4,32
	c1.5,6.3-0.4,13-5,17.6l-23.6,23.6L147.2,138.4z"/>
<path class="st3" d="M66.5,258.6l26.3,6.3c1,0.3,2.1-0.2,2.6-1.2l22.6-60.1c0.2-0.5,0.2-1,0-1.4c-0.2-0.5-0.7-0.9-1.2-1.2l-19.8-7.5
	c-0.6-0.2-1.3-0.2-2,0.1c-0.5,0.2-0.9,0.7-1,1.3l0,0l-14,53h-0.2c-0.1,0-8.1,0.6-11.7,4.9C66.9,254.4,66.2,256.5,66.5,258.6z"/>
<rect x="97" y="214.7" transform="matrix(0.1053 -0.9944 0.9944 0.1053 -138.2155 299.8667)" class="st5" width="1.2" height="24.2"/>
<rect x="92.3" y="228.7" transform="matrix(0.4103 -0.9119 0.9119 0.4103 -163.3877 225.8063)" class="st5" width="1.2" height="21.2"/>
<polygon class="st5" points="112.1,219.4 89.4,211.8 89.8,210.8 112.6,218.3 "/>
<polygon class="st5" points="114.4,214.2 91.7,203.2 92.1,202.2 114.9,213.2 "/>
<rect x="88.7" y="240.1" transform="matrix(0.6495 -0.7603 0.7603 0.6495 -159.4368 155.8168)" class="st5" width="1.2" height="21.6"/>
<rect x="79" y="247.5" transform="matrix(0.9107 -0.413 0.413 0.9107 -98.4259 55.6725)" class="st5" width="1.2" height="15.9"/>
<g>
	<g>
		<rect x="0" y="265.8" class="st6" width="299" height="34.1"/>
	</g>
</g>
</svg>
