<?xml version="1.0" encoding="utf-8"?>
<!-- Generator: Adobe Illustrator 27.1.1, SVG Export Plug-In . SVG Version: 6.00 Build 0)  -->
<svg version="1.1" id="Capa_1" xmlns="http://www.w3.org/2000/svg" xmlns:xlink="http://www.w3.org/1999/xlink" x="0px" y="0px"
	 viewBox="0 0 300 300" style="enable-background:new 0 0 300 300;" xml:space="preserve">
<style type="text/css">
	.st0{fill:#E6E6E6;}
	.st1{fill:#F2F2F2;}
	.st2{fill:#FFFFFF;}
	.st3{fill:#3F3D56;}
	.st4{fill:#F88C7E;}
	.st5{fill:#CCCCCC;}
	.st6{fill:#ADADAD;}
	.st7{fill:#FFB8B8;}
	.st8{fill:#2F2E41;}
	.st9{opacity:0.1;enable-background:new    ;}
	.st10{fill:#6C63FF;}
	.st11{fill:#1A2E35;}
</style>
<g>
	<rect x="120.4" y="265.4" class="st0" width="176.2" height="32.6"/>
</g>
<path class="st1" d="M83.8,38.2c26.8-19.2,54.7-27.3,80.5-31.4c28.2-4.5,123.2,9.4,127,69.3c3.8,59.8-48.4,103.6-64.9,80.8
	s-52.6,20.5-85.5,57.8s-77.8,37.5-103.6,23.8c-15.1-8.1-25.4-22.6-29.6-41.9c-0.4-1.8-0.7-3.5-1.1-5.4c-2-12.3-1.3-26.2,1.8-40.9
	C17.5,109.8,47.5,64.3,83.8,38.2z"/>
<g>
	<path class="st0" d="M277.6,200c0,0-30.8-14.1-20-24C268.5,166.2,277.6,200,277.6,200z"/>
	<path class="st0" d="M277.1,203.3c0,0-14.1-46.5,6.7-44.3C304.6,161.4,277.1,203.3,277.1,203.3z"/>
	<path class="st0" d="M260.6,196.2l1.1,14.4v0.2c0,2.2,0.1,4.5,0.3,6.8c1.5,14.7,8,21.4,15.4,21.4c7.4,0,13.7-6.7,15.2-21.4
		c0.2-2.2,0.3-4.5,0.3-6.8v-0.2v-0.1l1.1-14.4L260.6,196.2L260.6,196.2L260.6,196.2z"/>
	<path class="st2" d="M294.1,210.3L294.1,210.3v0.2c0,2.3-0.2,4.6-0.4,7h-31.6c-0.2-2.3-0.4-4.6-0.4-7v-0.2H294.1z"/>
</g>
<g>
	<path class="st3" d="M30,193.7c-3.5,0-6.3,2.8-6.4,6.4v14.8c0,3.5,2.8,6.3,6.4,6.4h8c3.5,0,6.3-2.8,6.4-6.4v-14.8
		c0-3.5-2.8-6.3-6.4-6.4H30z"/>
	<path class="st3" d="M178.7,221.7h-8c-3.8,0-6.9-3.1-6.9-6.9V200c0-3.8,3.1-6.9,6.9-6.9h8c3.8,0,6.9,3.1,6.9,6.9v14.8
		C185.4,218.6,182.4,221.7,178.7,221.7z"/>
	<path class="st4" d="M173.3,209.8H34.9c-6.3,0-11.4-3.7-11.4-8.3v-26.6l6.9-7.2h148.9l5.5,7.2v26.6
		C184.7,206.1,179.6,209.8,173.3,209.8z"/>
	<path class="st4" d="M178.5,181H31.1l-1.5-23l1-2.3l5.6-13.7h136.4l7.5,15.5L178.5,181z"/>
	<polygon class="st2" points="179.8,157.6 178.7,174.9 146.3,174.9 146.3,162 178.9,155.7 	"/>
	<polygon class="st2" points="62.9,162 62.9,174.9 31,174.9 29.9,158.1 30.8,155.8 	"/>
	<path class="st4" d="M171.7,146H36.9l14.4-47.9c1.2-4,4.9-6.9,9.2-6.9l89.3-0.9c4.5-0.1,8.3,2.9,9.4,7.2L171.7,146z"/>
	<path class="st2" d="M161.4,141.5l-114-1.3c-0.5,0-0.9-0.4-0.9-0.9c0-0.1,0-0.2,0.1-0.2l11-34.1c0.1-0.4,0.5-0.6,0.9-0.6h91.8
		c0.4,0,0.7,0.2,0.9,0.6l11.4,35.4c0.2,0.5-0.1,1-0.6,1.2C161.6,141.5,161.5,141.5,161.4,141.5z"/>
	<path class="st3" d="M119.7,96.2H89c-0.2,0-0.5-0.2-0.6-0.7c-0.1-0.4-0.1-0.9,0.1-1.3l2.5-6.4c0.1-0.3,0.4-0.6,0.6-0.6h25.6
		c0.2,0,0.4,0.2,0.6,0.6l2.5,6.4c0.1,0.4,0.2,0.9,0.1,1.3C120.2,95.9,119.9,96.2,119.7,96.2z"/>
	<path class="st5" d="M37,145H16.8v-4.5c0-3,2.4-5.4,5.4-5.4h14.8L37,145L37,145z"/>
	<path class="st5" d="M191.9,145h-20.2v-9.9h14.8c3,0,5.4,2.4,5.4,5.4L191.9,145L191.9,145z"/>
	<path class="st6" d="M109.8,246.4h-7.6v-9.8h7.6V246.4z M109.8,226.9h-7.6v-9.8h7.6V226.9z"/>
	<path class="st6" d="M109.8,287h-7.6v-9.8h7.6V287z M109.8,267.4h-7.6v-9.8h7.6V267.4z"/>
</g>
<g>
	<polygon class="st7" points="206.3,283.8 199.9,283.8 196.8,259 206.3,259 	"/>
	<path class="st8" d="M207.9,290h-20.8v-0.2c0-4.5,3.6-8.1,8.1-8.1h12.7L207.9,290z"/>
	<polygon class="st7" points="289.1,271.7 283.6,275 268.3,255.3 276.4,250.4 	"/>
	<path class="st8" d="M276,286.8l-0.1-0.2c-2.3-3.8-1-8.8,2.8-11.1l10.8-6.5l4.3,7.2L276,286.8z"/>
	<path class="st8" d="M208,278.7h-0.1c-3.1,0-6.2-0.2-9.4-0.6c-1.2-0.1-2.4-0.2-4-0.4h-0.1c-1-0.3-1.1-10.2-0.6-44.1
		c0.2-17.4,0.5-37,0.2-49.6v-0.1l0.1-0.1c11.4-10,26.2-13.7,41.4-10.5h0.1l0.1,0.1c6.3,10.7,15.9,26.1,25.1,41
		c21.2,34.2,27.2,44.2,26.6,45l-0.1,0.1c-1.5,0.7-2.5,1.3-3.4,1.8c-3.1,1.6-4.3,2.3-11.3,5.1l-0.2,0.1l-0.1-0.1
		c-21.5-23.6-39.4-49.8-50.4-74.1c-1.3,8.3-2.9,19.2-4.5,30.6C212.6,255.7,209.4,277.4,208,278.7L208,278.7z"/>
	<path class="st8" d="M241.3,79c2.1-8.9,4-19-0.1-27.2c-2.8-5.7-13.3-7.7-19.3-5.6s-10.3,7.7-12.2,13.7s-1.7,12.6-0.9,19
		C219.8,78.6,230.9,78.4,241.3,79z"/>
	<circle class="st7" cx="222.7" cy="66.1" r="12.9"/>
	<path class="st8" d="M238.5,63.5c0.2-8.9-6.9-16.3-15.9-16.5c-8.9-0.2-16.3,6.9-16.5,15.9c0,0.4,0,0.7,0,1
		C217.2,63.9,228.2,63.9,238.5,63.5z"/>
	<path class="st3" d="M213.7,186.6c12.8-0.1,25.5,2.1,37.6,6.3c0.4-20.3-6.5-40.6-19.2-55.8L232,137l0.1-0.1
		c3.4-9.7,6.9-19.8,10-29.9l-0.1-0.2c-2.2-7.8-6.9-15.6-14.3-24c-1.7-1.7-4.4-1.9-6.2-0.3c-13.3,12.2-20.5,30.4-18.9,47.6v0.1v0.1
		c-5.8,19.8-8,30-9.9,38.9c-1.3,6.5-2.6,12.2-4.9,20.3C196.3,187.5,205,186.6,213.7,186.6z"/>
	<polygon class="st9" points="232.6,124 213.6,165.5 202.7,154.4 	"/>
	<path class="st3" d="M189.9,147l1.3,2.6c0,0.1,0,0.1-0.1,0.1l-0.1,0.1l6.9,13.4c0.4,0.8,0.1,1.7-0.7,2.1l-8.4,4.3
		c-0.8,0.4-1.7,0.1-2.1-0.7l0,0l0,0l-6.7-13h-0.1c-0.1,0-0.1,0-0.1,0l-0.7-1.5c0-0.1,0-0.1,0.1-0.1l0,0l0,0h0.1l-0.3-0.6H179
		c-0.1,0-0.1,0-0.1-0.1l-0.7-1.5c0-0.1,0-0.1,0.1-0.1h0.1l-0.4-0.7h-0.1c-0.1,0-0.1,0-0.1,0l0,0l-0.4-0.8c0-0.1,0-0.1,0-0.1h0.1
		l-0.8-1.6c-0.4-0.8-0.1-1.7,0.7-2.1l8.4-4.3c0.8-0.4,1.7-0.1,2.1,0.7l2,3.7l0.1-0.1C189.9,147,189.9,147,189.9,147z"/>
	<path class="st10" d="M187.3,143.9l10.2,19.8c0.2,0.5,0.1,1.1-0.4,1.3l-8,4.1c-0.5,0.2-1.1,0.1-1.3-0.4l0,0l-10.2-19.8
		c-0.2-0.5-0.1-1.1,0.4-1.3l0,0l1.2-0.6l0.1,0.2c0.2,0.4,0.7,0.6,1.1,0.4l0,0l4.1-2.1c0.4-0.2,0.6-0.7,0.4-1.1l-0.1-0.2l1.3-0.7
		C186.4,143.2,187,143.4,187.3,143.9L187.3,143.9z"/>
	<path class="st7" d="M190.2,168c2.9-0.2,5.1-2.7,4.9-5.6c0-0.3-0.1-0.6-0.1-0.9l15.7-10.3l-8.9-3.9l-13.5,10.3
		c-2.8,0.9-4.3,3.9-3.4,6.7C185.5,166.7,187.8,168.2,190.2,168z"/>
	<path class="st3" d="M205.3,160.6l-0.2-0.1c-3.7-2.8-7.9-5.6-11.9-8.3L193,152l0.2-0.2c8.6-10,17.1-20.4,25.3-30.5c0,0,0,0,0-0.1
		l0.1-0.1l0.1-0.1l0,0h0.1h-0.2l-2.6-20c-2.3-3.1-2.8-9.4,0.2-13.7c3.1-4.5,9.7-6,14.1-3.2c2.3,1.6,3.9,4.1,4.1,6.9
		c0.3,2.5-0.5,5-2.2,6.9c1.1,10.6,1.1,20,1.2,29.2v0.1l-0.1,0.1c-8.8,11.2-18.5,22.3-27.9,33.1L205.3,160.6z"/>
</g>
<g>
	<g>
		<g>
			<g>
				<g>
					<g>
						<g>
							<g>
								<g>
									<g>
										<g>
											<g>
												<g>
													<path class="st2" d="M165.7,66l-8-1.5c-3.4,2.1-7.5,3.4-11.8,3.5c-12.5,0.2-22.7-9.9-22.9-22.3s9.9-22.7,22.3-22.9
														c12.5-0.2,22.7,9.9,22.9,22.3c0.1,5.2-1.7,10-4.6,13.8l0,0L165.7,66z"/>
												</g>
												<g>
													<g>
														<path class="st11" d="M165.7,66c0,0,0-0.2-0.1-0.4c-0.1-0.4-0.2-0.7-0.4-1.3c-0.4-1.2-0.9-3-1.5-5.3
															c0-0.1-0.1-0.1-0.1-0.1l0,0l0,0l0.1,0.1c1.8-2.3,3.7-5.8,4.4-10.3c0.4-2.2,0.4-4.8-0.1-7.3c-0.4-2.6-1.3-5.3-2.9-7.7
															c-1.5-2.6-3.6-4.8-6.2-6.7c-2.6-1.9-5.7-3.3-9-3.9c-3.4-0.6-7-0.5-10.5,0.5c-0.9,0.2-1.7,0.6-2.6,0.9
															c-0.4,0.2-0.9,0.4-1.3,0.6c-0.4,0.2-0.9,0.4-1.2,0.6c-0.7,0.5-1.6,0.9-2.3,1.5l-1.1,0.9l-1,0.9
															c-5.4,5.1-7.7,12.6-6.9,19.2c0.4,3.3,1.5,6.5,3.2,9.2c1.6,2.7,3.8,5,6.1,6.5c4.8,3.4,10.1,4.5,14.6,4.2
															c4.6-0.2,8.1-1.9,10.7-3.5H158c2.6,0.4,4.6,0.7,5.9,1c0.7,0.1,1.2,0.2,1.5,0.2C165.5,65.9,165.7,66,165.7,66
															s-0.2-0.1-0.5-0.1c-0.4-0.1-0.9-0.2-1.5-0.4c-1.3-0.2-3.3-0.7-5.9-1.1h-0.1c-2.6,1.5-6.1,3.1-10.7,3.4
															c-4.4,0.2-9.8-0.9-14.4-4.2c-2.3-1.7-4.4-3.8-6.1-6.5c-1.6-2.6-2.7-5.7-3.1-9c-0.9-6.5,1.5-14,6.8-18.9l1-0.9l1.1-0.9
															c0.7-0.6,1.5-1,2.3-1.5c0.4-0.2,0.7-0.4,1.2-0.6s0.7-0.4,1.2-0.6c0.9-0.4,1.7-0.7,2.6-0.9c3.4-0.9,7-1.1,10.3-0.5
															c3.3,0.6,6.4,2,8.9,3.8c2.6,1.9,4.6,4.2,6.1,6.6s2.4,5.1,2.9,7.7s0.5,5,0.2,7.2c-0.7,4.5-2.6,7.9-4.2,10.3v0.1h0.1
															l0,0l-0.2-0.1c0.7,2.2,1.2,4,1.5,5.1c0.2,0.6,0.4,1,0.4,1.3C165.6,65.9,165.7,66,165.7,66z"/>
													</g>
												</g>
											</g>
										</g>
									</g>
								</g>
							</g>
						</g>
					</g>
				</g>
			</g>
		</g>
	</g>
	<g>
		<g>
			<g>
				<g>
					<g>
						<g>
							<g>
								<g>
									<polygon class="st4" points="135.1,46 138.2,42.5 144.9,47.9 154.8,36.5 158.1,39.7 144.7,54.3 									"/>
								</g>
							</g>
						</g>
					</g>
				</g>
			</g>
		</g>
	</g>
</g>
</svg>
